# This file uses centimeters as units for non-parametric coordinates.

mtllib FrontRailing3_R.mtl
g default
v -581.917358 241.767914 229.984863
v -568.411011 209.742218 109.356644
v -575.164185 231.778809 169.670761
v -534.321106 254.339874 226.479218
v -528.787598 244.697769 167.772903
v -523.254089 222.357513 109.066566
v -665.750610 215.292114 236.938629
v -658.810791 201.148468 172.873596
v -651.871033 178.566071 108.808540
v -596.651184 206.877045 99.650673
v -608.477478 241.643616 216.239731
v -607.954956 202.289764 99.650681
v -619.820679 237.191147 216.629379
v -605.478271 230.493195 220.401291
v -604.663086 232.244446 219.878143
v -592.458435 196.195358 99.650681
v -593.224609 194.289093 99.650681
v -616.005981 227.791245 220.268082
v -614.189880 227.073700 220.700531
v -601.907288 190.765518 99.650673
v -603.765625 191.616959 99.650673
v -637.693359 224.424957 217.474365
v -530.095032 258.599091 208.908112
v -529.095703 259.637848 226.264786
v -525.143921 247.507767 226.828629
v -631.376221 213.761230 235.237930
v -636.652344 225.426788 234.830978
v -632.884216 214.090698 217.826767
v -632.332825 212.840683 219.287735
v -526.535522 247.822861 209.406250
v -526.062317 246.553116 210.877640
v -665.429443 214.533661 237.260696
v -660.153320 202.867996 237.667694
v -661.128540 201.944412 221.718719
v -661.707764 203.184143 220.260223
v -666.490662 213.528549 219.905594
v -517.553833 253.292892 248.824570
v -518.023682 254.632095 247.415512
v -588.748657 232.694107 254.105896
v -589.174805 234.040924 252.688889
v -597.864624 260.946442 252.691055
v -598.277100 262.301544 254.108948
v -525.261230 282.606049 248.825760
v -524.999084 281.213287 247.414688
v -518.023438 254.631393 256.751892
v -517.752441 253.239029 255.342026
v -589.175476 234.048004 262.025238
v -588.748657 232.697510 260.606964
v -525.457092 282.555420 255.339890
v -524.999023 281.214447 256.751068
v -597.865112 260.947937 262.027405
v -598.277100 262.301544 260.607849
v -657.820007 208.970398 259.380524
v -658.332092 210.287613 257.964905
v -668.661804 237.529617 257.963501
v -669.170959 238.848114 259.379059
v -669.170959 238.849258 265.884918
v -668.661621 237.530762 267.299896
v -658.333069 210.294815 267.301270
v -657.820007 208.973831 265.881409
v -587.478516 224.397629 228.241699
v -587.997070 225.717300 226.831192
v -596.695496 251.301163 226.836685
v -597.008545 252.684692 228.246613
v -587.997681 225.719376 236.167557
v -587.671814 224.337219 234.759216
v -596.696472 251.304321 236.173035
v -597.198425 252.627533 234.759857
v -657.529968 200.981567 233.514908
v -658.112549 202.274872 232.104630
v -668.511047 228.158691 232.112473
v -524.853760 271.414612 221.559280
v -517.892029 246.112564 221.558884
v -517.415955 244.776184 222.968430
v -517.613953 244.721420 229.485535
v -517.891968 246.112442 230.895264
v -524.853882 271.415192 230.895691
v -668.512695 228.163315 241.448837
v -658.113647 202.277786 241.440994
v -657.740723 200.906021 240.034348
v -668.987000 229.492233 240.030640
v -525.318542 272.753784 229.484436
v -525.123230 272.806305 222.970016
v -668.987000 229.492233 233.526779
v -586.089600 251.783112 229.900482
v -581.950073 246.759277 180.055695
v -656.393616 229.451904 235.850189
v -651.855591 222.677307 187.434418
v -530.851440 266.412506 225.776581
v -527.390564 261.241699 175.968506
v -517.842773 256.112244 248.082382
v -517.842773 256.112244 224.308990
v -516.749329 259.477631 224.308990
v -516.749329 259.477631 248.082382
v -517.842773 262.843018 224.308990
v -517.842773 262.843018 248.082382
v -520.705566 264.922943 224.308990
v -520.705566 264.922943 248.082382
v -524.244141 264.922943 224.308990
v -524.244141 264.922943 248.082382
v -527.106934 262.843018 224.308990
v -527.106934 262.843018 248.082382
v -528.200378 259.477631 224.308990
v -528.200378 259.477631 248.082382
v -527.106934 256.112244 224.308990
v -527.106934 256.112244 248.082382
v -524.244141 254.032333 224.308990
v -524.244141 254.032333 248.082382
v -520.705566 254.032333 224.308990
v -520.705566 254.032333 248.082382
v -521.091248 229.963348 99.650673
v -528.084839 265.093201 211.490326
v -532.773132 226.427979 99.650673
v -539.799805 261.757935 212.019379
v -526.143250 253.798462 215.884140
v -525.167297 255.452911 215.319351
v -517.924438 218.839981 99.650665
v -518.868225 217.008591 99.650665
v -536.881958 252.116592 215.848831
v -535.140381 251.236969 216.290421
v -527.841858 214.292831 99.650673
v -529.609375 215.315582 99.650673
vt -1.157900 0.584159
vt -1.383623 0.592268
vt -1.369502 0.423743
vt -1.141645 0.429683
vt -1.361171 0.248926
vt -1.133176 0.266740
vt -1.021073 0.430262
vt -1.034192 0.579980
vt -1.015668 0.271638
vt 2.363281 -0.700195
vt 1.926758 -0.701172
vt 1.925031 -0.736563
vt 2.375393 -0.736530
vt 2.376502 -0.284901
vt 1.947565 -0.284919
vt 1.943065 -0.315670
vt 2.373501 -0.315656
vt 2.365234 -0.876953
vt 2.377336 -0.840649
vt 1.926871 -0.840583
vt 1.927734 -0.875977
vt 1.924805 -0.741201
vt 2.376953 -0.741211
vt 1.942572 -0.320295
vt 2.371529 -0.320283
vt 2.572266 -0.419922
vt 2.109375 -0.407227
vt 2.109375 -0.461914
vt 2.570313 -0.474609
vt 2.697592 -0.478161
vt 2.698954 -0.423474
vt 2.195313 -0.037109
vt 2.195313 -0.108398
vt 2.660156 -0.113281
vt 2.660156 -0.041992
vt 2.787436 -0.114761
vt 2.787436 -0.043176
vt -2.353259 0.369954
vt -2.352708 0.363961
vt -2.225840 0.365582
vt -2.226578 0.371582
vt -2.226563 0.371582
vt -1.763482 0.375347
vt -1.763686 0.381347
vt -2.351889 0.315755
vt -2.224609 0.317383
vt -1.763672 0.327148
vt -2.183594 0.251953
vt -2.310874 0.253433
vt -2.310874 0.187920
vt -2.183594 0.186441
vt -1.723633 0.247559
vt -1.724530 0.181595
vt 0.545562 0.477104
vt 0.545838 0.480622
vt 0.730889 0.481070
vt 0.730615 0.477558
vt 0.917952 0.488403
vt 0.917895 0.484890
vt 0.731017 0.484523
vt 0.731106 0.487952
vt 0.545472 0.560115
vt 0.545513 0.563626
vt 0.732372 0.561906
vt 0.732492 0.558387
vt 0.732622 0.561904
vt 0.919731 0.560189
vt 0.919645 0.556677
vt 0.542717 0.450404
vt 0.542912 0.453947
vt 0.729079 0.454405
vt 0.729191 0.450870
vt 0.914141 0.461860
vt 0.914123 0.458344
vt 0.729072 0.457894
vt 0.729348 0.461412
vt 0.544717 0.374242
vt 0.544407 0.377764
vt 0.730989 0.380289
vt 0.731141 0.376758
vt 0.917706 0.382807
vt 0.917811 0.379282
vt 0.731384 0.376761
vt 0.915666 0.478016
vt 0.915602 0.451339
vt 0.732823 0.353992
vt 0.731532 0.370133
vt 0.920262 0.372679
vt 0.921806 0.356534
vt 0.544296 0.460958
vt 0.544197 0.487505
vt 0.543842 0.351430
vt 0.542549 0.367588
vt 1.967983 1.349072
vt 1.968258 1.352719
vt 1.786627 1.352719
vt 1.786375 1.349070
vt 1.402117 1.400757
vt 1.402112 1.397772
vt 1.586796 1.397773
vt 1.586723 1.400679
vt 1.773369 1.456324
vt 1.773242 1.459139
vt 1.586800 1.459141
vt 1.586916 1.456240
vt 1.402112 1.459149
vt 1.402132 1.456165
vt 1.746059 1.201756
vt 1.746179 1.204771
vt 1.559067 1.204771
vt 1.558989 1.201671
vt 1.605253 1.332305
vt 1.604997 1.328652
vt 1.786627 1.328663
vt 1.786876 1.332307
vt 1.745935 1.139409
vt 1.746307 1.142411
vt 1.559182 1.142503
vt 1.559066 1.139409
vt 1.374305 1.142589
vt 1.374285 1.139411
vt 1.604741 1.349066
vt 1.374290 1.201593
vt 1.797502 1.251782
vt 1.797993 1.268503
vt 1.612295 1.268501
vt 1.611790 1.251778
vt 1.968529 1.332312
vt 1.773123 1.400598
vt 1.983455 1.251779
vt 1.983455 1.268511
vt 1.157294 1.283333
vt 1.181649 1.411113
vt 1.042083 1.418222
vt 1.018288 1.291228
vt 1.335996 1.271822
vt 1.356310 1.398676
vt 0.299072 0.614258
vt 0.033783 0.614258
vt 0.033783 0.653809
vt 0.299072 0.653809
vt 0.299072 0.653809
vt 0.033783 0.653809
vt 0.033783 0.693359
vt 0.299072 0.693359
vt 0.299072 0.693359
vt 0.033783 0.693359
vt 0.033783 0.732910
vt 0.299072 0.732910
vt 0.299072 0.732910
vt 0.033783 0.732910
vt 0.033783 0.772339
vt 0.299072 0.772339
vt 0.299072 0.772339
vt 0.033783 0.772339
vt 0.033783 0.811890
vt 0.299072 0.811890
vt 0.299072 0.811890
vt 0.033783 0.811890
vt 0.033783 0.851440
vt 0.299072 0.851440
vt 0.299072 0.851440
vt 0.033783 0.851440
vt 0.033783 0.890869
vt 0.299072 0.890869
vt 0.299072 0.890869
vt 0.033783 0.890869
vt 0.033783 0.930420
vt 0.299072 0.930420
vt 0.299072 0.930420
vt 0.033783 0.930420
vt 0.033783 0.969879
vt 0.299072 0.969879
vt 0.299072 0.969879
vt 0.033783 0.969879
vt 0.033783 1.009392
vt 0.299072 1.009392
vt 2.359375 -0.420898
vt 1.936523 -0.421875
vt 1.936523 -0.458988
vt 2.373228 -0.458127
vt 2.415565 0.135889
vt 2.003453 0.136297
vt 2.000453 0.104422
vt 2.412564 0.104382
vt 2.367188 -0.606445
vt 2.381027 -0.569253
vt 1.941406 -0.569215
vt 1.941406 -0.605469
vt 1.936523 -0.463854
vt 2.375000 -0.462891
vt 2.000250 0.099617
vt 2.410580 0.099646
vn 0.295114 -0.934742 0.197904
vn 0.326844 -0.920400 0.214564
vn 0.326844 -0.920400 0.214564
vn 0.291269 -0.914742 0.280017
vn 0.291269 -0.914742 0.280017
vn 0.329756 -0.876498 0.350732
vn 0.329756 -0.876498 0.350732
vn 0.288845 -0.886139 0.362390
vn 0.267167 -0.945996 0.183612
vn 0.267167 -0.945996 0.183612
vn 0.295114 -0.934742 0.197904
vn 0.291269 -0.914742 0.280017
vn 0.258595 -0.896077 0.360798
vn 0.258595 -0.896077 0.360799
vn 0.291269 -0.914742 0.280017
vn 0.288845 -0.886139 0.362390
vn 0.929737 0.367890 -0.015665
vn 0.929737 0.367890 -0.015665
vn 0.965916 0.258011 0.020916
vn 0.973911 0.224707 0.031702
vn 0.459457 -0.836865 0.297585
vn 0.471807 -0.830228 0.296848
vn 0.233947 -0.924487 0.300987
vn 0.247515 -0.920853 0.301273
vn -0.929738 -0.367885 0.015720
vn -0.863161 -0.501051 0.062462
vn -0.880394 -0.471405 0.051810
vn -0.929738 -0.367885 0.015720
vn 0.965916 0.258011 0.020916
vn 0.471807 -0.830228 0.296848
vn 0.459457 -0.836865 0.297585
vn 0.973911 0.224707 0.031702
vn 0.233947 -0.924487 0.300987
vn -0.880394 -0.471405 0.051810
vn -0.863161 -0.501051 0.062462
vn 0.247515 -0.920853 0.301273
vn 0.059668 0.062895 0.996235
vn 0.057451 0.065048 0.996227
vn 0.057515 0.064981 0.996228
vn 0.059760 0.062821 0.996234
vn 0.060586 0.062157 0.996226
vn 0.060586 0.062157 0.996226
vn 0.059668 0.062895 0.996235
vn 0.059760 0.062821 0.996234
vn -0.280081 0.959091 -0.041231
vn -0.280021 0.959108 -0.041238
vn -0.329545 0.943482 -0.035237
vn -0.329604 0.943462 -0.035230
vn -0.329604 0.943462 -0.035230
vn -0.329545 0.943482 -0.035237
vn -0.356165 0.933860 -0.032424
vn -0.356165 0.933860 -0.032424
vn 0.208527 -0.702815 -0.680123
vn 0.208527 -0.702815 -0.680123
vn -0.024278 -0.162831 -0.986355
vn 0.323421 -0.945119 -0.046349
vn 0.323421 -0.945119 -0.046349
vn -0.024278 -0.162831 -0.986355
vn -0.027314 -0.166729 -0.985624
vn 0.274264 -0.960805 -0.040422
vn -0.060585 -0.062165 -0.996225
vn -0.060585 -0.062165 -0.996225
vn -0.059777 -0.062824 -0.996233
vn -0.024278 -0.162831 -0.986355
vn -0.024278 -0.162831 -0.986355
vn -0.059777 -0.062824 -0.996233
vn -0.057545 -0.064987 -0.996226
vn -0.027314 -0.166729 -0.985624
vn 0.329580 -0.943470 0.035222
vn 0.356171 -0.933858 0.032417
vn 0.356171 -0.933858 0.032417
vn 0.323421 -0.945119 -0.046349
vn 0.280064 -0.959096 0.041230
vn 0.329580 -0.943470 0.035222
vn 0.323421 -0.945119 -0.046349
vn 0.274264 -0.960805 -0.040422
vn 0.343485 -0.921840 -0.179525
vn -0.056193 -0.069368 -0.996007
vn -0.053517 -0.065426 -0.996421
vn 0.283706 -0.942433 -0.177006
vn -0.057116 -0.064678 -0.996270
vn 0.244687 -0.953346 -0.176802
vn 0.283706 -0.942433 -0.177006
vn -0.053517 -0.065426 -0.996421
vn -0.089940 0.018050 -0.995784
vn -0.367954 0.913400 -0.174101
vn -0.297463 0.938661 -0.174444
vn -0.081535 0.025497 -0.996344
vn -0.081535 0.025497 -0.996344
vn -0.297463 0.938661 -0.174444
vn -0.262626 0.948888 -0.175040
vn -0.082228 0.029344 -0.996181
vn 0.088496 -0.013259 0.995988
vn 0.372323 -0.910977 0.177472
vn 0.309370 -0.934153 0.177902
vn 0.081182 -0.022102 0.996454
vn 0.271317 -0.946042 0.177177
vn 0.081986 -0.026873 0.996271
vn 0.081182 -0.022102 0.996454
vn 0.309370 -0.934153 0.177902
vn -0.346480 0.922294 0.171244
vn 0.053857 0.074744 0.995747
vn 0.052871 0.068752 0.996232
vn -0.275508 0.945420 0.174003
vn 0.056834 0.066883 0.996141
vn -0.239772 0.954980 0.174708
vn -0.275508 0.945420 0.174003
vn 0.052871 0.068752 0.996232
vn -0.057116 -0.064678 -0.996270
vn -0.053517 -0.065426 -0.996421
vn -0.081535 0.025497 -0.996344
vn -0.082228 0.029344 -0.996181
vn 0.271317 -0.946042 0.177177
vn 0.309370 -0.934153 0.177902
vn 0.283706 -0.942433 -0.177006
vn 0.244687 -0.953346 -0.176802
vn 0.052871 0.068752 0.996232
vn 0.081182 -0.022102 0.996454
vn 0.081986 -0.026873 0.996271
vn 0.056834 0.066883 0.996141
vn -0.297463 0.938661 -0.174444
vn -0.275508 0.945420 0.174003
vn -0.239772 0.954980 0.174708
vn -0.262626 0.948888 -0.175040
vn 0.053857 0.074744 0.995747
vn 0.088496 -0.013259 0.995988
vn 0.081182 -0.022102 0.996454
vn 0.052871 0.068752 0.996232
vn 0.283706 -0.942433 -0.177006
vn 0.309370 -0.934153 0.177902
vn 0.372323 -0.910977 0.177472
vn 0.343485 -0.921840 -0.179525
vn -0.081535 0.025497 -0.996344
vn -0.053517 -0.065426 -0.996421
vn -0.056193 -0.069368 -0.996007
vn -0.089940 0.018050 -0.995784
vn -0.367954 0.913400 -0.174101
vn -0.346480 0.922294 0.171244
vn -0.275508 0.945420 0.174003
vn -0.297463 0.938661 -0.174444
vn 0.317798 -0.931182 -0.178617
vn -0.056548 -0.073796 -0.995669
vn -0.052765 -0.068492 -0.996255
vn 0.280507 -0.943377 -0.177078
vn -0.056009 -0.067585 -0.996140
vn 0.249284 -0.952171 -0.176716
vn 0.280507 -0.943377 -0.177078
vn -0.052765 -0.068492 -0.996255
vn -0.089688 0.018090 -0.995806
vn -0.343326 0.922629 -0.175734
vn -0.294653 0.939497 -0.174711
vn -0.081787 0.026451 -0.996299
vn -0.081787 0.026451 -0.996299
vn -0.294653 0.939497 -0.174711
vn -0.267361 0.947555 -0.175094
vn -0.082680 0.030445 -0.996111
vn 0.088460 -0.015034 0.995966
vn 0.346890 -0.921228 0.176087
vn 0.306775 -0.935119 0.177317
vn 0.081500 -0.023393 0.996399
vn 0.275480 -0.944914 0.176775
vn 0.082535 -0.028300 0.996186
vn 0.081500 -0.023393 0.996399
vn 0.306775 -0.935119 0.177317
vn -0.320087 0.931647 0.171984
vn 0.055378 0.077846 0.995426
vn 0.052272 0.071522 0.996068
vn -0.273134 0.946084 0.174134
vn 0.055757 0.069602 0.996015
vn -0.244184 0.953808 0.174999
vn -0.273134 0.946084 0.174134
vn 0.052272 0.071522 0.996068
vn -0.056009 -0.067585 -0.996140
vn -0.052765 -0.068492 -0.996255
vn -0.081787 0.026451 -0.996299
vn -0.082680 0.030445 -0.996111
vn 0.275480 -0.944914 0.176775
vn 0.306775 -0.935119 0.177317
vn 0.280507 -0.943377 -0.177078
vn 0.249284 -0.952171 -0.176716
vn 0.052272 0.071522 0.996068
vn 0.081500 -0.023393 0.996399
vn 0.082535 -0.028300 0.996186
vn 0.055757 0.069602 0.996015
vn -0.294653 0.939497 -0.174711
vn -0.273134 0.946084 0.174134
vn -0.244184 0.953808 0.174999
vn -0.267361 0.947555 -0.175094
vn 0.055378 0.077846 0.995426
vn 0.088460 -0.015034 0.995966
vn 0.081500 -0.023393 0.996399
vn 0.052272 0.071522 0.996068
vn 0.280507 -0.943377 -0.177078
vn 0.306775 -0.935119 0.177317
vn 0.346890 -0.921228 0.176087
vn 0.317798 -0.931182 -0.178617
vn -0.081787 0.026451 -0.996299
vn -0.052765 -0.068492 -0.996255
vn -0.056548 -0.073796 -0.995669
vn -0.089688 0.018090 -0.995806
vn -0.343326 0.922629 -0.175734
vn -0.320087 0.931647 0.171984
vn -0.273134 0.946084 0.174134
vn -0.294653 0.939497 -0.174711
vn -0.288888 0.926653 -0.240537
vn -0.289021 0.948020 -0.133134
vn -0.262730 0.957626 -0.118005
vn -0.262730 0.957626 -0.118005
vn -0.323167 0.935793 -0.140903
vn -0.323167 0.935794 -0.140903
vn -0.289021 0.948020 -0.133134
vn -0.288888 0.926653 -0.240537
vn 0.809018 -0.587784 0.000000
vn 0.809018 -0.587784 0.000000
vn 1.000000 0.000000 0.000000
vn 1.000000 0.000000 0.000000
vn 1.000000 0.000000 0.000000
vn 1.000000 0.000000 0.000000
vn 0.809017 0.587785 0.000000
vn 0.809017 0.587785 0.000000
vn 0.809017 0.587785 0.000000
vn 0.809017 0.587785 0.000000
vn 0.309016 0.951057 0.000000
vn 0.309016 0.951057 0.000000
vn 0.309016 0.951057 0.000000
vn 0.309016 0.951057 0.000000
vn -0.309016 0.951057 0.000000
vn -0.309016 0.951057 0.000000
vn -0.309016 0.951057 0.000000
vn -0.309016 0.951057 0.000000
vn -0.809017 0.587785 0.000000
vn -0.809017 0.587785 0.000000
vn -0.809017 0.587785 0.000000
vn -0.809017 0.587785 0.000000
vn -1.000000 0.000000 0.000000
vn -1.000000 0.000000 0.000000
vn -1.000000 0.000000 0.000000
vn -1.000000 0.000000 0.000000
vn -0.809018 -0.587784 0.000000
vn -0.809018 -0.587784 0.000000
vn -0.809018 -0.587784 0.000000
vn -0.809018 -0.587784 0.000000
vn -0.309016 -0.951057 0.000000
vn -0.309016 -0.951057 0.000000
vn -0.309016 -0.951057 0.000000
vn -0.309016 -0.951057 0.000000
vn 0.309016 -0.951057 0.000000
vn 0.309016 -0.951057 0.000000
vn 0.309016 -0.951057 0.000000
vn 0.309016 -0.951057 0.000000
vn 0.809018 -0.587784 0.000000
vn 0.809018 -0.587784 0.000000
vn 0.960633 0.276499 -0.027077
vn 0.960633 0.276499 -0.027077
vn 0.986649 0.162514 0.010589
vn 0.991412 0.129003 0.021481
vn 0.378508 -0.875344 0.300839
vn 0.392248 -0.869605 0.299880
vn 0.147933 -0.940158 0.306951
vn 0.159930 -0.938154 0.307066
vn -0.960633 -0.276490 0.027159
vn -0.906707 -0.415130 0.074493
vn -0.920537 -0.385347 0.064183
vn -0.960633 -0.276489 0.027159
vn 0.986649 0.162514 0.010589
vn 0.392248 -0.869605 0.299880
vn 0.378508 -0.875344 0.300839
vn 0.991412 0.129003 0.021481
vn 0.147933 -0.940158 0.306951
vn -0.920537 -0.385347 0.064183
vn -0.906707 -0.415130 0.074493
vn 0.159930 -0.938154 0.307066
s off
g FrontRailing3_R
usemtl Boat_large_mdlSG2
f 1/1/1 7/2/2 8/3/3 3/4/4
f 3/4/5 8/3/6 9/5/7 2/6/8
f 5/7/9 4/8/10 1/1/11 3/4/12
f 6/9/13 5/7/14 3/4/15 2/6/16
usemtl Boat_large_mdlSG1
f 10/10/17 11/11/18 15/12/19 16/13/20
f 17/14/21 14/15/22 19/16/23 20/17/24
f 12/18/25 21/19/26 18/20/27 13/21/28
f 15/12/29 14/22/30 17/23/31 16/13/32
f 19/16/33 18/24/34 21/25/35 20/17/36
f 26/26/37 25/27/38 24/28/39 27/29/40
f 32/30/41 33/31/42 26/26/43 27/29/44
f 24/32/45 23/33/46 22/34/47 27/35/48
f 27/35/49 22/34/50 36/36/51 32/37/52
f 34/38/53 35/39/54 28/40/55 29/41/56
f 29/42/57 28/40/58 30/43/59 31/44/60
f 35/39/61 36/45/62 22/46/63 28/40/64
f 28/40/65 22/46/66 23/47/67 30/43/68
f 26/48/69 33/49/70 34/50/71 29/51/72
f 25/52/73 26/48/74 29/51/75 31/53/76
usemtl Boat_large_mdlSG
f 53/54/77 54/55/78 40/56/79 39/57/80
f 38/58/81 37/59/82 39/60/83 40/61/84
f 55/62/85 56/63/86 42/64/87 41/65/88
f 41/65/89 42/66/90 43/67/91 44/68/92
f 59/69/93 60/70/94 48/71/95 47/72/96
f 46/73/97 45/74/98 47/75/99 48/76/100
f 57/77/101 58/78/102 51/79/103 52/80/104
f 50/81/105 49/82/106 52/83/107 51/79/108
f 38/58/109 40/61/110 41/65/111 44/68/112
f 46/73/113 48/76/114 39/57/115 37/84/116
f 51/79/117 47/72/118 45/85/119 50/81/120
f 42/86/121 52/87/122 49/88/123 43/89/124
f 58/78/125 59/69/126 47/72/127 51/79/128
f 39/57/129 48/76/130 60/90/131 53/54/132
f 41/65/133 40/61/134 54/91/135 55/62/136
f 56/92/137 57/93/138 52/87/139 42/86/140
f 69/94/141 70/95/142 62/96/143 61/97/144
f 73/98/145 74/99/146 61/100/147 62/101/148
f 71/102/149 84/103/150 64/104/151 63/105/152
f 63/105/153 64/104/154 83/106/155 72/107/156
f 79/108/157 80/109/158 66/110/159 65/111/160
f 75/112/161 76/113/162 65/114/163 66/115/164
f 81/116/165 78/117/166 67/118/167 68/119/168
f 77/120/169 82/121/170 68/119/171 67/118/172
f 73/98/173 62/101/174 63/105/175 72/107/176
f 75/112/177 66/115/178 61/97/179 74/122/180
f 67/118/181 65/111/182 76/123/183 77/120/184
f 64/124/185 68/125/186 82/126/187 83/127/188
f 78/117/189 79/108/190 65/111/191 67/118/192
f 61/97/193 66/115/194 80/128/195 69/94/196
f 63/105/197 62/101/198 70/129/199 71/102/200
f 84/130/201 81/131/202 68/125/203 64/124/204
usemtl Boat_large_mdlSG9
f 86/132/205 85/133/206 89/134/207 90/135/208
f 88/136/209 87/137/210 85/133/211 86/132/212
usemtl Boat_large_mdlSG1
f 91/138/213 92/139/214 93/140/215 94/141/216
f 94/142/217 93/143/218 95/144/219 96/145/220
f 96/146/221 95/147/222 97/148/223 98/149/224
f 98/150/225 97/151/226 99/152/227 100/153/228
f 100/154/229 99/155/230 101/156/231 102/157/232
f 102/158/233 101/159/234 103/160/235 104/161/236
f 104/162/237 103/163/238 105/164/239 106/165/240
f 106/166/241 105/167/242 107/168/243 108/169/244
f 108/170/245 107/171/246 109/172/247 110/173/248
f 110/174/249 109/175/250 92/176/251 91/177/252
f 111/178/253 112/179/254 116/180/255 117/181/256
f 118/182/257 115/183/258 120/184/259 121/185/260
f 113/186/261 122/187/262 119/188/263 114/189/264
f 116/180/265 115/190/266 118/191/267 117/181/268
f 120/184/269 119/192/270 122/193/271 121/185/272
