# This file uses centimeters as units for non-parametric coordinates.

mtllib FrontRailing5_R.mtl
g default
v -225.210236 324.626282 206.949585
v -225.654312 311.683014 207.830383
v -216.230865 325.118713 189.140518
v -361.171631 298.585510 197.032562
v -265.117371 317.153717 191.366989
v -264.420349 318.222961 208.736130
v -261.946899 305.747223 209.462814
v -360.323303 299.664520 214.394547
v -357.849792 287.188385 215.121033
v -358.983429 287.488007 197.679382
v -358.627808 286.196930 199.164719
v -262.895233 306.064117 192.012115
v -262.586365 304.764740 193.500839
v -216.628296 313.612244 189.928757
v -217.404526 312.138123 191.468292
v -378.234741 295.835876 215.583603
v -379.103912 294.757507 198.222626
v -376.925537 283.657776 198.870026
v -376.558411 282.368927 200.354385
v -375.761169 283.359802 216.309921
v -280.279175 288.119324 99.650681
v -287.330658 318.403076 196.269653
v -292.250549 285.808411 99.650673
v -299.308472 316.129425 196.357727
v -286.597931 307.139252 201.090240
v -285.454773 308.685272 200.519363
v -278.081238 276.540192 99.650681
v -279.188599 274.816498 99.650681
v -297.432159 306.409454 200.608368
v -295.796783 305.393097 201.157883
v -288.382874 273.041656 99.650673
v -290.054504 274.239197 99.650673
v -360.729919 272.379211 99.650673
v -367.489990 304.309692 197.856323
v -372.557373 269.399048 99.650665
v -379.339996 301.461060 198.184006
v -366.105194 293.025146 202.481033
v -365.050812 294.629303 201.909729
v -358.001495 261.029297 99.650673
v -359.020508 259.239960 99.650673
v -376.900513 291.779388 202.237961
v -375.206024 290.837372 202.732712
v -368.105286 256.950867 99.650681
v -369.831482 258.059662 99.650681
v -224.089523 319.176788 206.764252
v -250.219421 315.211365 207.886337
v -247.748856 307.399841 157.994843
v -206.000870 315.870300 171.103409
v -375.315308 261.845642 108.266174
v -377.585480 283.403961 160.331116
v -380.011292 292.515625 215.538864
v -245.278259 289.915833 108.103340
v -187.912262 308.972839 125.437477
v -187.912262 322.102417 125.437469
v -223.918839 330.541107 206.427750
v -252.683121 326.054474 207.636429
v -205.915543 328.120911 170.935150
v -251.696106 319.140808 158.244186
v -251.058838 308.390137 126.353836
v -387.034393 303.098450 215.302399
v -385.246216 297.444672 165.612961
v -218.228943 340.065186 210.434387
v -218.147202 338.618835 211.828018
v -216.713470 338.810913 210.396271
v -216.831390 313.486267 210.470627
v -218.207581 313.637695 211.827774
v -218.093674 311.907166 210.585373
v -216.831619 311.725098 203.945892
v -218.095047 310.092987 204.071609
v -218.217667 311.237244 202.491959
v -216.712601 338.862518 203.923004
v -218.162292 338.599731 202.492447
v -218.252426 340.060516 203.903122
v -378.639526 279.193787 212.423569
v -378.932404 280.577454 211.009048
v -384.414337 305.663513 211.009888
v -384.625092 307.064056 212.421707
v -384.795349 307.027618 218.933777
v -384.414368 305.663635 220.346207
v -378.943420 280.576263 220.345993
v -378.639526 279.193787 218.930344
v -189.469833 327.870544 129.733353
v -187.689514 326.659637 129.749451
v -220.690674 335.238983 207.345032
v -222.030609 336.530365 206.612564
v -193.402390 325.641785 129.679367
v -192.197174 327.263489 129.697403
v -225.077408 335.962219 205.129715
v -226.354095 334.470459 204.750320
v -185.840714 307.713715 129.684921
v -187.443817 306.390198 129.679382
v -222.552246 311.416046 208.285477
v -221.198532 312.965393 208.253815
v -189.737778 306.786072 129.679382
v -191.257080 308.266815 129.679382
v -228.622940 311.696198 207.959885
v -227.013184 310.432617 208.219391
vt 0.424072 0.390137
vt 0.362305 0.394531
vt 0.364324 0.319590
vt 0.371347 0.312555
vt 0.426270 0.309082
vt 0.847168 -0.423828
vt 0.835938 -0.478516
vt 0.998047 -0.475586
vt 0.998535 -0.421875
vt 1.399414 -0.468750
vt 1.399414 -0.414063
vt 0.919922 -0.023438
vt 0.879395 -0.094727
vt 1.082031 -0.096680
vt 1.082031 -0.025391
vt 1.482422 -0.101563
vt 1.483398 -0.029297
vt -1.052717 0.367673
vt -1.052783 0.361677
vt -0.651706 0.351848
vt -0.651890 0.357911
vt -0.651822 0.357909
vt -0.458798 0.347944
vt -0.463276 0.354071
vt -1.052734 0.313477
vt -0.651367 0.303223
vt -0.449463 0.299316
vt -0.614258 0.235352
vt -1.015625 0.239746
vt -1.016516 0.174229
vt -0.614702 0.169838
vt -0.463135 0.233887
vt -0.427010 0.167920
vt 1.557696 -0.102266
vt 1.558673 -0.030000
vt -1.128308 0.363773
vt -1.128009 0.315470
vt -1.128253 0.369784
vt -1.052751 0.367673
vt -1.090899 0.240567
vt -1.091791 0.175049
vt 1.474454 -0.467343
vt 1.474689 -0.412656
vt 0.138306 0.391113
vt -0.232788 0.390137
vt -0.233219 0.352607
vt 0.154353 0.353379
vt 0.793118 -0.384737
vt 0.433441 -0.384758
vt 0.430816 -0.417008
vt 0.790868 -0.416988
vt -0.379639 2.178711
vt -0.363605 2.215979
vt -0.751408 2.216794
vt -0.750977 2.179688
vt -0.233276 0.347677
vt 0.156306 0.348633
vt 0.430849 -0.421875
vt 0.788966 -0.421845
vt -0.279785 0.057617
vt -0.654297 0.056641
vt -0.654727 0.019531
vt -0.264842 0.020368
vt 0.384183 -0.335906
vt 0.019562 -0.335815
vt 0.016433 -0.367315
vt 0.381933 -0.368161
vt -0.273438 0.183105
vt -0.258508 0.220321
vt -0.649789 0.221140
vt -0.648926 0.183594
vt -0.654785 0.014664
vt -0.262939 0.015625
vt 0.016255 -0.372067
vt 0.379993 -0.373007
vt -0.304321 0.297285
vt -0.159156 0.347750
vt -0.305366 0.427396
vt -0.159156 0.347750
vt -0.201712 0.461194
vt -0.310025 0.551630
vt -0.245296 0.549372
vt -0.622934 0.431223
vt -0.625562 0.287295
vt -0.304321 0.297285
vt -0.627230 0.565646
vt 0.146316 1.258439
vt 0.306995 1.240023
vt 0.315805 1.325374
vt 0.203486 1.370124
vt 0.315805 1.325374
vt 0.332952 1.450554
vt 0.259241 1.455342
vt 0.656126 1.311224
vt 0.678081 1.436385
vt 1.244946 1.349074
vt 1.244946 1.352719
vt 0.828988 1.351632
vt 0.829434 1.348629
vt 1.014810 1.201526
vt 1.014618 1.204769
vt 0.598908 1.204317
vt 0.599429 1.201493
vt 1.014804 1.139409
vt 1.014817 1.142653
vt 0.599572 1.142844
vt 0.599615 1.139443
vt 2.388421 0.929247
vt 2.391540 0.929300
vt 2.391630 0.945484
vt 2.388654 0.945574
vt 2.391957 0.925898
vt 2.453918 0.925057
vt 2.454843 0.928255
vt 2.458147 0.928107
vt 2.462908 0.944176
vt 2.459467 0.944506
vt 2.460750 0.948119
vt 2.392351 0.949046
vt 1.041782 1.456106
vt 1.041735 1.459147
vt 0.625373 1.459152
vt 0.624953 1.456172
vt 1.244946 1.332301
vt 0.829440 1.331852
vt 1.041746 1.400818
vt 0.624796 1.401050
vt 1.248784 1.251773
vt 1.249224 1.268499
vt 0.819447 1.268551
vt 0.819508 1.251745
vt 1.086801 -0.168949
vt 1.296500 -0.168923
vt 1.296500 -0.175892
vt 1.086801 -0.176944
vt 1.082584 -0.032642
vt 1.307167 -0.033631
vt 1.305598 -0.081618
vt 1.081905 -0.082733
vt 1.087313 0.061088
vt 1.304289 0.061012
vt 1.304289 0.054642
vt 1.087313 0.052118
vt 1.083764 0.197025
vt 1.302992 0.196129
vt 1.304821 0.148060
vt 1.084561 0.148025
vt 1.296500 -0.165525
vt 1.087002 -0.165934
vt 1.296500 -0.179387
vt 1.086801 -0.179960
vt 1.305448 -0.030515
vt 1.082622 -0.029815
vt 1.304289 0.064804
vt 1.087365 0.063664
vt 0.332952 1.450554
vt 0.315805 1.325374
vt 0.315805 1.325374
vt 0.146316 1.258439
vt 0.203486 1.370124
vt -0.201712 0.461194
vt -0.305366 0.427396
vt -0.305366 0.427396
vt -0.305366 0.427396
vt -0.305366 0.427396
vt -0.310025 0.551630
vt -0.622934 0.431223
vn 0.892921 0.000001 0.450214
vn 0.892921 0.000001 0.450214
vn 0.892921 0.000001 0.450214
vn 0.892921 0.000001 0.450214
vn 0.892921 0.000001 0.450214
vn 0.034403 0.065812 0.997239
vn 0.034403 0.065812 0.997239
vn 0.042655 0.066766 0.996857
vn 0.042560 0.066755 0.996861
vn 0.042560 0.066755 0.996861
vn 0.042655 0.066766 0.996857
vn 0.048318 0.067603 0.996542
vn 0.048349 0.067609 0.996540
vn -0.163150 0.985091 -0.054565
vn -0.163150 0.985091 -0.054565
vn -0.183378 0.981622 -0.052838
vn -0.183396 0.981618 -0.052836
vn -0.183396 0.981618 -0.052836
vn -0.183378 0.981622 -0.052838
vn -0.201017 0.978258 -0.051024
vn -0.201031 0.978255 -0.051023
vn 0.196333 -0.980073 -0.030184
vn -0.026153 -0.173671 -0.984456
vn -0.022075 -0.171715 -0.984899
vn 0.179581 -0.983236 -0.031591
vn 0.179581 -0.983236 -0.031591
vn -0.022075 -0.171715 -0.984899
vn -0.023211 -0.132742 -0.990879
vn 0.155705 -0.982233 -0.104757
vn -0.022075 -0.171715 -0.984899
vn -0.026153 -0.173671 -0.984456
vn -0.048310 -0.067616 -0.996541
vn -0.042107 -0.066786 -0.996878
vn -0.023211 -0.132742 -0.990879
vn -0.022075 -0.171715 -0.984899
vn -0.042107 -0.066786 -0.996878
vn -0.034402 -0.066037 -0.997224
vn 0.183952 -0.981517 0.052789
vn 0.201042 -0.978253 0.051027
vn 0.196333 -0.980073 -0.030184
vn 0.179581 -0.983236 -0.031591
vn 0.163366 -0.985057 0.054534
vn 0.183952 -0.981517 0.052789
vn 0.179581 -0.983236 -0.031591
vn 0.155705 -0.982233 -0.104757
vn -0.201031 0.978255 -0.051023
vn -0.201017 0.978258 -0.051024
vn -0.211820 0.976021 -0.050164
vn -0.211820 0.976021 -0.050164
vn -0.026153 -0.173671 -0.984456
vn -0.051552 -0.068233 -0.996337
vn -0.051552 -0.068233 -0.996337
vn -0.048310 -0.067616 -0.996541
vn 0.112922 -0.736319 -0.667146
vn 0.112922 -0.736319 -0.667146
vn -0.026153 -0.173671 -0.984456
vn 0.196333 -0.980073 -0.030184
vn 0.201042 -0.978253 0.051027
vn 0.211827 -0.976018 0.050174
vn 0.211827 -0.976018 0.050174
vn 0.196333 -0.980073 -0.030184
vn 0.048349 0.067609 0.996540
vn 0.048318 0.067603 0.996542
vn 0.051553 0.068231 0.996337
vn 0.051553 0.068231 0.996337
vn 0.981696 0.190102 0.011611
vn 0.981696 0.190102 0.011611
vn 0.996248 0.070000 0.050884
vn 0.997329 0.041694 0.059968
vn 0.290970 -0.905211 0.309725
vn 0.299018 -0.902661 0.309501
vn 0.053005 -0.950324 0.306716
vn 0.068448 -0.949098 0.307453
vn -0.981696 -0.190101 -0.011594
vn -0.941357 -0.335299 0.037701
vn -0.951669 -0.305887 0.027558
vn -0.981696 -0.190101 -0.011594
vn 0.996248 0.070000 0.050884
vn 0.299018 -0.902661 0.309501
vn 0.290970 -0.905211 0.309725
vn 0.997329 0.041694 0.059968
vn 0.053005 -0.950324 0.306716
vn -0.951669 -0.305887 0.027558
vn -0.941357 -0.335299 0.037701
vn 0.068448 -0.949098 0.307453
vn 0.971524 0.236710 -0.010454
vn 0.971524 0.236709 -0.010454
vn 0.992246 0.120861 0.028990
vn 0.995379 0.087177 0.040258
vn 0.337356 -0.887181 0.314803
vn 0.349730 -0.882608 0.314152
vn 0.103607 -0.942757 0.316978
vn 0.117917 -0.940943 0.317367
vn -0.971526 -0.236701 0.010507
vn -0.923099 -0.379706 0.060915
vn -0.936216 -0.347916 0.049546
vn -0.971526 -0.236701 0.010507
vn 0.992246 0.120861 0.028990
vn 0.349730 -0.882608 0.314152
vn 0.337356 -0.887181 0.314803
vn 0.995379 0.087177 0.040258
vn 0.103607 -0.942757 0.316978
vn -0.936216 -0.347916 0.049546
vn -0.923099 -0.379706 0.060915
vn 0.117917 -0.940943 0.317367
vn 0.179960 -0.916539 0.357169
vn 0.152246 -0.885220 0.439553
vn 0.172497 -0.952831 0.249715
vn 0.152246 -0.885220 0.439553
vn 0.140371 -0.972900 0.183743
vn 0.172497 -0.952831 0.249715
vn 0.172497 -0.952831 0.249715
vn 0.140371 -0.972900 0.183743
vn 0.170146 -0.972138 0.161238
vn 0.140371 -0.972900 0.183743
vn 0.154972 -0.973381 0.168859
vn 0.170146 -0.972138 0.161238
vn 0.186678 -0.914525 0.358881
vn 0.186678 -0.914525 0.358881
vn 0.179960 -0.916539 0.357169
vn 0.172497 -0.952831 0.249715
vn 0.180717 -0.969671 0.164557
vn 0.180717 -0.969671 0.164557
vn 0.172497 -0.952831 0.249715
vn 0.170146 -0.972138 0.161238
vn -0.158641 0.897888 -0.410646
vn -0.205690 0.926089 -0.316307
vn -0.175557 0.954491 -0.241093
vn -0.171286 0.959617 -0.223150
vn -0.175557 0.954491 -0.241093
vn -0.167375 0.977287 -0.129984
vn -0.154729 0.977681 -0.142121
vn -0.171286 0.959617 -0.223150
vn -0.170061 0.976995 -0.128686
vn -0.170061 0.976995 -0.128686
vn -0.167375 0.977287 -0.129984
vn -0.175557 0.954491 -0.241093
vn 0.196959 -0.976721 -0.084987
vn -0.046668 -0.059588 -0.997132
vn -0.035561 -0.049561 -0.998138
vn 0.196301 -0.978975 -0.055450
vn 0.067394 -0.038825 0.996971
vn 0.212778 -0.940820 0.263785
vn 0.208667 -0.929177 0.305103
vn 0.066181 -0.034916 0.997197
vn -0.190811 0.965515 0.177121
vn 0.046051 0.062204 0.997001
vn 0.047079 0.069624 0.996462
vn -0.176765 0.971109 0.160319
vn -0.176765 0.971109 0.160319
vn 0.986542 0.045763 0.156975
vn 0.985169 0.045384 -0.165475
vn -0.192479 0.965505 -0.175362
vn 0.986542 0.045763 0.156975
vn 0.047079 0.069624 0.996462
vn 0.066181 -0.034916 0.997197
vn 0.988085 -0.036559 0.149504
vn 0.988085 -0.036559 0.149504
vn 0.208667 -0.929177 0.305103
vn 0.196301 -0.978975 -0.055450
vn 0.976859 -0.051057 -0.207703
vn 0.976859 -0.051057 -0.207703
vn -0.035561 -0.049561 -0.998138
vn -0.051621 0.053979 -0.997207
vn 0.985169 0.045384 -0.165475
vn -0.067653 0.042710 -0.996794
vn -0.209385 0.962139 -0.174488
vn -0.192479 0.965505 -0.175362
vn -0.051621 0.053979 -0.997207
vn 0.986542 0.045763 0.156975
vn 0.988085 -0.036559 0.149504
vn 0.976859 -0.051057 -0.207703
vn 0.985169 0.045384 -0.165475
vn 0.046051 0.062204 0.997001
vn 0.067394 -0.038825 0.996971
vn 0.066181 -0.034916 0.997197
vn 0.047079 0.069624 0.996462
vn 0.212778 -0.940820 0.263785
vn 0.196959 -0.976721 -0.084987
vn 0.196301 -0.978975 -0.055450
vn 0.208667 -0.929177 0.305103
vn -0.046668 -0.059588 -0.997132
vn -0.067653 0.042710 -0.996794
vn -0.051621 0.053979 -0.997207
vn -0.035561 -0.049561 -0.998138
vn -0.209385 0.962139 -0.174488
vn -0.190811 0.965515 0.177121
vn -0.176765 0.971109 0.160319
vn -0.192479 0.965505 -0.175362
vn -0.176765 0.971109 0.160319
vn 0.047079 0.069624 0.996462
vn 0.986542 0.045763 0.156975
vn 0.988085 -0.036559 0.149504
vn 0.066181 -0.034916 0.997197
vn 0.208667 -0.929177 0.305103
vn 0.976859 -0.051057 -0.207703
vn 0.196301 -0.978975 -0.055450
vn -0.035561 -0.049561 -0.998138
vn 0.985169 0.045384 -0.165475
vn -0.051621 0.053979 -0.997207
vn -0.192479 0.965505 -0.175362
vn 0.171230 0.984451 -0.039190
vn 0.257230 0.966350 -0.000321
vn -0.349179 0.901643 -0.255175
vn -0.386665 0.881963 -0.269502
vn 0.914744 -0.034367 0.402570
vn 0.915560 -0.018810 0.401741
vn 0.916030 0.086609 0.391649
vn 0.915023 0.108608 0.388507
vn -0.297758 -0.949992 -0.094109
vn -0.123719 -0.992290 -0.007398
vn 0.400855 -0.886047 0.232888
vn 0.273475 -0.945313 0.177749
vn -0.907747 0.024277 -0.418814
vn -0.907650 0.025967 -0.418924
vn -0.904696 -0.116070 -0.409942
vn -0.906671 -0.092732 -0.411519
vn 0.916030 0.086609 0.391649
vn 0.257230 0.966350 -0.000321
vn 0.171230 0.984451 -0.039190
vn 0.915023 0.108608 0.388507
vn -0.349179 0.901643 -0.255175
vn -0.907650 0.025967 -0.418924
vn -0.907747 0.024277 -0.418814
vn -0.386665 0.881963 -0.269502
vn 0.400855 -0.886047 0.232888
vn 0.915560 -0.018810 0.401741
vn 0.914744 -0.034367 0.402570
vn 0.273475 -0.945313 0.177749
vn -0.904696 -0.116070 -0.409942
vn -0.123719 -0.992290 -0.007398
vn -0.297758 -0.949992 -0.094109
vn -0.906671 -0.092732 -0.411519
s 1
g FrontRailing5_R
usemtl Boat_large_mdlSG1
f 2/2/1 15/3/2 1/1/3
f 3/5/4 1/1/3 14/4/5
f 1/1/3 15/3/2 14/4/5
s off
f 2/6/6 1/7/7 6/8/8 7/9/9
f 7/9/10 6/8/11 8/10/12 9/11/13
f 1/12/14 3/13/15 5/14/16 6/15/17
f 6/15/18 5/14/19 4/16/20 8/17/21
f 11/18/22 10/19/23 12/20/24 13/21/25
f 13/22/26 12/20/27 14/23/28 15/24/29
f 12/20/30 10/19/31 4/25/32 5/26/33
f 14/23/34 12/20/35 5/26/36 3/27/37
f 7/28/38 9/29/39 11/30/40 13/31/41
f 2/32/42 7/28/43 13/31/44 15/33/45
f 8/17/46 4/16/47 17/34/48 16/35/49
f 10/19/50 18/36/51 17/37/52 4/25/53
f 19/38/54 18/36/55 10/19/56 11/39/57
f 9/29/58 20/40/59 19/41/60 11/30/61
f 9/11/62 8/10/63 16/42/64 20/43/65
f 21/44/66 22/45/67 26/46/68 27/47/69
f 28/48/70 25/49/71 30/50/72 31/51/73
f 23/52/74 32/53/75 29/54/76 24/55/77
f 26/46/78 25/56/79 28/57/80 27/47/81
f 30/50/82 29/58/83 32/59/84 31/51/85
f 33/60/86 34/61/87 38/62/88 39/63/89
f 40/64/90 37/65/91 42/66/92 43/67/93
f 35/68/94 44/69/95 41/70/96 36/71/97
f 38/62/98 37/72/99 40/73/100 39/63/101
f 42/66/102 41/74/103 44/75/104 43/67/105
usemtl Boat_large_mdlSG2
f 52/76/106 53/77/107 47/162/108
f 53/79/109 48/80/110 47/78/111
f 47/165/112 48/161/113 46/81/114
f 48/161/115 45/82/116 46/81/117
f 50/167/118 49/84/119 52/85/120 47/163/121
f 51/86/122 50/83/123 47/164/124 46/166/125
s 2
usemtl Boat_large_mdlSG9
f 54/159/126 59/88/127 58/89/128
s off
f 57/90/129 58/91/130 56/156/131 55/93/132
s 2
f 54/87/126 58/157/128 57/160/133
s off
f 61/94/134 60/95/135 56/92/136 58/158/137
usemtl Boat_large_mdlSG
f 74/96/138 75/97/139 70/98/140 69/99/141
f 80/100/142 81/101/143 67/102/144 66/103/145
f 78/104/146 79/105/147 63/106/148 62/107/149
f 62/108/150 64/109/151 71/110/152 73/111/153
f 64/109/154 63/112/155 66/113/156 65/114/157
f 65/114/158 67/115/159 69/116/160 68/117/161
f 68/117/162 70/118/163 72/119/164 71/110/165
f 76/120/166 77/121/167 73/122/168 72/123/169
f 64/109/170 65/114/171 68/117/172 71/110/173
f 79/105/174 80/100/175 66/103/176 63/106/177
f 81/124/178 74/96/179 69/99/180 67/125/181
f 75/126/182 76/120/183 72/123/184 70/127/185
f 77/128/186 78/129/187 62/130/188 73/131/189
f 62/108/190 63/112/191 64/109/192
f 65/114/193 66/113/194 67/115/195
f 68/117/196 69/116/197 70/118/198
f 71/110/199 72/119/200 73/111/201
f 85/132/202 82/133/203 87/134/204 88/135/205
f 93/136/206 90/137/207 83/138/208 84/139/209
f 97/140/210 94/141/211 91/142/212 92/143/213
f 89/144/214 86/145/215 95/146/216 96/147/217
f 83/148/218 82/133/219 85/132/220 84/149/221
f 87/134/222 86/150/223 89/151/224 88/135/225
f 91/152/226 90/137/227 93/136/228 92/153/229
f 95/154/230 94/141/231 97/140/232 96/155/233
