# This file uses centimeters as units for non-parametric coordinates.

mtllib FrontRailing1_L.mtl
g default
v -954.899231 -67.500992 250.948364
v -888.756165 -110.130844 241.943359
v -819.954224 -147.550705 233.996552
v -818.697937 -148.609467 251.334976
v -813.421753 -136.943573 251.742035
v -887.314392 -111.258484 259.262604
v -879.570496 -100.922653 259.342590
v -945.549683 -58.387711 268.325287
v -953.293335 -68.723801 268.246002
v -947.985535 -58.308422 251.016418
v -947.025513 -57.263947 252.429001
v -881.735107 -101.008484 241.999191
v -880.895447 -99.886383 243.427231
v -815.317932 -137.141739 234.365280
v -814.576172 -135.970612 235.807617
v -940.264404 -77.123161 266.472046
v -941.837830 -75.919144 249.170135
v -934.903015 -66.740448 249.235779
v -933.966736 -65.680634 250.651398
v -932.520691 -66.787132 266.551453
v -801.893311 -136.947647 247.053909
v -802.652527 -138.144104 245.642609
v -866.458679 -104.399155 252.415115
v -865.660645 -103.225609 253.824280
v -881.101440 -128.539505 252.426529
v -881.652039 -129.851059 253.832443
v -817.251953 -162.620895 247.070724
v -816.525818 -161.395615 245.649246
v -802.655396 -138.149963 254.978943
v -802.115417 -136.832886 253.574341
v -865.889282 -103.099205 260.347015
v -866.460876 -104.403343 261.751495
v -817.251953 -162.620895 253.572800
v -816.530396 -161.403091 254.985596
v -881.104675 -128.545456 261.762878
v -881.882507 -129.728424 260.350311
v -930.326721 -67.568794 259.197754
v -929.546997 -66.386360 260.615723
v -945.526489 -92.718842 259.187805
v -946.285278 -93.911156 260.610077
v -946.285278 -93.911156 267.102417
v -945.526245 -92.718178 268.524170
v -930.326965 -67.569206 268.534119
v -929.546997 -66.386360 267.110016
v -937.203247 -64.392181 294.261658
v -938.425354 -63.690449 292.903931
v -936.450562 -63.195709 292.842499
v -952.586914 -89.058220 292.842163
v -953.033936 -87.102211 292.977325
v -951.842102 -87.855118 294.262543
v -936.449646 -63.196342 286.344635
v -938.394714 -63.641357 286.467468
v -937.202820 -64.393814 284.925201
v -951.844116 -87.855576 284.926300
v -953.059265 -87.142899 286.403992
v -952.588196 -89.057426 286.344330
v -803.177612 -143.092133 272.919983
v -803.825073 -144.345291 271.500732
v -871.281555 -104.747604 279.693726
v -872.008301 -105.959572 278.276276
v -886.241455 -129.912140 278.275085
v -886.972900 -131.124451 279.696350
v -818.424988 -169.987015 272.924347
v -817.769653 -168.732773 271.509460
v -803.829163 -144.353180 280.837067
v -803.177612 -143.092133 279.417999
v -872.009766 -105.962074 287.612640
v -871.281555 -104.747604 286.191406
v -818.424988 -169.987015 279.426849
v -817.771606 -168.736603 280.845795
v -886.241028 -129.911514 287.611450
v -886.972900 -131.124451 286.190979
v -806.169250 -140.119797 272.255310
v -806.169250 -140.119797 249.496536
v -805.075745 -143.485184 249.496536
v -805.075745 -143.485184 272.255310
v -806.169250 -146.850571 249.496536
v -806.169250 -146.850571 272.255310
v -809.031982 -148.930496 249.496536
v -809.031982 -148.930496 272.255310
v -812.570557 -148.930496 249.496536
v -812.570557 -148.930496 272.255310
v -815.433289 -146.850571 249.496536
v -815.433289 -146.850571 272.255310
v -816.526794 -143.485184 249.496536
v -816.526794 -143.485184 272.255310
v -815.433289 -140.119797 249.496536
v -815.433289 -140.119797 272.255310
v -812.570557 -138.039871 249.496536
v -812.570557 -138.039871 272.255310
v -809.031982 -138.039871 249.496536
v -809.031982 -138.039871 272.255310
v -822.207336 -159.062119 251.009933
v -809.149048 -154.355865 203.240326
v -904.399963 -96.712029 217.197433
v -928.658447 -101.356827 264.108582
v -940.486328 -94.945129 265.563965
v -914.983398 -90.307159 218.748230
v -933.493835 -86.469360 265.260406
v -834.211853 -70.102562 108.858315
v -883.852844 -78.285980 187.059357
v -956.150818 -70.028061 268.847717
v -901.951965 -62.391464 188.870758
v -847.753113 -54.754852 108.893822
v -817.839417 -150.409241 251.300690
v -793.151001 -139.447800 180.012283
v -768.462585 -121.479584 108.723877
v -870.827026 -120.289703 238.627838
v -789.355103 -112.938400 96.228943
v -780.473206 -119.847809 100.921104
v -861.944946 -127.199127 243.320007
v -782.736755 -103.733040 100.930336
v -784.415344 -104.092834 99.903748
v -865.887146 -111.444138 242.302628
v -864.208618 -111.084351 243.329208
v -775.533447 -111.002335 104.595879
v -775.915161 -109.039703 104.534065
v -857.387085 -116.390991 246.932953
v -857.005310 -118.353630 246.994781
vt 3.388672 -0.422852
vt 3.708984 -0.423828
vt 3.707031 -0.478516
vt 3.388672 -0.476563
vt 3.970747 -0.427747
vt 3.970361 -0.482434
vt 3.478516 -0.050781
vt 3.804688 -0.053711
vt 3.802734 -0.125977
vt 3.478516 -0.122070
vt 4.068017 -0.056846
vt 4.067632 -0.128328
vt -3.628328 0.373722
vt -3.628568 0.379676
vt -3.365289 0.382812
vt -3.364406 0.376770
vt -3.365222 0.382810
vt -3.044967 0.380860
vt -3.045199 0.374877
vt -3.628178 0.325382
vt -3.363281 0.328125
vt -3.044922 0.326660
vt -3.316406 0.264160
vt -3.316406 0.198650
vt -3.579736 0.201390
vt -3.579736 0.266903
vt -3.001953 0.260742
vt -3.001953 0.195226
vt 4.132813 -0.057617
vt 4.132813 -0.128906
vt -3.693269 0.372972
vt -3.693359 0.324707
vt -3.693350 0.378905
vt -3.644531 0.202065
vt -3.644531 0.267578
vt 4.035156 -0.428711
vt 4.035156 -0.483398
vt 2.167479 1.400672
vt 2.343107 1.400565
vt 2.343230 1.397772
vt 2.167692 1.397772
vt 2.520653 1.400479
vt 2.520546 1.397772
vt 2.520477 1.456462
vt 2.343405 1.456349
vt 2.343230 1.459134
vt 2.520546 1.459143
vt 2.167674 1.456229
vt 2.167995 1.459134
vt 2.343340 1.332320
vt 2.509058 1.332316
vt 2.508763 1.328666
vt 2.343052 1.328670
vt 2.674473 1.332304
vt 2.674473 1.328653
vt 2.145309 1.142503
vt 2.323974 1.142379
vt 2.323798 1.139410
vt 2.145309 1.139409
vt 2.504551 1.142275
vt 2.504303 1.139409
vt 2.508463 1.349067
vt 2.674473 1.349045
vt 2.323671 1.201787
vt 2.504756 1.201888
vt 2.700826 1.251781
vt 2.533551 1.251794
vt 2.534148 1.268501
vt 2.700826 1.268484
vt 2.342763 1.349071
vt 2.145109 1.201669
vt 2.366880 1.251786
vt 2.366880 1.268514
vt -0.303542 0.448394
vt -0.109155 0.448596
vt -0.109072 0.452133
vt -0.303171 0.451906
vt -0.393989 0.363326
vt -0.325091 0.369292
vt -0.325325 0.372523
vt -0.394411 0.366677
vt -0.397625 0.362887
vt -0.396184 0.346877
vt -0.392706 0.347456
vt -0.304363 0.376167
vt -0.110602 0.375488
vt -0.110509 0.379015
vt -0.304587 0.379681
vt -0.323676 0.352782
vt -0.320274 0.352930
vt -0.321554 0.369251
vt -0.299870 0.474319
vt -0.107276 0.474937
vt -0.106973 0.478472
vt -0.299537 0.477804
vt -0.392418 0.343953
vt -0.324415 0.349310
vt -0.302869 0.553239
vt -0.108827 0.554590
vt -0.109241 0.558124
vt -0.303240 0.556764
vt 0.090862 0.485681
vt -0.107053 0.484994
vt -0.106949 0.481464
vt 0.090661 0.482156
vt 0.088588 0.555972
vt 0.088299 0.559503
vt -0.108941 0.558120
vt 0.087491 0.459000
vt -0.108669 0.458695
vt -0.108974 0.455151
vt 0.087196 0.455388
vt 0.086946 0.378323
vt -0.110298 0.375476
vt 0.086982 0.374785
vt 0.088844 0.475562
vt 0.088799 0.448807
vt -0.109011 0.352850
vt 0.088757 0.352349
vt 0.087429 0.368443
vt -0.110317 0.369085
vt -0.301306 0.458395
vt -0.301399 0.484310
vt -0.303256 0.353330
vt -0.304539 0.369734
vt 0.347900 0.033203
vt 0.347900 0.073730
vt 0.087524 0.073730
vt 0.087524 0.033203
vt 0.347900 0.073730
vt 0.347900 0.114258
vt 0.087524 0.114258
vt 0.087524 0.073730
vt 0.347900 0.114258
vt 0.347900 0.154785
vt 0.087524 0.154785
vt 0.087524 0.114258
vt 0.347900 0.154785
vt 0.347900 0.195313
vt 0.087524 0.195313
vt 0.087524 0.154785
vt 0.347900 0.195313
vt 0.347900 0.235840
vt 0.087524 0.235840
vt 0.087524 0.195313
vt 0.347900 0.235840
vt 0.347900 0.275879
vt 0.087524 0.275879
vt 0.087524 0.235840
vt 0.347900 0.275879
vt 0.347900 0.316406
vt 0.087524 0.316406
vt 0.087524 0.275879
vt 0.347900 0.316406
vt 0.347900 0.356934
vt 0.087524 0.356934
vt 0.087524 0.316406
vt 0.347900 0.356934
vt 0.347900 0.397461
vt 0.087524 0.397461
vt 0.087524 0.356934
vt 0.347900 0.397461
vt 0.347900 0.437988
vt 0.087524 0.437988
vt 0.087524 0.397461
vt 1.990227 1.241539
vt 1.964858 1.242852
vt 2.007693 1.365286
vt 2.035017 1.364071
vt 1.736532 1.254661
vt 1.761772 1.376219
vt -1.816397 0.602801
vt -1.753959 0.412242
vt -2.043940 0.396493
vt -2.175386 0.610538
vt -1.698511 0.217034
vt -1.914214 0.187210
vt -2.066485 0.394098
vt -2.203154 0.610114
vt -1.931657 0.183372
vt 1.869367 -1.084978
vt 1.871094 -1.107422
vt 1.285156 -1.107422
vt 1.283439 -1.084977
vt 1.231942 -0.935260
vt 1.243164 -0.903320
vt 1.748047 -0.904297
vt 1.737688 -0.936237
vt 1.870004 -1.050953
vt 1.869254 -1.077954
vt 1.283316 -1.077954
vt 1.284076 -1.050953
vt 1.736318 -0.940429
vt 1.230469 -0.939453
vn 0.071635 -0.066273 0.995227
vn 0.082491 -0.070581 0.994089
vn 0.083185 -0.070956 0.994005
vn 0.071312 -0.066182 0.995256
vn 0.087874 -0.073491 0.993417
vn 0.087875 -0.073491 0.993417
vn 0.083185 -0.070956 0.994005
vn 0.082491 -0.070581 0.994089
vn -0.450558 -0.892480 -0.021828
vn -0.511572 -0.859132 -0.013625
vn -0.511445 -0.859208 -0.013642
vn -0.450470 -0.892524 -0.021839
vn -0.511572 -0.859132 -0.013625
vn -0.542654 -0.839906 -0.009255
vn -0.542654 -0.839905 -0.009255
vn -0.511445 -0.859208 -0.013642
vn 0.320643 0.644148 -0.694450
vn 0.320643 0.644147 -0.694451
vn 0.503294 0.861382 -0.068673
vn -0.028546 0.159824 -0.986733
vn 0.503294 0.861382 -0.068673
vn 0.442468 0.894769 -0.060081
vn -0.023608 0.160288 -0.986788
vn -0.028546 0.159824 -0.986733
vn -0.087830 0.073543 -0.993417
vn -0.087829 0.073545 -0.993417
vn -0.028546 0.159824 -0.986733
vn -0.083219 0.071020 -0.993997
vn -0.023608 0.160288 -0.986788
vn -0.071300 0.066207 -0.995255
vn -0.083219 0.071020 -0.993997
vn -0.028546 0.159824 -0.986733
vn 0.512210 0.858754 0.013536
vn 0.503294 0.861382 -0.068673
vn 0.542660 0.839902 0.009253
vn 0.542660 0.839902 0.009253
vn 0.450138 0.892691 0.021880
vn 0.442468 0.894769 -0.060081
vn 0.503294 0.861382 -0.068673
vn 0.512210 0.858754 0.013536
vn -0.606098 -0.795390 -0.000143
vn -0.612474 -0.790491 0.000803
vn -0.009826 0.186357 -0.982433
vn -0.090645 0.076215 -0.992963
vn 0.574902 0.816113 -0.058714
vn -0.009826 0.186357 -0.982433
vn 0.574902 0.816113 -0.058714
vn 0.583277 0.812039 0.019491
vn 0.093657 -0.075369 0.992748
vn 0.093813 -0.075420 0.992729
vn -0.053956 0.085559 -0.994871
vn -0.056564 0.088467 -0.994472
vn 0.460608 0.869804 -0.176864
vn 0.436850 0.882073 -0.176381
vn -0.056564 0.088467 -0.994472
vn -0.074120 0.085340 -0.993591
vn 0.513896 0.838811 -0.179739
vn 0.460608 0.869804 -0.176864
vn -0.122819 0.007184 -0.992403
vn -0.102013 0.004581 -0.994773
vn -0.475893 -0.861923 -0.174973
vn -0.537320 -0.825472 -0.172867
vn -0.102013 0.004581 -0.994773
vn -0.098698 -0.000921 -0.995117
vn -0.460638 -0.869939 -0.176121
vn -0.475893 -0.861923 -0.174973
vn 0.465692 0.867127 0.176694
vn 0.491560 0.852569 0.177472
vn 0.101820 -0.006659 0.994781
vn 0.098055 -0.000147 0.995181
vn 0.491560 0.852569 0.177472
vn 0.549549 0.815740 0.180454
vn 0.119504 -0.014669 0.992725
vn 0.101820 -0.006659 0.994781
vn 0.053661 -0.087430 0.994724
vn 0.056290 -0.090358 0.994317
vn -0.449640 -0.876058 0.174203
vn -0.433336 -0.883991 0.175442
vn 0.056290 -0.090358 0.994317
vn 0.069276 -0.092958 0.993257
vn -0.509547 -0.843172 0.171533
vn -0.449640 -0.876058 0.174203
vn -0.056564 0.088467 -0.994472
vn -0.102013 0.004581 -0.994773
vn -0.122819 0.007184 -0.992403
vn -0.074120 0.085340 -0.993591
vn 0.491560 0.852569 0.177472
vn 0.460608 0.869804 -0.176864
vn 0.513896 0.838811 -0.179739
vn 0.549549 0.815740 0.180454
vn 0.069276 -0.092958 0.993257
vn 0.056290 -0.090358 0.994317
vn 0.101820 -0.006659 0.994781
vn 0.119504 -0.014669 0.992725
vn -0.537320 -0.825472 -0.172867
vn -0.475893 -0.861923 -0.174973
vn -0.449640 -0.876058 0.174203
vn -0.509547 -0.843172 0.171533
vn -0.053956 0.085559 -0.994871
vn -0.098698 -0.000921 -0.995117
vn -0.102013 0.004581 -0.994773
vn -0.056564 0.088467 -0.994472
vn 0.465692 0.867127 0.176694
vn 0.436850 0.882073 -0.176381
vn 0.460608 0.869804 -0.176864
vn 0.491560 0.852569 0.177472
vn 0.056290 -0.090358 0.994317
vn 0.053661 -0.087430 0.994724
vn 0.098055 -0.000147 0.995181
vn 0.101820 -0.006659 0.994781
vn -0.475893 -0.861923 -0.174973
vn -0.460638 -0.869939 -0.176121
vn -0.433336 -0.883991 0.175442
vn -0.449640 -0.876058 0.174203
vn 0.083151 0.003962 0.996529
vn 0.097648 -0.003668 0.995214
vn 0.519956 0.835459 0.177918
vn 0.527497 0.828708 0.187057
vn -0.812695 0.556217 0.173637
vn -0.856620 0.486098 0.172948
vn 0.033467 -0.073750 0.996715
vn 0.083151 0.003962 0.996529
vn 0.527497 0.828708 0.187057
vn 0.506079 0.847241 -0.161453
vn -0.812386 0.558337 -0.168191
vn -0.812695 0.556217 0.173637
vn -0.530249 -0.826663 0.188321
vn -0.496656 -0.850273 0.174266
vn 0.047783 -0.086304 0.995122
vn 0.033467 -0.073750 0.996715
vn -0.856620 0.486098 0.172948
vn -0.858380 0.484812 -0.167753
vn -0.556097 -0.815022 -0.162775
vn -0.530249 -0.826663 0.188321
vn 0.506079 0.847241 -0.161453
vn 0.491945 0.852369 -0.177364
vn -0.049610 0.083807 -0.995246
vn -0.060372 0.095261 -0.993620
vn -0.060372 0.095261 -0.993620
vn -0.113473 0.011959 -0.993469
vn -0.858380 0.484812 -0.167753
vn -0.812386 0.558337 -0.168191
vn -0.113473 0.011959 -0.993469
vn -0.099206 0.001053 -0.995066
vn -0.520480 -0.835947 -0.174050
vn -0.556097 -0.815022 -0.162775
vn -0.053305 0.081075 -0.995282
vn -0.049610 0.083807 -0.995246
vn 0.491945 0.852369 -0.177364
vn 0.436349 0.882013 -0.177914
vn -0.099206 0.001053 -0.995066
vn -0.097134 -0.003739 -0.995264
vn -0.467001 -0.867002 -0.173835
vn -0.520480 -0.835947 -0.174050
vn 0.465822 0.866669 0.178593
vn 0.519956 0.835459 0.177918
vn 0.097648 -0.003668 0.995214
vn 0.095159 0.000013 0.995462
vn 0.050932 -0.084875 0.995089
vn 0.047783 -0.086304 0.995122
vn -0.496656 -0.850273 0.174266
vn -0.443395 -0.879409 0.173322
vn -0.812386 0.558337 -0.168191
vn -0.858380 0.484812 -0.167753
vn -0.856620 0.486098 0.172948
vn -0.812695 0.556217 0.173637
vn -0.053305 0.081075 -0.995282
vn -0.097134 -0.003739 -0.995264
vn -0.099206 0.001053 -0.995066
vn -0.049610 0.083807 -0.995246
vn 0.465822 0.866669 0.178593
vn 0.436349 0.882013 -0.177914
vn 0.491945 0.852369 -0.177364
vn 0.519956 0.835459 0.177918
vn 0.047783 -0.086304 0.995122
vn 0.050932 -0.084875 0.995089
vn 0.095159 0.000013 0.995462
vn 0.097648 -0.003668 0.995214
vn -0.520480 -0.835947 -0.174050
vn -0.467001 -0.867002 -0.173835
vn -0.443395 -0.879409 0.173322
vn -0.496656 -0.850273 0.174266
vn 0.033467 -0.073750 0.996715
vn 0.047783 -0.086304 0.995122
vn 0.097648 -0.003668 0.995214
vn 0.083151 0.003962 0.996529
vn 0.491945 0.852369 -0.177364
vn 0.506079 0.847241 -0.161453
vn 0.527497 0.828708 0.187057
vn 0.519956 0.835459 0.177918
vn -0.099206 0.001053 -0.995066
vn -0.113473 0.011959 -0.993469
vn -0.060372 0.095261 -0.993620
vn -0.049610 0.083807 -0.995246
vn -0.556097 -0.815022 -0.162775
vn -0.520480 -0.835947 -0.174050
vn -0.496656 -0.850273 0.174266
vn -0.530249 -0.826663 0.188321
vn 0.083151 0.003962 0.996529
vn 0.527497 0.828708 0.187057
vn -0.812695 0.556217 0.173637
vn -0.530249 -0.826663 0.188321
vn 0.033467 -0.073750 0.996715
vn -0.856620 0.486098 0.172948
vn 0.506079 0.847241 -0.161453
vn -0.060372 0.095261 -0.993620
vn -0.812386 0.558337 -0.168191
vn -0.113473 0.011959 -0.993469
vn -0.556097 -0.815022 -0.162775
vn -0.858380 0.484812 -0.167753
vn 0.809018 0.587784 0.000000
vn 1.000000 0.000000 0.000000
vn 1.000000 0.000000 0.000000
vn 0.809018 0.587784 0.000000
vn 1.000000 0.000000 0.000000
vn 0.809018 -0.587784 0.000000
vn 0.809018 -0.587784 0.000000
vn 1.000000 0.000000 0.000000
vn 0.809018 -0.587784 0.000000
vn 0.309020 -0.951056 0.000000
vn 0.309020 -0.951056 0.000000
vn 0.809018 -0.587784 0.000000
vn 0.309020 -0.951056 0.000000
vn -0.309020 -0.951056 0.000000
vn -0.309020 -0.951056 0.000000
vn 0.309020 -0.951056 0.000000
vn -0.309020 -0.951056 0.000000
vn -0.809018 -0.587784 0.000000
vn -0.809018 -0.587784 0.000000
vn -0.309020 -0.951056 0.000000
vn -0.809018 -0.587784 0.000000
vn -1.000000 0.000000 0.000000
vn -1.000000 0.000000 0.000000
vn -0.809018 -0.587784 0.000000
vn -1.000000 0.000000 0.000000
vn -0.809018 0.587784 0.000000
vn -0.809018 0.587784 0.000000
vn -1.000000 0.000000 0.000000
vn -0.809018 0.587784 0.000000
vn -0.309020 0.951056 0.000000
vn -0.309020 0.951056 0.000000
vn -0.809018 0.587784 0.000000
vn -0.309020 0.951056 0.000000
vn 0.309020 0.951056 0.000000
vn 0.309020 0.951056 0.000000
vn -0.309020 0.951056 0.000000
vn 0.309020 0.951056 0.000000
vn 0.809018 0.587784 0.000000
vn 0.809018 0.587784 0.000000
vn 0.309020 0.951056 0.000000
vn -0.545173 -0.765282 -0.342243
vn -0.504452 -0.815657 -0.283252
vn -0.504080 -0.813255 -0.290722
vn -0.552805 -0.758249 -0.345639
vn -0.474819 -0.832891 -0.284322
vn -0.475867 -0.843025 -0.250717
vn 0.481091 0.815183 0.322533
vn 0.482635 0.806976 0.340372
vn 0.556074 0.723966 0.408235
vn 0.552689 0.724237 0.412331
vn 0.482635 0.806976 0.340372
vn 0.488503 0.788542 0.373586
vn 0.570927 0.702336 0.425166
vn 0.556074 0.723966 0.408235
vn 0.552689 0.724237 0.412331
vn 0.556074 0.723966 0.408235
vn 0.589912 0.667719 0.454043
vn 0.589912 0.667719 0.454043
vn 0.556074 0.723966 0.408235
vn 0.570927 0.702336 0.425166
vn 0.631837 0.611749 0.475969
vn 0.631837 0.611749 0.475969
vn -0.669637 0.655427 -0.349288
vn -0.727313 0.566884 -0.386857
vn -0.727313 0.566884 -0.386857
vn -0.665904 0.660483 -0.346891
vn 0.778535 -0.465069 0.421420
vn 0.727315 -0.566880 0.386859
vn 0.727315 -0.566880 0.386859
vn 0.775765 -0.471382 0.419509
vn 0.566004 0.740639 0.362068
vn 0.374517 0.889957 0.260219
vn 0.376564 0.888767 0.261329
vn 0.563530 0.743149 0.360782
vn -0.669637 0.655427 -0.349288
vn -0.665904 0.660483 -0.346891
vn 0.376564 0.888767 0.261329
vn 0.374517 0.889957 0.260219
vn 0.566004 0.740639 0.362068
vn 0.563530 0.743149 0.360782
vn 0.778535 -0.465069 0.421420
vn 0.775765 -0.471382 0.419509
s off
g FrontRailing1_L
usemtl Boat_large_mdlSG1
f 5/1/1 7/2/2 6/3/3 4/4/4
s 1
f 20/5/5 16/6/6 6/3/7 7/2/8
s off
f 4/7/9 6/8/10 2/9/11 3/10/12
s 2
f 6/8/13 16/11/14 17/12/15 2/9/16
s 3
f 18/13/17 19/14/18 13/15/19 12/16/20
s off
f 13/17/21 15/18/22 14/19/23 12/16/24
s 4
f 17/20/25 18/13/26 12/16/27 2/21/28
s off
f 14/19/29 3/22/30 2/21/31 12/16/32
s 5
f 7/23/33 13/24/34 19/25/35 20/26/36
s off
f 5/27/37 15/28/38 13/24/39 7/23/40
s 2
f 17/12/15 16/11/14 9/29/41 1/30/42
s 4
f 10/31/43 18/13/26 17/20/25 1/32/44
s 3
f 11/33/45 19/14/18 18/13/17 10/31/46
s 5
f 20/26/36 19/25/35 11/34/47 8/35/48
s 1
f 8/36/49 9/37/50 16/6/6 20/5/5
s off
usemtl Boat_large_mdlSG
f 22/38/51 23/39/52 24/40/53 21/41/54
f 23/39/55 37/42/56 38/43/57 24/40/58
f 39/44/59 25/45/60 26/46/61 40/47/62
f 25/45/63 28/48/64 27/49/65 26/46/66
f 30/50/67 31/51/68 32/52/69 29/53/70
f 31/51/71 44/54/72 43/55/73 32/52/74
f 34/56/75 35/57/76 36/58/77 33/59/78
f 35/57/79 42/60/80 41/61/81 36/58/82
f 23/39/83 25/45/84 39/44/85 37/42/86
f 31/51/87 24/62/88 38/63/89 44/54/90
f 42/60/91 35/57/92 32/64/93 43/65/94
f 40/66/95 26/67/96 36/68/97 41/69/98
f 22/38/99 28/48/100 25/45/101 23/39/102
f 30/50/103 21/70/104 24/62/105 31/51/106
f 35/57/107 34/56/108 29/71/109 32/64/110
f 26/67/111 27/72/112 33/73/113 36/68/114
f 45/74/115 67/75/116 68/76/117 47/77/118
f 46/78/119 49/79/120 50/80/121 45/81/122
f 47/82/123 51/83/124 52/84/125 46/78/126
f 48/85/127 72/86/128 71/87/129 50/88/130
f 49/79/131 55/89/132 56/90/133 48/91/134
f 51/92/135 59/93/136 60/94/137 53/95/138
f 53/96/139 54/97/140 55/89/141 52/84/142
f 54/98/143 61/99/144 62/100/145 56/101/146
f 58/102/147 60/103/148 59/104/149 57/105/150
f 61/99/151 64/106/152 63/107/153 62/108/154
f 66/109/155 68/110/156 67/111/157 65/112/158
f 70/113/159 71/87/160 72/114/161 69/115/162
f 52/84/163 55/89/164 49/79/165 46/78/166
f 58/102/167 64/106/168 61/99/169 60/103/170
f 66/109/171 57/116/172 59/93/173 68/110/174
f 71/87/175 70/113/176 65/117/177 67/75/178
f 62/118/179 63/119/180 69/120/181 72/121/182
f 50/88/183 71/87/184 67/75/185 45/74/186
f 59/93/187 51/92/188 47/122/189 68/110/190
f 61/99/191 54/98/192 53/123/193 60/103/194
f 56/124/195 62/118/196 72/121/197 48/125/198
f 45/81/199 47/82/200 46/78/201
f 48/91/202 50/80/203 49/79/204
f 51/83/205 53/96/206 52/84/207
f 54/97/208 56/90/209 55/89/210
usemtl Boat_large_mdlSG1
f 73/126/211 76/127/212 75/128/213 74/129/214
f 76/130/215 78/131/216 77/132/217 75/133/218
f 78/134/219 80/135/220 79/136/221 77/137/222
f 80/138/223 82/139/224 81/140/225 79/141/226
f 82/142/227 84/143/228 83/144/229 81/145/230
f 84/146/231 86/147/232 85/148/233 83/149/234
f 86/150/235 88/151/236 87/152/237 85/153/238
f 88/154/239 90/155/240 89/156/241 87/157/242
f 90/158/243 92/159/244 91/160/245 89/161/246
f 92/162/247 73/163/248 74/164/249 91/165/250
s 6
usemtl Boat_large_mdlSG9
f 98/166/251 95/167/252 96/168/253 97/169/254
f 96/168/253 95/167/252 94/170/255 93/171/256
s off
usemtl Boat_large_mdlSG2
f 105/172/257 106/173/258 101/174/259 99/175/260
f 106/173/261 107/176/262 100/177/263 101/174/264
f 99/175/265 101/174/266 103/178/267 102/179/268
f 101/174/269 100/177/270 104/180/271 103/178/272
usemtl Boat_large_mdlSG1
f 113/181/273 109/182/274 108/183/275 114/184/276
f 119/185/277 111/186/278 110/187/279 116/188/280
f 117/189/281 112/190/282 115/191/283 118/192/284
f 113/181/285 114/184/286 115/191/287 112/190/288
f 117/193/289 118/194/290 119/185/291 116/188/292
