# This file uses centimeters as units for non-parametric coordinates.

mtllib FrontRailing2_R.mtl
g default
v -669.142517 209.681778 235.938400
v -669.142517 209.681778 258.633362
v -670.235962 213.047165 258.633362
v -670.235962 213.047165 235.938400
v -669.142517 216.412537 258.633362
v -669.142517 216.412537 235.938400
v -666.279724 218.492477 258.633362
v -666.279724 218.492477 235.938400
v -662.741150 218.492477 258.633362
v -662.741150 218.492477 235.938400
v -659.878357 216.412537 258.633362
v -659.878357 216.412537 235.938400
v -659.878357 209.681778 258.633362
v -659.878357 209.681778 235.938400
v -658.784912 213.047165 235.938400
v -658.784912 213.047165 258.633362
v -662.741150 207.601852 258.633362
v -662.741150 207.601852 235.938400
v -666.279724 207.601852 258.633362
v -666.279724 207.601852 235.938400
v -657.820007 208.970398 259.380524
v -658.332092 210.287613 257.964905
v -730.883789 177.170120 266.141998
v -731.576538 178.409042 264.733154
v -743.699463 204.213715 264.735382
v -744.186279 205.546066 266.145172
v -669.170959 238.848114 259.379059
v -668.661804 237.529617 257.963501
v -658.333069 210.294815 267.301270
v -657.820007 208.973831 265.881409
v -731.101379 177.071487 272.662140
v -731.577148 178.410355 274.069519
v -669.170959 238.849258 265.884918
v -668.661621 237.530762 267.299896
v -744.397217 205.448746 272.661255
v -743.699768 204.214386 274.071747
v -803.177612 143.092133 272.919983
v -803.825073 144.345291 271.500732
v -817.769653 168.732773 271.509460
v -818.424988 169.987015 272.924347
v -818.424988 169.987015 279.426849
v -817.771606 168.736603 280.845795
v -803.829163 144.353180 280.837067
v -803.177612 143.092133 279.417999
v -657.529968 200.981567 233.514908
v -658.112549 202.274872 232.104630
v -730.393677 174.604156 238.873917
v -729.820313 173.308868 240.295319
v -742.536438 199.150894 238.882568
v -743.119507 200.446655 240.302567
v -668.987000 229.492233 233.526779
v -668.511047 228.158691 232.112473
v -658.113647 202.277786 241.440994
v -657.740723 200.906021 240.034348
v -729.820313 173.308868 246.793396
v -730.393188 174.602982 248.210266
v -668.987000 229.492233 240.030640
v -668.512695 228.163315 241.448837
v -742.538147 199.154785 248.218918
v -743.119507 200.446655 246.795410
v -801.893311 136.947647 247.053909
v -802.652527 138.144104 245.642609
v -816.525818 161.395615 245.649246
v -817.251953 162.620895 247.070724
v -817.251953 162.620895 253.572800
v -816.530396 161.403091 254.985596
v -802.655396 138.149963 254.978943
v -802.115417 136.832886 253.574341
v -703.262939 214.564423 239.816620
v -698.459229 206.622650 192.353577
v -813.079407 163.321426 250.150940
v -800.654602 158.366882 202.404861
v -656.393616 229.451904 235.850189
v -651.855591 222.677307 187.434418
v -817.839417 150.409241 251.300690
v -768.462585 121.479584 108.723877
v -699.015808 204.786469 239.697906
v -684.988098 166.195313 108.591042
v -793.151001 139.447800 180.012283
v -692.001953 188.994263 174.144470
v -665.750610 215.292114 236.938629
v -658.810791 201.148468 172.873596
v -651.871033 178.566071 108.808540
v -692.834839 197.217529 176.963226
v -832.509033 126.237144 187.840759
v -691.076965 193.119095 165.615784
v -830.834473 122.100327 176.494995
v -827.492615 115.485016 190.982498
v -828.246399 117.156746 191.780746
v -685.048096 189.741150 180.838501
v -683.836121 188.296371 180.016327
v -826.572815 113.021973 180.434036
v -826.206665 112.308296 182.269913
v -682.486328 185.149414 171.303207
v -683.280823 185.633774 169.495667
v -669.989563 177.115005 99.650673
v -685.565002 215.479736 221.839874
v -681.286987 172.530273 99.650673
v -696.873474 210.923965 221.926254
v -682.561279 204.317474 225.966232
v -681.750183 206.079529 225.478668
v -665.706726 166.484070 99.650673
v -666.458008 164.569656 99.650673
v -693.058655 201.523590 225.565125
v -691.246521 200.818512 226.032562
v -675.134888 161.048416 99.650673
v -677.005676 161.902969 99.650673
v -732.701477 188.475555 225.495483
v -726.317627 177.822327 243.254211
v -731.593811 189.488220 242.847137
v -727.978638 178.107788 225.855164
v -727.335632 176.891769 227.308029
v -660.153320 202.867996 237.667694
v -661.128540 201.944412 221.718719
v -661.707764 203.184143 220.260223
v -666.490662 213.528549 219.905594
v -665.429443 214.533661 237.260696
v -818.697937 148.609467 251.334976
v -813.421753 136.943573 251.742035
v -819.954224 147.550705 233.996552
v -815.317932 137.141739 234.365280
v -814.576172 135.970612 235.807617
vt 0.675781 0.337891
vt 0.935547 0.337891
vt 0.935547 0.297363
vt 0.675781 0.297363
vt 0.675781 0.297363
vt 0.935547 0.297363
vt 0.935547 0.256348
vt 0.675781 0.256348
vt 0.675781 0.256348
vt 0.935547 0.256348
vt 0.935547 0.215820
vt 0.675781 0.215820
vt 0.675781 0.215820
vt 0.935547 0.215820
vt 0.935547 0.175293
vt 0.675781 0.175293
vt 0.675781 0.175293
vt 0.935547 0.175293
vt 0.935547 0.134766
vt 0.675781 0.134766
vt 0.935547 0.053711
vt 0.675781 0.053711
vt 0.675781 0.094238
vt 0.935547 0.094238
vt 0.935547 0.094238
vt 0.675781 0.094238
vt 0.675781 0.134766
vt 0.935547 0.134766
vt 0.675781 0.459473
vt 0.935547 0.459473
vt 0.935547 0.418945
vt 0.675781 0.418945
vt 0.675781 0.418945
vt 0.935547 0.418945
vt 0.935547 0.378418
vt 0.675781 0.378418
vt 0.675781 0.378418
vt 0.935547 0.378418
vt 0.935547 0.337891
vt 0.675781 0.337891
vt 0.117401 0.475551
vt 0.117693 0.479123
vt 0.317217 0.479802
vt 0.317231 0.476260
vt 0.519618 0.487417
vt 0.519264 0.483887
vt 0.317261 0.483199
vt 0.317284 0.486732
vt 0.112691 0.555969
vt 0.112583 0.559477
vt 0.316773 0.561556
vt 0.316773 0.558026
vt 0.520674 0.563631
vt 0.520901 0.560107
vt 0.115768 0.455575
vt 0.116060 0.459146
vt 0.315333 0.460006
vt 0.315348 0.456465
vt 0.515204 0.460879
vt 0.514928 0.457366
vt 0.109095 0.368424
vt 0.108927 0.371945
vt 0.315243 0.371478
vt 0.315289 0.367949
vt 0.519087 0.377671
vt 0.519168 0.374155
vt 0.315255 0.374601
vt 0.315227 0.378140
vt 0.516466 0.476975
vt 0.315319 0.449527
vt 0.517388 0.450446
vt 0.317186 0.351780
vt 0.522065 0.367493
vt 0.523360 0.351303
vt 0.114967 0.486030
vt 0.110430 0.352243
vt 0.111411 0.378579
vt 0.113267 0.448604
vt 2.167657 1.397775
vt 2.167479 1.400672
vt 1.967791 1.400656
vt 1.968217 1.397775
vt 1.773123 1.400598
vt 1.773271 1.397772
vt 1.967926 1.397772
vt 2.167674 1.456229
vt 2.167674 1.459137
vt 1.968203 1.459137
vt 1.968041 1.456269
vt 1.967926 1.459132
vt 1.773537 1.459132
vt 1.773369 1.456324
vt 2.343052 1.328670
vt 2.343340 1.332320
vt 2.155655 1.332316
vt 2.155655 1.328670
vt 1.968529 1.332312
vt 1.968258 1.328663
vt 2.155655 1.328680
vt 2.145029 1.139409
vt 2.145309 1.142503
vt 1.942494 1.142470
vt 1.942378 1.139409
vt 1.746307 1.142411
vt 1.746179 1.139409
vt 1.942080 1.139409
vt 2.342763 1.349071
vt 2.155653 1.349067
vt 2.145109 1.201669
vt 1.942242 1.201703
vt 2.366880 1.251786
vt 2.366880 1.268514
vt 2.175168 1.268496
vt 2.175168 1.251792
vt 1.967983 1.349072
vt 1.746059 1.201756
vt 1.983455 1.268511
vt 1.983455 1.251779
vt 1.455131 1.264149
vt 1.472750 1.390385
vt 1.356310 1.398676
vt 1.335996 1.271822
vt 1.680252 1.256558
vt 1.703967 1.379053
vt -1.473190 0.595486
vt -1.816397 0.602801
vt -1.753959 0.412242
vt -1.459916 0.421386
vt -1.698511 0.217034
vt -1.451641 0.241858
vt -1.369502 0.423743
vt -1.383623 0.592268
vt -1.361171 0.248926
vt 1.688477 -0.653320
vt 1.232422 -0.653320
vt 1.230695 -0.689576
vt 1.700583 -0.688775
vt 1.701579 -0.532013
vt 1.251274 -0.531873
vt 1.246774 -0.561868
vt 1.697830 -0.562757
vt 1.691406 -0.821289
vt 1.703527 -0.785792
vt 1.233626 -0.784928
vt 1.235352 -0.820313
vt 1.230613 -0.694323
vt 1.702134 -0.693317
vt 1.246305 -0.566388
vt 1.696087 -0.567380
vt 1.688477 -0.653320
vt 1.232422 -0.653320
vt 1.230701 -0.689578
vt 1.700574 -0.688749
vt 1.701583 -0.531981
vt 1.251274 -0.531875
vt 1.246773 -0.561876
vt 1.697833 -0.562733
vt 1.691406 -0.821289
vt 1.703500 -0.785872
vt 1.233625 -0.784918
vt 1.235352 -0.820313
vt 1.230469 -0.694333
vt 1.702145 -0.693359
vt 1.246175 -0.566406
vt 1.695642 -0.567368
vt 2.990234 -0.431641
vt 2.990234 -0.486328
vt 3.388672 -0.476563
vt 3.388672 -0.422852
vt 3.080078 -0.045898
vt 3.080078 -0.118164
vt 3.478516 -0.122070
vt 3.478516 -0.050781
vt -3.044901 0.380859
vt -3.045199 0.374877
vt -2.644404 0.360233
vt -2.644563 0.366208
vt -3.044922 0.326660
vt -2.644531 0.312012
vt -2.603516 0.256836
vt -3.001953 0.260742
vt -3.001953 0.195226
vt -2.603516 0.191322
vt -2.310874 0.187920
vt -2.310874 0.253433
vt -2.644525 0.366210
vt -2.352708 0.363961
vt -2.353259 0.369954
vt -2.351889 0.315755
vt 2.787436 -0.043176
vt 2.787436 -0.114761
vt 2.698954 -0.423474
vt 2.697592 -0.478161
vn -0.809018 -0.587784 0.000000
vn -0.809018 -0.587784 0.000000
vn -1.000000 -0.000000 0.000000
vn -1.000000 -0.000000 0.000000
vn -1.000000 -0.000000 0.000000
vn -1.000000 -0.000000 0.000000
vn -0.809018 0.587784 0.000000
vn -0.809018 0.587784 0.000000
vn -0.809018 0.587784 0.000000
vn -0.809018 0.587784 0.000000
vn -0.309018 0.951056 0.000000
vn -0.309018 0.951056 0.000000
vn -0.309018 0.951056 0.000000
vn -0.309018 0.951056 0.000000
vn 0.309018 0.951056 0.000000
vn 0.309018 0.951056 0.000000
vn 0.309018 0.951056 0.000000
vn 0.309018 0.951056 0.000000
vn 0.809018 0.587784 0.000000
vn 0.809018 0.587784 0.000000
vn 0.809018 -0.587784 0.000000
vn 0.809018 -0.587784 0.000000
vn 1.000000 -0.000000 0.000000
vn 1.000000 -0.000000 0.000000
vn 1.000000 -0.000000 0.000000
vn 1.000000 -0.000000 0.000000
vn 0.809018 0.587784 0.000000
vn 0.809018 0.587784 0.000000
vn 0.809018 -0.587784 0.000000
vn 0.809018 -0.587784 0.000000
vn 0.309015 -0.951057 0.000000
vn 0.309015 -0.951057 0.000000
vn 0.309015 -0.951057 0.000000
vn 0.309015 -0.951057 0.000000
vn -0.309015 -0.951057 0.000000
vn -0.309015 -0.951057 0.000000
vn -0.309015 -0.951057 0.000000
vn -0.309015 -0.951057 0.000000
vn -0.809018 -0.587784 0.000000
vn -0.809018 -0.587784 0.000000
vn 0.436349 -0.882013 -0.177913
vn -0.053305 -0.081075 -0.995282
vn -0.056500 -0.076937 -0.995434
vn 0.391793 -0.902958 -0.176540
vn -0.056193 -0.069368 -0.996007
vn 0.343485 -0.921840 -0.179525
vn 0.391793 -0.902958 -0.176540
vn -0.056500 -0.076937 -0.995434
vn -0.097134 0.003739 -0.995264
vn -0.467001 0.867002 -0.173835
vn -0.424729 0.888296 -0.174744
vn -0.095580 0.008774 -0.995383
vn -0.095580 0.008774 -0.995383
vn -0.424729 0.888296 -0.174744
vn -0.367954 0.913400 -0.174101
vn -0.089940 0.018050 -0.995784
vn 0.095159 -0.000013 0.995462
vn 0.465822 -0.866669 0.178593
vn 0.420748 -0.889703 0.177200
vn 0.094311 -0.006474 0.995522
vn 0.372323 -0.910977 0.177472
vn 0.088496 -0.013259 0.995988
vn 0.094311 -0.006474 0.995522
vn 0.420748 -0.889703 0.177200
vn -0.443395 0.879409 0.173321
vn 0.050932 0.084875 0.995089
vn 0.054944 0.079288 0.995336
vn -0.400206 0.899658 0.174503
vn 0.053857 0.074744 0.995747
vn -0.346480 0.922294 0.171244
vn -0.400206 0.899658 0.174503
vn 0.054944 0.079288 0.995336
vn -0.056193 -0.069368 -0.996007
vn -0.056500 -0.076937 -0.995434
vn -0.095580 0.008774 -0.995383
vn -0.089940 0.018050 -0.995784
vn 0.372323 -0.910977 0.177472
vn 0.420748 -0.889703 0.177200
vn 0.391793 -0.902958 -0.176540
vn 0.343485 -0.921840 -0.179525
vn 0.054944 0.079288 0.995336
vn 0.094311 -0.006474 0.995522
vn 0.088496 -0.013259 0.995988
vn 0.053857 0.074744 0.995747
vn -0.424729 0.888296 -0.174744
vn -0.400206 0.899658 0.174503
vn -0.346480 0.922294 0.171244
vn -0.367954 0.913400 -0.174101
vn 0.420748 -0.889703 0.177200
vn 0.465822 -0.866669 0.178593
vn 0.436349 -0.882013 -0.177913
vn 0.391793 -0.902958 -0.176540
vn -0.095580 0.008774 -0.995383
vn -0.056500 -0.076937 -0.995434
vn -0.053305 -0.081075 -0.995282
vn -0.097134 0.003739 -0.995264
vn -0.467001 0.867002 -0.173835
vn -0.443395 0.879409 0.173321
vn -0.400206 0.899658 0.174503
vn -0.424729 0.888296 -0.174744
vn 0.050932 0.084875 0.995089
vn 0.095159 -0.000013 0.995462
vn 0.094311 -0.006474 0.995522
vn 0.054944 0.079288 0.995336
vn 0.436850 -0.882073 -0.176380
vn -0.053956 -0.085559 -0.994871
vn -0.057060 -0.078819 -0.995255
vn 0.383223 -0.906125 -0.179102
vn -0.056548 -0.073796 -0.995669
vn 0.317798 -0.931182 -0.178617
vn 0.383223 -0.906125 -0.179102
vn -0.057060 -0.078819 -0.995255
vn -0.098699 0.000921 -0.995117
vn -0.460638 0.869939 -0.176121
vn -0.416391 0.892501 -0.173380
vn -0.096707 0.010737 -0.995255
vn -0.096707 0.010737 -0.995255
vn -0.416391 0.892501 -0.173380
vn -0.343326 0.922629 -0.175734
vn -0.089688 0.018090 -0.995806
vn 0.098055 0.000147 0.995181
vn 0.465692 -0.867127 0.176694
vn 0.414674 -0.892092 0.179491
vn 0.094287 -0.005046 0.995532
vn 0.346890 -0.921228 0.176087
vn 0.088460 -0.015034 0.995966
vn 0.094287 -0.005046 0.995532
vn 0.414674 -0.892092 0.179491
vn -0.433337 0.883991 0.175441
vn 0.053661 0.087430 0.994724
vn 0.053757 0.084412 0.994980
vn -0.393458 0.902982 0.172669
vn 0.055378 0.077846 0.995426
vn -0.320087 0.931647 0.171984
vn -0.393458 0.902982 0.172669
vn 0.053757 0.084412 0.994980
vn -0.057060 -0.078819 -0.995255
vn -0.053956 -0.085559 -0.994871
vn -0.098699 0.000921 -0.995117
vn -0.096707 0.010737 -0.995255
vn 0.414674 -0.892092 0.179491
vn 0.465692 -0.867127 0.176694
vn 0.436850 -0.882073 -0.176380
vn 0.383223 -0.906125 -0.179102
vn 0.053661 0.087430 0.994724
vn 0.098055 0.000147 0.995181
vn 0.094287 -0.005046 0.995532
vn 0.053757 0.084412 0.994980
vn -0.460638 0.869939 -0.176121
vn -0.433337 0.883991 0.175441
vn -0.393458 0.902982 0.172669
vn -0.416391 0.892501 -0.173380
vn -0.056548 -0.073796 -0.995669
vn -0.057060 -0.078819 -0.995255
vn -0.096707 0.010737 -0.995255
vn -0.089688 0.018090 -0.995806
vn 0.346890 -0.921228 0.176087
vn 0.414674 -0.892092 0.179491
vn 0.383223 -0.906125 -0.179102
vn 0.317798 -0.931182 -0.178617
vn 0.053757 0.084412 0.994980
vn 0.094287 -0.005046 0.995532
vn 0.088460 -0.015034 0.995966
vn 0.055378 0.077846 0.995426
vn -0.416391 0.892501 -0.173380
vn -0.393458 0.902982 0.172669
vn -0.320087 0.931647 0.171984
vn -0.343326 0.922629 -0.175734
vn -0.380586 0.890607 -0.248943
vn -0.382857 0.906479 -0.178090
vn -0.324340 0.929742 -0.174307
vn -0.324340 0.929742 -0.174307
vn -0.431979 0.880022 -0.197370
vn -0.431979 0.880022 -0.197370
vn -0.382857 0.906479 -0.178090
vn -0.380586 0.890607 -0.248943
vn 0.383416 -0.889511 0.248520
vn 0.481091 -0.815183 0.322533
vn 0.482635 -0.806976 0.340372
vn 0.380345 -0.875861 0.296993
vn 0.380345 -0.875861 0.296993
vn 0.482635 -0.806976 0.340372
vn 0.488503 -0.788542 0.373586
vn 0.382070 -0.855713 0.348966
vn 0.326144 -0.912773 0.245918
vn 0.326144 -0.912773 0.245918
vn 0.383416 -0.889511 0.248520
vn 0.380345 -0.875861 0.296993
vn 0.330598 -0.879091 0.343372
vn 0.330598 -0.879091 0.343372
vn 0.380345 -0.875861 0.296993
vn 0.382070 -0.855713 0.348966
vn -0.109999 0.357680 0.927343
vn -0.109999 0.357680 0.927343
vn -0.055952 0.256590 0.964899
vn -0.039921 0.226187 0.973266
vn 0.428260 -0.774963 0.464787
vn 0.424856 -0.765456 0.483296
vn 0.453003 -0.856615 0.246978
vn 0.452791 -0.855627 0.250765
vn 0.110015 -0.357667 -0.927346
vn 0.175512 -0.476813 -0.861304
vn 0.163567 -0.455357 -0.875155
vn 0.110015 -0.357667 -0.927346
vn -0.055952 0.256590 0.964899
vn 0.424856 -0.765456 0.483296
vn 0.428260 -0.774963 0.464787
vn -0.039921 0.226187 0.973266
vn 0.453003 -0.856615 0.246978
vn 0.163567 -0.455357 -0.875155
vn 0.175512 -0.476813 -0.861304
vn 0.452791 -0.855627 0.250765
vn 0.927088 0.374845 0.000366
vn 0.927088 0.374845 0.000366
vn 0.962652 0.267988 0.038511
vn 0.971849 0.229868 0.051674
vn 0.458209 -0.829464 0.319428
vn 0.471710 -0.822093 0.318830
vn 0.232495 -0.918870 0.318786
vn 0.249067 -0.914283 0.319455
vn -0.927090 -0.374839 -0.000364
vn -0.858414 -0.510409 0.051075
vn -0.878652 -0.475975 0.037653
vn -0.927090 -0.374839 -0.000364
vn 0.962652 0.267988 0.038511
vn 0.471710 -0.822093 0.318830
vn 0.458209 -0.829464 0.319428
vn 0.971849 0.229868 0.051674
vn 0.232495 -0.918870 0.318786
vn -0.878652 -0.475975 0.037653
vn -0.858414 -0.510409 0.051075
vn 0.249067 -0.914283 0.319455
vn 0.063468 0.063456 0.995965
vn 0.063551 0.063493 0.995957
vn 0.071312 0.066182 0.995256
vn 0.071636 0.066272 0.995227
vn -0.390789 0.920034 -0.028646
vn -0.390695 0.920074 -0.028656
vn -0.450470 0.892525 -0.021840
vn -0.450557 0.892480 -0.021828
vn 0.442468 -0.894769 -0.060080
vn -0.023608 -0.160287 -0.986788
vn -0.021945 -0.159973 -0.986877
vn 0.383980 -0.921789 -0.053518
vn -0.021945 -0.159973 -0.986877
vn -0.023608 -0.160287 -0.986788
vn -0.071300 -0.066206 -0.995255
vn -0.063553 -0.063519 -0.995955
vn 0.390798 -0.920031 0.028640
vn 0.450139 -0.892691 0.021880
vn 0.442468 -0.894769 -0.060080
vn 0.383980 -0.921789 -0.053518
vn 0.356148 -0.933880 0.032031
vn 0.356148 -0.933881 0.032031
vn 0.390798 -0.920031 0.028640
vn 0.383980 -0.921789 -0.053518
vn 0.383980 -0.921789 -0.053518
vn -0.021945 -0.159973 -0.986877
vn 0.208469 -0.702708 -0.680251
vn 0.208469 -0.702708 -0.680251
vn -0.021945 -0.159973 -0.986877
vn -0.063553 -0.063519 -0.995955
vn -0.060585 -0.062162 -0.996226
vn -0.060585 -0.062162 -0.996226
vn -0.356141 0.933883 -0.032038
vn -0.356141 0.933883 -0.032038
vn -0.390695 0.920074 -0.028656
vn -0.390789 0.920034 -0.028646
vn 0.063468 0.063456 0.995965
vn 0.060585 0.062161 0.996226
vn 0.060585 0.062161 0.996226
vn 0.063551 0.063493 0.995957
s off
g FrontRailing2_R
usemtl Boat_large_mdlSG1
f 1/1/1 2/2/2 3/3/3 4/4/4
f 4/5/5 3/6/6 5/7/7 6/8/8
f 6/9/9 5/10/10 7/11/11 8/12/12
f 8/13/13 7/14/14 9/15/15 10/16/16
f 10/17/17 9/18/18 11/19/19 12/20/20
f 13/21/21 14/22/22 15/23/23 16/24/24
f 16/25/25 15/26/26 12/27/27 11/28/28
f 14/29/29 13/30/30 17/31/31 18/32/32
f 18/33/33 17/34/34 19/35/35 20/36/36
f 20/37/37 19/38/38 2/39/39 1/40/40
usemtl Boat_large_mdlSG
f 37/41/41 38/42/42 24/43/43 23/44/44
f 22/45/45 21/46/46 23/47/47 24/48/48
f 39/49/49 40/50/50 26/51/51 25/52/52
f 25/52/53 26/51/54 27/53/55 28/54/56
f 43/55/57 44/56/58 31/57/59 32/58/60
f 30/59/61 29/60/62 32/58/63 31/57/64
f 41/61/65 42/62/66 36/63/67 35/64/68
f 34/65/69 33/66/70 35/67/71 36/68/72
f 22/45/73 24/48/74 25/52/75 28/54/76
f 30/59/77 31/57/78 23/44/79 21/69/80
f 36/68/81 32/70/82 29/71/83 34/65/84
f 26/72/85 35/64/86 33/73/87 27/74/88
f 31/57/89 44/56/90 37/41/91 23/44/92
f 25/52/93 24/48/94 38/75/95 39/49/96
f 40/76/97 41/61/98 35/64/99 26/72/100
f 42/77/101 43/78/102 32/70/103 36/68/104
f 61/79/105 62/80/106 47/81/107 48/82/108
f 46/83/109 45/84/110 48/85/111 47/81/112
f 63/86/113 64/87/114 50/88/115 49/89/116
f 49/89/117 50/90/118 51/91/119 52/92/120
f 67/93/121 68/94/122 55/95/123 56/96/124
f 54/97/125 53/98/126 56/99/127 55/95/128
f 65/100/129 66/101/130 59/102/131 60/103/132
f 58/104/133 57/105/134 60/106/135 59/102/136
f 47/81/137 62/80/138 63/86/139 49/89/140
f 55/95/141 68/94/142 61/107/143 48/108/144
f 66/101/145 67/109/146 56/110/147 59/102/148
f 64/111/149 65/112/150 60/113/151 50/114/152
f 46/83/153 47/81/154 49/89/155 52/92/156
f 54/97/157 55/95/158 48/108/159 45/115/160
f 59/102/161 56/110/162 53/116/163 58/104/164
f 50/114/165 60/113/166 57/117/167 51/118/168
usemtl Boat_large_mdlSG9
f 70/119/169 69/120/170 73/121/171 74/122/172
f 72/123/173 71/124/174 69/120/175 70/119/176
usemtl Boat_large_mdlSG2
f 77/125/177 75/126/178 79/127/179 80/128/180
f 80/128/181 79/127/182 76/129/183 78/130/184
f 82/131/185 81/132/186 77/125/187 80/128/188
f 83/133/189 82/131/190 80/128/191 78/130/192
usemtl Boat_large_mdlSG1
f 84/134/193 85/135/194 89/136/195 90/137/196
f 91/138/197 88/139/198 93/140/199 94/141/200
f 86/142/201 95/143/202 92/144/203 87/145/204
f 89/136/205 88/146/206 91/147/207 90/137/208
f 93/140/209 92/148/210 95/149/211 94/141/212
f 96/150/213 97/151/214 101/152/215 102/153/216
f 103/154/217 100/155/218 105/156/219 106/157/220
f 98/158/221 107/159/222 104/160/223 99/161/224
f 101/152/225 100/162/226 103/163/227 102/153/228
f 105/156/229 104/164/230 107/165/231 106/157/232
f 109/166/233 110/167/234 118/168/235 119/169/236
f 110/170/237 108/171/238 120/172/239 118/173/240
f 122/174/241 121/175/242 111/176/243 112/177/244
f 111/176/245 121/175/246 120/178/247 108/179/248
f 109/180/249 119/181/250 122/182/251 112/183/252
f 114/184/253 113/185/254 109/180/255 112/183/256
f 112/186/257 111/176/258 115/187/259 114/188/260
f 111/176/261 108/179/262 116/189/263 115/187/264
f 117/190/265 116/191/266 108/171/267 110/170/268
f 109/166/269 113/192/270 117/193/271 110/167/272
