# This file uses centimeters as units for non-parametric coordinates.

mtllib FrontRailing2_L.mtl
g default
v -732.701477 -188.475555 225.495483
v -726.317627 -177.822327 243.254211
v -731.593811 -189.488220 242.847137
v -727.978638 -178.107788 225.855164
v -727.335632 -176.891769 227.308029
v -664.110291 -215.033020 237.149323
v -665.170532 -214.028076 219.794159
v -660.386353 -203.684113 220.148651
v -659.808472 -202.443924 221.607285
v -658.834106 -203.367371 237.556305
v -813.421753 -136.943573 251.742035
v -818.697937 -148.609467 251.334976
v -814.576172 -135.970612 235.807617
v -815.317932 -137.141739 234.365280
v -819.954224 -147.550705 233.996552
v -657.529968 -200.981567 233.514908
v -658.112549 -202.274872 232.104630
v -730.393677 -174.604156 238.873917
v -729.820313 -173.308868 240.295319
v -742.536438 -199.150894 238.882568
v -743.119507 -200.446655 240.302567
v -668.987000 -229.492233 233.526779
v -668.511047 -228.158691 232.112473
v -658.113647 -202.277786 241.440994
v -657.740723 -200.906021 240.034348
v -729.820313 -173.308868 246.793396
v -730.393188 -174.602982 248.210266
v -668.987000 -229.492233 240.030640
v -668.512695 -228.163315 241.448837
v -742.538147 -199.154785 248.218918
v -743.119507 -200.446655 246.795410
v -802.652527 -138.144104 245.642609
v -801.893311 -136.947647 247.053909
v -802.115417 -136.832886 253.574341
v -802.655396 -138.149963 254.978943
v -816.530396 -161.403091 254.985596
v -817.251953 -162.620895 253.572800
v -817.251953 -162.620895 247.070724
v -816.525818 -161.395615 245.649246
v -703.262939 -214.564423 239.816620
v -698.459229 -206.622650 192.353577
v -798.080078 -159.582535 202.151642
v -810.312866 -164.612350 249.890610
v -663.506470 -218.663635 188.664215
v -668.110962 -225.730042 236.841766
v -822.207336 -159.062119 251.009933
v -809.149048 -154.355865 203.240326
v -669.142517 -209.681778 235.938400
v -669.142517 -209.681778 258.633362
v -670.235962 -213.047165 258.633362
v -670.235962 -213.047165 235.938400
v -669.142517 -216.412537 258.633362
v -669.142517 -216.412537 235.938400
v -666.279724 -218.492477 258.633362
v -666.279724 -218.492477 235.938400
v -662.741150 -218.492477 258.633362
v -662.741150 -218.492477 235.938400
v -659.878357 -216.412537 258.633362
v -659.878357 -216.412537 235.938400
v -659.878357 -209.681778 258.633362
v -659.878357 -209.681778 235.938400
v -658.784912 -213.047165 235.938400
v -658.784912 -213.047165 258.633362
v -662.741150 -207.601852 258.633362
v -662.741150 -207.601852 235.938400
v -666.279724 -207.601852 258.633362
v -666.279724 -207.601852 235.938400
v -657.820007 -208.970398 259.380524
v -658.332092 -210.287613 257.964905
v -730.883789 -177.170120 266.141998
v -731.576538 -178.409042 264.733154
v -743.699463 -204.213715 264.735382
v -744.186279 -205.546066 266.145172
v -669.170959 -238.848114 259.379059
v -668.661804 -237.529617 257.963501
v -658.333069 -210.294815 267.301270
v -657.820007 -208.973831 265.881409
v -731.101379 -177.071487 272.662140
v -731.577148 -178.410355 274.069519
v -669.170959 -238.849258 265.884918
v -668.661621 -237.530762 267.299896
v -744.397217 -205.448746 272.661255
v -743.699768 -204.214386 274.071747
v -803.825073 -144.345291 271.500732
v -803.177612 -143.092133 272.919983
v -803.177612 -143.092133 279.417999
v -803.829163 -144.353180 280.837067
v -817.771606 -168.736603 280.845795
v -818.424988 -169.987015 279.426849
v -818.424988 -169.987015 272.924347
v -817.769653 -168.732773 271.509460
v -669.989563 -177.115005 99.650673
v -685.565002 -215.479736 221.839874
v -681.286987 -172.530273 99.650673
v -696.873474 -210.923965 221.926254
v -682.561279 -204.317474 225.966232
v -681.750183 -206.079529 225.478668
v -665.706726 -166.484070 99.650673
v -666.458008 -164.569656 99.650673
v -693.058655 -201.523590 225.565125
v -691.246521 -200.818512 226.032562
v -675.134888 -161.048416 99.650673
v -677.005676 -161.902969 99.650673
v -817.839417 -150.409241 251.300690
v -768.462585 -121.479584 108.723877
v -793.151001 -139.447800 180.012283
v -699.015808 -204.786469 239.697906
v -692.001953 -188.994263 174.144470
v -684.988098 -166.195313 108.591042
v -650.346497 -179.135529 108.818542
v -657.282898 -201.707947 172.815079
v -664.219299 -215.775742 236.811630
vt 2.990234 -0.431641
vt 3.388672 -0.422852
vt 3.388672 -0.476563
vt 2.990234 -0.486328
vt 3.080078 -0.045898
vt 3.478516 -0.050781
vt 3.478516 -0.122070
vt 3.080078 -0.118164
vt -3.044901 0.380859
vt -2.644563 0.366208
vt -2.644404 0.360233
vt -3.045199 0.374877
vt -2.644531 0.312012
vt -3.044922 0.326660
vt -2.603516 0.256836
vt -2.603516 0.191322
vt -3.001953 0.195226
vt -3.001953 0.260742
vt 2.781601 -0.114693
vt 2.781601 -0.043122
vt -2.346892 0.364035
vt -2.346055 0.315829
vt -2.644525 0.366210
vt -2.347452 0.370028
vt -2.305039 0.253365
vt -2.305039 0.187852
vt 2.691758 -0.477999
vt 2.693146 -0.423311
vt 2.167657 1.397775
vt 1.968217 1.397775
vt 1.967791 1.400656
vt 2.167479 1.400672
vt 1.773123 1.400598
vt 1.967926 1.397772
vt 1.773271 1.397772
vt 2.167674 1.456229
vt 1.968041 1.456269
vt 1.968203 1.459137
vt 2.167674 1.459137
vt 1.773369 1.456324
vt 1.773537 1.459132
vt 1.967926 1.459132
vt 2.343052 1.328670
vt 2.155655 1.328670
vt 2.155655 1.332316
vt 2.343340 1.332320
vt 1.968529 1.332312
vt 2.155655 1.328680
vt 1.968258 1.328663
vt 2.145029 1.139409
vt 1.942378 1.139409
vt 1.942494 1.142470
vt 2.145309 1.142503
vt 1.746307 1.142411
vt 1.942080 1.139409
vt 1.746179 1.139409
vt 2.155653 1.349067
vt 2.342763 1.349071
vt 1.942242 1.201703
vt 2.145109 1.201669
vt 2.366880 1.251786
vt 2.175168 1.251792
vt 2.175168 1.268496
vt 2.366880 1.268514
vt 1.967983 1.349072
vt 1.746059 1.201756
vt 1.983455 1.251779
vt 1.983455 1.268511
vt 1.455131 1.264149
vt 1.365780 1.269904
vt 1.385420 1.396603
vt 1.472750 1.390385
vt 1.736532 1.254661
vt 1.708392 1.255610
vt 1.732869 1.377636
vt 1.761772 1.376219
vt 0.675781 0.337891
vt 0.675781 0.297363
vt 0.935547 0.297363
vt 0.935547 0.337891
vt 0.675781 0.297363
vt 0.675781 0.256348
vt 0.935547 0.256348
vt 0.935547 0.297363
vt 0.675781 0.256348
vt 0.675781 0.215820
vt 0.935547 0.215820
vt 0.935547 0.256348
vt 0.675781 0.215820
vt 0.675781 0.175293
vt 0.935547 0.175293
vt 0.935547 0.215820
vt 0.675781 0.175293
vt 0.675781 0.134766
vt 0.935547 0.134766
vt 0.935547 0.175293
vt 0.935547 0.053711
vt 0.935547 0.094238
vt 0.675781 0.094238
vt 0.675781 0.053711
vt 0.935547 0.094238
vt 0.935547 0.134766
vt 0.675781 0.134766
vt 0.675781 0.094238
vt 0.675781 0.459473
vt 0.675781 0.418945
vt 0.935547 0.418945
vt 0.935547 0.459473
vt 0.675781 0.418945
vt 0.675781 0.378418
vt 0.935547 0.378418
vt 0.935547 0.418945
vt 0.675781 0.378418
vt 0.675781 0.337891
vt 0.935547 0.337891
vt 0.935547 0.378418
vt 0.117401 0.475551
vt 0.317231 0.476260
vt 0.317217 0.479802
vt 0.117693 0.479123
vt 0.519618 0.487417
vt 0.317284 0.486732
vt 0.317261 0.483199
vt 0.519264 0.483887
vt 0.112691 0.555969
vt 0.316773 0.558026
vt 0.316773 0.561556
vt 0.112583 0.559477
vt 0.520901 0.560107
vt 0.520674 0.563631
vt 0.115768 0.455575
vt 0.315348 0.456465
vt 0.315333 0.460006
vt 0.116060 0.459146
vt 0.515204 0.460879
vt 0.514928 0.457366
vt 0.109095 0.368424
vt 0.315289 0.367949
vt 0.315243 0.371478
vt 0.108927 0.371945
vt 0.519087 0.377671
vt 0.315227 0.378140
vt 0.315255 0.374601
vt 0.519168 0.374155
vt 0.516466 0.476975
vt 0.517388 0.450446
vt 0.315319 0.449527
vt 0.317186 0.351780
vt 0.523360 0.351303
vt 0.522065 0.367493
vt 0.114967 0.486030
vt 0.110430 0.352243
vt 0.111411 0.378579
vt 0.113267 0.448604
vt 1.688477 -0.653320
vt 1.700574 -0.688749
vt 1.230701 -0.689578
vt 1.232422 -0.653320
vt 1.701583 -0.531981
vt 1.697833 -0.562733
vt 1.246773 -0.561876
vt 1.251274 -0.531875
vt 1.691406 -0.821289
vt 1.235352 -0.820313
vt 1.233625 -0.784918
vt 1.703500 -0.785872
vt 1.702145 -0.693359
vt 1.230469 -0.694333
vt 1.695642 -0.567368
vt 1.246175 -0.566406
vt -1.473190 0.595486
vt -1.459916 0.421386
vt -1.753959 0.412242
vt -1.816397 0.602801
vt -1.451641 0.241858
vt -1.698511 0.217034
vt -1.365340 0.423852
vt -1.357007 0.249252
vt -1.451641 0.241858
vt -1.459916 0.421386
vt -1.379500 0.592120
vt -1.473190 0.595486
vn 0.063468 -0.063456 0.995964
vn 0.071635 -0.066273 0.995227
vn 0.071312 -0.066182 0.995256
vn 0.063551 -0.063494 0.995957
vn -0.390790 -0.920034 -0.028646
vn -0.450558 -0.892480 -0.021828
vn -0.450470 -0.892524 -0.021839
vn -0.390695 -0.920074 -0.028656
vn 0.442468 0.894769 -0.060081
vn 0.383980 0.921789 -0.053519
vn -0.021944 0.159973 -0.986878
vn -0.023608 0.160288 -0.986788
vn -0.021944 0.159973 -0.986878
vn -0.063553 0.063519 -0.995955
vn -0.071300 0.066207 -0.995255
vn -0.023608 0.160288 -0.986788
vn 0.390798 0.920031 0.028640
vn 0.383980 0.921789 -0.053519
vn 0.442468 0.894769 -0.060081
vn 0.450138 0.892691 0.021880
vn -0.356141 -0.933883 -0.032044
vn -0.356141 -0.933883 -0.032044
vn -0.390790 -0.920034 -0.028646
vn -0.390695 -0.920074 -0.028656
vn -0.021944 0.159973 -0.986878
vn -0.060586 0.062161 -0.996226
vn -0.060586 0.062161 -0.996226
vn -0.063553 0.063519 -0.995955
vn 0.383980 0.921789 -0.053519
vn 0.208473 0.702714 -0.680244
vn 0.208473 0.702714 -0.680244
vn -0.021944 0.159973 -0.986878
vn 0.356148 0.933880 0.032038
vn 0.356148 0.933880 0.032038
vn 0.383980 0.921789 -0.053519
vn 0.390798 0.920031 0.028640
vn 0.063468 -0.063456 0.995964
vn 0.063551 -0.063494 0.995957
vn 0.060584 -0.062161 0.996226
vn 0.060584 -0.062161 0.996226
vn 0.436850 0.882073 -0.176381
vn 0.383223 0.906125 -0.179102
vn -0.057060 0.078820 -0.995255
vn -0.053956 0.085559 -0.994871
vn -0.056548 0.073796 -0.995669
vn -0.057060 0.078820 -0.995255
vn 0.383223 0.906125 -0.179102
vn 0.317798 0.931182 -0.178617
vn -0.098698 -0.000921 -0.995117
vn -0.096707 -0.010737 -0.995255
vn -0.416390 -0.892501 -0.173380
vn -0.460638 -0.869939 -0.176121
vn -0.096707 -0.010737 -0.995255
vn -0.089688 -0.018090 -0.995806
vn -0.343326 -0.922629 -0.175734
vn -0.416390 -0.892501 -0.173380
vn 0.098055 -0.000147 0.995181
vn 0.094287 0.005047 0.995532
vn 0.414674 0.892092 0.179490
vn 0.465692 0.867127 0.176694
vn 0.346890 0.921228 0.176087
vn 0.414674 0.892092 0.179490
vn 0.094287 0.005047 0.995532
vn 0.088460 0.015034 0.995966
vn -0.433336 -0.883991 0.175442
vn -0.393458 -0.902982 0.172670
vn 0.053757 -0.084412 0.994980
vn 0.053661 -0.087430 0.994724
vn 0.055378 -0.077846 0.995426
vn 0.053757 -0.084412 0.994980
vn -0.393458 -0.902982 0.172670
vn -0.320087 -0.931647 0.171984
vn -0.057060 0.078820 -0.995255
vn -0.096707 -0.010737 -0.995255
vn -0.098698 -0.000921 -0.995117
vn -0.053956 0.085559 -0.994871
vn 0.414674 0.892092 0.179490
vn 0.383223 0.906125 -0.179102
vn 0.436850 0.882073 -0.176381
vn 0.465692 0.867127 0.176694
vn 0.053661 -0.087430 0.994724
vn 0.053757 -0.084412 0.994980
vn 0.094287 0.005047 0.995532
vn 0.098055 -0.000147 0.995181
vn -0.460638 -0.869939 -0.176121
vn -0.416390 -0.892501 -0.173380
vn -0.393458 -0.902982 0.172670
vn -0.433336 -0.883991 0.175442
vn -0.056548 0.073796 -0.995669
vn -0.089688 -0.018090 -0.995806
vn -0.096707 -0.010737 -0.995255
vn -0.057060 0.078820 -0.995255
vn 0.346890 0.921228 0.176087
vn 0.317798 0.931182 -0.178617
vn 0.383223 0.906125 -0.179102
vn 0.414674 0.892092 0.179490
vn 0.053757 -0.084412 0.994980
vn 0.055378 -0.077846 0.995426
vn 0.088460 0.015034 0.995966
vn 0.094287 0.005047 0.995532
vn -0.416390 -0.892501 -0.173380
vn -0.343326 -0.922629 -0.175734
vn -0.320087 -0.931647 0.171984
vn -0.393458 -0.902982 0.172670
vn -0.380586 -0.890607 -0.248943
vn -0.324439 -0.929064 -0.177706
vn -0.324439 -0.929064 -0.177706
vn -0.382857 -0.906479 -0.178090
vn -0.474819 -0.832891 -0.284322
vn -0.431977 -0.879949 -0.197703
vn -0.431973 -0.879857 -0.198119
vn -0.475867 -0.843025 -0.250717
vn -0.380586 -0.890607 -0.248943
vn -0.382857 -0.906479 -0.178090
vn -0.809018 0.587784 0.000000
vn -1.000000 0.000000 0.000000
vn -1.000000 0.000000 0.000000
vn -0.809018 0.587784 0.000000
vn -1.000000 0.000000 0.000000
vn -0.809018 -0.587784 0.000000
vn -0.809018 -0.587784 0.000000
vn -1.000000 0.000000 0.000000
vn -0.809018 -0.587784 0.000000
vn -0.309018 -0.951056 0.000000
vn -0.309018 -0.951056 0.000000
vn -0.809018 -0.587784 0.000000
vn -0.309018 -0.951056 0.000000
vn 0.309018 -0.951056 0.000000
vn 0.309018 -0.951056 0.000000
vn -0.309018 -0.951056 0.000000
vn 0.309018 -0.951056 0.000000
vn 0.809018 -0.587784 0.000000
vn 0.809018 -0.587784 0.000000
vn 0.309018 -0.951056 0.000000
vn 0.809018 0.587784 0.000000
vn 1.000000 0.000000 0.000000
vn 1.000000 0.000000 0.000000
vn 0.809018 0.587784 0.000000
vn 1.000000 0.000000 0.000000
vn 0.809018 -0.587784 0.000000
vn 0.809018 -0.587784 0.000000
vn 1.000000 0.000000 0.000000
vn 0.809018 0.587784 0.000000
vn 0.309015 0.951057 0.000000
vn 0.309015 0.951057 0.000000
vn 0.809018 0.587784 0.000000
vn 0.309015 0.951057 0.000000
vn -0.309015 0.951057 0.000000
vn -0.309015 0.951057 0.000000
vn 0.309015 0.951057 0.000000
vn -0.309015 0.951057 0.000000
vn -0.809018 0.587784 0.000000
vn -0.809018 0.587784 0.000000
vn -0.309015 0.951057 0.000000
vn 0.436349 0.882013 -0.177914
vn 0.391793 0.902957 -0.176540
vn -0.056500 0.076937 -0.995434
vn -0.053305 0.081075 -0.995282
vn -0.056193 0.069368 -0.996007
vn -0.056500 0.076937 -0.995434
vn 0.391793 0.902957 -0.176540
vn 0.343485 0.921840 -0.179525
vn -0.097134 -0.003739 -0.995264
vn -0.095580 -0.008773 -0.995383
vn -0.424729 -0.888296 -0.174744
vn -0.467001 -0.867002 -0.173835
vn -0.095580 -0.008773 -0.995383
vn -0.089940 -0.018050 -0.995784
vn -0.367954 -0.913399 -0.174102
vn -0.424729 -0.888296 -0.174744
vn 0.095159 0.000013 0.995462
vn 0.094311 0.006474 0.995522
vn 0.420747 0.889703 0.177200
vn 0.465822 0.866669 0.178593
vn 0.372324 0.910977 0.177472
vn 0.420747 0.889703 0.177200
vn 0.094311 0.006474 0.995522
vn 0.088496 0.013258 0.995988
vn -0.443395 -0.879409 0.173322
vn -0.400206 -0.899658 0.174504
vn 0.054944 -0.079288 0.995336
vn 0.050932 -0.084875 0.995089
vn 0.053857 -0.074744 0.995747
vn 0.054944 -0.079288 0.995336
vn -0.400206 -0.899658 0.174504
vn -0.346480 -0.922295 0.171243
vn -0.056193 0.069368 -0.996007
vn -0.089940 -0.018050 -0.995784
vn -0.095580 -0.008773 -0.995383
vn -0.056500 0.076937 -0.995434
vn 0.372324 0.910977 0.177472
vn 0.343485 0.921840 -0.179525
vn 0.391793 0.902957 -0.176540
vn 0.420747 0.889703 0.177200
vn 0.054944 -0.079288 0.995336
vn 0.053857 -0.074744 0.995747
vn 0.088496 0.013258 0.995988
vn 0.094311 0.006474 0.995522
vn -0.424729 -0.888296 -0.174744
vn -0.367954 -0.913399 -0.174102
vn -0.346480 -0.922295 0.171243
vn -0.400206 -0.899658 0.174504
vn 0.420747 0.889703 0.177200
vn 0.391793 0.902957 -0.176540
vn 0.436349 0.882013 -0.177914
vn 0.465822 0.866669 0.178593
vn -0.095580 -0.008773 -0.995383
vn -0.097134 -0.003739 -0.995264
vn -0.053305 0.081075 -0.995282
vn -0.056500 0.076937 -0.995434
vn -0.467001 -0.867002 -0.173835
vn -0.424729 -0.888296 -0.174744
vn -0.400206 -0.899658 0.174504
vn -0.443395 -0.879409 0.173322
vn 0.050932 -0.084875 0.995089
vn 0.054944 -0.079288 0.995336
vn 0.094311 0.006474 0.995522
vn 0.095159 0.000013 0.995462
vn 0.927088 -0.374845 0.000367
vn 0.971849 -0.229868 0.051674
vn 0.962652 -0.267988 0.038512
vn 0.927088 -0.374845 0.000367
vn 0.458209 0.829464 0.319428
vn 0.249067 0.914283 0.319455
vn 0.232495 0.918870 0.318786
vn 0.471710 0.822093 0.318830
vn -0.927090 0.374839 -0.000363
vn -0.927090 0.374839 -0.000363
vn -0.878652 0.475976 0.037653
vn -0.858414 0.510409 0.051075
vn 0.962652 -0.267988 0.038512
vn 0.971849 -0.229868 0.051674
vn 0.458209 0.829464 0.319428
vn 0.471710 0.822093 0.318830
vn 0.232495 0.918870 0.318786
vn 0.249067 0.914283 0.319455
vn -0.858414 0.510409 0.051075
vn -0.878652 0.475976 0.037653
vn 0.383416 0.889511 0.248520
vn 0.380345 0.875861 0.296993
vn 0.482635 0.806976 0.340372
vn 0.481091 0.815183 0.322533
vn 0.380345 0.875861 0.296993
vn 0.382070 0.855713 0.348966
vn 0.488503 0.788542 0.373586
vn 0.482635 0.806976 0.340372
vn 0.330587 0.879059 0.343465
vn 0.330587 0.879058 0.343465
vn 0.382070 0.855713 0.348966
vn 0.380345 0.875861 0.296993
vn 0.326155 0.912874 0.245529
vn 0.326155 0.912874 0.245529
vn 0.380345 0.875861 0.296993
vn 0.383416 0.889511 0.248520
s off
g FrontRailing2_L
usemtl Boat_large_mdlSG1
f 2/1/1 11/2/2 12/3/3 3/4/4
f 3/5/5 12/6/6 15/7/7 1/8/8
f 13/9/9 5/10/10 4/11/11 14/12/12
f 4/11/13 1/13/14 15/14/15 14/12/16
f 2/15/17 5/16/18 13/17/19 11/18/20
f 7/19/21 6/20/22 3/5/23 1/8/24
f 4/11/25 8/21/26 7/22/27 1/13/28
f 5/23/29 9/24/30 8/21/31 4/11/32
f 10/25/33 9/26/34 5/16/35 2/15/36
f 2/1/37 3/4/38 6/27/39 10/28/40
usemtl Boat_large_mdlSG
f 33/29/41 19/30/42 18/31/43 32/32/44
f 17/33/45 18/31/46 19/34/47 16/35/48
f 39/36/49 20/37/50 21/38/51 38/39/52
f 20/37/53 23/40/54 22/41/55 21/42/56
f 35/43/57 27/44/58 26/45/59 34/46/60
f 25/47/61 26/45/62 27/48/63 24/49/64
f 37/50/65 31/51/66 30/52/67 36/53/68
f 29/54/69 30/52/70 31/55/71 28/56/72
f 18/31/73 20/37/74 39/36/75 32/32/76
f 26/45/77 19/57/78 33/58/79 34/46/80
f 36/53/81 30/52/82 27/59/83 35/60/84
f 38/61/85 21/62/86 31/63/87 37/64/88
f 17/33/89 23/40/90 20/37/91 18/31/92
f 25/47/93 16/65/94 19/57/95 26/45/96
f 30/52/97 29/54/98 24/66/99 27/59/100
f 21/62/101 22/67/102 28/68/103 31/63/104
usemtl Boat_large_mdlSG9
f 41/69/105 44/70/106 45/71/107 40/72/108
s 1
f 47/73/109 42/74/110 43/75/111 46/76/112
f 43/75/111 42/74/110 41/69/113 40/72/114
s off
usemtl Boat_large_mdlSG1
f 48/77/115 51/78/116 50/79/117 49/80/118
f 51/81/119 53/82/120 52/83/121 50/84/122
f 53/85/123 55/86/124 54/87/125 52/88/126
f 55/89/127 57/90/128 56/91/129 54/92/130
f 57/93/131 59/94/132 58/95/133 56/96/134
f 60/97/135 63/98/136 62/99/137 61/100/138
f 63/101/139 58/102/140 59/103/141 62/104/142
f 61/105/143 65/106/144 64/107/145 60/108/146
f 65/109/147 67/110/148 66/111/149 64/112/150
f 67/113/151 48/114/152 49/115/153 66/116/154
usemtl Boat_large_mdlSG
f 85/117/155 70/118/156 71/119/157 84/120/158
f 69/121/159 71/122/160 70/123/161 68/124/162
f 91/125/163 72/126/164 73/127/165 90/128/166
f 72/126/167 75/129/168 74/130/169 73/127/170
f 87/131/171 79/132/172 78/133/173 86/134/174
f 77/135/175 78/133/176 79/132/177 76/136/178
f 89/137/179 82/138/180 83/139/181 88/140/182
f 81/141/183 83/142/184 82/143/185 80/144/186
f 69/121/187 75/129/188 72/126/189 71/122/190
f 77/135/191 68/145/192 70/118/193 78/133/194
f 83/142/195 81/141/196 76/146/197 79/147/198
f 73/148/199 74/149/200 80/150/201 82/138/202
f 78/133/203 70/118/204 85/117/205 86/134/206
f 72/126/207 91/125/208 84/151/209 71/122/210
f 90/152/211 73/148/212 82/138/213 89/137/214
f 88/153/215 83/142/216 79/147/217 87/154/218
usemtl Boat_large_mdlSG1
f 92/155/219 98/156/220 97/157/221 93/158/222
f 99/159/223 102/160/224 101/161/225 96/162/226
f 94/163/227 95/164/228 100/165/229 103/166/230
f 97/157/231 98/156/232 99/167/233 96/168/234
f 101/161/235 102/160/236 103/169/237 100/170/238
usemtl Boat_large_mdlSG2
f 107/171/239 108/172/240 106/173/241 104/174/242
f 108/172/243 109/175/244 105/176/245 106/173/246
f 111/177/247 110/178/248 109/179/249 108/180/250
f 112/181/251 111/177/252 108/180/253 107/182/254
