# This file uses centimeters as units for non-parametric coordinates.

mtllib FrontRailing3_L.mtl
g default
v -586.089600 -251.783112 229.900482
v -581.950073 -246.759277 180.055679
v -663.506470 -218.663635 188.664215
v -668.110962 -225.730042 236.841766
v -527.390564 -261.241699 175.968491
v -530.851440 -266.412506 225.776581
v -517.415955 -244.776184 222.968430
v -517.892029 -246.112564 221.558884
v -587.478516 -224.397629 228.241699
v -587.997070 -225.717300 226.831192
v -596.695496 -251.301163 226.836685
v -597.008545 -252.684692 228.246613
v -525.123230 -272.806305 222.970016
v -524.853760 -271.414612 221.559280
v -517.891968 -246.112442 230.895264
v -517.613953 -244.721420 229.485535
v -587.997681 -225.719376 236.167557
v -587.671814 -224.337219 234.759216
v -525.318542 -272.753784 229.484436
v -524.853882 -271.415192 230.895691
v -596.696472 -251.304321 236.173035
v -597.198425 -252.627533 234.759857
v -658.112549 -202.274872 232.104630
v -657.529968 -200.981567 233.514908
v -657.740723 -200.906021 240.034348
v -658.113647 -202.277786 241.440994
v -668.512695 -228.163315 241.448837
v -668.987000 -229.492233 240.030640
v -668.987000 -229.492233 233.526779
v -668.511047 -228.158691 232.112473
v -517.553833 -253.292892 248.824570
v -518.023682 -254.632095 247.415512
v -588.748657 -232.694107 254.105896
v -589.174805 -234.040924 252.688889
v -597.864624 -260.946442 252.691055
v -598.277100 -262.301544 254.108948
v -525.261230 -282.606049 248.825760
v -524.999084 -281.213287 247.414688
v -518.023438 -254.631393 256.751892
v -517.752441 -253.239029 255.342026
v -589.175476 -234.048004 262.025238
v -588.748657 -232.697510 260.606964
v -525.457092 -282.555420 255.339890
v -524.999023 -281.214447 256.751068
v -597.865112 -260.947937 262.027405
v -598.277100 -262.301544 260.607849
v -658.332092 -210.287613 257.964905
v -657.820007 -208.970398 259.380524
v -657.820007 -208.973831 265.881409
v -658.333069 -210.294815 267.301270
v -668.661621 -237.530762 267.299896
v -669.170959 -238.849258 265.884918
v -669.170959 -238.848114 259.379059
v -668.661804 -237.529617 257.963501
v -517.842773 -256.112244 248.082382
v -517.842773 -256.112244 224.308990
v -516.749329 -259.477631 224.308990
v -516.749329 -259.477631 248.082382
v -517.842773 -262.843018 224.308990
v -517.842773 -262.843018 248.082382
v -520.705566 -264.922943 224.308990
v -520.705566 -264.922943 248.082382
v -524.244141 -264.922943 224.308990
v -524.244141 -264.922943 248.082382
v -527.106934 -262.843018 224.308990
v -527.106934 -262.843018 248.082382
v -528.200378 -259.477631 224.308990
v -528.200378 -259.477631 248.082382
v -527.106934 -256.112244 224.308990
v -527.106934 -256.112244 248.082382
v -524.244141 -254.032333 224.308990
v -524.244141 -254.032333 248.082382
v -520.705566 -254.032333 224.308990
v -520.705566 -254.032333 248.082382
v -637.693359 -224.424957 217.474365
v -530.095032 -258.599091 208.908112
v -529.095703 -259.637848 226.264786
v -525.143921 -247.507767 226.828629
v -631.376221 -213.761230 235.237930
v -636.652344 -225.426788 234.830978
v -632.884216 -214.090698 217.826767
v -632.332825 -212.840683 219.287735
v -526.535522 -247.822861 209.406250
v -526.062317 -246.553116 210.877640
v -658.834106 -203.367371 237.556305
v -664.110291 -215.033020 237.149323
v -665.170532 -214.028076 219.794159
v -660.386353 -203.684113 220.148651
v -659.808472 -202.443924 221.607285
v -581.917358 -241.767914 229.984863
v -568.411011 -209.742218 109.356644
v -575.164185 -231.778809 169.670761
v -518.693970 -223.519897 109.046356
v -524.126099 -245.623398 167.051163
v -529.612793 -255.426971 226.158188
v -657.282898 -201.707947 172.815079
v -664.219299 -215.775742 236.811630
v -650.346497 -179.135529 108.818542
v -596.651184 -206.877045 99.650673
v -608.477478 -241.643616 216.239731
v -607.954956 -202.289764 99.650681
v -619.820679 -237.191147 216.629379
v -605.478271 -230.493195 220.401291
v -604.663086 -232.244446 219.878143
v -592.458435 -196.195358 99.650681
v -593.224609 -194.289093 99.650681
v -616.005981 -227.791245 220.268082
v -614.189880 -227.073700 220.700531
v -601.907288 -190.765518 99.650673
v -603.765625 -191.616959 99.650673
v -521.091248 -229.963348 99.650673
v -528.084839 -265.093201 211.490326
v -532.773132 -226.427979 99.650673
v -539.799805 -261.757935 212.019379
v -526.143250 -253.798462 215.884140
v -525.167297 -255.452911 215.319351
v -517.924438 -218.839981 99.650665
v -518.868225 -217.008591 99.650665
v -536.881958 -252.116592 215.848831
v -535.140381 -251.236969 216.290421
v -527.841858 -214.292831 99.650673
v -529.609375 -215.315582 99.650673
vt 1.157294 1.283333
vt 1.018288 1.291228
vt 1.042083 1.418222
vt 1.181649 1.411113
vt 1.385420 1.396603
vt 1.365780 1.269904
vt 1.967983 1.349072
vt 1.786375 1.349070
vt 1.786627 1.352719
vt 1.968258 1.352719
vt 1.402117 1.400757
vt 1.586723 1.400679
vt 1.586796 1.397773
vt 1.402112 1.397772
vt 1.773369 1.456324
vt 1.586916 1.456240
vt 1.586800 1.459141
vt 1.773242 1.459139
vt 1.402132 1.456165
vt 1.402112 1.459149
vt 1.746059 1.201756
vt 1.558989 1.201671
vt 1.559067 1.204771
vt 1.746179 1.204771
vt 1.605253 1.332305
vt 1.786876 1.332307
vt 1.786627 1.328663
vt 1.604997 1.328652
vt 1.745935 1.139409
vt 1.559066 1.139409
vt 1.559182 1.142503
vt 1.746307 1.142411
vt 1.374305 1.142589
vt 1.374285 1.139411
vt 1.604741 1.349066
vt 1.374290 1.201593
vt 1.797502 1.251782
vt 1.611790 1.251778
vt 1.612295 1.268501
vt 1.797993 1.268503
vt 1.968529 1.332312
vt 1.773123 1.400598
vt 1.983455 1.251779
vt 1.983455 1.268511
vt 0.545562 0.477104
vt 0.730615 0.477558
vt 0.730889 0.481070
vt 0.545838 0.480622
vt 0.917952 0.488403
vt 0.731106 0.487952
vt 0.731017 0.484523
vt 0.917895 0.484890
vt 0.545472 0.560115
vt 0.732492 0.558387
vt 0.732372 0.561906
vt 0.545513 0.563626
vt 0.919645 0.556677
vt 0.919731 0.560189
vt 0.732622 0.561904
vt 0.542717 0.450404
vt 0.729191 0.450870
vt 0.729079 0.454405
vt 0.542912 0.453947
vt 0.914141 0.461860
vt 0.729348 0.461412
vt 0.729072 0.457894
vt 0.914123 0.458344
vt 0.544717 0.374242
vt 0.731141 0.376758
vt 0.730989 0.380289
vt 0.544407 0.377764
vt 0.917706 0.382807
vt 0.731384 0.376761
vt 0.917811 0.379282
vt 0.915666 0.478016
vt 0.915602 0.451339
vt 0.732823 0.353992
vt 0.921806 0.356534
vt 0.920262 0.372679
vt 0.731532 0.370133
vt 0.544296 0.460958
vt 0.544197 0.487505
vt 0.543842 0.351430
vt 0.542549 0.367588
vt 0.299072 0.614258
vt 0.299072 0.653809
vt 0.033783 0.653809
vt 0.033783 0.614258
vt 0.299072 0.653809
vt 0.299072 0.693359
vt 0.033783 0.693359
vt 0.033783 0.653809
vt 0.299072 0.693359
vt 0.299072 0.732910
vt 0.033783 0.732910
vt 0.033783 0.693359
vt 0.299072 0.732910
vt 0.299072 0.772339
vt 0.033783 0.772339
vt 0.033783 0.732910
vt 0.299072 0.772339
vt 0.299072 0.811890
vt 0.033783 0.811890
vt 0.033783 0.772339
vt 0.299072 0.811890
vt 0.299072 0.851440
vt 0.033783 0.851440
vt 0.033783 0.811890
vt 0.299072 0.851440
vt 0.299072 0.890869
vt 0.033783 0.890869
vt 0.033783 0.851440
vt 0.299072 0.890869
vt 0.299072 0.930420
vt 0.033783 0.930420
vt 0.033783 0.890869
vt 0.299072 0.930420
vt 0.299072 0.969879
vt 0.033783 0.969879
vt 0.033783 0.930420
vt 0.299072 0.969879
vt 0.299072 1.009392
vt 0.033783 1.009392
vt 0.033783 0.969879
vt 2.572266 -0.419922
vt 2.570313 -0.474609
vt 2.109375 -0.461914
vt 2.109375 -0.407227
vt 2.693146 -0.423311
vt 2.691758 -0.477999
vt 2.195313 -0.037109
vt 2.660156 -0.041992
vt 2.660156 -0.113281
vt 2.195313 -0.108398
vt 2.781601 -0.043122
vt 2.781601 -0.114693
vt -2.346892 0.364035
vt -2.347452 0.370028
vt -2.226578 0.371582
vt -2.225840 0.365582
vt -2.226563 0.371582
vt -1.763686 0.381347
vt -1.763482 0.375347
vt -2.346055 0.315829
vt -2.224609 0.317383
vt -1.763672 0.327148
vt -2.183594 0.251953
vt -2.183594 0.186441
vt -2.305039 0.187852
vt -2.305039 0.253365
vt -1.723633 0.247559
vt -1.724530 0.181595
vt -1.157900 0.584159
vt -1.141645 0.429683
vt -1.365340 0.423852
vt -1.379500 0.592120
vt -1.133176 0.266740
vt -1.357007 0.249252
vt -1.013321 0.430299
vt -1.008113 0.271953
vt -1.026239 0.579711
vt 2.363281 -0.700195
vt 2.375393 -0.736530
vt 1.925031 -0.736563
vt 1.926758 -0.701172
vt 2.376502 -0.284901
vt 2.373501 -0.315656
vt 1.943065 -0.315670
vt 1.947565 -0.284919
vt 2.365234 -0.876953
vt 1.927734 -0.875977
vt 1.926871 -0.840583
vt 2.377336 -0.840649
vt 2.376953 -0.741211
vt 1.924805 -0.741201
vt 2.371529 -0.320283
vt 1.942572 -0.320295
vt 2.359375 -0.420898
vt 2.373228 -0.458127
vt 1.936523 -0.458988
vt 1.936523 -0.421875
vt 2.415565 0.135889
vt 2.412564 0.104382
vt 2.000453 0.104422
vt 2.003453 0.136297
vt 2.367188 -0.606445
vt 1.941406 -0.605469
vt 1.941406 -0.569215
vt 2.381027 -0.569253
vt 2.375000 -0.462891
vt 1.936523 -0.463854
vt 2.410580 0.099646
vt 2.000250 0.099617
vn -0.288888 -0.926653 -0.240537
vn -0.262730 -0.957626 -0.118005
vn -0.262730 -0.957626 -0.118005
vn -0.289021 -0.948020 -0.133134
vn -0.323299 -0.935246 -0.144195
vn -0.323299 -0.935246 -0.144195
vn -0.288888 -0.926653 -0.240537
vn -0.289021 -0.948020 -0.133134
vn 0.317798 0.931182 -0.178617
vn 0.280507 0.943377 -0.177077
vn -0.052765 0.068491 -0.996255
vn -0.056548 0.073796 -0.995669
vn -0.056009 0.067585 -0.996140
vn -0.052765 0.068491 -0.996255
vn 0.280507 0.943377 -0.177077
vn 0.249284 0.952171 -0.176717
vn -0.089688 -0.018090 -0.995806
vn -0.081787 -0.026451 -0.996299
vn -0.294654 -0.939497 -0.174712
vn -0.343326 -0.922629 -0.175734
vn -0.081787 -0.026451 -0.996299
vn -0.082680 -0.030445 -0.996111
vn -0.267362 -0.947555 -0.175094
vn -0.294654 -0.939497 -0.174712
vn 0.088460 0.015034 0.995966
vn 0.081500 0.023393 0.996399
vn 0.306775 0.935119 0.177317
vn 0.346890 0.921228 0.176087
vn 0.275480 0.944914 0.176775
vn 0.306775 0.935119 0.177317
vn 0.081500 0.023393 0.996399
vn 0.082535 0.028299 0.996186
vn -0.320087 -0.931647 0.171984
vn -0.273134 -0.946084 0.174134
vn 0.052272 -0.071522 0.996068
vn 0.055378 -0.077846 0.995426
vn 0.055757 -0.069603 0.996015
vn 0.052272 -0.071522 0.996068
vn -0.273134 -0.946084 0.174134
vn -0.244184 -0.953808 0.175000
vn -0.056009 0.067585 -0.996140
vn -0.082680 -0.030445 -0.996111
vn -0.081787 -0.026451 -0.996299
vn -0.052765 0.068491 -0.996255
vn 0.275480 0.944914 0.176775
vn 0.249284 0.952171 -0.176717
vn 0.280507 0.943377 -0.177077
vn 0.306775 0.935119 0.177317
vn 0.052272 -0.071522 0.996068
vn 0.055757 -0.069603 0.996015
vn 0.082535 0.028299 0.996186
vn 0.081500 0.023393 0.996399
vn -0.294654 -0.939497 -0.174712
vn -0.267362 -0.947555 -0.175094
vn -0.244184 -0.953808 0.175000
vn -0.273134 -0.946084 0.174134
vn 0.055378 -0.077846 0.995426
vn 0.052272 -0.071522 0.996068
vn 0.081500 0.023393 0.996399
vn 0.088460 0.015034 0.995966
vn 0.280507 0.943377 -0.177077
vn 0.317798 0.931182 -0.178617
vn 0.346890 0.921228 0.176087
vn 0.306775 0.935119 0.177317
vn -0.081787 -0.026451 -0.996299
vn -0.089688 -0.018090 -0.995806
vn -0.056548 0.073796 -0.995669
vn -0.052765 0.068491 -0.996255
vn -0.343326 -0.922629 -0.175734
vn -0.294654 -0.939497 -0.174712
vn -0.273134 -0.946084 0.174134
vn -0.320087 -0.931647 0.171984
vn 0.343485 0.921840 -0.179525
vn 0.283707 0.942433 -0.177006
vn -0.053517 0.065426 -0.996421
vn -0.056193 0.069368 -0.996007
vn -0.057116 0.064678 -0.996270
vn -0.053517 0.065426 -0.996421
vn 0.283707 0.942433 -0.177006
vn 0.244687 0.953347 -0.176801
vn -0.089940 -0.018050 -0.995784
vn -0.081535 -0.025497 -0.996344
vn -0.297463 -0.938661 -0.174444
vn -0.367954 -0.913399 -0.174102
vn -0.081535 -0.025497 -0.996344
vn -0.082229 -0.029344 -0.996181
vn -0.262626 -0.948888 -0.175041
vn -0.297463 -0.938661 -0.174444
vn 0.088496 0.013258 0.995988
vn 0.081182 0.022102 0.996454
vn 0.309370 0.934152 0.177902
vn 0.372324 0.910977 0.177472
vn 0.271317 0.946042 0.177178
vn 0.309370 0.934152 0.177902
vn 0.081182 0.022102 0.996454
vn 0.081986 0.026873 0.996271
vn -0.346480 -0.922295 0.171243
vn -0.275508 -0.945420 0.174002
vn 0.052871 -0.068752 0.996232
vn 0.053857 -0.074744 0.995747
vn 0.056834 -0.066883 0.996141
vn 0.052871 -0.068752 0.996232
vn -0.275508 -0.945420 0.174002
vn -0.239772 -0.954980 0.174708
vn -0.057116 0.064678 -0.996270
vn -0.082229 -0.029344 -0.996181
vn -0.081535 -0.025497 -0.996344
vn -0.053517 0.065426 -0.996421
vn 0.271317 0.946042 0.177178
vn 0.244687 0.953347 -0.176801
vn 0.283707 0.942433 -0.177006
vn 0.309370 0.934152 0.177902
vn 0.052871 -0.068752 0.996232
vn 0.056834 -0.066883 0.996141
vn 0.081986 0.026873 0.996271
vn 0.081182 0.022102 0.996454
vn -0.297463 -0.938661 -0.174444
vn -0.262626 -0.948888 -0.175041
vn -0.239772 -0.954980 0.174708
vn -0.275508 -0.945420 0.174002
vn 0.053857 -0.074744 0.995747
vn 0.052871 -0.068752 0.996232
vn 0.081182 0.022102 0.996454
vn 0.088496 0.013258 0.995988
vn 0.283707 0.942433 -0.177006
vn 0.343485 0.921840 -0.179525
vn 0.372324 0.910977 0.177472
vn 0.309370 0.934152 0.177902
vn -0.081535 -0.025497 -0.996344
vn -0.089940 -0.018050 -0.995784
vn -0.056193 0.069368 -0.996007
vn -0.053517 0.065426 -0.996421
vn -0.367954 -0.913399 -0.174102
vn -0.297463 -0.938661 -0.174444
vn -0.275508 -0.945420 0.174002
vn -0.346480 -0.922295 0.171243
vn 0.809018 0.587784 0.000000
vn 1.000000 0.000000 0.000000
vn 1.000000 0.000000 0.000000
vn 0.809018 0.587784 0.000000
vn 1.000000 0.000000 0.000000
vn 0.809017 -0.587785 0.000000
vn 0.809017 -0.587785 0.000000
vn 1.000000 0.000000 0.000000
vn 0.809017 -0.587785 0.000000
vn 0.309016 -0.951057 0.000000
vn 0.309016 -0.951057 0.000000
vn 0.809017 -0.587785 0.000000
vn 0.309016 -0.951057 0.000000
vn -0.309016 -0.951057 0.000000
vn -0.309016 -0.951057 0.000000
vn 0.309016 -0.951057 0.000000
vn -0.309016 -0.951057 0.000000
vn -0.809017 -0.587785 0.000000
vn -0.809017 -0.587785 0.000000
vn -0.309016 -0.951057 0.000000
vn -0.809017 -0.587785 0.000000
vn -1.000000 0.000000 0.000000
vn -1.000000 0.000000 0.000000
vn -0.809017 -0.587785 0.000000
vn -1.000000 0.000000 0.000000
vn -0.809018 0.587784 0.000000
vn -0.809018 0.587784 0.000000
vn -1.000000 0.000000 0.000000
vn -0.809018 0.587784 0.000000
vn -0.309016 0.951057 0.000000
vn -0.309016 0.951057 0.000000
vn -0.809018 0.587784 0.000000
vn -0.309016 0.951057 0.000000
vn 0.309016 0.951057 0.000000
vn 0.309016 0.951057 0.000000
vn -0.309016 0.951057 0.000000
vn 0.309016 0.951057 0.000000
vn 0.809018 0.587784 0.000000
vn 0.809018 0.587784 0.000000
vn 0.309016 0.951057 0.000000
vn 0.059668 -0.062895 0.996235
vn 0.059760 -0.062821 0.996234
vn 0.057515 -0.064981 0.996228
vn 0.057451 -0.065048 0.996227
vn 0.060586 -0.062156 0.996226
vn 0.060586 -0.062156 0.996226
vn 0.059760 -0.062821 0.996234
vn 0.059668 -0.062895 0.996235
vn -0.280081 -0.959090 -0.041231
vn -0.329604 -0.943462 -0.035230
vn -0.329546 -0.943482 -0.035237
vn -0.280021 -0.959108 -0.041238
vn -0.329604 -0.943462 -0.035230
vn -0.356166 -0.933860 -0.032428
vn -0.356166 -0.933860 -0.032428
vn -0.329546 -0.943482 -0.035237
vn 0.208528 0.702819 -0.680119
vn 0.208528 0.702819 -0.680119
vn 0.323421 0.945119 -0.046350
vn -0.024278 0.162831 -0.986355
vn 0.323421 0.945119 -0.046350
vn 0.274264 0.960805 -0.040422
vn -0.027314 0.166729 -0.985624
vn -0.024278 0.162831 -0.986355
vn -0.060586 0.062165 -0.996225
vn -0.060586 0.062165 -0.996225
vn -0.024278 0.162831 -0.986355
vn -0.059777 0.062824 -0.996233
vn -0.024278 0.162831 -0.986355
vn -0.027314 0.166729 -0.985624
vn -0.057545 0.064987 -0.996226
vn -0.059777 0.062824 -0.996233
vn 0.329580 0.943470 0.035222
vn 0.323421 0.945119 -0.046350
vn 0.356173 0.933857 0.032424
vn 0.356173 0.933857 0.032424
vn 0.280064 0.959096 0.041230
vn 0.274264 0.960805 -0.040422
vn 0.323421 0.945119 -0.046350
vn 0.329580 0.943470 0.035222
vn 0.295114 0.934742 0.197904
vn 0.291269 0.914742 0.280017
vn 0.326851 0.920498 0.214131
vn 0.326851 0.920498 0.214131
vn 0.291269 0.914742 0.280017
vn 0.288845 0.886139 0.362390
vn 0.329744 0.876462 0.350832
vn 0.329744 0.876462 0.350832
vn 0.256323 0.896682 0.360915
vn 0.256323 0.896682 0.360915
vn 0.288845 0.886139 0.362390
vn 0.291269 0.914742 0.280017
vn 0.263498 0.946958 0.183954
vn 0.263498 0.946958 0.183954
vn 0.291269 0.914742 0.280017
vn 0.295114 0.934742 0.197904
vn 0.929737 -0.367890 -0.015664
vn 0.973911 -0.224707 0.031702
vn 0.965915 -0.258011 0.020916
vn 0.929737 -0.367890 -0.015664
vn 0.459457 0.836864 0.297585
vn 0.247516 0.920853 0.301272
vn 0.233948 0.924487 0.300986
vn 0.471807 0.830228 0.296848
vn -0.929738 0.367885 0.015721
vn -0.929738 0.367885 0.015721
vn -0.880394 0.471405 0.051811
vn -0.863161 0.501051 0.062462
vn 0.965915 -0.258011 0.020916
vn 0.973911 -0.224707 0.031702
vn 0.459457 0.836864 0.297585
vn 0.471807 0.830228 0.296848
vn 0.233948 0.924487 0.300986
vn 0.247516 0.920853 0.301272
vn -0.863161 0.501051 0.062462
vn -0.880394 0.471405 0.051811
vn 0.960633 -0.276499 -0.027076
vn 0.991412 -0.129003 0.021482
vn 0.986650 -0.162514 0.010590
vn 0.960633 -0.276499 -0.027076
vn 0.378508 0.875344 0.300840
vn 0.159930 0.938154 0.307067
vn 0.147933 0.940157 0.306952
vn 0.392247 0.869605 0.299882
vn -0.960633 0.276490 0.027159
vn -0.960633 0.276490 0.027159
vn -0.920537 0.385347 0.064183
vn -0.906707 0.415130 0.074493
vn 0.986650 -0.162514 0.010590
vn 0.991412 -0.129003 0.021482
vn 0.378508 0.875344 0.300840
vn 0.392247 0.869605 0.299882
vn 0.147933 0.940157 0.306952
vn 0.159930 0.938154 0.307067
vn -0.906707 0.415130 0.074493
vn -0.920537 0.385347 0.064183
s off
g FrontRailing3_L
usemtl Boat_large_mdlSG9
f 2/1/1 5/2/2 6/3/3 1/4/4
f 4/5/5 3/6/6 2/1/7 1/4/8
usemtl Boat_large_mdlSG
f 24/7/9 9/8/10 10/9/11 23/10/12
f 8/11/13 10/12/14 9/13/15 7/14/16
f 30/15/17 11/16/18 12/17/19 29/18/20
f 11/16/21 14/19/22 13/20/23 12/17/24
f 26/21/25 17/22/26 18/23/27 25/24/28
f 16/25/29 18/26/30 17/27/31 15/28/32
f 28/29/33 22/30/34 21/31/35 27/32/36
f 20/33/37 21/31/38 22/30/39 19/34/40
f 8/11/41 14/19/42 11/16/43 10/12/44
f 16/25/45 7/35/46 9/8/47 18/26/48
f 21/31/49 20/33/50 15/36/51 17/22/52
f 12/37/53 13/38/54 19/39/55 22/40/56
f 27/32/57 21/31/58 17/22/59 26/21/60
f 9/8/61 24/7/62 25/41/63 18/26/64
f 11/16/65 30/15/66 23/42/67 10/12/68
f 29/43/69 12/37/70 22/40/71 28/44/72
f 48/45/73 33/46/74 34/47/75 47/48/76
f 32/49/77 34/50/78 33/51/79 31/52/80
f 54/53/81 35/54/82 36/55/83 53/56/84
f 35/54/85 38/57/86 37/58/87 36/59/88
f 50/60/89 41/61/90 42/62/91 49/63/92
f 40/64/93 42/65/94 41/66/95 39/67/96
f 52/68/97 46/69/98 45/70/99 51/71/100
f 44/72/101 45/70/102 46/73/103 43/74/104
f 32/49/105 38/57/106 35/54/107 34/50/108
f 40/64/109 31/75/110 33/46/111 42/65/112
f 45/70/113 44/72/114 39/76/115 41/61/116
f 36/77/117 37/78/118 43/79/119 46/80/120
f 51/71/121 45/70/122 41/61/123 50/60/124
f 33/46/125 48/45/126 49/81/127 42/65/128
f 35/54/129 54/53/130 47/82/131 34/50/132
f 53/83/133 36/77/134 46/80/135 52/84/136
usemtl Boat_large_mdlSG1
f 55/85/137 58/86/138 57/87/139 56/88/140
f 58/89/141 60/90/142 59/91/143 57/92/144
f 60/93/145 62/94/146 61/95/147 59/96/148
f 62/97/149 64/98/150 63/99/151 61/100/152
f 64/101/153 66/102/154 65/103/155 63/104/156
f 66/105/157 68/106/158 67/107/159 65/108/160
f 68/109/161 70/110/162 69/111/163 67/112/164
f 70/113/165 72/114/166 71/115/167 69/116/168
f 72/117/169 74/118/170 73/119/171 71/120/172
f 74/121/173 55/122/174 56/123/175 73/124/176
f 79/125/177 80/126/178 77/127/179 78/128/180
f 85/129/181 86/130/182 80/126/183 79/125/184
f 77/131/185 80/132/186 75/133/187 76/134/188
f 80/132/189 86/135/190 87/136/191 75/133/192
f 88/137/193 89/138/194 82/139/195 81/140/196
f 82/141/197 84/142/198 83/143/199 81/140/200
f 87/144/201 88/137/202 81/140/203 75/145/204
f 81/140/205 83/143/206 76/146/207 75/145/208
f 79/147/209 82/148/210 89/149/211 85/150/212
f 78/151/213 84/152/214 82/148/215 79/147/216
usemtl Boat_large_mdlSG2
f 90/153/217 92/154/218 96/155/219 97/156/220
f 92/154/221 91/157/222 98/158/223 96/155/224
f 94/159/225 93/160/226 91/157/227 92/154/228
f 95/161/229 94/159/230 92/154/231 90/153/232
usemtl Boat_large_mdlSG1
f 99/162/233 105/163/234 104/164/235 100/165/236
f 106/166/237 109/167/238 108/168/239 103/169/240
f 101/170/241 102/171/242 107/172/243 110/173/244
f 104/164/245 105/163/246 106/174/247 103/175/248
f 108/168/249 109/167/250 110/176/251 107/177/252
f 111/178/253 117/179/254 116/180/255 112/181/256
f 118/182/257 121/183/258 120/184/259 115/185/260
f 113/186/261 114/187/262 119/188/263 122/189/264
f 116/180/265 117/179/266 118/190/267 115/191/268
f 120/184/269 121/183/270 122/192/271 119/193/272
