# This file uses centimeters as units for non-parametric coordinates.

mtllib FrontRopes.mtl
g default
v -275.948761 3.937592 2051.395508
v -1121.380249 1.129627 284.795410
v -276.785339 2.316635 2051.265137
v -1122.217041 -0.491467 284.665100
v -275.884583 0.874252 2050.592285
v -1121.316162 -1.933758 283.992310
v -1119.578613 -1.755199 283.449890
v -274.147125 1.052887 2050.049805
v -1118.742188 -0.134106 283.580200
v -273.310669 2.673935 2050.180176
v -1119.643066 1.308247 284.252991
v -274.211548 4.116318 2050.853027
v -275.948761 3.937592 1927.425781
v -1058.962280 1.129669 281.162689
v -276.785339 2.316635 1927.295532
v -1059.798828 -0.491363 281.032379
v -275.884583 0.874252 1926.622559
v -1058.897949 -1.933716 280.359558
v -1057.160645 -1.755066 279.817108
v -274.147125 1.052887 1926.080322
v -1056.324097 -0.134033 279.947449
v -273.310669 2.673935 1926.210449
v -1057.224976 1.308319 280.620209
v -274.211548 4.116318 1926.883301
vt 0.618164 0.005371
vt 0.741211 0.005371
vt 0.741211 129.125000
vt 0.618164 129.125000
vt 0.495605 0.005371
vt 0.618164 0.005371
vt 0.618164 129.125000
vt 0.495605 129.125000
vt 0.495605 0.005371
vt 0.495605 129.125000
vt 0.372559 129.125000
vt 0.372559 0.005371
vt 0.372559 0.005371
vt 0.372559 129.125000
vt 0.249756 129.125000
vt 0.249756 0.005371
vt 0.249756 0.005371
vt 0.249756 129.125000
vt 0.126831 129.125000
vt 0.126831 0.005371
vt 0.003902 0.005371
vt 0.126831 0.005371
vt 0.126831 129.125000
vt 0.003918 129.125000
vt 0.618164 0.005371
vt 0.741211 0.005371
vt 0.741211 129.125000
vt 0.618164 129.125000
vt 0.495605 0.005371
vt 0.495605 129.125000
vt 0.372559 129.125000
vt 0.372559 0.005371
vt 0.372559 0.005371
vt 0.249756 129.125000
vt 0.249756 0.005371
vt 0.249756 0.005371
vt 0.126831 129.125000
vt 0.126831 0.005371
vt 0.003902 0.005371
vt 0.003918 129.125000
vt 0.249756 129.125000
vt 0.372559 129.125000
vn -0.900235 -0.062324 0.430920
vn -0.467528 0.855549 0.222382
vn -0.579946 0.766361 0.276323
vn -0.882712 -0.205165 0.422761
vn -0.356292 -0.918413 0.171968
vn -0.900235 -0.062324 0.430920
vn -0.882712 -0.205165 0.422761
vn -0.362952 -0.915198 0.175151
vn -0.356292 -0.918413 0.171968
vn -0.362952 -0.915198 0.175151
vn 0.467507 -0.855563 -0.222372
vn 0.579941 -0.766365 -0.276321
vn 0.579941 -0.766365 -0.276321
vn 0.467507 -0.855563 -0.222372
vn 0.900230 0.062422 -0.430917
vn 0.882701 0.205225 -0.422755
vn 0.882701 0.205225 -0.422755
vn 0.900230 0.062422 -0.430917
vn 0.356288 0.918415 -0.171967
vn 0.362938 0.915205 -0.175144
vn -0.467528 0.855549 0.222382
vn 0.362938 0.915205 -0.175144
vn 0.356288 0.918415 -0.171967
vn -0.579946 0.766361 0.276323
vn -0.901299 -0.061634 0.428791
vn -0.468325 0.855396 0.221291
vn -0.579938 0.767012 0.274528
vn -0.883783 -0.204784 0.420704
vn -0.357178 -0.918166 0.171451
vn -0.901299 -0.061634 0.428791
vn -0.883783 -0.204784 0.420704
vn -0.362692 -0.915508 0.174069
vn -0.357178 -0.918166 0.171451
vn -0.362692 -0.915508 0.174069
vn 0.468313 -0.855404 -0.221285
vn 0.579948 -0.767002 -0.274533
vn 0.579948 -0.767002 -0.274533
vn 0.468313 -0.855404 -0.221285
vn 0.901298 0.061654 -0.428790
vn 0.883787 0.204761 -0.420706
vn 0.883787 0.204761 -0.420706
vn 0.901298 0.061654 -0.428790
vn 0.357167 0.918171 -0.171446
vn 0.362671 0.915518 -0.174059
vn -0.468325 0.855396 0.221291
vn 0.362671 0.915518 -0.174059
vn 0.357167 0.918171 -0.171446
vn -0.579938 0.767012 0.274528
s off
g FrontRopes
usemtl Boat_large_mdlSG10
f 3/1/1 1/2/2 2/3/3 4/4/4
f 5/5/5 3/6/6 4/7/7 6/8/8
f 5/9/9 6/10/10 7/11/11 8/12/12
f 8/13/13 7/14/14 9/15/15 10/16/16
f 10/17/17 9/18/18 11/19/19 12/20/20
f 1/21/21 12/22/22 11/23/23 2/24/24
f 15/25/25 13/26/26 14/27/27 16/28/28
f 17/29/29 15/25/30 16/28/31 18/30/32
f 17/29/33 18/30/34 19/31/35 20/32/36
f 20/33/37 19/42/38 21/34/39 22/35/40
f 22/36/41 21/41/42 23/37/43 24/38/44
f 13/39/45 24/38/46 23/37/47 14/40/48
