# This file uses centimeters as units for non-parametric coordinates.

mtllib FrontRailing1_R.mtl
g default
v -822.207336 159.062119 251.009933
v -809.149048 154.355865 203.240326
v -813.079407 163.321426 250.150940
v -800.654602 158.366882 202.404861
v -914.983398 90.307159 218.748230
v -940.486328 94.945129 265.563965
v -801.893311 136.947647 247.053909
v -802.652527 138.144104 245.642609
v -866.458679 104.399155 252.415115
v -865.660645 103.225609 253.824280
v -881.101440 128.539505 252.426529
v -881.652039 129.851059 253.832443
v -817.251953 162.620895 247.070724
v -816.525818 161.395615 245.649246
v -802.655396 138.149963 254.978943
v -802.115417 136.832886 253.574341
v -865.889282 103.099205 260.347015
v -866.460876 104.403343 261.751495
v -817.251953 162.620895 253.572800
v -816.530396 161.403091 254.985596
v -881.104675 128.545456 261.762878
v -881.882507 129.728424 260.350311
v -929.546997 66.386360 260.615723
v -930.326721 67.568794 259.197754
v -929.546997 66.386360 267.110016
v -930.326965 67.569206 268.534119
v -945.526245 92.718178 268.524170
v -946.285278 93.911156 267.102417
v -946.285278 93.911156 260.610077
v -945.526489 92.718842 259.187805
v -937.203247 64.392181 294.261658
v -938.425354 63.690449 292.903931
v -936.450562 63.195709 292.842499
v -952.586914 89.058220 292.842163
v -953.033936 87.102211 292.977325
v -951.842102 87.855118 294.262543
v -936.449646 63.196342 286.344635
v -938.394714 63.641357 286.467468
v -937.202820 64.393814 284.925201
v -951.844116 87.855576 284.926300
v -953.059265 87.142899 286.403992
v -952.588196 89.057426 286.344330
v -803.177612 143.092133 272.919983
v -803.825073 144.345291 271.500732
v -871.281555 104.747604 279.693726
v -872.008301 105.959572 278.276276
v -886.241455 129.912140 278.275085
v -886.972900 131.124451 279.696350
v -818.424988 169.987015 272.924347
v -817.769653 168.732773 271.509460
v -803.829163 144.353180 280.837067
v -803.177612 143.092133 279.417999
v -872.009766 105.962074 287.612640
v -871.281555 104.747604 286.191406
v -818.424988 169.987015 279.426849
v -817.771606 168.736603 280.845795
v -886.241028 129.911514 287.611450
v -886.972900 131.124451 286.190979
v -806.169250 140.119797 272.255310
v -806.169250 140.119797 249.496536
v -805.075745 143.485184 249.496536
v -805.075745 143.485184 272.255310
v -806.169250 146.850571 249.496536
v -806.169250 146.850571 272.255310
v -809.031982 148.930496 249.496536
v -809.031982 148.930496 272.255310
v -812.570557 148.930496 249.496536
v -812.570557 148.930496 272.255310
v -815.433289 146.850571 249.496536
v -815.433289 146.850571 272.255310
v -816.526794 143.485184 249.496536
v -816.526794 143.485184 272.255310
v -815.433289 140.119797 249.496536
v -815.433289 140.119797 272.255310
v -812.570557 138.039871 249.496536
v -812.570557 138.039871 272.255310
v -809.031982 138.039871 249.496536
v -809.031982 138.039871 272.255310
v -933.493835 86.469360 265.260406
v -834.211853 70.102562 108.858315
v -883.852844 78.285980 187.059357
v -793.151001 139.447800 180.012283
v -817.839417 150.409241 251.300690
v -768.462585 121.479584 108.723877
v -948.236572 75.771065 267.594666
v -895.629883 67.943474 188.238037
v -843.023071 60.115860 108.881416
v -870.827026 120.289703 238.627838
v -789.355103 112.938400 96.228943
v -780.473206 119.847809 100.921104
v -861.944946 127.199127 243.320007
v -782.736755 103.733040 100.930336
v -784.415344 104.092834 99.903748
v -865.887146 111.444138 242.302628
v -864.208618 111.084351 243.329208
v -775.533447 111.002335 104.595879
v -775.915161 109.039703 104.534065
v -857.387085 116.390991 246.932953
v -857.005310 118.353630 246.994781
v -954.899231 67.500992 250.948364
v -888.756165 110.130844 241.943359
v -819.954224 147.550705 233.996552
v -818.697937 148.609467 251.334976
v -813.421753 136.943573 251.742035
v -887.314392 111.258484 259.262604
v -879.570496 100.922653 259.342590
v -945.549683 58.387711 268.325287
v -953.293335 68.723801 268.246002
v -947.985535 58.308422 251.016418
v -947.025513 57.263947 252.429001
v -881.735107 101.008484 241.999191
v -880.895447 99.886383 243.427231
v -815.317932 137.141739 234.365280
v -814.576172 135.970612 235.807617
v -928.114746 69.627525 265.951630
v -929.550720 68.526886 250.050293
v -930.478943 69.591873 248.633636
v -937.421021 78.765892 248.568787
v -935.858459 79.963547 265.872131
vt 1.736532 1.254661
vt 1.761772 1.376219
vt 1.703967 1.379053
vt 1.680252 1.256558
vt 1.990227 1.241539
vt 2.035017 1.364071
vt 2.167479 1.400672
vt 2.167692 1.397772
vt 2.343230 1.397772
vt 2.343107 1.400565
vt 2.520546 1.397772
vt 2.520653 1.400479
vt 2.520477 1.456462
vt 2.520546 1.459143
vt 2.343230 1.459134
vt 2.343405 1.456349
vt 2.167995 1.459134
vt 2.167674 1.456229
vt 2.343340 1.332320
vt 2.343052 1.328670
vt 2.508763 1.328666
vt 2.509058 1.332316
vt 2.674473 1.328653
vt 2.674473 1.332304
vt 2.145309 1.142503
vt 2.145309 1.139409
vt 2.323798 1.139410
vt 2.323974 1.142379
vt 2.504303 1.139409
vt 2.504551 1.142275
vt 2.674473 1.349045
vt 2.508463 1.349067
vt 2.504756 1.201888
vt 2.323671 1.201787
vt 2.700826 1.251781
vt 2.700826 1.268484
vt 2.534148 1.268501
vt 2.533551 1.251794
vt 2.342763 1.349071
vt 2.145109 1.201669
vt 2.366880 1.268514
vt 2.366880 1.251786
vt -0.303542 0.448394
vt -0.303171 0.451906
vt -0.109072 0.452133
vt -0.109155 0.448596
vt -0.393989 0.363326
vt -0.394411 0.366677
vt -0.325325 0.372523
vt -0.325091 0.369292
vt -0.397625 0.362887
vt -0.392706 0.347456
vt -0.396184 0.346877
vt -0.304363 0.376167
vt -0.304587 0.379681
vt -0.110509 0.379015
vt -0.110602 0.375488
vt -0.321554 0.369251
vt -0.320274 0.352930
vt -0.323676 0.352782
vt -0.299870 0.474319
vt -0.299537 0.477804
vt -0.106973 0.478472
vt -0.107276 0.474937
vt -0.392418 0.343953
vt -0.324415 0.349310
vt -0.302869 0.553239
vt -0.303240 0.556764
vt -0.109241 0.558124
vt -0.108827 0.554590
vt 0.090862 0.485681
vt 0.090661 0.482156
vt -0.106949 0.481464
vt -0.107053 0.484994
vt -0.108941 0.558120
vt 0.088299 0.559503
vt 0.088588 0.555972
vt 0.087491 0.459000
vt 0.087196 0.455388
vt -0.108974 0.455151
vt -0.108669 0.458695
vt 0.086946 0.378323
vt 0.086982 0.374785
vt -0.110298 0.375476
vt 0.088844 0.475562
vt 0.088799 0.448807
vt -0.109011 0.352850
vt -0.110317 0.369085
vt 0.087429 0.368443
vt 0.088757 0.352349
vt -0.301306 0.458395
vt -0.301399 0.484310
vt -0.303256 0.353330
vt -0.304539 0.369734
vt 0.347900 0.033203
vt 0.087524 0.033203
vt 0.087524 0.073730
vt 0.347900 0.073730
vt 0.347900 0.073730
vt 0.087524 0.073730
vt 0.087524 0.114258
vt 0.347900 0.114258
vt 0.347900 0.114258
vt 0.087524 0.114258
vt 0.087524 0.154785
vt 0.347900 0.154785
vt 0.347900 0.154785
vt 0.087524 0.154785
vt 0.087524 0.195313
vt 0.347900 0.195313
vt 0.347900 0.195313
vt 0.087524 0.195313
vt 0.087524 0.235840
vt 0.347900 0.235840
vt 0.347900 0.235840
vt 0.087524 0.235840
vt 0.087524 0.275879
vt 0.347900 0.275879
vt 0.347900 0.275879
vt 0.087524 0.275879
vt 0.087524 0.316406
vt 0.347900 0.316406
vt 0.347900 0.316406
vt 0.087524 0.316406
vt 0.087524 0.356934
vt 0.347900 0.356934
vt 0.347900 0.356934
vt 0.087524 0.356934
vt 0.087524 0.397461
vt 0.347900 0.397461
vt 0.347900 0.397461
vt 0.087524 0.397461
vt 0.087524 0.437988
vt 0.347900 0.437988
vt -2.175386 0.610538
vt -2.226854 0.609751
vt -2.085727 0.392055
vt -2.043940 0.396493
vt -1.946545 0.180097
vt -1.914214 0.187210
vt -1.816397 0.602801
vt -1.753959 0.412242
vt -1.698511 0.217034
vt 1.869367 -1.084978
vt 1.283439 -1.084977
vt 1.285156 -1.107422
vt 1.871094 -1.107422
vt 1.231942 -0.935260
vt 1.737688 -0.936237
vt 1.748047 -0.904297
vt 1.243164 -0.903320
vt 1.870004 -1.050953
vt 1.284076 -1.050953
vt 1.283316 -1.077954
vt 1.869254 -1.077954
vt 1.736318 -0.940429
vt 1.230469 -0.939453
vt 3.388672 -0.422852
vt 3.388672 -0.476563
vt 3.707031 -0.478516
vt 3.708984 -0.423828
vt 3.948450 -0.482108
vt 3.948966 -0.427421
vt 3.478516 -0.050781
vt 3.478516 -0.122070
vt 3.802734 -0.125977
vt 3.804688 -0.053711
vt 4.045589 -0.128132
vt 4.046105 -0.056585
vt -3.606660 0.379937
vt -3.606367 0.373976
vt -3.364406 0.376770
vt -3.365289 0.382812
vt -3.365222 0.382810
vt -3.045199 0.374877
vt -3.044967 0.380860
vt -3.606137 0.325610
vt -3.363281 0.328125
vt -3.044922 0.326660
vt -3.316406 0.264160
vt -3.557825 0.266675
vt -3.557825 0.201162
vt -3.316406 0.198650
vt -3.001953 0.260742
vt -3.001953 0.195226
vt -3.644531 0.267578
vt -3.644531 0.202065
vt -3.693350 0.378905
vt -3.693269 0.372972
vt -3.693359 0.324707
vt 4.132813 -0.128906
vt 4.132813 -0.057617
vt 4.035156 -0.428711
vt 4.035156 -0.483398
vn -0.474819 0.832891 -0.284322
vn -0.475867 0.843026 -0.250717
vn -0.431918 0.878518 -0.204090
vn -0.431918 0.878518 -0.204090
vn -0.545173 0.765282 -0.342243
vn -0.552804 0.758249 -0.345639
vn -0.475867 0.843026 -0.250717
vn -0.474819 0.832891 -0.284322
vn -0.053956 -0.085559 -0.994871
vn 0.436850 -0.882073 -0.176380
vn 0.460608 -0.869804 -0.176864
vn -0.056564 -0.088468 -0.994472
vn -0.056564 -0.088468 -0.994472
vn 0.460608 -0.869804 -0.176864
vn 0.513895 -0.838812 -0.179739
vn -0.074120 -0.085341 -0.993591
vn -0.122819 -0.007185 -0.992403
vn -0.537320 0.825472 -0.172867
vn -0.475893 0.861922 -0.174973
vn -0.102013 -0.004582 -0.994773
vn -0.102013 -0.004582 -0.994773
vn -0.475893 0.861922 -0.174973
vn -0.460638 0.869939 -0.176121
vn -0.098699 0.000921 -0.995117
vn 0.465692 -0.867127 0.176694
vn 0.098055 0.000147 0.995181
vn 0.101820 0.006659 0.994781
vn 0.491559 -0.852569 0.177470
vn 0.491559 -0.852569 0.177470
vn 0.101820 0.006659 0.994781
vn 0.119504 0.014669 0.992725
vn 0.549549 -0.815741 0.180452
vn 0.053661 0.087430 0.994724
vn -0.433337 0.883991 0.175441
vn -0.449640 0.876058 0.174202
vn 0.056290 0.090357 0.994317
vn 0.056290 0.090357 0.994317
vn -0.449640 0.876058 0.174202
vn -0.509547 0.843172 0.171532
vn 0.069276 0.092958 0.993257
vn -0.056564 -0.088468 -0.994472
vn -0.074120 -0.085341 -0.993591
vn -0.122819 -0.007185 -0.992403
vn -0.102013 -0.004582 -0.994773
vn 0.491559 -0.852569 0.177470
vn 0.549549 -0.815741 0.180452
vn 0.513895 -0.838812 -0.179739
vn 0.460608 -0.869804 -0.176864
vn 0.069276 0.092958 0.993257
vn 0.119504 0.014669 0.992725
vn 0.101820 0.006659 0.994781
vn 0.056290 0.090357 0.994317
vn -0.537320 0.825472 -0.172867
vn -0.509547 0.843172 0.171532
vn -0.449640 0.876058 0.174202
vn -0.475893 0.861922 -0.174973
vn -0.053956 -0.085559 -0.994871
vn -0.056564 -0.088468 -0.994472
vn -0.102013 -0.004582 -0.994773
vn -0.098699 0.000921 -0.995117
vn 0.465692 -0.867127 0.176694
vn 0.491559 -0.852569 0.177470
vn 0.460608 -0.869804 -0.176864
vn 0.436850 -0.882073 -0.176380
vn 0.056290 0.090357 0.994317
vn 0.101820 0.006659 0.994781
vn 0.098055 0.000147 0.995181
vn 0.053661 0.087430 0.994724
vn -0.475893 0.861922 -0.174973
vn -0.449640 0.876058 0.174202
vn -0.433337 0.883991 0.175441
vn -0.460638 0.869939 -0.176121
vn 0.083150 -0.003962 0.996529
vn 0.527498 -0.828708 0.187056
vn 0.519956 -0.835459 0.177917
vn 0.097648 0.003668 0.995214
vn -0.812695 -0.556219 0.173631
vn 0.083150 -0.003962 0.996529
vn 0.033467 0.073750 0.996715
vn -0.856620 -0.486100 0.172942
vn 0.527498 -0.828708 0.187056
vn -0.812695 -0.556219 0.173631
vn -0.812385 -0.558338 -0.168194
vn 0.506079 -0.847241 -0.161455
vn -0.530249 0.826662 0.188323
vn 0.033467 0.073750 0.996715
vn 0.047783 0.086304 0.995122
vn -0.496656 0.850273 0.174266
vn -0.856620 -0.486100 0.172942
vn -0.530249 0.826662 0.188323
vn -0.556097 0.815022 -0.162772
vn -0.858379 -0.484812 -0.167756
vn 0.506079 -0.847241 -0.161455
vn -0.060371 -0.095261 -0.993620
vn -0.049609 -0.083807 -0.995246
vn 0.491945 -0.852369 -0.177364
vn -0.060371 -0.095261 -0.993620
vn -0.812385 -0.558338 -0.168194
vn -0.858379 -0.484812 -0.167756
vn -0.113472 -0.011959 -0.993469
vn -0.113472 -0.011959 -0.993469
vn -0.556097 0.815022 -0.162772
vn -0.520480 0.835947 -0.174049
vn -0.099206 -0.001053 -0.995066
vn -0.053305 -0.081075 -0.995282
vn 0.436349 -0.882013 -0.177913
vn 0.491945 -0.852369 -0.177364
vn -0.049609 -0.083807 -0.995246
vn -0.099206 -0.001053 -0.995066
vn -0.520480 0.835947 -0.174049
vn -0.467001 0.867002 -0.173835
vn -0.097134 0.003739 -0.995264
vn 0.465822 -0.866669 0.178593
vn 0.095159 -0.000013 0.995462
vn 0.097648 0.003668 0.995214
vn 0.519956 -0.835459 0.177917
vn 0.050932 0.084875 0.995089
vn -0.443395 0.879409 0.173321
vn -0.496656 0.850273 0.174266
vn 0.047783 0.086304 0.995122
vn -0.812385 -0.558338 -0.168194
vn -0.812695 -0.556219 0.173631
vn -0.856620 -0.486100 0.172942
vn -0.858379 -0.484812 -0.167756
vn -0.053305 -0.081075 -0.995282
vn -0.049609 -0.083807 -0.995246
vn -0.099206 -0.001053 -0.995066
vn -0.097134 0.003739 -0.995264
vn 0.465822 -0.866669 0.178593
vn 0.519956 -0.835459 0.177917
vn 0.491945 -0.852369 -0.177364
vn 0.436349 -0.882013 -0.177913
vn 0.047783 0.086304 0.995122
vn 0.097648 0.003668 0.995214
vn 0.095159 -0.000013 0.995462
vn 0.050932 0.084875 0.995089
vn -0.520480 0.835947 -0.174049
vn -0.496656 0.850273 0.174266
vn -0.443395 0.879409 0.173321
vn -0.467001 0.867002 -0.173835
vn 0.033467 0.073750 0.996715
vn 0.083150 -0.003962 0.996529
vn 0.097648 0.003668 0.995214
vn 0.047783 0.086304 0.995122
vn 0.491945 -0.852369 -0.177364
vn 0.519956 -0.835459 0.177917
vn 0.527498 -0.828708 0.187056
vn 0.506079 -0.847241 -0.161455
vn -0.099206 -0.001053 -0.995066
vn -0.049609 -0.083807 -0.995246
vn -0.060371 -0.095261 -0.993620
vn -0.113472 -0.011959 -0.993469
vn -0.556097 0.815022 -0.162772
vn -0.530249 0.826662 0.188323
vn -0.496656 0.850273 0.174266
vn -0.520480 0.835947 -0.174049
vn 0.083150 -0.003962 0.996529
vn -0.812695 -0.556219 0.173631
vn 0.527498 -0.828708 0.187056
vn -0.530249 0.826662 0.188323
vn -0.856620 -0.486100 0.172942
vn 0.033467 0.073750 0.996715
vn 0.506079 -0.847241 -0.161455
vn -0.812385 -0.558338 -0.168194
vn -0.060371 -0.095261 -0.993620
vn -0.113472 -0.011959 -0.993469
vn -0.858379 -0.484812 -0.167756
vn -0.556097 0.815022 -0.162772
vn 0.809018 -0.587784 0.000000
vn 0.809018 -0.587784 0.000000
vn 1.000000 0.000000 0.000000
vn 1.000000 0.000000 0.000000
vn 1.000000 0.000000 0.000000
vn 1.000000 0.000000 0.000000
vn 0.809018 0.587784 0.000000
vn 0.809018 0.587784 0.000000
vn 0.809018 0.587784 0.000000
vn 0.809018 0.587784 0.000000
vn 0.309020 0.951056 0.000000
vn 0.309020 0.951056 0.000000
vn 0.309020 0.951056 0.000000
vn 0.309020 0.951056 0.000000
vn -0.309020 0.951056 0.000000
vn -0.309020 0.951056 0.000000
vn -0.309020 0.951056 0.000000
vn -0.309020 0.951056 0.000000
vn -0.809018 0.587784 0.000000
vn -0.809018 0.587784 0.000000
vn -0.809018 0.587784 0.000000
vn -0.809018 0.587784 0.000000
vn -1.000000 0.000000 0.000000
vn -1.000000 0.000000 0.000000
vn -1.000000 0.000000 0.000000
vn -1.000000 0.000000 0.000000
vn -0.809018 -0.587784 0.000000
vn -0.809018 -0.587784 0.000000
vn -0.809018 -0.587784 0.000000
vn -0.809018 -0.587784 0.000000
vn -0.309020 -0.951056 0.000000
vn -0.309020 -0.951056 0.000000
vn -0.309020 -0.951056 0.000000
vn -0.309020 -0.951056 0.000000
vn 0.309020 -0.951056 0.000000
vn 0.309020 -0.951056 0.000000
vn 0.309020 -0.951056 0.000000
vn 0.309020 -0.951056 0.000000
vn 0.809018 -0.587784 0.000000
vn 0.809018 -0.587784 0.000000
vn 0.552689 -0.724237 0.412331
vn 0.590580 -0.669023 0.451246
vn 0.590580 -0.669023 0.451246
vn 0.556074 -0.723965 0.408235
vn 0.556074 -0.723965 0.408235
vn 0.632874 -0.612979 0.472998
vn 0.632874 -0.612979 0.472998
vn 0.570927 -0.702336 0.425166
vn 0.481091 -0.815183 0.322533
vn 0.552689 -0.724237 0.412331
vn 0.556074 -0.723965 0.408235
vn 0.482635 -0.806976 0.340372
vn 0.482635 -0.806976 0.340372
vn 0.556074 -0.723965 0.408235
vn 0.570927 -0.702336 0.425166
vn 0.488503 -0.788542 0.373586
vn -0.669637 -0.655427 -0.349288
vn -0.665904 -0.660484 -0.346891
vn -0.727313 -0.566884 -0.386858
vn -0.727313 -0.566884 -0.386858
vn 0.778535 0.465069 0.421420
vn 0.775765 0.471382 0.419509
vn 0.727315 0.566880 0.386859
vn 0.727315 0.566880 0.386859
vn 0.566005 -0.740639 0.362068
vn 0.563530 -0.743149 0.360782
vn 0.376563 -0.888767 0.261328
vn 0.374517 -0.889957 0.260219
vn -0.669637 -0.655427 -0.349288
vn 0.374517 -0.889957 0.260219
vn 0.376563 -0.888767 0.261328
vn -0.665904 -0.660484 -0.346891
vn 0.566005 -0.740639 0.362068
vn 0.775765 0.471382 0.419509
vn 0.778535 0.465069 0.421420
vn 0.563530 -0.743149 0.360782
vn 0.071636 0.066272 0.995227
vn 0.071312 0.066182 0.995256
vn 0.083185 0.070956 0.994005
vn 0.082492 0.070581 0.994089
vn 0.087876 0.073492 0.993417
vn 0.087876 0.073492 0.993417
vn 0.082492 0.070581 0.994089
vn 0.083185 0.070956 0.994005
vn -0.450557 0.892480 -0.021828
vn -0.450470 0.892525 -0.021840
vn -0.511445 0.859208 -0.013643
vn -0.511572 0.859132 -0.013625
vn -0.511572 0.859132 -0.013625
vn -0.511445 0.859208 -0.013643
vn -0.542654 0.839905 -0.009253
vn -0.542654 0.839905 -0.009253
vn 0.320645 -0.644147 -0.694450
vn 0.320646 -0.644148 -0.694449
vn -0.028546 -0.159824 -0.986733
vn 0.503294 -0.861382 -0.068672
vn 0.503294 -0.861382 -0.068672
vn -0.028546 -0.159824 -0.986733
vn -0.023608 -0.160287 -0.986788
vn 0.442468 -0.894769 -0.060080
vn -0.087828 -0.073547 -0.993417
vn -0.087831 -0.073544 -0.993417
vn -0.083219 -0.071019 -0.993998
vn -0.028546 -0.159824 -0.986733
vn -0.023608 -0.160287 -0.986788
vn -0.028546 -0.159824 -0.986733
vn -0.083219 -0.071019 -0.993998
vn -0.071300 -0.066206 -0.995255
vn 0.512210 -0.858753 0.013537
vn 0.542659 -0.839902 0.009252
vn 0.542659 -0.839902 0.009252
vn 0.503294 -0.861382 -0.068672
vn 0.450139 -0.892691 0.021880
vn 0.512210 -0.858753 0.013537
vn 0.503294 -0.861382 -0.068672
vn 0.442468 -0.894769 -0.060080
vn 0.583277 -0.812039 0.019491
vn 0.574902 -0.816113 -0.058713
vn 0.574902 -0.816113 -0.058713
vn -0.009825 -0.186358 -0.982433
vn -0.009825 -0.186358 -0.982433
vn -0.090645 -0.076214 -0.992963
vn -0.612474 0.790491 0.000803
vn -0.606098 0.795390 -0.000143
vn 0.093657 0.075369 0.992748
vn 0.093813 0.075420 0.992729
s off
g FrontRailing1_R
usemtl Boat_large_mdlSG9
f 2/1/1 1/2/2 3/3/3 4/4/4
f 5/5/5 6/6/6 1/2/7 2/1/8
usemtl Boat_large_mdlSG
f 8/7/9 7/8/10 10/9/11 9/10/12
f 9/10/13 10/9/14 23/11/15 24/12/16
f 30/13/17 29/14/18 12/15/19 11/16/20
f 11/16/21 12/15/22 13/17/23 14/18/24
f 16/19/25 15/20/26 18/21/27 17/22/28
f 17/22/29 18/21/30 26/23/31 25/24/32
f 20/25/33 19/26/34 22/27/35 21/28/36
f 21/28/37 22/27/38 28/29/39 27/30/40
f 9/10/41 24/12/42 30/13/43 11/16/44
f 17/22/45 25/24/46 23/31/47 10/32/48
f 27/30/49 26/33/50 18/34/51 21/28/52
f 29/35/53 28/36/54 22/37/55 12/38/56
f 8/7/57 9/10/58 11/16/59 14/18/60
f 16/19/61 17/22/62 10/32/63 7/39/64
f 21/28/65 18/34/66 15/40/67 20/25/68
f 12/38/69 22/37/70 19/41/71 13/42/72
f 31/43/73 33/44/74 54/45/75 53/46/76
f 32/47/77 31/48/78 36/49/79 35/50/80
f 33/51/81 32/47/82 38/52/83 37/53/84
f 34/54/85 36/55/86 57/56/87 58/57/88
f 35/50/89 34/58/90 42/59/91 41/60/92
f 37/61/93 39/62/94 46/63/95 45/64/96
f 39/65/97 38/52/98 41/60/99 40/66/100
f 40/67/101 42/68/102 48/69/103 47/70/104
f 44/71/105 43/72/106 45/73/107 46/74/108
f 47/70/109 48/75/110 49/76/111 50/77/112
f 52/78/113 51/79/114 53/80/115 54/81/116
f 56/82/117 55/83/118 58/84/119 57/56/120
f 38/52/121 32/47/122 35/50/123 41/60/124
f 44/71/125 46/74/126 47/70/127 50/77/128
f 52/78/129 54/81/130 45/64/131 43/85/132
f 57/56/133 53/46/134 51/86/135 56/82/136
f 48/87/137 58/88/138 55/89/139 49/90/140
f 36/55/141 31/43/142 53/46/143 57/56/144
f 45/64/145 54/81/146 33/91/147 37/61/148
f 47/70/149 46/74/150 39/92/151 40/67/152
f 42/93/153 34/94/154 58/88/155 48/87/156
f 31/48/157 32/47/158 33/51/159
f 34/58/160 35/50/161 36/49/162
f 37/53/163 38/52/164 39/65/165
f 40/66/166 41/60/167 42/59/168
usemtl Boat_large_mdlSG1
f 59/95/169 60/96/170 61/97/171 62/98/172
f 62/99/173 61/100/174 63/101/175 64/102/176
f 64/103/177 63/104/178 65/105/179 66/106/180
f 66/107/181 65/108/182 67/109/183 68/110/184
f 68/111/185 67/112/186 69/113/187 70/114/188
f 70/115/189 69/116/190 71/117/191 72/118/192
f 72/119/193 71/120/194 73/121/195 74/122/196
f 74/123/197 73/124/198 75/125/199 76/126/200
f 76/127/201 75/128/202 77/129/203 78/130/204
f 78/131/205 77/132/206 60/133/207 59/134/208
usemtl Boat_large_mdlSG2
f 79/135/209 85/136/210 86/137/211 81/138/212
f 81/138/213 86/137/214 87/139/215 80/140/216
f 83/141/217 79/135/218 81/138/219 82/142/220
f 82/142/221 81/138/222 80/140/223 84/143/224
usemtl Boat_large_mdlSG1
f 93/144/225 94/145/226 88/146/227 89/147/228
f 99/148/229 96/149/230 90/150/231 91/151/232
f 97/152/233 98/153/234 95/154/235 92/155/236
f 93/144/237 92/155/238 95/154/239 94/145/240
f 97/156/241 96/149/242 99/148/243 98/157/244
f 104/158/245 103/159/246 105/160/247 106/161/248
s 1
f 119/162/249 115/163/250 106/161/251 105/160/252
s off
f 103/164/253 102/165/254 101/166/255 105/167/256
s 2
f 105/167/257 101/166/258 118/168/259 119/169/260
s 3
f 116/170/261 117/171/262 111/172/263 112/173/264
s off
f 112/174/265 111/172/266 113/175/267 114/176/268
s 4
f 117/171/269 118/177/270 101/178/271 111/172/272
s off
f 113/175/273 111/172/274 101/178/275 102/179/276
s 5
f 106/180/277 115/181/278 116/182/279 112/183/280
s off
f 104/184/281 106/180/282 112/183/283 114/185/284
s 5
f 116/182/279 115/181/278 107/186/285 110/187/286
s 3
f 110/188/287 109/189/288 117/171/262 116/170/261
s 4
f 109/189/289 100/190/290 118/177/270 117/171/269
s 2
f 119/169/260 118/168/259 100/191/291 108/192/292
s 1
f 107/193/293 115/163/250 119/162/249 108/194/294
