# This file uses centimeters as units for non-parametric coordinates.

mtllib FrontRailing4_L.mtl
g default
v -378.639526 -279.193787 212.423569
v -378.932404 -280.577454 211.009048
v -448.417603 -264.327850 216.284256
v -447.976196 -262.979492 217.693741
v -454.630646 -289.523254 216.284363
v -454.865540 -290.921051 217.695236
v -378.943420 -280.576263 220.345993
v -378.639526 -279.193787 218.930344
v -448.177948 -262.929474 224.210983
v -448.417603 -264.327728 225.620605
v -384.795349 -307.027618 218.933777
v -384.414368 -305.663635 220.346207
v -454.630646 -289.523499 225.620728
v -455.065430 -290.872284 224.209595
v -384.625092 -307.064056 212.421707
v -384.414337 -305.663513 211.009888
v -517.892029 -246.112564 221.558884
v -517.415955 -244.776184 222.968430
v -517.613953 -244.721420 229.485535
v -517.891968 -246.112442 230.895264
v -524.853882 -271.415192 230.895691
v -525.318542 -272.753784 229.484436
v -525.123230 -272.806305 222.970016
v -524.853760 -271.414612 221.559280
v -401.962341 -300.547791 216.154190
v -400.085114 -295.033997 166.431732
v -527.390564 -261.241699 175.968491
v -530.851440 -266.412506 225.776581
v -385.515594 -313.026611 246.303436
v -384.144501 -313.360443 244.835983
v -385.807831 -314.410126 244.886002
v -379.735687 -285.290100 244.887100
v -378.640564 -286.964966 244.789764
v -380.020660 -286.675049 246.304504
v -380.020996 -286.675262 236.968170
v -378.652069 -287.020050 238.333878
v -379.735962 -285.290039 238.386414
v -385.807892 -314.410095 238.385117
v -384.134796 -313.313843 238.278946
v -385.515656 -313.026489 236.967072
v -449.148712 -270.614685 243.549194
v -449.570099 -271.969696 242.139801
v -455.823792 -298.429199 242.140900
v -456.037964 -299.830383 243.551834
v -449.570190 -271.970001 251.476166
v -449.351166 -270.567657 250.067123
v -455.824005 -298.429932 251.477264
v -456.238708 -299.784576 250.065536
v -518.023682 -254.632095 247.415527
v -517.553833 -253.292892 248.824585
v -517.752441 -253.239029 255.342041
v -518.023438 -254.631393 256.751892
v -524.999023 -281.214447 256.751099
v -525.457092 -282.555420 255.339905
v -525.261230 -282.606049 248.825775
v -524.999084 -281.213287 247.414703
v -389.547852 -287.241974 238.301331
v -389.547852 -287.241974 214.693405
v -388.454346 -290.607361 214.693405
v -388.454346 -290.607361 238.301331
v -389.547852 -293.972748 214.693405
v -389.547852 -293.972748 238.301331
v -392.410614 -296.052673 214.693405
v -392.410614 -296.052673 238.301331
v -395.949188 -296.052673 214.693405
v -395.949188 -296.052673 238.301331
v -398.811951 -293.972748 214.693405
v -398.811951 -293.972748 238.301331
v -399.905457 -290.607361 214.693405
v -399.905457 -290.607361 238.301331
v -398.811951 -287.241974 214.693405
v -398.811951 -287.241974 238.301331
v -395.949188 -285.162048 214.693405
v -395.949188 -285.162048 238.301331
v -392.410614 -285.162048 214.693405
v -392.410614 -285.162048 238.301331
v -435.849609 -282.643921 201.988510
v -434.914459 -283.720337 219.346313
v -432.440765 -271.244354 220.072144
v -433.702332 -271.537262 202.637787
v -433.298828 -270.255371 204.119034
v -525.143921 -247.507767 226.828629
v -529.095703 -259.637848 226.264786
v -526.062317 -246.553116 210.877640
v -526.535522 -247.822861 209.406250
v -530.095032 -258.599091 208.908112
v -381.517548 -295.134155 215.801544
v -379.043976 -282.658051 216.527832
v -379.844757 -281.667297 200.572433
v -380.213959 -282.955750 199.088257
v -382.390564 -294.055878 198.440735
v -402.739258 -288.559326 216.875961
v -398.096893 -256.940033 108.293709
v -400.324585 -279.205780 160.696884
v -377.085419 -261.473969 108.267540
v -379.346466 -283.082275 160.325378
v -381.768829 -292.223785 215.639954
v -524.126099 -245.623398 167.051163
v -529.612793 -255.426971 226.158188
v -518.693970 -223.519897 109.046356
v -439.416016 -253.413315 99.650665
v -446.552368 -289.298920 207.745834
v -451.018707 -249.610046 99.650681
v -458.195984 -285.736938 208.365112
v -444.366394 -278.095032 212.255905
v -443.426117 -279.761688 211.668533
v -436.021057 -242.315536 99.650673
v -436.925568 -240.454193 99.650673
v -445.838684 -237.532516 99.650665
v -447.627106 -238.523346 99.650665
v -455.069458 -276.198792 212.288193
v -453.308716 -275.359406 212.731476
vt 1.402112 1.397772
vt 1.221373 1.397772
vt 1.221377 1.400787
vt 1.402117 1.400757
vt 1.041746 1.400818
vt 1.042030 1.397775
vt 1.402132 1.456165
vt 1.221382 1.456134
vt 1.221373 1.459149
vt 1.402112 1.459149
vt 1.041782 1.456106
vt 1.041812 1.459137
vt 1.604997 1.328652
vt 1.424972 1.328652
vt 1.425232 1.332305
vt 1.605253 1.332305
vt 1.244946 1.332301
vt 1.244946 1.328652
vt 1.374285 1.139411
vt 1.193790 1.139412
vt 1.193799 1.142622
vt 1.374305 1.142589
vt 1.014817 1.142653
vt 1.014804 1.139409
vt 1.424708 1.349065
vt 1.604741 1.349066
vt 1.193795 1.201561
vt 1.374290 1.201593
vt 1.611790 1.251778
vt 1.430264 1.251778
vt 1.430781 1.268499
vt 1.612295 1.268501
vt 1.244946 1.349074
vt 1.014810 1.201526
vt 1.248784 1.251773
vt 1.249224 1.268499
vt 1.042083 1.418222
vt 1.018288 1.291228
vt 0.693940 1.309651
vt 0.716429 1.434811
vt 1.297466 0.386361
vt 1.120638 0.384564
vt 1.120783 0.381031
vt 1.297855 0.382841
vt 1.318325 0.379748
vt 1.385642 0.379834
vt 1.384873 0.383367
vt 1.318400 0.383167
vt 1.314915 0.379863
vt 1.314934 0.363589
vt 1.318463 0.363333
vt 1.294539 0.463127
vt 1.118236 0.462478
vt 1.118220 0.458956
vt 1.294273 0.459627
vt 1.385521 0.363672
vt 1.389186 0.363814
vt 1.389167 0.380086
vt 1.297188 0.488958
vt 1.120267 0.488513
vt 1.120174 0.484987
vt 1.296835 0.485438
vt 1.318466 0.360049
vt 1.385670 0.360254
vt 1.298728 0.559478
vt 1.122022 0.559931
vt 1.121906 0.556403
vt 1.298863 0.555959
vt 0.940501 0.478174
vt 1.120039 0.478672
vt 1.120061 0.482194
vt 0.940518 0.481733
vt 0.941491 0.556859
vt 0.941575 0.560393
vt 0.938264 0.451821
vt 1.118375 0.452531
vt 1.118244 0.456064
vt 0.938162 0.455372
vt 0.940475 0.379185
vt 0.940359 0.382737
vt 1.295820 0.479154
vt 1.294958 0.453231
vt 1.122724 0.358461
vt 1.299520 0.360077
vt 1.298233 0.376495
vt 1.120922 0.374707
vt 0.938956 0.461817
vt 0.939811 0.488060
vt 0.942190 0.356807
vt 0.940646 0.372900
vt 0.989258 0.677490
vt 0.989258 0.717285
vt 0.724609 0.717285
vt 0.724609 0.677490
vt 0.989258 0.756836
vt 0.724609 0.756836
vt 0.989258 0.796631
vt 0.724609 0.796631
vt 0.989258 0.836304
vt 0.724609 0.836304
vt 0.989258 0.875916
vt 0.724609 0.875916
vt 0.989258 0.915588
vt 0.724609 0.915588
vt 0.989258 0.955231
vt 0.724609 0.955231
vt 0.989258 0.994892
vt 0.724609 0.994892
vt 0.989258 1.034546
vt 0.724609 1.034546
vt 0.989258 1.074219
vt 0.724609 1.074219
vt 1.488208 -0.467085
vt 1.488485 -0.412398
vt 1.712891 -0.408203
vt 1.711914 -0.462891
vt 2.109375 -0.407227
vt 2.109375 -0.461914
vt 1.571493 -0.102395
vt 1.572469 -0.030129
vt 1.796875 -0.032227
vt 1.795898 -0.104492
vt 2.195313 -0.037109
vt 2.195313 -0.108398
vt -1.763672 0.381348
vt -1.367196 0.376465
vt -1.367302 0.370407
vt -1.763482 0.375347
vt -1.367174 0.376464
vt -1.142091 0.370171
vt -1.142150 0.364157
vt -1.366211 0.321777
vt -1.763672 0.327148
vt -1.141805 0.315835
vt -1.329102 0.243164
vt -1.329993 0.177644
vt -1.724530 0.181595
vt -1.723633 0.247559
vt -1.104696 0.240717
vt -1.105587 0.175200
vt -0.683559 0.568135
vt -0.679328 0.431903
vt -1.013321 0.430299
vt -1.026239 0.579711
vt -0.682607 0.285521
vt -1.008113 0.271953
vt -0.627911 0.431283
vt -0.630596 0.287138
vt -0.632200 0.565865
vt 1.989371 -0.038205
vt 1.990234 -0.001953
vt 2.400391 -0.000977
vt 2.414241 -0.037333
vt -0.336320 2.269404
vt -0.332382 2.300905
vt 0.066758 2.300928
vt 0.064651 2.269420
vt 2.365234 -0.185547
vt 1.953125 -0.184570
vt 1.952262 -0.148315
vt 2.379071 -0.149227
vt 2.416016 -0.041992
vt 1.989258 -0.042957
vt 0.062719 2.264685
vt -0.336694 2.264657
vn 0.249284 0.952171 -0.176717
vn 0.223577 0.958535 -0.176706
vn -0.058745 0.066586 -0.996050
vn -0.056009 0.067585 -0.996140
vn -0.046668 0.059588 -0.997132
vn -0.058745 0.066586 -0.996050
vn 0.223577 0.958535 -0.176706
vn 0.196959 0.976721 -0.084988
vn -0.082680 -0.030445 -0.996111
vn -0.083335 -0.033609 -0.995955
vn -0.244955 -0.953631 -0.174883
vn -0.267362 -0.947555 -0.175094
vn -0.083335 -0.033609 -0.995955
vn -0.067653 -0.042711 -0.996794
vn -0.209384 -0.962139 -0.174488
vn -0.244955 -0.953631 -0.174883
vn 0.082535 0.028299 0.996186
vn 0.083109 0.031644 0.996038
vn 0.250264 0.951906 0.176754
vn 0.275480 0.944914 0.176775
vn 0.212779 0.940820 0.263785
vn 0.250264 0.951906 0.176754
vn 0.083109 0.031644 0.996038
vn 0.067394 0.038825 0.996971
vn -0.244184 -0.953808 0.175000
vn -0.221557 -0.959343 0.174854
vn 0.058423 -0.068545 0.995936
vn 0.055757 -0.069603 0.996015
vn 0.046051 -0.062205 0.997000
vn 0.058423 -0.068545 0.995936
vn -0.221557 -0.959343 0.174854
vn -0.190811 -0.965515 0.177121
vn -0.058745 0.066586 -0.996050
vn -0.083335 -0.033609 -0.995955
vn -0.082680 -0.030445 -0.996111
vn -0.056009 0.067585 -0.996140
vn 0.250264 0.951906 0.176754
vn 0.223577 0.958535 -0.176706
vn 0.249284 0.952171 -0.176717
vn 0.275480 0.944914 0.176775
vn 0.055757 -0.069603 0.996015
vn 0.058423 -0.068545 0.995936
vn 0.083109 0.031644 0.996038
vn 0.082535 0.028299 0.996186
vn -0.267362 -0.947555 -0.175094
vn -0.244955 -0.953631 -0.174883
vn -0.221557 -0.959343 0.174854
vn -0.244184 -0.953808 0.175000
vn -0.046668 0.059588 -0.997132
vn -0.067653 -0.042711 -0.996794
vn -0.083335 -0.033609 -0.995955
vn -0.058745 0.066586 -0.996050
vn 0.212779 0.940820 0.263785
vn 0.196959 0.976721 -0.084988
vn 0.223577 0.958535 -0.176706
vn 0.250264 0.951906 0.176754
vn 0.058423 -0.068545 0.995936
vn 0.046051 -0.062205 0.997000
vn 0.067394 0.038825 0.996971
vn 0.083109 0.031644 0.996038
vn -0.244955 -0.953631 -0.174883
vn -0.209384 -0.962139 -0.174488
vn -0.190811 -0.965515 0.177121
vn -0.221557 -0.959343 0.174854
vn -0.262687 -0.957773 -0.116905
vn -0.262687 -0.957773 -0.116905
vn -0.223895 -0.943877 -0.242832
vn -0.224100 -0.966945 -0.121645
vn 0.078072 -0.068919 0.994563
vn 0.059840 -0.066191 0.996011
vn -0.207570 -0.962552 0.174382
vn -0.173441 -0.971120 0.163842
vn 0.955065 -0.244349 0.167763
vn 0.972965 -0.157403 0.169008
vn 0.098502 0.029608 0.994696
vn 0.078072 -0.068919 0.994563
vn -0.173441 -0.971120 0.163842
vn -0.195638 -0.963089 -0.184890
vn 0.954768 -0.242435 -0.172173
vn 0.955065 -0.244349 0.167763
vn 0.231561 0.958924 0.163844
vn 0.236353 0.955397 0.177072
vn 0.082040 0.030100 0.996174
vn 0.098502 0.029608 0.994696
vn 0.972965 -0.157403 0.169008
vn 0.971897 -0.158976 -0.173614
vn 0.207713 0.960442 -0.185489
vn 0.231561 0.958924 0.163844
vn -0.042491 0.057964 -0.997414
vn -0.060277 0.063619 -0.996152
vn 0.208789 0.961755 -0.177298
vn 0.207713 0.960442 -0.185489
vn 0.971897 -0.158976 -0.173614
vn 0.954768 -0.242435 -0.172173
vn -0.061590 -0.034911 -0.997491
vn -0.042491 0.057964 -0.997414
vn -0.195638 -0.963089 -0.184890
vn -0.230335 -0.957327 -0.174560
vn -0.082366 -0.032551 -0.996071
vn -0.061590 -0.034911 -0.997491
vn 0.244687 0.953347 -0.176801
vn 0.208789 0.961755 -0.177298
vn -0.060277 0.063619 -0.996152
vn -0.057116 0.064678 -0.996270
vn -0.082229 -0.029344 -0.996181
vn -0.082366 -0.032551 -0.996071
vn -0.230335 -0.957327 -0.174560
vn -0.262626 -0.948888 -0.175041
vn 0.081986 0.026873 0.996271
vn 0.082040 0.030100 0.996174
vn 0.236353 0.955397 0.177072
vn 0.271317 0.946042 0.177178
vn -0.239772 -0.954980 0.174708
vn -0.207570 -0.962552 0.174382
vn 0.059840 -0.066191 0.996011
vn 0.056834 -0.066883 0.996141
vn 0.955065 -0.244349 0.167763
vn 0.954768 -0.242435 -0.172173
vn 0.971897 -0.158976 -0.173614
vn 0.972965 -0.157403 0.169008
vn -0.042491 0.057964 -0.997414
vn -0.061590 -0.034911 -0.997491
vn -0.082366 -0.032551 -0.996071
vn -0.060277 0.063619 -0.996152
vn 0.231561 0.958924 0.163844
vn 0.207713 0.960442 -0.185489
vn 0.208789 0.961755 -0.177298
vn 0.236353 0.955397 0.177072
vn 0.059840 -0.066191 0.996011
vn 0.078072 -0.068919 0.994563
vn 0.098502 0.029608 0.994696
vn 0.082040 0.030100 0.996174
vn -0.230335 -0.957327 -0.174560
vn -0.195638 -0.963089 -0.184890
vn -0.173441 -0.971120 0.163842
vn -0.207570 -0.962552 0.174382
vn 0.056834 -0.066883 0.996141
vn 0.059840 -0.066191 0.996011
vn 0.082040 0.030100 0.996174
vn 0.081986 0.026873 0.996271
vn 0.208789 0.961755 -0.177298
vn 0.244687 0.953347 -0.176801
vn 0.271317 0.946042 0.177178
vn 0.236353 0.955397 0.177072
vn -0.082366 -0.032551 -0.996071
vn -0.082229 -0.029344 -0.996181
vn -0.057116 0.064678 -0.996270
vn -0.060277 0.063619 -0.996152
vn -0.262626 -0.948888 -0.175041
vn -0.230335 -0.957327 -0.174560
vn -0.207570 -0.962552 0.174382
vn -0.239772 -0.954980 0.174708
vn 0.078072 -0.068919 0.994563
vn -0.173441 -0.971120 0.163842
vn 0.955065 -0.244349 0.167763
vn 0.231561 0.958924 0.163844
vn 0.098502 0.029608 0.994696
vn 0.972965 -0.157403 0.169008
vn -0.042491 0.057964 -0.997414
vn 0.207713 0.960442 -0.185489
vn 0.971897 -0.158976 -0.173614
vn -0.195638 -0.963089 -0.184890
vn -0.061590 -0.034911 -0.997491
vn 0.954768 -0.242435 -0.172173
vn 0.809015 0.587788 0.000000
vn 1.000000 0.000000 0.000000
vn 1.000000 0.000000 0.000000
vn 0.809015 0.587788 0.000000
vn 1.000000 0.000000 0.000000
vn 0.809016 -0.587786 0.000000
vn 0.809016 -0.587786 0.000000
vn 1.000000 0.000000 0.000000
vn 0.809016 -0.587786 0.000000
vn 0.309017 -0.951057 0.000000
vn 0.309017 -0.951057 0.000000
vn 0.809016 -0.587786 0.000000
vn 0.309017 -0.951057 0.000000
vn -0.309017 -0.951057 0.000000
vn -0.309017 -0.951057 0.000000
vn 0.309017 -0.951057 0.000000
vn -0.309017 -0.951057 0.000000
vn -0.809016 -0.587786 0.000000
vn -0.809016 -0.587786 0.000000
vn -0.309017 -0.951057 0.000000
vn -0.809016 -0.587786 0.000000
vn -1.000000 0.000000 0.000000
vn -1.000000 0.000000 0.000000
vn -0.809016 -0.587786 0.000000
vn -1.000000 0.000000 0.000000
vn -0.809015 0.587788 0.000000
vn -0.809015 0.587788 0.000000
vn -1.000000 0.000000 0.000000
vn -0.809015 0.587788 0.000000
vn -0.309017 0.951057 0.000000
vn -0.309017 0.951057 0.000000
vn -0.809015 0.587788 0.000000
vn -0.309017 0.951057 0.000000
vn 0.309017 0.951057 0.000000
vn 0.309017 0.951057 0.000000
vn -0.309017 0.951057 0.000000
vn 0.309017 0.951057 0.000000
vn 0.809015 0.587788 0.000000
vn 0.809015 0.587788 0.000000
vn 0.309017 0.951057 0.000000
vn 0.051559 -0.068205 0.996338
vn 0.051559 -0.068205 0.996338
vn 0.053981 -0.067400 0.996265
vn 0.053878 -0.067434 0.996268
vn 0.053981 -0.067400 0.996265
vn 0.057451 -0.065048 0.996227
vn 0.057515 -0.064981 0.996228
vn 0.053878 -0.067434 0.996268
vn -0.211787 -0.976059 -0.049545
vn -0.211787 -0.976059 -0.049545
vn -0.233447 -0.971230 -0.047067
vn -0.233413 -0.971238 -0.047072
vn -0.233447 -0.971230 -0.047067
vn -0.280081 -0.959090 -0.041231
vn -0.280021 -0.959108 -0.041238
vn -0.233413 -0.971238 -0.047072
vn 0.274264 0.960805 -0.040422
vn 0.228148 0.973021 -0.034335
vn -0.028659 0.170976 -0.984858
vn -0.027314 0.166729 -0.985624
vn 0.228148 0.973021 -0.034335
vn 0.112854 0.736081 -0.667419
vn 0.112854 0.736081 -0.667419
vn -0.028659 0.170976 -0.984858
vn -0.028659 0.170976 -0.984858
vn -0.053887 0.067448 -0.996267
vn -0.057545 0.064987 -0.996226
vn -0.027314 0.166729 -0.985624
vn -0.051556 0.068221 -0.996337
vn -0.051556 0.068221 -0.996337
vn -0.053887 0.067448 -0.996267
vn -0.028659 0.170976 -0.984858
vn 0.233470 0.971224 0.047077
vn 0.228148 0.973021 -0.034335
vn 0.274264 0.960805 -0.040422
vn 0.280064 0.959096 0.041230
vn 0.211795 0.976057 0.049548
vn 0.211795 0.976057 0.049548
vn 0.228148 0.973021 -0.034335
vn 0.233470 0.971224 0.047077
vn 0.243036 0.954689 0.171762
vn 0.240584 0.930279 0.276949
vn 0.263407 0.948554 0.175675
vn 0.263407 0.948554 0.175675
vn 0.239648 0.894240 0.378027
vn 0.255171 0.890907 0.375729
vn 0.255171 0.890907 0.375729
vn 0.240584 0.930279 0.276949
vn 0.184593 0.903280 0.387313
vn 0.184593 0.903280 0.387313
vn 0.239648 0.894240 0.378027
vn 0.240584 0.930279 0.276949
vn 0.180653 0.968992 0.168578
vn 0.180653 0.968992 0.168578
vn 0.240584 0.930279 0.276949
vn 0.243036 0.954689 0.171762
vn 0.983140 -0.182811 0.004132
vn 0.954830 -0.295056 -0.035221
vn 0.954831 -0.295056 -0.035221
vn 0.989123 -0.146134 0.016775
vn 0.167515 0.931594 0.322600
vn 0.410888 0.856118 0.313421
vn 0.395264 0.862983 0.314685
vn 0.179531 0.929340 0.322639
vn -0.954832 0.295043 0.035310
vn -0.954832 0.295042 0.035310
vn -0.912652 0.402000 0.073910
vn -0.897000 0.433674 0.085551
vn 0.983140 -0.182811 0.004132
vn 0.989123 -0.146134 0.016775
vn 0.395264 0.862983 0.314685
vn 0.410888 0.856118 0.313421
vn -0.897000 0.433674 0.085551
vn -0.912652 0.402000 0.073910
vn 0.167515 0.931594 0.322600
vn 0.179531 0.929340 0.322639
s off
g FrontRailing4_L
usemtl Boat_large_mdlSG
f 18/1/1 4/2/2 3/3/3 17/4/4
f 2/5/5 3/3/6 4/2/7 1/6/8
f 24/7/9 5/8/10 6/9/11 23/10/12
f 5/8/13 16/11/14 15/12/15 6/9/16
f 20/13/17 10/14/18 9/15/19 19/16/20
f 8/17/21 9/15/22 10/14/23 7/18/24
f 22/19/25 14/20/26 13/21/27 21/22/28
f 12/23/29 13/21/30 14/20/31 11/24/32
f 3/3/33 5/8/34 24/7/35 17/4/36
f 9/15/37 4/25/38 18/26/39 19/16/40
f 21/22/41 13/21/42 10/27/43 20/28/44
f 23/29/45 6/30/46 14/31/47 22/32/48
f 2/5/49 16/11/50 5/8/51 3/3/52
f 8/17/53 1/33/54 4/25/55 9/15/56
f 13/21/57 12/23/58 7/34/59 10/27/60
f 6/30/61 15/35/62 11/36/63 14/31/64
usemtl Boat_large_mdlSG9
f 28/37/65 27/38/66 26/39/67 25/40/68
usemtl Boat_large_mdlSG
f 29/41/69 47/42/70 48/43/71 31/44/72
f 30/45/73 33/46/74 34/47/75 29/48/76
f 31/49/77 38/50/78 39/51/79 30/45/80
f 32/52/81 46/53/82 45/54/83 34/55/84
f 33/46/85 36/56/86 37/57/87 32/58/88
f 35/59/89 42/60/90 41/61/91 37/62/92
f 36/56/93 39/51/94 40/63/95 35/64/96
f 38/65/97 44/66/98 43/67/99 40/68/100
f 50/69/101 41/70/102 42/71/103 49/72/104
f 56/73/105 43/67/106 44/66/107 55/74/108
f 52/75/109 45/76/110 46/77/111 51/78/112
f 54/79/113 48/43/114 47/42/115 53/80/116
f 30/45/117 39/51/118 36/56/119 33/46/120
f 35/59/121 40/68/122 43/67/123 42/60/124
f 32/52/125 37/81/126 41/70/127 46/53/128
f 47/42/129 29/41/130 34/82/131 45/76/132
f 44/83/133 38/84/134 31/85/135 48/86/136
f 53/80/137 47/42/138 45/76/139 52/75/140
f 41/70/141 50/69/142 51/87/143 46/53/144
f 43/67/145 56/73/146 49/88/147 42/60/148
f 55/89/149 44/83/150 48/86/151 54/90/152
f 29/48/153 31/49/154 30/45/155
f 32/58/156 34/47/157 33/46/158
f 35/64/159 37/57/160 36/56/161
f 38/50/162 40/63/163 39/51/164
usemtl Boat_large_mdlSG1
f 57/91/165 60/92/166 59/93/167 58/94/168
f 60/92/169 62/95/170 61/96/171 59/93/172
f 62/95/173 64/97/174 63/98/175 61/96/176
f 64/97/177 66/99/178 65/100/179 63/98/180
f 66/99/181 68/101/182 67/102/183 65/100/184
f 68/101/185 70/103/186 69/104/187 67/102/188
f 70/103/189 72/105/190 71/106/191 69/104/192
f 72/105/193 74/107/194 73/108/195 71/106/196
f 74/107/197 76/109/198 75/110/199 73/108/200
f 76/109/201 57/111/202 58/112/203 75/110/204
f 87/113/205 88/114/206 79/115/207 78/116/208
f 79/115/209 82/117/210 83/118/211 78/116/212
f 91/119/213 87/120/214 78/121/215 77/122/216
f 78/121/217 83/123/218 86/124/219 77/122/220
f 84/125/221 81/126/222 80/127/223 85/128/224
f 81/129/225 89/130/226 90/131/227 80/127/228
f 80/127/229 77/132/230 86/133/231 85/128/232
f 90/131/233 91/134/234 77/132/235 80/127/236
f 79/135/237 81/136/238 84/137/239 82/138/240
f 88/139/241 89/140/242 81/136/243 79/135/244
usemtl Boat_large_mdlSG2
f 92/141/245 94/142/246 98/143/247 99/144/248
f 93/145/249 100/146/250 98/143/251 94/142/252
f 96/147/253 95/148/254 93/145/255 94/142/256
f 97/149/257 96/147/258 94/142/259 92/141/260
usemtl Boat_large_mdlSG1
f 106/150/261 102/151/262 101/152/263 107/153/264
f 112/154/265 105/155/266 108/156/267 109/157/268
f 103/158/269 104/159/270 111/160/271 110/161/272
f 106/150/273 107/153/274 108/162/275 105/163/276
f 110/164/277 111/165/278 112/154/279 109/157/280
