# This file uses centimeters as units for non-parametric coordinates.

mtllib FrontRailing4_R.mtl
g default
v -401.962341 300.547791 216.154205
v -400.085114 295.033997 166.431732
v -530.851440 266.412506 225.776581
v -527.390564 261.241699 175.968506
v -387.034393 303.098450 215.302429
v -385.246216 297.444672 165.612976
v -385.515594 313.026611 246.303421
v -384.144501 313.360443 244.835968
v -385.807831 314.410126 244.885986
v -379.735687 285.290100 244.887085
v -378.640564 286.964966 244.789749
v -380.020660 286.675049 246.304489
v -380.020996 286.675262 236.968155
v -378.652069 287.020050 238.333862
v -379.735962 285.290039 238.386398
v -385.807892 314.410095 238.385101
v -384.134796 313.313843 238.278931
v -385.515656 313.026489 236.967056
v -449.148712 270.614685 243.549179
v -449.570099 271.969696 242.139786
v -455.823792 298.429199 242.140884
v -456.037964 299.830383 243.551819
v -449.570190 271.970001 251.476151
v -449.351166 270.567657 250.067108
v -455.824005 298.429932 251.477249
v -456.238708 299.784576 250.065521
v -517.553833 253.292892 248.824570
v -518.023682 254.632095 247.415512
v -524.999084 281.213287 247.414688
v -525.261230 282.606049 248.825760
v -525.457092 282.555420 255.339890
v -524.999023 281.214447 256.751068
v -518.023438 254.631393 256.751892
v -517.752441 253.239029 255.342026
v -517.415955 244.776184 222.968430
v -517.892029 246.112564 221.558884
v -378.639526 279.193787 212.423569
v -378.932404 280.577454 211.009048
v -448.417603 264.327850 216.284256
v -447.976196 262.979492 217.693741
v -525.123230 272.806305 222.970016
v -524.853760 271.414612 221.559280
v -454.630646 289.523254 216.284363
v -454.865540 290.921051 217.695236
v -517.891968 246.112442 230.895264
v -517.613953 244.721420 229.485535
v -378.943420 280.576263 220.345993
v -378.639526 279.193787 218.930344
v -448.177948 262.929474 224.210983
v -448.417603 264.327728 225.620605
v -525.318542 272.753784 229.484436
v -524.853882 271.415192 230.895691
v -384.795349 307.027618 218.933777
v -384.414368 305.663635 220.346207
v -454.630646 289.523499 225.620728
v -455.065430 290.872284 224.209595
v -384.625092 307.064056 212.421707
v -384.414337 305.663513 211.009888
v -389.547852 287.241974 238.301331
v -389.547852 287.241974 214.693405
v -388.454346 290.607361 214.693405
v -388.454346 290.607361 238.301331
v -389.547852 293.972748 214.693405
v -389.547852 293.972748 238.301331
v -392.410614 296.052673 214.693405
v -392.410614 296.052673 238.301331
v -395.949188 296.052673 214.693405
v -395.949188 296.052673 238.301331
v -398.811951 293.972748 214.693405
v -398.811951 293.972748 238.301331
v -399.905457 290.607361 214.693405
v -399.905457 290.607361 238.301331
v -398.811951 287.241974 214.693405
v -398.811951 287.241974 238.301331
v -395.949188 285.162048 214.693405
v -395.949188 285.162048 238.301331
v -392.410614 285.162048 214.693405
v -392.410614 285.162048 238.301331
v -435.849609 282.643921 201.988510
v -434.914459 283.720337 219.346313
v -432.440765 271.244354 220.072144
v -433.702332 271.537262 202.637787
v -433.298828 270.255371 204.119034
v -375.761169 283.359802 216.309921
v -378.234741 295.835876 215.583603
v -379.103912 294.757507 198.222626
v -376.925537 283.657776 198.870026
v -376.558411 282.368927 200.354385
v -529.095703 259.637848 226.264786
v -525.143921 247.507767 226.828629
v -530.095032 258.599091 208.908112
v -526.535522 247.822861 209.406250
v -526.062317 246.553116 210.877640
v -403.059570 288.485352 216.897797
v -398.407135 256.860962 108.295082
v -400.641724 279.142822 160.745987
v -375.315308 261.845642 108.266174
v -377.585480 283.403961 160.331116
v -380.011292 292.515625 215.538864
v -534.321106 254.339874 226.479218
v -528.787598 244.697769 167.772903
v -523.254089 222.357513 109.066566
v -439.416016 253.413315 99.650665
v -446.552368 289.298920 207.745834
v -451.018707 249.610046 99.650681
v -458.195984 285.736938 208.365112
v -444.366394 278.095032 212.255905
v -443.426117 279.761688 211.668533
v -436.021057 242.315536 99.650673
v -436.925568 240.454193 99.650673
v -445.838684 237.532516 99.650665
v -447.627106 238.523346 99.650665
v -455.069458 276.198792 212.288193
v -453.308716 275.359406 212.731476
vt 0.693940 1.309651
vt 0.716429 1.434811
vt 0.678081 1.436385
vt 0.656126 1.311224
vt 1.018288 1.291228
vt 1.042083 1.418222
vt 1.297466 0.386361
vt 1.297855 0.382841
vt 1.120783 0.381031
vt 1.120638 0.384564
vt 1.318325 0.379748
vt 1.318400 0.383167
vt 1.384873 0.383367
vt 1.385642 0.379834
vt 1.314915 0.379863
vt 1.318463 0.363333
vt 1.314934 0.363589
vt 1.294539 0.463127
vt 1.294273 0.459627
vt 1.118220 0.458956
vt 1.118236 0.462478
vt 1.389167 0.380086
vt 1.389186 0.363814
vt 1.385521 0.363672
vt 1.297188 0.488958
vt 1.296835 0.485438
vt 1.120174 0.484987
vt 1.120267 0.488513
vt 1.385670 0.360254
vt 1.318466 0.360049
vt 1.298728 0.559478
vt 1.298863 0.555959
vt 1.121906 0.556403
vt 1.122022 0.559931
vt 0.940501 0.478174
vt 0.940518 0.481733
vt 1.120061 0.482194
vt 1.120039 0.478672
vt 0.941491 0.556859
vt 0.941575 0.560393
vt 0.938264 0.451821
vt 0.938162 0.455372
vt 1.118244 0.456064
vt 1.118375 0.452531
vt 0.940475 0.379185
vt 0.940359 0.382737
vt 1.295820 0.479154
vt 1.294958 0.453231
vt 1.122724 0.358461
vt 1.120922 0.374707
vt 1.298233 0.376495
vt 1.299520 0.360077
vt 0.938956 0.461817
vt 0.939811 0.488060
vt 0.942190 0.356807
vt 0.940646 0.372900
vt 1.402112 1.397772
vt 1.402117 1.400757
vt 1.221377 1.400787
vt 1.221373 1.397772
vt 1.041746 1.400818
vt 1.042030 1.397775
vt 1.402132 1.456165
vt 1.402112 1.459149
vt 1.221373 1.459149
vt 1.221382 1.456134
vt 1.041812 1.459137
vt 1.041782 1.456106
vt 1.604997 1.328652
vt 1.605253 1.332305
vt 1.425232 1.332305
vt 1.424972 1.328652
vt 1.244946 1.332301
vt 1.244946 1.328652
vt 1.374285 1.139411
vt 1.374305 1.142589
vt 1.193799 1.142622
vt 1.193790 1.139412
vt 1.014817 1.142653
vt 1.014804 1.139409
vt 1.604741 1.349066
vt 1.424708 1.349065
vt 1.374290 1.201593
vt 1.193795 1.201561
vt 1.611790 1.251778
vt 1.612295 1.268501
vt 1.430781 1.268499
vt 1.430264 1.251778
vt 1.244946 1.349074
vt 1.014810 1.201526
vt 1.249224 1.268499
vt 1.248784 1.251773
vt 0.989258 0.677490
vt 0.724609 0.677490
vt 0.724609 0.717285
vt 0.989258 0.717285
vt 0.724609 0.756836
vt 0.989258 0.756836
vt 0.724609 0.796631
vt 0.989258 0.796631
vt 0.724609 0.836304
vt 0.989258 0.836304
vt 0.724609 0.875916
vt 0.989258 0.875916
vt 0.724609 0.915588
vt 0.989258 0.915588
vt 0.724609 0.955231
vt 0.989258 0.955231
vt 0.724609 0.994892
vt 0.989258 0.994892
vt 0.724609 1.034546
vt 0.989258 1.034546
vt 0.724609 1.074219
vt 0.989258 1.074219
vt 1.474689 -0.412656
vt 1.474454 -0.467343
vt 1.711914 -0.462891
vt 1.712891 -0.408203
vt 2.109375 -0.461914
vt 2.109375 -0.407227
vt 1.558673 -0.030000
vt 1.557696 -0.102266
vt 1.795898 -0.104492
vt 1.796875 -0.032227
vt 2.195313 -0.108398
vt 2.195313 -0.037109
vt -1.763672 0.381348
vt -1.763482 0.375347
vt -1.367302 0.370407
vt -1.367196 0.376465
vt -1.367174 0.376464
vt -1.128308 0.363773
vt -1.128253 0.369784
vt -1.763672 0.327148
vt -1.366211 0.321777
vt -1.128009 0.315470
vt -1.329102 0.243164
vt -1.723633 0.247559
vt -1.724530 0.181595
vt -1.329993 0.177644
vt -1.091791 0.175049
vt -1.090899 0.240567
vt -0.683559 0.568135
vt -1.034192 0.579980
vt -1.021073 0.430262
vt -0.679328 0.431903
vt -0.682607 0.285521
vt -1.015668 0.271638
vt -0.625562 0.287295
vt -0.622934 0.431223
vt -0.627230 0.565646
vt 1.989371 -0.038205
vt 2.414241 -0.037333
vt 2.400391 -0.000977
vt 1.990234 -0.001953
vt -0.336320 2.269404
vt 0.064651 2.269420
vt 0.066758 2.300928
vt -0.332382 2.300905
vt 2.365234 -0.185547
vt 2.379071 -0.149227
vt 1.952262 -0.148315
vt 1.953125 -0.184570
vt 1.989258 -0.042957
vt 2.416016 -0.041992
vt 0.062719 2.264685
vt -0.336694 2.264657
vn -0.223895 0.943877 -0.242832
vn -0.224100 0.966945 -0.121645
vn -0.169632 0.978634 -0.116191
vn -0.169633 0.978634 -0.116191
vn -0.262687 0.957773 -0.116905
vn -0.262687 0.957773 -0.116905
vn -0.224100 0.966945 -0.121645
vn -0.223895 0.943877 -0.242832
vn 0.078072 0.068919 0.994563
vn -0.173440 0.971120 0.163842
vn -0.207570 0.962552 0.174382
vn 0.059840 0.066191 0.996011
vn 0.955065 0.244349 0.167766
vn 0.078072 0.068919 0.994563
vn 0.098502 -0.029608 0.994696
vn 0.972965 0.157403 0.169010
vn -0.173440 0.971120 0.163842
vn 0.955065 0.244349 0.167766
vn 0.954768 0.242435 -0.172171
vn -0.195638 0.963089 -0.184891
vn 0.231561 -0.958924 0.163844
vn 0.098502 -0.029608 0.994696
vn 0.082040 -0.030100 0.996174
vn 0.236353 -0.955397 0.177072
vn 0.972965 0.157403 0.169010
vn 0.231561 -0.958924 0.163844
vn 0.207713 -0.960442 -0.185488
vn 0.971898 0.158976 -0.173611
vn -0.042491 -0.057965 -0.997414
vn 0.207713 -0.960442 -0.185488
vn 0.208789 -0.961755 -0.177298
vn -0.060277 -0.063619 -0.996152
vn 0.971898 0.158976 -0.173611
vn -0.042491 -0.057965 -0.997414
vn -0.061590 0.034911 -0.997491
vn 0.954768 0.242435 -0.172171
vn -0.195638 0.963089 -0.184891
vn -0.061590 0.034911 -0.997491
vn -0.082366 0.032551 -0.996070
vn -0.230334 0.957327 -0.174559
vn 0.244687 -0.953346 -0.176802
vn -0.057116 -0.064678 -0.996270
vn -0.060277 -0.063619 -0.996152
vn 0.208789 -0.961755 -0.177298
vn -0.082228 0.029344 -0.996181
vn -0.262626 0.948888 -0.175040
vn -0.230334 0.957327 -0.174559
vn -0.082366 0.032551 -0.996070
vn 0.081986 -0.026873 0.996271
vn 0.271317 -0.946042 0.177177
vn 0.236353 -0.955397 0.177072
vn 0.082040 -0.030100 0.996174
vn -0.239772 0.954980 0.174708
vn 0.056834 0.066883 0.996141
vn 0.059840 0.066191 0.996011
vn -0.207570 0.962552 0.174382
vn 0.955065 0.244349 0.167766
vn 0.972965 0.157403 0.169010
vn 0.971898 0.158976 -0.173611
vn 0.954768 0.242435 -0.172171
vn -0.042491 -0.057965 -0.997414
vn -0.060277 -0.063619 -0.996152
vn -0.082366 0.032551 -0.996070
vn -0.061590 0.034911 -0.997491
vn 0.231561 -0.958924 0.163844
vn 0.236353 -0.955397 0.177072
vn 0.208789 -0.961755 -0.177298
vn 0.207713 -0.960442 -0.185488
vn 0.059840 0.066191 0.996011
vn 0.082040 -0.030100 0.996174
vn 0.098502 -0.029608 0.994696
vn 0.078072 0.068919 0.994563
vn -0.230334 0.957327 -0.174559
vn -0.207570 0.962552 0.174382
vn -0.173440 0.971120 0.163842
vn -0.195638 0.963089 -0.184891
vn 0.056834 0.066883 0.996141
vn 0.081986 -0.026873 0.996271
vn 0.082040 -0.030100 0.996174
vn 0.059840 0.066191 0.996011
vn 0.208789 -0.961755 -0.177298
vn 0.236353 -0.955397 0.177072
vn 0.271317 -0.946042 0.177177
vn 0.244687 -0.953346 -0.176802
vn -0.082366 0.032551 -0.996070
vn -0.060277 -0.063619 -0.996152
vn -0.057116 -0.064678 -0.996270
vn -0.082228 0.029344 -0.996181
vn -0.262626 0.948888 -0.175040
vn -0.239772 0.954980 0.174708
vn -0.207570 0.962552 0.174382
vn -0.230334 0.957327 -0.174559
vn 0.078072 0.068919 0.994563
vn 0.955065 0.244349 0.167766
vn -0.173440 0.971120 0.163842
vn 0.231561 -0.958924 0.163844
vn 0.972965 0.157403 0.169010
vn 0.098502 -0.029608 0.994696
vn -0.042491 -0.057965 -0.997414
vn 0.971898 0.158976 -0.173611
vn 0.207713 -0.960442 -0.185488
vn -0.195638 0.963089 -0.184891
vn 0.954768 0.242435 -0.172171
vn -0.061590 0.034911 -0.997491
vn 0.249284 -0.952171 -0.176716
vn -0.056009 -0.067585 -0.996140
vn -0.058745 -0.066586 -0.996050
vn 0.223576 -0.958535 -0.176706
vn -0.046668 -0.059588 -0.997132
vn 0.196959 -0.976721 -0.084987
vn 0.223576 -0.958535 -0.176706
vn -0.058745 -0.066586 -0.996050
vn -0.082680 0.030445 -0.996111
vn -0.267361 0.947555 -0.175094
vn -0.244955 0.953631 -0.174883
vn -0.083335 0.033609 -0.995955
vn -0.083335 0.033609 -0.995955
vn -0.244955 0.953631 -0.174883
vn -0.209385 0.962139 -0.174488
vn -0.067653 0.042710 -0.996794
vn 0.082535 -0.028300 0.996186
vn 0.275480 -0.944914 0.176775
vn 0.250264 -0.951907 0.176754
vn 0.083109 -0.031644 0.996038
vn 0.212778 -0.940820 0.263785
vn 0.067394 -0.038825 0.996971
vn 0.083109 -0.031644 0.996038
vn 0.250264 -0.951907 0.176754
vn -0.244184 0.953808 0.174999
vn 0.055757 0.069602 0.996015
vn 0.058423 0.068545 0.995936
vn -0.221557 0.959343 0.174854
vn 0.046051 0.062204 0.997001
vn -0.190811 0.965515 0.177121
vn -0.221557 0.959343 0.174854
vn 0.058423 0.068545 0.995936
vn -0.058745 -0.066586 -0.996050
vn -0.056009 -0.067585 -0.996140
vn -0.082680 0.030445 -0.996111
vn -0.083335 0.033609 -0.995955
vn 0.250264 -0.951907 0.176754
vn 0.275480 -0.944914 0.176775
vn 0.249284 -0.952171 -0.176716
vn 0.223576 -0.958535 -0.176706
vn 0.055757 0.069602 0.996015
vn 0.082535 -0.028300 0.996186
vn 0.083109 -0.031644 0.996038
vn 0.058423 0.068545 0.995936
vn -0.267361 0.947555 -0.175094
vn -0.244184 0.953808 0.174999
vn -0.221557 0.959343 0.174854
vn -0.244955 0.953631 -0.174883
vn -0.046668 -0.059588 -0.997132
vn -0.058745 -0.066586 -0.996050
vn -0.083335 0.033609 -0.995955
vn -0.067653 0.042710 -0.996794
vn 0.212778 -0.940820 0.263785
vn 0.250264 -0.951907 0.176754
vn 0.223576 -0.958535 -0.176706
vn 0.196959 -0.976721 -0.084987
vn 0.058423 0.068545 0.995936
vn 0.083109 -0.031644 0.996038
vn 0.067394 -0.038825 0.996971
vn 0.046051 0.062204 0.997001
vn -0.244955 0.953631 -0.174883
vn -0.221557 0.959343 0.174854
vn -0.190811 0.965515 0.177121
vn -0.209385 0.962139 -0.174488
vn 0.809015 -0.587788 0.000000
vn 0.809015 -0.587788 0.000000
vn 1.000000 0.000000 0.000000
vn 1.000000 0.000000 0.000000
vn 1.000000 0.000000 0.000000
vn 1.000000 0.000000 0.000000
vn 0.809016 0.587786 0.000000
vn 0.809016 0.587786 0.000000
vn 0.809016 0.587786 0.000000
vn 0.809016 0.587786 0.000000
vn 0.309017 0.951057 0.000000
vn 0.309017 0.951057 0.000000
vn 0.309017 0.951057 0.000000
vn 0.309017 0.951057 0.000000
vn -0.309017 0.951057 0.000000
vn -0.309017 0.951057 0.000000
vn -0.309017 0.951057 0.000000
vn -0.309017 0.951057 0.000000
vn -0.809016 0.587786 0.000000
vn -0.809016 0.587786 0.000000
vn -0.809016 0.587786 0.000000
vn -0.809016 0.587786 0.000000
vn -1.000000 0.000000 0.000000
vn -1.000000 0.000000 0.000000
vn -1.000000 0.000000 0.000000
vn -1.000000 0.000000 0.000000
vn -0.809015 -0.587788 0.000000
vn -0.809015 -0.587788 0.000000
vn -0.809015 -0.587788 0.000000
vn -0.809015 -0.587788 0.000000
vn -0.309017 -0.951057 0.000000
vn -0.309017 -0.951057 0.000000
vn -0.309017 -0.951057 0.000000
vn -0.309017 -0.951057 0.000000
vn 0.309017 -0.951057 0.000000
vn 0.309017 -0.951057 0.000000
vn 0.309017 -0.951057 0.000000
vn 0.309017 -0.951057 0.000000
vn 0.809015 -0.587788 0.000000
vn 0.809015 -0.587788 0.000000
vn 0.051559 0.068207 0.996338
vn 0.051559 0.068207 0.996338
vn 0.053878 0.067434 0.996268
vn 0.053981 0.067400 0.996265
vn 0.053981 0.067400 0.996265
vn 0.053878 0.067434 0.996268
vn 0.057515 0.064981 0.996228
vn 0.057451 0.065048 0.996227
vn -0.211789 0.976058 -0.049570
vn -0.211789 0.976058 -0.049570
vn -0.233413 0.971238 -0.047072
vn -0.233447 0.971230 -0.047067
vn -0.233447 0.971230 -0.047067
vn -0.233413 0.971238 -0.047072
vn -0.280021 0.959108 -0.041238
vn -0.280081 0.959091 -0.041231
vn 0.274264 -0.960805 -0.040422
vn -0.027314 -0.166729 -0.985624
vn -0.028659 -0.170975 -0.984859
vn 0.228148 -0.973021 -0.034335
vn 0.228148 -0.973021 -0.034335
vn -0.028659 -0.170975 -0.984859
vn 0.112857 -0.736085 -0.667415
vn 0.112857 -0.736085 -0.667415
vn -0.028659 -0.170975 -0.984859
vn -0.027314 -0.166729 -0.985624
vn -0.057545 -0.064987 -0.996226
vn -0.053887 -0.067448 -0.996267
vn -0.051556 -0.068221 -0.996337
vn -0.051556 -0.068221 -0.996337
vn -0.028659 -0.170975 -0.984859
vn -0.053887 -0.067448 -0.996267
vn 0.233470 -0.971224 0.047076
vn 0.280064 -0.959096 0.041230
vn 0.274264 -0.960805 -0.040422
vn 0.228148 -0.973021 -0.034335
vn 0.211797 -0.976056 0.049576
vn 0.211797 -0.976056 0.049576
vn 0.233470 -0.971224 0.047076
vn 0.228148 -0.973021 -0.034335
vn 0.243036 -0.954689 0.171763
vn 0.262140 -0.949028 0.175010
vn 0.262140 -0.949028 0.175010
vn 0.240584 -0.930279 0.276949
vn 0.239648 -0.894240 0.378027
vn 0.240584 -0.930279 0.276949
vn 0.254454 -0.891194 0.375536
vn 0.254454 -0.891194 0.375536
vn 0.240584 -0.930279 0.276949
vn 0.239648 -0.894240 0.378027
vn 0.184723 -0.903425 0.386911
vn 0.184723 -0.903425 0.386911
vn 0.240584 -0.930279 0.276949
vn 0.180745 -0.968999 0.168442
vn 0.180745 -0.968999 0.168442
vn 0.243036 -0.954689 0.171763
vn 0.983140 0.182810 0.004133
vn 0.989123 0.146134 0.016775
vn 0.954831 0.295056 -0.035221
vn 0.954830 0.295056 -0.035221
vn 0.167515 -0.931594 0.322601
vn 0.179531 -0.929340 0.322639
vn 0.395263 -0.862983 0.314685
vn 0.410888 -0.856118 0.313421
vn -0.954832 -0.295042 0.035309
vn -0.897000 -0.433674 0.085552
vn -0.912652 -0.402000 0.073911
vn -0.954832 -0.295042 0.035309
vn 0.983140 0.182810 0.004133
vn 0.410888 -0.856118 0.313421
vn 0.395263 -0.862983 0.314685
vn 0.989123 0.146134 0.016775
vn -0.897000 -0.433674 0.085552
vn 0.179531 -0.929340 0.322639
vn 0.167515 -0.931594 0.322601
vn -0.912652 -0.402000 0.073911
s off
g FrontRailing4_R
usemtl Boat_large_mdlSG9
f 2/1/1 1/2/2 5/3/3 6/4/4
f 4/5/5 3/6/6 1/2/7 2/1/8
usemtl Boat_large_mdlSG
f 7/7/9 9/8/10 26/9/11 25/10/12
f 8/11/13 7/12/14 12/13/15 11/14/16
f 9/15/17 8/11/18 17/16/19 16/17/20
f 10/18/21 12/19/22 23/20/23 24/21/24
f 11/14/25 10/22/26 15/23/27 14/24/28
f 13/25/29 15/26/30 19/27/31 20/28/32
f 14/24/33 13/29/34 18/30/35 17/16/36
f 16/31/37 18/32/38 21/33/39 22/34/40
f 27/35/41 28/36/42 20/37/43 19/38/44
f 29/39/45 30/40/46 22/34/47 21/33/48
f 33/41/49 34/42/50 24/43/51 23/44/52
f 31/45/53 32/46/54 25/10/55 26/9/56
f 8/11/57 11/14/58 14/24/59 17/16/60
f 13/25/61 20/28/62 21/33/63 18/32/64
f 10/18/65 24/21/66 19/38/67 15/47/68
f 25/10/69 23/44/70 12/48/71 7/7/72
f 22/49/73 26/50/74 9/51/75 16/52/76
f 32/46/77 33/41/78 23/44/79 25/10/80
f 19/38/81 24/21/82 34/53/83 27/35/84
f 21/33/85 20/28/86 28/54/87 29/39/88
f 30/55/89 31/56/90 26/50/91 22/49/92
f 7/12/93 8/11/94 9/15/95
f 10/22/96 11/14/97 12/13/98
f 13/29/99 14/24/100 15/23/101
f 16/17/102 17/16/103 18/30/104
f 35/57/105 36/58/106 39/59/107 40/60/108
f 38/61/109 37/62/110 40/60/111 39/59/112
f 42/63/113 41/64/114 44/65/115 43/66/116
f 43/66/117 44/65/118 57/67/119 58/68/120
f 45/69/121 46/70/122 49/71/123 50/72/124
f 48/73/125 47/74/126 50/72/127 49/71/128
f 51/75/129 52/76/130 55/77/131 56/78/132
f 54/79/133 53/80/134 56/78/135 55/77/136
f 39/59/137 36/58/138 42/63/139 43/66/140
f 49/71/141 46/70/142 35/81/143 40/82/144
f 52/76/145 45/83/146 50/84/147 55/77/148
f 41/85/149 51/86/150 56/87/151 44/88/152
f 38/61/153 39/59/154 43/66/155 58/68/156
f 48/73/157 49/71/158 40/82/159 37/89/160
f 55/77/161 50/84/162 47/90/163 54/79/164
f 44/88/165 56/87/166 53/91/167 57/92/168
usemtl Boat_large_mdlSG1
f 59/93/169 60/94/170 61/95/171 62/96/172
f 62/96/173 61/95/174 63/97/175 64/98/176
f 64/98/177 63/97/178 65/99/179 66/100/180
f 66/100/181 65/99/182 67/101/183 68/102/184
f 68/102/185 67/101/186 69/103/187 70/104/188
f 70/104/189 69/103/190 71/105/191 72/106/192
f 72/106/193 71/105/194 73/107/195 74/108/196
f 74/108/197 73/107/198 75/109/199 76/110/200
f 76/110/201 75/109/202 77/111/203 78/112/204
f 78/112/205 77/111/206 60/113/207 59/114/208
f 84/115/209 85/116/210 80/117/211 81/118/212
f 81/118/213 80/117/214 89/119/215 90/120/216
f 85/121/217 86/122/218 79/123/219 80/124/220
f 80/124/221 79/123/222 91/125/223 89/126/224
f 93/127/225 92/128/226 82/129/227 83/130/228
f 83/131/229 82/129/230 87/132/231 88/133/232
f 82/129/233 92/128/234 91/134/235 79/135/236
f 86/136/237 87/132/238 82/129/239 79/135/240
f 81/137/241 90/138/242 93/139/243 83/140/244
f 88/141/245 84/142/246 81/137/247 83/140/248
usemtl Boat_large_mdlSG2
f 94/143/249 100/144/250 101/145/251 96/146/252
f 95/147/253 96/146/254 101/145/255 102/148/256
f 96/146/257 95/147/258 97/149/259 98/150/260
f 96/146/261 98/150/262 99/151/263 94/143/264
usemtl Boat_large_mdlSG1
f 108/152/265 109/153/266 103/154/267 104/155/268
f 114/156/269 111/157/270 110/158/271 107/159/272
f 105/160/273 112/161/274 113/162/275 106/163/276
f 108/152/277 107/164/278 110/165/279 109/153/280
f 112/166/281 111/157/282 114/156/283 113/167/284
