# This file uses centimeters as units for non-parametric coordinates.

mtllib FrontRailing0_R.mtl
g default
v -883.642456 12.417023 102.714600
v -1030.781006 11.622055 273.001526
v -875.025391 11.283550 109.088394
v -874.011353 9.728630 109.831985
v -1021.149902 8.933655 280.118896
v -1022.163940 10.488579 279.375305
v -1021.337524 -0.989435 279.812134
v -874.198975 -0.194481 109.525215
v -983.694824 50.040466 273.208801
v -864.215088 36.096710 108.936981
v -1028.887207 11.117615 280.835785
v -882.641907 7.434548 108.989777
v -955.764465 9.276062 194.912781
v -923.954956 43.068573 191.072891
v -948.236572 75.771065 267.594666
v -895.629883 67.943474 188.238037
v -843.023071 60.115860 108.881416
v -961.590027 65.907051 251.795120
v -836.930298 58.027725 76.513214
v -830.055542 67.043045 80.997253
v -954.715271 74.922371 256.279175
v -828.955261 50.877647 82.506462
v -830.585083 50.782585 81.351585
v -955.244812 58.661907 256.633514
v -953.614990 58.756969 257.788391
v -823.710327 59.797909 85.835632
v -823.675232 57.801712 85.950356
v -948.334961 65.681030 261.232269
v -948.370056 67.677231 261.117554
v -926.159363 67.921997 284.322693
v -926.159363 67.921997 264.344116
v -925.065918 71.287384 264.344116
v -925.065918 71.287384 284.322693
v -926.159363 74.652771 264.344116
v -926.159363 74.652771 284.322693
v -929.022095 76.732697 264.344116
v -929.022095 76.732697 284.322693
v -932.560730 76.732697 264.344116
v -932.560730 76.732697 284.322693
v -935.423584 74.652771 264.344116
v -935.423584 74.652771 284.322693
v -936.516968 71.287384 264.344116
v -936.516968 71.287384 284.322693
v -935.423584 67.921997 264.344116
v -935.423584 67.921997 284.322693
v -932.560730 65.842072 264.344116
v -932.560730 65.842072 284.322693
v -929.022095 65.842072 264.344116
v -929.022095 65.842072 284.322693
v -946.285278 93.911156 260.610077
v -945.526489 92.718842 259.187805
v -929.546997 66.386360 260.615723
v -930.326721 67.568794 259.197754
v -968.682983 37.024189 266.421997
v -969.710571 38.061684 265.055023
v -930.326965 67.569206 268.534119
v -929.546997 66.386360 267.110016
v -969.668701 38.007366 274.388092
v -968.964844 36.805153 272.953339
v -946.285278 93.911156 267.102417
v -945.526245 92.718178 268.524170
v -992.289856 58.776112 276.576630
v -993.200134 59.916504 275.183990
v -992.336487 58.834713 267.244049
v -993.200134 59.916504 268.707367
v -1031.865356 22.909224 284.550964
v -1033.379272 23.596970 283.268158
v -1001.868652 10.264690 278.772919
v -1003.182434 10.896747 280.309357
v -1003.390137 10.996658 271.003418
v -1001.868652 10.264690 272.286102
v -1033.379272 23.596970 276.782776
v -1032.072632 23.003412 275.245239
v -1003.272461 -0.000000 271.003479
v -1001.758789 -0.000000 272.310425
v -1001.758789 -0.000000 278.795776
v -1003.065796 -0.000000 280.309387
v -1031.865723 -0.000000 284.551788
v -1033.379272 -0.000000 283.244812
v -1033.379272 -0.000000 276.759460
v -1032.072266 -0.000000 275.245850
v -940.486328 94.945129 265.563965
v -990.293518 56.976200 272.629517
v -1037.783203 15.566956 280.906433
v -914.983398 90.307159 218.748230
v -954.965088 52.038101 212.326614
v -994.037720 15.702011 208.349731
v -1003.464722 12.952441 277.613007
v -1004.739746 11.534896 260.481018
v -1026.215576 10.617584 280.123962
v -1004.739746 -0.000391 260.481018
v -1003.464722 0.000430 277.613007
v -1026.215576 -0.000391 280.123962
v -1004.880249 11.747333 260.495789
v -1003.285339 11.800726 261.980347
v -1003.283569 -0.000320 261.829987
v -1004.761963 -0.000391 260.483368
v -953.293335 68.723801 268.246002
v -945.549683 58.387711 268.325287
v -947.025513 57.263947 252.429001
v -947.985535 58.308422 251.016418
v -954.899231 67.500992 250.948364
v -953.293335 68.723801 268.246002
vt 1.233597 -1.242696
vt 1.854692 -1.242695
vt 1.871094 -1.216797
vt 1.250000 -1.216797
vt 1.854578 -1.249718
vt 1.233484 -1.249718
vt 1.240235 -1.261720
vt 1.861328 -1.261719
vt -2.350642 0.607858
vt -2.520496 0.590943
vt -2.311276 0.361200
vt -2.186230 0.381380
vt -2.101849 0.134097
vt -2.024306 0.162988
vt -2.085727 0.392055
vt -2.226854 0.609751
vt -1.946545 0.180097
vt 1.250000 -1.392578
vt 1.871094 -1.392578
vt 1.854691 -1.364953
vt 1.234461 -1.366679
vt 1.233597 -1.242696
vt 1.854692 -1.242695
vt 1.871094 -1.216797
vt 1.250000 -1.216797
vt 1.854578 -1.249718
vt 1.233484 -1.249718
vt 1.246986 -1.273721
vt 1.868078 -1.273719
vt 1.852539 -1.361328
vt 1.232422 -1.363281
vt 0.622559 0.283691
vt 0.378662 0.283691
vt 0.378662 0.327148
vt 0.622559 0.327148
vt 0.622559 0.327148
vt 0.378662 0.327148
vt 0.378662 0.370117
vt 0.622559 0.370117
vt 0.622559 0.370117
vt 0.378662 0.370117
vt 0.378662 0.413574
vt 0.622559 0.413574
vt 0.622559 0.413574
vt 0.378662 0.413574
vt 0.378662 0.456543
vt 0.622559 0.456543
vt 0.622559 0.456543
vt 0.378662 0.456543
vt 0.378662 0.500000
vt 0.622559 0.500000
vt 0.622559 0.500000
vt 0.378662 0.500000
vt 0.378662 0.542969
vt 0.622559 0.542969
vt 0.622559 0.542969
vt 0.378662 0.542969
vt 0.378662 0.586182
vt 0.622559 0.586182
vt 0.622559 0.586182
vt 0.378662 0.586182
vt 0.378662 0.629395
vt 0.622559 0.629395
vt 0.622559 0.629395
vt 0.378662 0.629395
vt 0.378662 0.672607
vt 0.622559 0.672607
vt 0.622559 0.672607
vt 0.378662 0.672607
vt 0.378662 0.715820
vt 0.622559 0.715820
vt 2.074139 0.945277
vt 2.073984 0.949407
vt 1.969239 0.949377
vt 1.969122 0.945355
vt 1.895239 0.989414
vt 1.895240 0.985126
vt 1.987880 0.985026
vt 1.988226 0.989252
vt 1.988226 0.989241
vt 2.072617 0.984881
vt 2.072617 0.988618
vt 1.895239 0.965344
vt 1.895239 0.961028
vt 1.988226 0.961028
vt 1.988573 0.965269
vt 2.631735 1.204771
vt 2.631247 1.202037
vt 2.713341 1.201927
vt 2.710243 1.204771
vt 2.504551 1.142275
vt 2.504621 1.139664
vt 2.631319 1.139535
vt 2.632119 1.142281
vt 2.631735 1.139839
vt 2.774959 1.139657
vt 2.772453 1.142620
vt 2.667729 1.459152
vt 2.665499 1.456593
vt 2.782940 1.456549
vt 2.785872 1.459152
vt 2.932798 1.166568
vt 2.936304 1.165863
vt 2.922740 1.223154
vt 2.919587 1.222414
vt 2.072617 0.965122
vt 2.072617 0.961028
vt 2.103842 0.961028
vt 2.103884 0.965052
vt 2.072617 0.988834
vt 2.103884 0.984807
vt 2.103834 0.988788
vt 1.857343 0.945496
vt 1.855692 0.948754
vt 1.788695 0.949407
vt 1.788695 0.945564
vt 2.504756 1.201888
vt 2.074139 0.926390
vt 1.969122 0.926513
vt 2.520477 1.456462
vt 2.520653 1.400479
vt 2.622273 1.400468
vt 2.720034 1.400866
vt 1.857343 0.926629
vt 2.856166 1.179450
vt 2.849380 1.205805
vt 1.788695 0.926697
vt 3.012431 0.832191
vt 2.949731 0.786344
vt 2.955491 0.759505
vt 3.025697 0.776115
vt 2.101430 1.182723
vt 2.180164 1.351519
vt 2.035017 1.364071
vt 1.990227 1.241539
vt 2.238032 1.160666
vt 2.338738 1.349880
vt 4.343750 -0.410156
vt 4.035156 -0.428711
vt 4.425781 -0.457031
vt 4.445313 -0.132813
vt 4.132813 -0.057617
vt 4.132813 -0.128906
vt 4.402344 0.422852
vt 4.308594 0.422363
vt 4.308594 0.422363
vt 4.402344 0.422852
vt 4.406250 0.352539
vt 4.409409 0.359267
vt 4.409477 0.358656
vt 4.406250 0.352539
vt -3.996558 0.404426
vt -3.998917 0.401583
vt -3.693269 0.372972
vt -3.693428 0.378912
vt -4.000000 0.401855
vt -3.693359 0.324707
vt -3.644531 0.267578
vt -3.953125 0.270996
vt -3.947826 0.206529
vt -3.644531 0.202065
vt 4.406250 0.352539
vt 4.406250 0.352539
vt 4.035156 -0.483398
vn 0.158502 0.977164 0.141518
vn 0.170194 0.973679 0.151603
vn 0.077704 0.994389 0.071783
vn 0.077704 0.994389 0.071783
vn 0.756378 0.024572 0.653673
vn 0.756290 0.028529 0.653615
vn 0.756293 -0.034503 0.653323
vn 0.756293 -0.034503 0.653323
vn 0.756378 0.024572 0.653673
vn 0.170194 0.973679 0.151603
vn 0.158502 0.977164 0.141518
vn 0.756290 0.028529 0.653615
vn 0.613380 -0.607183 0.505068
vn 0.691460 -0.426621 0.582990
vn 0.683551 -0.450631 0.574187
vn 0.625562 -0.594112 0.505671
vn 0.683551 -0.450631 0.574187
vn 0.709171 -0.381528 0.592885
vn 0.643763 -0.568488 0.512241
vn 0.625562 -0.594112 0.505671
vn 0.586363 -0.660837 0.468480
vn 0.586363 -0.660836 0.468480
vn 0.613380 -0.607183 0.505068
vn 0.625562 -0.594112 0.505671
vn 0.626357 -0.605300 0.491213
vn 0.626357 -0.605300 0.491213
vn 0.625562 -0.594112 0.505671
vn 0.643763 -0.568488 0.512241
vn -0.563874 -0.739446 -0.367785
vn -0.563874 -0.739446 -0.367785
vn -0.492293 -0.811968 -0.313617
vn -0.492292 -0.811969 -0.313616
vn 0.627948 0.657072 0.417058
vn 0.627948 0.657073 0.417057
vn 0.563874 0.739446 0.367785
vn 0.563874 0.739446 0.367785
vn 0.657073 -0.570317 0.492944
vn 0.657072 -0.570318 0.492944
vn 0.510371 -0.762698 0.397258
vn 0.510370 -0.762699 0.397257
vn -0.492293 -0.811968 -0.313617
vn 0.510370 -0.762699 0.397257
vn 0.510371 -0.762698 0.397258
vn -0.492292 -0.811969 -0.313616
vn 0.657073 -0.570317 0.492944
vn 0.627948 0.657073 0.417057
vn 0.627948 0.657072 0.417058
vn 0.657072 -0.570318 0.492944
vn 0.809022 -0.587778 0.000000
vn 0.809022 -0.587778 0.000000
vn 1.000000 0.000000 0.000000
vn 1.000000 0.000000 0.000000
vn 1.000000 0.000000 0.000000
vn 1.000000 0.000000 0.000000
vn 0.809022 0.587778 0.000000
vn 0.809022 0.587778 0.000000
vn 0.809022 0.587778 0.000000
vn 0.809022 0.587778 0.000000
vn 0.309016 0.951057 0.000000
vn 0.309016 0.951057 0.000000
vn 0.309016 0.951057 0.000000
vn 0.309016 0.951057 0.000000
vn -0.309011 0.951059 0.000000
vn -0.309011 0.951059 0.000000
vn -0.309011 0.951059 0.000000
vn -0.309011 0.951059 0.000000
vn -0.809018 0.587784 0.000000
vn -0.809018 0.587784 0.000000
vn -0.809018 0.587784 0.000000
vn -0.809018 0.587784 0.000000
vn -1.000000 0.000000 0.000000
vn -1.000000 0.000000 0.000000
vn -1.000000 0.000000 0.000000
vn -1.000000 0.000000 0.000000
vn -0.809018 -0.587784 0.000000
vn -0.809018 -0.587784 0.000000
vn -0.809018 -0.587784 0.000000
vn -0.809018 -0.587784 0.000000
vn -0.309011 -0.951059 0.000000
vn -0.309011 -0.951059 0.000000
vn -0.309011 -0.951059 0.000000
vn -0.309011 -0.951059 0.000000
vn 0.309016 -0.951057 0.000000
vn 0.309016 -0.951057 0.000000
vn 0.309016 -0.951057 0.000000
vn 0.309016 -0.951057 0.000000
vn 0.809022 -0.587778 0.000000
vn 0.809022 -0.587778 0.000000
vn -0.537320 0.825472 -0.172867
vn -0.122819 -0.007185 -0.992403
vn -0.168626 -0.007466 -0.985652
vn -0.635304 0.754023 -0.166851
vn -0.074120 -0.085341 -0.993591
vn 0.513895 -0.838812 -0.179739
vn 0.582476 -0.791770 -0.183905
vn -0.108208 -0.081016 -0.990822
vn -0.108208 -0.081016 -0.990822
vn 0.582476 -0.791770 -0.183905
vn 0.706593 -0.673622 -0.216705
vn -0.132266 -0.048295 -0.990037
vn 0.549549 -0.815741 0.180452
vn 0.119504 0.014669 0.992725
vn 0.157283 0.016961 0.987408
vn 0.622422 -0.763539 0.172043
vn 0.622422 -0.763539 0.172043
vn 0.157283 0.016961 0.987408
vn 0.164568 0.018922 0.986184
vn 0.750612 -0.622313 0.222055
vn 0.069276 0.092958 0.993257
vn -0.509547 0.843172 0.171532
vn -0.600612 0.779407 0.178300
vn 0.102809 0.090093 0.990613
vn 0.102809 0.090093 0.990613
vn -0.600612 0.779407 0.178300
vn -0.811898 0.553905 0.184420
vn 0.082019 0.076431 0.993696
vn -0.635304 0.754023 -0.166851
vn -0.168626 -0.007466 -0.985652
vn -0.212598 0.013301 -0.977049
vn -0.824545 0.549394 -0.135249
vn 0.082019 0.076431 0.993696
vn -0.811898 0.553905 0.184420
vn -0.982057 -0.000090 0.188587
vn 0.079626 0.000463 0.996825
vn 0.750612 -0.622313 0.222055
vn 0.164568 0.018922 0.986184
vn 0.173572 0.000885 0.984821
vn 0.986295 0.010734 0.164645
vn -0.132266 -0.048295 -0.990037
vn 0.706593 -0.673622 -0.216705
vn 0.980713 0.010273 -0.195181
vn -0.114580 -0.000255 -0.993414
vn -0.824545 0.549394 -0.135249
vn -0.212598 0.013301 -0.977049
vn -0.203229 -0.000463 -0.979131
vn -0.987193 0.000076 -0.159533
vn 0.513895 -0.838812 -0.179739
vn 0.549549 -0.815741 0.180452
vn 0.622422 -0.763539 0.172043
vn 0.582476 -0.791770 -0.183905
vn 0.119504 0.014669 0.992725
vn 0.069276 0.092958 0.993257
vn 0.102809 0.090093 0.990613
vn 0.157283 0.016961 0.987408
vn -0.509547 0.843172 0.171532
vn -0.537320 0.825472 -0.172867
vn -0.635304 0.754023 -0.166851
vn -0.600612 0.779407 0.178300
vn -0.122819 -0.007185 -0.992403
vn -0.074120 -0.085341 -0.993591
vn -0.108208 -0.081016 -0.990822
vn -0.168626 -0.007466 -0.985652
vn 0.157283 0.016961 0.987408
vn 0.102809 0.090093 0.990613
vn 0.082019 0.076431 0.993696
vn 0.164568 0.018922 0.986184
vn 0.582476 -0.791770 -0.183905
vn 0.622422 -0.763539 0.172043
vn 0.750612 -0.622313 0.222055
vn 0.706593 -0.673622 -0.216705
vn -0.168626 -0.007466 -0.985652
vn -0.108208 -0.081016 -0.990822
vn -0.132266 -0.048295 -0.990037
vn -0.212598 0.013301 -0.977049
vn -0.600612 0.779407 0.178300
vn -0.635304 0.754023 -0.166851
vn -0.824545 0.549394 -0.135249
vn -0.811898 0.553905 0.184420
vn 0.706593 -0.673622 -0.216705
vn 0.750612 -0.622313 0.222055
vn 0.986295 0.010734 0.164645
vn 0.980713 0.010273 -0.195181
vn 0.164568 0.018922 0.986184
vn 0.082019 0.076431 0.993696
vn 0.079626 0.000463 0.996825
vn 0.173572 0.000885 0.984821
vn -0.811898 0.553905 0.184420
vn -0.824545 0.549394 -0.135249
vn -0.987193 0.000076 -0.159533
vn -0.982057 -0.000090 0.188587
vn -0.212598 0.013301 -0.977049
vn -0.132266 -0.048295 -0.990037
vn -0.114580 -0.000255 -0.993414
vn -0.203229 -0.000463 -0.979131
vn -0.601116 0.696157 -0.392460
vn -0.615323 0.680821 -0.397317
vn -0.552804 0.758249 -0.345639
vn -0.545173 0.765282 -0.342243
vn -0.610528 0.690262 -0.388322
vn -0.624396 0.673307 -0.395963
vn -0.615323 0.680821 -0.397317
vn -0.601116 0.696157 -0.392460
vn 0.099370 0.077225 0.992049
vn 0.093657 0.075369 0.992748
vn 0.093813 0.075420 0.992729
vn 0.099370 0.077225 0.992049
vn -0.744749 0.666982 0.021985
vn -0.606098 0.795390 -0.000143
vn -0.612474 0.790491 0.000803
vn 0.109701 0.000000 0.993965
vn 0.109701 0.000000 0.993965
vn 0.109701 0.000000 0.993965
vn 0.109701 0.000000 0.993965
vn 0.029828 -0.190079 -0.981316
vn 0.702313 -0.709272 -0.060740
vn 0.997104 0.001006 -0.076047
vn 0.677416 0.008537 -0.735551
vn 0.702313 -0.709272 -0.060740
vn 0.029828 -0.190079 -0.981316
vn -0.009825 -0.186358 -0.982433
vn 0.574902 -0.816113 -0.058713
vn 0.029828 -0.190079 -0.981316
vn -0.097349 -0.082573 -0.991819
vn -0.090645 -0.076214 -0.992963
vn -0.009825 -0.186358 -0.982433
vn 0.583277 -0.812039 0.019491
vn 0.713542 -0.700005 0.029161
vn 0.702313 -0.709272 -0.060740
vn 0.574902 -0.816113 -0.058713
vn 0.104579 -0.000001 0.994517
vn 0.104579 -0.000001 0.994517
vn 0.104579 -0.000001 0.994517
vn 0.104579 -0.000001 0.994517
vn 0.702313 -0.709272 -0.060740
vn 0.713542 -0.700005 0.029161
vn 0.999934 0.000002 0.011475
vn 0.997104 0.001006 -0.076047
s off
g FrontRailing0_R
usemtl Boat_large_mdlSG1
f 6/1/1 3/2/2 1/3/3 2/4/4
f 4/5/5 5/6/6 7/7/7 8/8/8
f 4/5/9 3/2/10 6/1/11 5/6/12
usemtl Boat_large_mdlSG2
f 9/9/13 11/10/14 13/11/15 14/12/16
f 13/11/17 12/13/18 10/14/19 14/12/20
f 16/15/21 15/16/22 9/9/23 14/12/24
f 17/17/25 16/15/26 14/12/27 10/14/28
usemtl Boat_large_mdlSG1
f 18/18/29 19/19/30 23/20/31 24/21/32
f 29/22/33 26/23/34 20/24/35 21/25/36
f 27/26/37 28/27/38 25/28/39 22/29/40
f 23/20/41 22/30/42 25/31/43 24/21/44
f 27/26/45 26/23/46 29/22/47 28/27/48
f 30/32/49 31/33/50 32/34/51 33/35/52
f 33/36/53 32/37/54 34/38/55 35/39/56
f 35/40/57 34/41/58 36/42/59 37/43/60
f 37/44/61 36/45/62 38/46/63 39/47/64
f 39/48/65 38/49/66 40/50/67 41/51/68
f 41/52/69 40/53/70 42/54/71 43/55/72
f 43/56/73 42/57/74 44/58/75 45/59/76
f 45/60/77 44/61/78 46/62/79 47/63/80
f 47/64/81 46/65/82 48/66/83 49/67/84
f 49/68/85 48/69/86 31/70/87 30/71/88
usemtl Boat_large_mdlSG
f 50/72/89 51/73/90 64/74/91 65/75/92
f 53/76/93 52/77/94 54/78/95 55/79/96
f 55/80/97 54/78/98 71/81/99 70/82/100
f 57/83/101 56/84/102 58/85/103 59/86/104
f 59/87/105 58/88/106 69/89/107 68/90/108
f 61/91/109 60/92/110 63/93/111 62/94/112
f 62/94/113 63/95/114 67/96/115 66/97/116
f 65/98/117 64/99/118 73/100/119 72/101/120
f 66/102/121 67/103/122 79/104/123 78/105/124
f 68/106/125 69/107/126 77/108/127 76/109/128
f 70/110/129 71/81/130 75/111/131 74/112/132
f 72/113/133 73/114/134 81/115/135 80/116/136
f 52/77/137 57/83/138 59/86/139 54/78/140
f 56/117/141 61/91/142 62/94/143 58/88/144
f 60/118/145 50/72/146 65/75/147 63/119/148
f 51/120/149 53/121/150 55/122/151 64/99/152
f 58/88/153 62/94/154 66/97/155 69/89/156
f 54/78/157 59/86/158 68/106/159 71/81/160
f 64/99/161 55/122/162 70/123/163 73/100/164
f 63/119/165 65/75/166 72/113/167 67/124/168
f 71/81/169 68/106/170 76/109/171 75/111/172
f 69/125/173 66/102/174 78/105/175 77/126/176
f 67/124/177 72/113/178 80/116/179 79/127/180
f 73/128/181 70/129/182 74/130/183 81/131/184
usemtl Boat_large_mdlSG9
f 86/132/185 83/133/186 82/134/187 85/135/188
f 87/136/189 84/137/190 83/133/191 86/132/192
usemtl Boat_large_mdlSG1
f 88/138/193 99/139/194 103/164/195 90/140/196
f 89/141/197 98/142/198 102/143/199
f 88/144/200 90/145/201 93/146/202 92/147/203
f 94/148/204 95/149/205 96/150/206 97/151/207
f 95/152/208 94/153/209 101/154/210 100/155/211
f 94/153/212 89/156/213 102/157/214 101/154/215
f 99/158/216 88/159/217 95/160/218 100/161/219
f 89/162/220 94/148/221 97/151/222 91/163/223
f 95/149/224 88/144/225 92/147/226 96/150/227
