# This file uses centimeters as units for non-parametric coordinates.

mtllib LowerDeck_L.mtl
g default
v -302.082245 -108.896133 116.072258
v -303.496307 -110.310211 116.072258
v -304.910400 -108.896133 117.486336
v -303.496307 -107.482040 117.486336
v -525.121582 -110.310211 116.072258
v -526.535645 -108.896133 116.072258
v -525.121582 -107.482040 117.486336
v -523.707458 -108.896133 117.486336
v -327.158997 -84.118462 117.486336
v -328.573090 -85.532562 117.486336
v -329.987122 -84.118492 116.072258
v -328.573059 -82.704422 116.072258
v -500.044830 -85.532562 117.486336
v -501.458893 -84.118462 117.486336
v -500.044830 -82.704422 116.072258
v -498.630768 -84.118492 116.072258
v -525.121582 -110.310211 106.884155
v -526.535645 -108.896133 106.884155
v -302.082245 -108.896133 106.884155
v -303.496307 -110.310211 106.884155
v -500.044830 -82.704422 109.971199
v -498.630768 -84.118492 109.971199
v -329.987122 -84.118492 109.971199
v -328.573059 -82.704422 109.971199
v -302.082245 0.036568 106.884155
v -302.082245 0.036568 116.072258
v -303.496307 0.036568 117.486336
v -327.158997 0.036560 117.486336
v -328.573059 0.036560 116.072258
v -328.573059 0.036560 109.971199
v -525.121582 0.036568 117.486336
v -526.535645 0.036568 116.072258
v -501.458893 0.036560 117.486336
v -500.044830 0.036560 116.072258
v -500.044830 0.036560 109.971199
v -526.535645 0.036568 106.884155
v -323.667847 -88.933228 115.888336
v -504.950012 -88.933228 115.888336
v -323.667847 0.036560 115.888336
v -504.950012 0.036568 115.888336
v 240.161682 -336.416260 114.265976
v 178.080429 -339.990387 114.265976
v 67.186981 -334.883362 114.265991
v -43.706474 -326.201599 114.265999
v -174.493088 -306.727478 114.266052
v -305.279694 -283.024536 114.266083
v -438.343445 -250.690704 114.266136
v -571.407227 -215.457077 114.266182
v -684.445557 -180.202759 114.266243
v -797.483826 -108.263329 114.266289
v -846.369812 -68.007889 114.266357
v -895.255920 0.000000 114.266434
v -43.706436 -102.470329 114.265999
v 67.190529 -105.197571 114.265991
v 178.087494 -106.801834 114.265976
v 114.233398 -105.679085 -47.391327
v 310.373383 -105.679085 -46.246094
v 310.373383 -65.697807 -41.888515
v 310.373383 -65.697807 190.748306
v -174.492325 0.000000 114.266052
v -305.278259 0.000000 114.266083
v -438.342102 0.000000 114.266136
v -571.406006 0.000000 114.266174
v -684.444946 0.000000 114.266243
v -797.483826 0.000000 114.266289
v -846.369812 0.000000 114.266357
v -43.706398 0.000000 114.265999
v 114.233398 0.000000 -47.392208
v 310.373383 0.000000 -46.246536
v 310.373383 4.244812 -41.888939
v 310.373383 4.244812 190.748306
v 310.373383 -65.697807 107.821190
v 310.373383 0.000000 210.532852
v 310.373383 -105.679085 210.532852
v 310.373383 -105.679085 107.821281
v 240.161682 -105.679085 114.265976
v -898.603455 -7.885609 119.903961
v 247.398666 -341.185242 118.511917
v -30.842331 -330.909607 118.545959
v -222.899658 -301.824951 118.653633
v -322.073242 -282.696808 118.747772
v -418.706848 -259.939514 118.879379
v -530.471741 -227.990372 119.042313
v -627.613708 -197.327484 119.194885
v -712.052490 -161.301117 119.356361
v -786.778992 -117.321800 119.507111
v -853.186768 -63.877804 119.678009
v -898.603455 0.000000 119.903961
v -875.673218 -9.068750 114.435783
v -846.918945 -52.417953 114.435783
v -780.360046 -105.949699 114.435783
v -707.930725 -148.662262 114.435783
v -623.355530 -184.731018 114.435783
v -526.152222 -215.404251 114.435783
v -415.673462 -246.854813 114.435783
v -320.457611 -269.231842 114.435783
v -221.204132 -288.357361 114.435783
v -29.008347 -317.451385 114.435783
v 255.204361 -328.697083 114.435783
v -875.671387 -0.000001 114.435783
v 246.979385 -328.965179 118.527794
v 248.408752 -328.322205 117.807266
v -28.428276 -319.071014 118.559013
v -28.355831 -318.289948 117.937370
v -220.535660 -289.985321 118.666710
v -220.404739 -289.221436 118.034744
v -319.737488 -270.865082 118.760849
v -319.724609 -270.076691 118.131088
v -414.922913 -248.454636 118.889488
v -414.886749 -247.672531 118.251266
v -525.386658 -216.960999 119.049576
v -525.170959 -216.239334 118.391869
v -622.569702 -186.288834 119.202103
v -622.479065 -185.532181 118.539703
v -707.082764 -150.241211 119.363686
v -706.935852 -149.500748 118.682907
v -779.430176 -107.556770 119.508484
v -779.217834 -106.843040 118.808975
v -845.981812 -54.046135 119.679878
v -845.641785 -53.390438 118.973663
v -876.516174 -10.430115 119.856873
v -875.830444 -10.078494 119.188011
v -875.829285 0.000001 119.161758
v -876.547363 0.000001 119.857643
vt 0.026698 -0.114762
vt 0.031592 -0.114762
vt 0.031592 -0.083008
vt 0.026698 -0.083008
vt 0.029135 -0.117196
vt 0.031592 -0.119649
vt 0.036486 -0.119649
vt 0.024452 0.088895
vt 0.025104 0.083400
vt 0.100903 0.008297
vt 0.105797 0.008297
vt 0.798608 -0.114762
vt 0.803502 -0.114762
vt 0.803502 -0.083008
vt 0.798608 -0.083008
vt 0.801048 -0.117213
vt 0.793714 -0.119649
vt 0.798609 -0.119649
vt 0.781603 0.084056
vt 0.781661 0.088903
vt 0.699316 0.008297
vt 0.704211 0.008297
vt 0.103326 0.005866
vt 0.105767 0.003418
vt 0.110662 0.003418
vt 0.095898 -0.289511
vt 0.091003 -0.289511
vt 0.091003 -0.310547
vt 0.095898 -0.310547
vt 0.701738 0.005847
vt 0.694392 0.003418
vt 0.699286 0.003418
vt 0.684570 -0.289511
vt 0.679675 -0.289511
vt 0.679675 -0.310547
vt 0.684570 -0.310547
vt 0.782782 -0.218281
vt 0.786848 -0.213394
vt 0.409729 -0.213394
vt 0.410146 -0.218281
vt 0.032609 -0.262223
vt 0.037509 -0.267110
vt 0.409731 -0.267110
vt 0.409729 -0.262223
vt 0.121036 -0.006836
vt 0.115855 -0.011801
vt 0.407070 -0.011798
vt 0.407227 -0.006836
vt 0.112437 -0.067301
vt 0.117255 -0.072266
vt 0.403627 -0.072266
vt 0.403651 -0.067304
vt 0.409729 -0.181641
vt 0.786848 -0.181641
vt 0.409729 -0.230469
vt 0.032609 -0.230469
vt 0.404158 0.015670
vt 0.032027 0.015670
vt 0.035445 -0.094772
vt 0.407575 -0.094772
vt 0.382416 -0.357422
vt 0.382416 -0.379115
vt 0.668931 -0.379115
vt 0.668931 -0.357422
vt 0.382416 -0.418497
vt 0.382416 -0.397461
vt 0.095900 -0.397461
vt 0.095900 -0.418497
vt 0.500000 -0.997070
vt 1.997070 0.500000
vt 1.248535 1.248779
vt -0.248779 -0.248535
vt -0.696227 0.512570
vt -0.369042 0.510696
vt -0.365016 1.218912
vt -0.691848 1.279218
vt -0.035696 0.508799
vt -0.032111 1.137012
vt 0.301594 1.047502
vt 0.298506 0.506898
vt 0.582198 0.505278
vt 0.584783 0.957523
vt 0.867509 0.775429
vt 0.865955 0.503654
vt 0.988702 0.502951
vt 0.989680 0.673700
vt 1.111450 0.502245
vt -1.295947 1.350774
vt -1.296745 0.776957
vt -1.019938 0.769655
vt -1.018745 1.328654
vt -1.573112 1.363734
vt -1.573623 0.781269
vt -1.728207 1.354886
vt -1.728625 0.778582
vt 2.637982 1.457087
vt 2.360662 1.457087
vt 2.083387 1.457187
vt 1.928173 1.457204
vt 2.242936 1.052989
vt 1.752571 1.055948
vt 1.928173 1.457204
vt 1.752643 1.441127
vt 1.240983 0.206007
vt 1.240983 0.555452
vt 1.363474 0.555452
vt 1.363474 0.215890
vt -1.021393 0.514425
vt -1.520928 0.517271
vt -1.519428 0.780145
vt -2.006812 0.782684
vt -2.008311 0.520052
vt 1.532189 0.215889
vt 1.532189 0.206006
vt 1.240983 0.788416
vt 1.532189 0.788416
vt 1.532189 0.743542
vt 1.363474 0.743542
vt 1.240983 0.555452
vt 0.847143 -0.423951
vt 0.998535 -0.421875
vt 0.998472 -0.424608
vt 0.846540 -0.426885
vt 0.998568 -0.421874
vt 1.399414 -0.414063
vt 1.399380 -0.416842
vt 1.712891 -0.408203
vt 1.712881 -0.411037
vt 1.713495 -0.408202
vt 2.109375 -0.407227
vt 2.109213 -0.410094
vt 2.110040 -0.407245
vt 2.572266 -0.419922
vt 2.571810 -0.422780
vt 2.572315 -0.419923
vt 2.990234 -0.431641
vt 2.990040 -0.434509
vt 2.991020 -0.431623
vt 3.388672 -0.422852
vt 3.388785 -0.425711
vt 3.389436 -0.422854
vt 3.708984 -0.423828
vt 3.708783 -0.426777
vt 3.709867 -0.423855
vt 4.035156 -0.428739
vt 4.035945 -0.431918
vt 4.036671 -0.428954
vt 4.343750 -0.410156
vt 4.344915 -0.412172
vt 4.402344 0.422852
vt 4.403257 0.414627
vt 4.399481 0.422837
vt 4.399682 0.422838
vt 0.998047 -0.475586
vt 0.835938 -0.478516
vt 1.399414 -0.468750
vt 1.711914 -0.462891
vt 2.109375 -0.461914
vt 2.570313 -0.474609
vt 2.990234 -0.486328
vt 3.388672 -0.476563
vt 3.707031 -0.478516
vt 4.035156 -0.483398
vt 4.425781 -0.457031
vt 4.308594 0.422363
vt 4.308594 0.422363
vt -3.644531 0.258759
vt -3.644531 0.202065
vt -3.947826 0.206529
vt -3.952472 0.263049
vt -3.316406 0.255125
vt -3.316406 0.198650
vt -3.001953 0.251687
vt -3.001953 0.195226
vt -2.603516 0.247725
vt -2.603516 0.191322
vt -2.182924 0.242601
vt -2.183594 0.186441
vt -1.723762 0.238098
vt -1.724530 0.181595
vt -1.329232 0.233615
vt -1.329993 0.177644
vt -1.015470 0.229947
vt -1.016516 0.174229
vt -0.614268 0.225488
vt -0.614702 0.169838
vt -0.456767 0.222259
vt -0.427010 0.167920
vt 4.409409 0.359267
vt 4.409477 0.358656
vt 4.403214 0.415014
vt 4.403257 0.414627
vt 1.363474 0.555452
vt 1.752571 1.055948
vn 0.996273 -0.006780 0.085992
vn 0.006666 -0.996274 0.085983
vn 0.006340 -0.999980 0.000000
vn 0.999979 -0.006449 0.000000
vn 0.006666 -0.996274 0.085983
vn 0.996273 -0.006780 0.085992
vn 0.152042 -0.000710 0.988374
vn 0.000714 -0.155541 0.987829
vn 0.000714 -0.155541 0.987829
vn 0.152042 -0.000710 0.988374
vn -0.020788 0.000286 0.999784
vn -0.000283 0.020954 0.999780
vn -0.006666 -0.996274 0.085982
vn -0.996273 -0.006780 0.085994
vn -0.999979 -0.006449 0.000000
vn -0.006340 -0.999980 0.000000
vn -0.996273 -0.006780 0.085994
vn -0.006666 -0.996274 0.085982
vn -0.000714 -0.155542 0.987829
vn -0.152041 -0.000710 0.988374
vn -0.152041 -0.000710 0.988374
vn -0.000714 -0.155542 0.987829
vn 0.000283 0.020954 0.999780
vn 0.020788 0.000286 0.999784
vn -0.000283 0.020954 0.999780
vn -0.020788 0.000286 0.999784
vn -0.970906 0.007650 0.239339
vn -0.007508 0.970918 0.239294
vn -0.007508 0.970918 0.239294
vn -0.970906 0.007650 0.239339
vn -0.999964 0.008472 0.000000
vn -0.008315 0.999965 0.000000
vn 0.020788 0.000286 0.999784
vn 0.000283 0.020954 0.999780
vn 0.007508 0.970918 0.239294
vn 0.970906 0.007650 0.239337
vn 0.970906 0.007650 0.239337
vn 0.007508 0.970918 0.239294
vn 0.008315 0.999965 0.000000
vn 0.999964 0.008472 0.000000
vn 0.006666 -0.996274 0.085983
vn 0.000714 -0.155541 0.987829
vn -0.000714 -0.155542 0.987829
vn -0.006666 -0.996274 0.085982
vn 0.152042 -0.000710 0.988374
vn 0.996273 -0.006780 0.085992
vn 0.707112 0.000000 0.707102
vn 0.707112 0.000000 0.707102
vn -0.996273 -0.006780 0.085994
vn -0.152041 -0.000710 0.988374
vn -0.707112 0.000000 0.707102
vn -0.707112 0.000000 0.707102
vn -0.000283 0.020954 0.999780
vn -0.007508 0.970918 0.239294
vn 0.007508 0.970918 0.239294
vn 0.000283 0.020954 0.999780
vn -0.970906 0.007650 0.239339
vn -0.020788 0.000286 0.999784
vn -0.707111 0.000000 0.707103
vn -0.707111 0.000000 0.707103
vn 0.020788 0.000286 0.999784
vn 0.970906 0.007650 0.239337
vn 0.707111 0.000000 0.707103
vn 0.707111 0.000000 0.707103
vn 0.006666 -0.996274 0.085983
vn -0.006666 -0.996274 0.085982
vn -0.006340 -0.999980 0.000000
vn 0.006340 -0.999980 0.000000
vn 1.000000 0.000000 0.000000
vn 1.000000 0.000000 0.000000
vn 0.996273 -0.006780 0.085992
vn 0.999979 -0.006449 0.000000
vn -1.000000 0.000000 0.000000
vn -1.000000 0.000000 0.000000
vn -0.999979 -0.006449 0.000000
vn -0.996273 -0.006780 0.085994
vn -0.000714 -0.155542 0.987829
vn 0.000714 -0.155541 0.987829
vn -0.000283 0.020954 0.999780
vn 0.000283 0.020954 0.999780
vn 0.000000 0.000000 1.000000
vn 0.000000 0.000000 1.000000
vn -0.152041 -0.000710 0.988374
vn 0.020788 0.000286 0.999784
vn 0.152042 -0.000710 0.988374
vn 0.000000 0.000000 1.000000
vn 0.000000 0.000000 1.000000
vn -0.020788 0.000286 0.999784
vn -0.007508 0.970918 0.239294
vn -0.008315 0.999965 0.000000
vn 0.008315 0.999965 0.000000
vn 0.007508 0.970918 0.239294
vn 1.000000 0.000000 0.000000
vn 1.000000 0.000000 0.000000
vn 0.970906 0.007650 0.239337
vn 0.999964 0.008472 0.000000
vn -1.000000 0.000000 0.000000
vn -1.000000 0.000000 0.000000
vn -0.999964 0.008472 0.000000
vn -0.970906 0.007650 0.239339
vn 0.000000 0.000000 1.000000
vn 0.000000 0.000000 1.000000
vn 0.000000 0.000000 1.000000
vn 0.000000 0.000000 1.000000
vn 0.000000 -0.000000 1.000000
vn 0.000000 -0.000000 1.000000
vn 0.000000 -0.000000 1.000000
vn 0.000000 0.000000 1.000000
vn 0.000000 -0.000000 1.000000
vn 0.000000 -0.000000 1.000000
vn 0.000000 -0.000000 1.000000
vn 0.000000 0.000000 1.000000
vn 0.000000 0.000000 1.000000
vn 0.000000 0.000000 1.000000
vn 0.000000 0.000000 1.000000
vn 0.000000 0.000000 1.000000
vn 0.000000 0.000000 1.000000
vn 0.000001 0.000000 1.000000
vn 0.000001 0.000000 1.000000
vn 0.000001 0.000000 1.000000
vn 0.000001 0.000000 1.000000
vn 0.000001 0.000000 1.000000
vn 0.000000 -0.000000 1.000000
vn 0.000000 -0.000000 1.000000
vn 0.000001 0.000000 1.000000
vn 0.000001 0.000000 1.000000
vn 0.000001 0.000000 1.000000
vn 0.000001 0.000000 1.000000
vn 0.000002 0.000000 1.000000
vn 0.000001 0.000000 1.000000
vn 0.000001 0.000000 1.000000
vn 0.000000 0.000000 1.000000
vn 0.000000 0.000000 1.000000
vn 0.000000 0.000000 1.000000
vn 0.000000 0.000000 1.000000
vn 0.000000 0.000000 1.000000
vn 0.000000 0.000000 1.000000
vn 0.000000 0.000000 1.000000
vn 0.000000 0.000000 1.000000
vn 0.000000 0.000000 1.000000
vn 0.000000 0.000000 1.000000
vn 0.000000 0.000000 1.000000
vn 0.000000 0.000000 1.000000
vn 0.011303 0.999923 0.005194
vn 0.011303 0.999923 0.005194
vn 0.011303 0.999923 0.005194
vn 0.011303 0.999923 0.005194
vn 0.011303 0.999923 0.005194
vn 0.000000 1.000000 0.000000
vn -0.000000 1.000000 0.000000
vn 0.000000 1.000000 0.000000
vn -0.000000 1.000000 0.000000
vn 0.000000 1.000000 0.000000
vn 0.000000 1.000000 0.000000
vn -1.000000 0.000000 0.000000
vn -1.000000 -0.000001 0.000000
vn -1.000000 -0.000001 0.000000
vn -1.000000 0.000000 0.000000
vn 0.000000 0.000000 1.000000
vn 0.000000 0.000000 1.000000
vn 0.000000 0.000000 1.000000
vn 0.000001 -0.000000 1.000000
vn 0.000000 -0.000000 1.000000
vn 0.715284 0.000003 0.698834
vn 0.715284 0.000003 0.698834
vn 0.715285 0.000003 0.698833
vn 0.715285 0.000003 0.698833
vn -0.005841 0.000006 0.999983
vn -0.005840 0.000006 0.999983
vn -0.005840 0.000006 0.999983
vn -0.005841 0.000006 0.999983
vn -1.000000 -0.000000 0.000000
vn -1.000000 -0.000000 0.000000
vn -1.000000 0.000000 -0.000001
vn -1.000000 0.000000 -0.000001
vn -1.000000 0.000000 0.000000
vn -1.000000 0.000000 0.000000
vn -1.000000 0.000000 0.000000
vn -1.000000 0.000000 0.000000
vn -1.000000 0.000000 0.000000
vn -1.000000 0.000000 0.000000
vn 0.037476 0.989117 0.142279
vn 0.075136 0.954696 0.287941
vn 0.004036 0.045917 0.998937
vn 0.002897 0.076608 0.997057
vn 0.075136 0.954696 0.287941
vn 0.152149 0.930915 0.332036
vn 0.008275 0.045828 0.998915
vn 0.004036 0.045917 0.998937
vn 0.152149 0.930915 0.332036
vn 0.196438 0.927786 0.317216
vn 0.010849 0.045853 0.998889
vn 0.008275 0.045828 0.998915
vn 0.196438 0.927786 0.317216
vn 0.240112 0.924640 0.295613
vn 0.013210 0.045461 0.998879
vn 0.010849 0.045853 0.998889
vn 0.240112 0.924640 0.295613
vn 0.274570 0.923042 0.269453
vn 0.015458 0.046605 0.998794
vn 0.013210 0.045461 0.998879
vn 0.274570 0.923042 0.269453
vn 0.329529 0.911526 0.246029
vn 0.018052 0.045216 0.998814
vn 0.015458 0.046605 0.998794
vn 0.329529 0.911526 0.246029
vn 0.431830 0.877186 0.209924
vn 0.023116 0.043001 0.998808
vn 0.018052 0.045216 0.998814
vn 0.431830 0.877186 0.209924
vn 0.553759 0.816336 0.164151
vn 0.029270 0.039864 0.998776
vn 0.023116 0.043001 0.998808
vn 0.553759 0.816336 0.164151
vn 0.690019 0.711260 0.134102
vn 0.031719 0.029371 0.999065
vn 0.029270 0.039864 0.998776
vn 0.690019 0.711260 0.134102
vn 0.856586 0.490994 0.158698
vn 0.024399 0.010909 0.999643
vn 0.031719 0.029371 0.999065
vn 0.856586 0.490994 0.158698
vn 0.986506 0.000266 0.163726
vn 0.035331 0.000054 0.999376
vn 0.024399 0.010909 0.999643
vn 0.004036 0.045917 0.998937
vn 0.000212 -0.001196 0.999999
vn 0.000074 -0.001208 0.999999
vn 0.002897 0.076608 0.997057
vn 0.004036 0.045917 0.998937
vn 0.008275 0.045828 0.998915
vn 0.000496 -0.001204 0.999999
vn 0.000212 -0.001196 0.999999
vn 0.008275 0.045828 0.998915
vn 0.010849 0.045853 0.998889
vn 0.000879 -0.001259 0.999999
vn 0.000496 -0.001204 0.999999
vn 0.010849 0.045853 0.998889
vn 0.013210 0.045461 0.998879
vn 0.001086 -0.001236 0.999999
vn 0.000879 -0.001259 0.999999
vn 0.015458 0.046605 0.998794
vn 0.001151 -0.001205 0.999999
vn 0.001086 -0.001236 0.999999
vn 0.013210 0.045461 0.998879
vn 0.018052 0.045216 0.998814
vn 0.001279 -0.001240 0.999998
vn 0.001151 -0.001205 0.999999
vn 0.015458 0.046605 0.998794
vn 0.018052 0.045216 0.998814
vn 0.023116 0.043001 0.998808
vn 0.001339 -0.001238 0.999998
vn 0.001279 -0.001240 0.999998
vn 0.023116 0.043001 0.998808
vn 0.029270 0.039864 0.998776
vn 0.001421 -0.001247 0.999998
vn 0.001339 -0.001238 0.999998
vn 0.031719 0.029371 0.999065
vn 0.001777 -0.001749 0.999997
vn 0.001421 -0.001247 0.999998
vn 0.029270 0.039864 0.998776
vn 0.024399 0.010909 0.999643
vn 0.002133 -0.001613 0.999996
vn 0.001777 -0.001749 0.999997
vn 0.031719 0.029371 0.999065
vn 0.024399 0.010909 0.999643
vn 0.035331 0.000054 0.999376
vn 0.002114 -0.000039 0.999998
vn 0.002133 -0.001613 0.999996
vn 0.690019 0.711260 0.134102
vn 0.734054 0.679059 0.006588
vn 0.883371 0.468092 0.023372
vn 0.856586 0.490994 0.158698
vn 0.553759 0.816336 0.164151
vn 0.582282 0.812868 0.013931
vn 0.734054 0.679059 0.006588
vn 0.690019 0.711260 0.134102
vn 0.431830 0.877186 0.209924
vn 0.459175 0.885867 0.066317
vn 0.582282 0.812868 0.013931
vn 0.553759 0.816336 0.164151
vn 0.329529 0.911526 0.246029
vn 0.351147 0.930314 0.105887
vn 0.459175 0.885867 0.066317
vn 0.431830 0.877186 0.209924
vn 0.274570 0.923042 0.269453
vn 0.286999 0.948960 0.130795
vn 0.351147 0.930314 0.105887
vn 0.329529 0.911526 0.246029
vn 0.240112 0.924640 0.295613
vn 0.254282 0.955332 0.150604
vn 0.286999 0.948960 0.130795
vn 0.274570 0.923042 0.269453
vn 0.196438 0.927786 0.317216
vn 0.208863 0.962083 0.175421
vn 0.254282 0.955332 0.150604
vn 0.240112 0.924640 0.295613
vn 0.152149 0.930915 0.332036
vn 0.163317 0.966952 0.195782
vn 0.208863 0.962083 0.175421
vn 0.196438 0.927786 0.317216
vn 0.075136 0.954696 0.287941
vn 0.090674 0.984475 0.150291
vn 0.163317 0.966952 0.195782
vn 0.152149 0.930915 0.332036
vn 0.037476 0.989117 0.142279
vn 0.037733 0.994191 0.100798
vn 0.090674 0.984475 0.150291
vn 0.075136 0.954696 0.287941
vn 0.883371 0.468092 0.023372
vn 0.999448 -0.000111 0.033215
vn 0.986506 0.000266 0.163726
vn 0.856586 0.490994 0.158698
s off
g LowerDeck_L
usemtl Boat_large_mdlSG
f 1/1/1 2/2/2 20/3/3 19/4/4
f 2/2/5 1/5/6 4/6/7 3/7/8
f 3/8/9 4/9/10 9/10/11 10/11/12
f 5/12/13 6/13/14 18/14/15 17/15/16
f 6/16/17 5/12/18 8/17/19 7/18/20
f 7/19/21 8/20/22 13/21/23 14/22/24
f 10/11/25 9/23/26 12/24/27 11/25/28
f 11/26/29 12/27/30 24/28/31 23/29/32
f 14/30/33 13/21/34 16/31/35 15/32/36
f 15/33/37 16/34/38 22/35/39 21/36/40
f 2/2/41 3/7/42 8/17/43 5/12/44
f 4/37/45 1/38/46 26/39/47 27/40/48
f 6/41/49 7/42/50 31/43/51 32/44/52
f 10/11/53 11/25/54 16/31/55 13/21/56
f 12/45/57 9/46/58 28/47/59 29/48/60
f 14/49/61 15/50/62 34/51/63 33/52/64
f 2/2/65 5/12/66 17/15/67 20/3/68
f 25/53/69 26/39/70 1/38/71 19/54/72
f 32/44/73 36/55/74 18/56/75 6/41/76
f 8/20/77 3/8/78 10/11/79 13/21/80
f 33/52/81 31/57/82 7/58/83 14/49/84
f 4/59/85 27/60/86 28/47/87 9/46/88
f 11/26/89 23/29/90 22/35/91 16/34/92
f 35/61/93 34/62/94 15/63/95 21/64/96
f 29/65/97 30/66/98 24/67/99 12/68/100
usemtl Boat_large_mdlSG7
f 38/69/101 37/70/102 39/71/103 40/72/104
usemtl Boat_large_mdlSG3
f 60/73/105 61/74/106 46/75/107 45/76/108
f 46/75/109 61/74/110 62/77/111 47/78/112
f 48/79/113 47/78/114 62/77/115 63/80/116
f 48/79/117 63/80/118 64/81/119 49/82/120
f 50/83/121 49/82/122 64/81/123 65/84/124
f 50/83/125 65/84/126 66/85/127 51/86/128
f 52/87/129 51/86/130 66/85/131
f 43/88/132 54/89/133 53/90/134 44/91/135
f 42/92/136 55/93/137 54/89/138 43/88/139
f 41/94/140 76/95/141 55/93/142 42/92/143
s 1
usemtl Boat_large_mdlSG2
f 53/96/144 54/97/145 56/100/146
f 76/99/147 56/100/146 55/98/148
f 54/97/145 55/98/148 56/100/146
s off
f 56/100/149 76/99/150 57/194/151
f 76/102/152 75/103/153 57/101/154
s 2
f 57/104/155 75/105/156 72/193/157 58/107/158
s 3
usemtl Boat_large_mdlSG3
f 44/91/159 53/90/160 45/76/161
f 45/76/161 53/90/160 60/73/162
f 67/108/163 60/73/162 53/90/160
s off
f 68/109/164 67/108/165 53/90/166 56/110/167
f 57/111/168 69/112/169 68/109/170 56/110/171
usemtl Boat_large_mdlSG2
f 70/113/172 69/114/173 57/104/174 58/107/175
f 74/115/176 73/116/177 71/117/178 59/118/179
s 2
f 72/106/157 75/119/156 74/115/180 59/118/181
s off
usemtl Boat_large_mdlSG1
f 102/120/182 104/121/183 103/122/184 101/123/185
f 104/124/186 106/125/187 105/126/188 103/122/189
f 106/125/190 108/127/191 107/128/192 105/126/193
f 108/129/194 110/130/195 109/131/196 107/128/197
f 110/132/198 112/133/199 111/134/200 109/131/201
f 112/135/202 114/136/203 113/137/204 111/134/205
f 114/138/206 116/139/207 115/140/208 113/137/209
f 116/141/210 118/142/211 117/143/212 115/140/213
f 118/144/214 120/145/215 119/146/216 117/143/217
f 120/147/218 122/148/219 121/149/220 119/146/221
f 122/150/222 123/192/223 124/152/224 121/153/225
f 103/122/226 79/154/227 78/155/228 101/123/229
f 103/122/230 105/126/231 80/156/232 79/154/233
f 105/126/234 107/128/235 81/157/236 80/156/237
f 107/128/238 109/131/239 82/158/240 81/157/241
f 111/134/242 83/159/243 82/158/244 109/131/245
f 113/137/246 84/160/247 83/159/248 111/134/249
f 113/137/250 115/140/251 85/161/252 84/160/253
f 115/140/254 117/143/255 86/162/256 85/161/257
f 119/146/258 87/163/259 86/162/260 117/143/261
f 121/149/262 77/164/263 87/163/264 119/146/265
f 121/153/266 124/152/267 88/165/268 77/166/269
f 120/167/270 90/168/271 89/169/272 122/170/273
f 118/171/274 91/172/275 90/168/276 120/167/277
f 116/173/278 92/174/279 91/172/280 118/171/281
f 114/175/282 93/176/283 92/174/284 116/173/285
f 112/177/286 94/178/287 93/176/288 114/175/289
f 110/179/290 95/180/291 94/178/292 112/177/293
f 108/181/294 96/182/295 95/180/296 110/179/297
f 106/183/298 97/184/299 96/182/300 108/181/301
f 104/185/302 98/186/303 97/184/304 106/183/305
f 102/187/306 99/188/307 98/186/308 104/185/309
f 89/189/310 100/190/311 123/151/312 122/191/313
