# This file uses centimeters as units for non-parametric coordinates.

mtllib LowerDeck_R.mtl
g default
v -323.667847 89.006348 115.888336
v -504.950012 89.006363 115.888336
v -323.667847 0.036560 115.888336
v -504.950012 0.036568 115.888336
v -303.496307 110.383347 116.072258
v -302.082245 108.969269 116.072258
v -303.496307 107.555176 117.486336
v -304.910400 108.969269 117.486336
v -526.535645 108.969269 116.072258
v -525.121582 110.383347 116.072258
v -523.707458 108.969269 117.486336
v -525.121582 107.555176 117.486336
v -328.573090 85.605682 117.486336
v -327.158997 84.191582 117.486336
v -328.573059 82.777542 116.072258
v -329.987122 84.191612 116.072258
v -501.458893 84.191582 117.486336
v -500.044830 85.605682 117.486336
v -498.630768 84.191612 116.072258
v -500.044830 82.777542 116.072258
v -526.535645 108.969269 106.884155
v -525.121582 110.383347 106.884155
v -303.496307 110.383347 106.884155
v -302.082245 108.969269 106.884155
v -498.630768 84.191612 109.971199
v -500.044830 82.777542 109.971199
v -328.573059 82.777542 109.971199
v -329.987122 84.191612 109.971199
v -500.044830 0.036560 109.971199
v -500.044830 0.036560 116.072258
v -501.458893 0.036560 117.486336
v -525.121582 0.036568 117.486336
v -526.535645 0.036568 116.072258
v -526.535645 0.036568 106.884155
v -303.496307 0.036568 117.486336
v -327.158997 0.036560 117.486336
v -302.082245 0.036568 116.072258
v -302.082245 0.036568 106.884155
v -328.573059 0.036560 116.072258
v -328.573059 0.036560 109.971199
v 240.161682 336.416260 114.265976
v 178.108658 339.990387 114.265991
v 67.201164 334.883362 114.265999
v -43.706326 326.201599 114.265999
v -174.491562 306.727478 114.266052
v -305.276794 283.024536 114.266083
v -438.340759 250.690704 114.266136
v -571.404724 215.457077 114.266167
v -684.444275 180.202759 114.266243
v -797.483826 108.263329 114.266289
v -846.369812 68.007889 114.266357
v -43.706360 102.470329 114.265999
v 67.197617 105.197571 114.265991
v 178.101593 106.801834 114.265991
v 114.233398 105.679085 -47.393089
v 310.373383 105.679085 -46.246979
v 310.373383 74.187431 190.748306
v 310.373383 74.187431 -41.889366
v 310.373383 74.187431 107.820885
v 240.161682 105.679085 114.265976
v 310.373383 105.679085 107.820923
v 310.373383 105.679085 210.532852
v -174.492325 0.000000 114.266052
v -43.706398 0.000000 114.265999
v -305.278259 0.000000 114.266083
v -438.342102 0.000000 114.266136
v -571.406006 0.000000 114.266174
v -684.444946 0.000000 114.266243
v -797.483826 0.000000 114.266289
v -846.369812 0.000000 114.266357
v -895.255920 0.000000 114.266434
v 114.233398 0.000000 -47.392208
v 310.373383 0.000000 -46.246536
v 310.373383 4.244812 -41.888939
v 310.373383 4.244812 190.748306
v 310.373383 0.000000 210.532852
v -898.603455 7.885609 119.903961
v 247.398666 341.185242 118.511917
v -30.842331 330.909607 118.545959
v -222.899658 301.824951 118.653633
v -322.073242 282.696808 118.747772
v -418.706848 259.939514 118.879379
v -530.471741 227.990372 119.042313
v -627.613708 197.327484 119.194885
v -712.052490 161.301117 119.356361
v -786.778992 117.321800 119.507111
v -853.186768 63.877804 119.678009
v -898.603455 0.000000 119.903961
v -875.673218 9.068750 114.435783
v -846.918945 52.417953 114.435783
v -780.360046 105.949699 114.435783
v -707.930725 148.662262 114.435783
v -623.355530 184.731018 114.435783
v -526.152222 215.404251 114.435783
v -415.673462 246.854813 114.435783
v -320.457611 269.231842 114.435783
v -221.204132 288.357361 114.435783
v -29.008347 317.451385 114.435783
v 255.204361 328.697083 114.435783
v -875.671387 0.000001 114.435783
v 246.979385 328.965179 118.527794
v 248.408752 328.322205 117.807266
v -28.428276 319.071014 118.559013
v -28.355831 318.289948 117.937370
v -220.535660 289.985321 118.666710
v -220.404739 289.221436 118.034744
v -319.737488 270.865082 118.760849
v -319.724609 270.076691 118.131088
v -414.922913 248.454636 118.889488
v -414.886749 247.672531 118.251266
v -525.386658 216.960999 119.049576
v -525.170959 216.239334 118.391869
v -622.569702 186.288834 119.202103
v -622.479065 185.532181 118.539703
v -707.082764 150.241211 119.363686
v -706.935852 149.500748 118.682907
v -779.430176 107.556770 119.508484
v -779.217834 106.843040 118.808975
v -845.981812 54.046135 119.679878
v -845.641785 53.390438 118.973663
v -876.516174 10.430115 119.856873
v -875.830444 10.078494 119.188011
v -875.829285 -0.000001 119.161758
v -876.547363 -0.000001 119.857643
v -302.082245 108.969269 116.072258
v -302.082245 108.969269 106.884155
v -303.496307 110.383347 106.884155
v -303.496307 110.383347 116.072258
v -304.910400 108.969269 117.486336
v -303.496307 107.555176 117.486336
vt -0.248779 -0.248535
vt 1.248535 1.248779
vt 0.500000 1.997559
vt -0.997559 0.500000
vt 0.024442 -0.009694
vt 0.024444 -0.014621
vt 0.105797 0.067307
vt 0.100903 0.067307
vt 0.803502 -0.142074
vt 0.798609 -0.142074
vt 0.798609 -0.173828
vt 0.803502 -0.173828
vt 0.789288 -0.264675
vt 0.786848 -0.262223
vt 0.781953 -0.267110
vt 0.786848 -0.267110
vt 0.781652 -0.014613
vt 0.780933 -0.009027
vt 0.704211 0.067307
vt 0.699316 0.067307
vt 0.698285 -0.011794
vt 0.700755 -0.009325
vt 0.698311 -0.006836
vt 0.693418 -0.006836
vt 0.091003 -0.339395
vt 0.095898 -0.339395
vt 0.095898 -0.318359
vt 0.091003 -0.318359
vt 0.697317 -0.069797
vt 0.694866 -0.067307
vt 0.689998 -0.072266
vt 0.694893 -0.072266
vt 0.679675 -0.339395
vt 0.684570 -0.339395
vt 0.684570 -0.318359
vt 0.679675 -0.318359
vt 0.793714 -0.137187
vt 0.036486 -0.137187
vt 0.031592 -0.142074
vt 0.694392 0.072266
vt 0.110662 0.072266
vt 0.031592 -0.173828
vt 0.032609 -0.213394
vt 0.409729 -0.213394
vt 0.409729 -0.181641
vt 0.032609 -0.181641
vt 0.410146 -0.218281
vt 0.037509 -0.218281
vt 0.407070 -0.011798
vt 0.407575 -0.094772
vt 0.779706 -0.094772
vt 0.407227 -0.006836
vt 0.668932 -0.418497
vt 0.668931 -0.397461
vt 0.382416 -0.397461
vt 0.382416 -0.418497
vt 0.095900 -0.379115
vt 0.382416 -0.379115
vt 0.382416 -0.357422
vt 0.095900 -0.357422
vt 0.403651 -0.067304
vt 0.403627 -0.072266
vt 0.776289 0.015671
vt 0.404158 0.015670
vt 0.409729 -0.262223
vt 0.409731 -0.267110
vt 0.786848 -0.230469
vt 0.409729 -0.230469
vt -1.731593 0.258364
vt -1.737739 -0.317917
vt -1.582824 -0.328529
vt -1.576663 0.253911
vt -1.305498 -0.318727
vt -1.299733 0.255059
vt -1.028036 -0.299772
vt -1.022848 0.259195
vt -0.700607 -0.254078
vt -0.696227 0.512570
vt -1.021393 0.514425
vt -1.522428 0.254397
vt -1.520928 0.517271
vt 2.101249 1.457122
vt 2.496098 1.052975
vt 2.811054 1.456997
vt 2.655881 1.457078
vt 2.378593 1.457140
vt 2.986434 1.055650
vt -2.008311 0.520052
vt -2.009811 0.257421
vt 1.532189 0.743542
vt 1.532189 0.788416
vt 1.823395 0.788416
vt 1.700904 0.743542
vt 1.823395 0.555451
vt 1.700904 0.555451
vt 1.823395 0.206005
vt 1.532189 0.206006
vt 1.532189 0.215889
vt 1.700904 0.215888
vt -0.373068 -0.197520
vt -0.369042 0.510696
vt -0.035696 0.508799
vt -0.039282 -0.119414
vt 0.298506 0.506898
vt 0.295418 -0.033707
vt 0.582198 0.505278
vt 0.579613 0.053033
vt 0.865955 0.503654
vt 0.864401 0.231880
vt 0.988702 0.502951
vt 0.987725 0.332202
vt 1.111450 0.502245
vt 2.986598 1.440801
vt 2.811054 1.456997
vt 1.823395 0.555451
vt 0.847143 -0.423951
vt 0.846540 -0.426885
vt 0.998472 -0.424608
vt 0.998535 -0.421875
vt 0.998568 -0.421874
vt 1.399380 -0.416842
vt 1.399414 -0.414063
vt 1.712881 -0.411037
vt 1.712891 -0.408203
vt 1.713495 -0.408202
vt 2.109213 -0.410094
vt 2.109375 -0.407227
vt 2.110040 -0.407245
vt 2.571810 -0.422780
vt 2.572266 -0.419922
vt 2.572315 -0.419923
vt 2.990040 -0.434509
vt 2.990234 -0.431641
vt 2.991020 -0.431623
vt 3.388785 -0.425711
vt 3.388672 -0.422852
vt 3.389436 -0.422854
vt 3.708783 -0.426777
vt 3.708984 -0.423828
vt 3.709867 -0.423855
vt 4.035945 -0.431918
vt 4.035156 -0.428739
vt 4.036671 -0.428954
vt 4.344915 -0.412172
vt 4.343750 -0.410156
vt 4.402344 0.422852
vt 4.399682 0.422838
vt 4.399481 0.422837
vt 4.403257 0.414627
vt 0.835938 -0.478516
vt 0.998047 -0.475586
vt 1.399414 -0.468750
vt 1.711914 -0.462891
vt 2.109375 -0.461914
vt 2.570313 -0.474609
vt 2.990234 -0.486328
vt 3.388672 -0.476563
vt 3.707031 -0.478516
vt 4.035156 -0.483398
vt 4.425781 -0.457031
vt 4.308594 0.422363
vt 4.308594 0.422363
vt -3.644531 0.258759
vt -3.952472 0.263049
vt -3.947826 0.206529
vt -3.644531 0.202065
vt -3.316406 0.255125
vt -3.316406 0.198650
vt -3.001953 0.251687
vt -3.001953 0.195226
vt -2.603516 0.247725
vt -2.603516 0.191322
vt -2.182924 0.242601
vt -2.183594 0.186441
vt -1.723762 0.238098
vt -1.724530 0.181595
vt -1.329232 0.233615
vt -1.329993 0.177644
vt -1.015470 0.229947
vt -1.016516 0.174229
vt -0.614268 0.225488
vt -0.614702 0.169838
vt -0.456767 0.222259
vt -0.427010 0.167920
vt 4.409409 0.359267
vt 4.403214 0.415014
vt 4.409477 0.358656
vt 0.031592 -0.142074
vt 0.026698 -0.142074
vt 0.026698 -0.173828
vt 0.031592 -0.173828
vt 0.032609 -0.213394
vt 0.030154 -0.215830
vt 0.032609 -0.218281
vt 0.037509 -0.218281
vt 4.403257 0.414627
vt 1.700904 0.555451
vt 2.986434 1.055650
vn 0.000000 0.000000 1.000000
vn 0.000000 0.000000 1.000000
vn 0.000000 0.000000 1.000000
vn 0.000000 0.000000 1.000000
vn 0.152042 0.000710 0.988374
vn 0.000714 0.155541 0.987829
vn -0.000283 -0.020954 0.999780
vn -0.020788 -0.000286 0.999784
vn -0.996273 0.006780 0.085994
vn -0.006666 0.996274 0.085982
vn -0.006340 0.999980 0.000000
vn -0.999979 0.006449 0.000000
vn -0.006666 0.996274 0.085982
vn -0.996273 0.006780 0.085994
vn -0.152042 0.000710 0.988374
vn -0.000714 0.155542 0.987829
vn -0.000714 0.155542 0.987829
vn -0.152042 0.000710 0.988374
vn 0.020788 -0.000286 0.999784
vn 0.000283 -0.020954 0.999780
vn -0.020788 -0.000286 0.999784
vn -0.000283 -0.020954 0.999780
vn -0.007508 -0.970918 0.239294
vn -0.970906 -0.007650 0.239339
vn -0.970906 -0.007650 0.239339
vn -0.007508 -0.970918 0.239294
vn -0.008315 -0.999965 0.000000
vn -0.999964 -0.008472 0.000000
vn 0.000283 -0.020954 0.999780
vn 0.020788 -0.000286 0.999784
vn 0.970906 -0.007650 0.239337
vn 0.007508 -0.970918 0.239294
vn 0.007508 -0.970918 0.239294
vn 0.970906 -0.007650 0.239337
vn 0.999964 -0.008472 0.000000
vn 0.008315 -0.999965 0.000000
vn -0.006666 0.996274 0.085982
vn -0.000714 0.155542 0.987829
vn 0.000714 0.155541 0.987829
vn 0.006666 0.996274 0.085983
vn 0.000283 -0.020954 0.999780
vn 0.007508 -0.970918 0.239294
vn -0.007508 -0.970918 0.239294
vn -0.000283 -0.020954 0.999780
vn 0.006666 0.996274 0.085983
vn 0.006340 0.999980 0.000000
vn -0.006340 0.999980 0.000000
vn -0.006666 0.996274 0.085982
vn 0.000714 0.155541 0.987829
vn -0.000714 0.155542 0.987829
vn 0.000283 -0.020954 0.999780
vn -0.000283 -0.020954 0.999780
vn -0.007508 -0.970918 0.239294
vn 0.007508 -0.970918 0.239294
vn 0.008315 -0.999965 0.000000
vn -0.008315 -0.999965 0.000000
vn 0.996273 0.006780 0.085992
vn 1.000000 0.000000 0.000000
vn 1.000000 0.000000 0.000000
vn 0.999979 0.006449 0.000000
vn 0.707112 0.000000 0.707102
vn 0.707112 0.000000 0.707102
vn 0.996273 0.006780 0.085992
vn 0.152042 0.000710 0.988374
vn 0.000000 0.000000 1.000000
vn 0.000000 0.000000 1.000000
vn 0.152042 0.000710 0.988374
vn -0.020788 -0.000286 0.999784
vn -0.707111 0.000000 0.707103
vn -0.707111 0.000000 0.707103
vn -0.020788 -0.000286 0.999784
vn -0.970906 -0.007650 0.239339
vn -0.970906 -0.007650 0.239339
vn -0.999964 -0.008472 0.000000
vn -1.000000 0.000000 0.000000
vn -1.000000 0.000000 0.000000
vn 0.970906 -0.007650 0.239337
vn 1.000000 0.000000 0.000000
vn 1.000000 0.000000 0.000000
vn 0.999964 -0.008472 0.000000
vn 0.707111 0.000000 0.707103
vn 0.707111 0.000000 0.707103
vn 0.970906 -0.007650 0.239337
vn 0.020788 -0.000286 0.999784
vn 0.020788 -0.000286 0.999784
vn -0.152042 0.000710 0.988374
vn 0.000000 0.000000 1.000000
vn 0.000000 0.000000 1.000000
vn -0.707112 0.000000 0.707102
vn -0.707112 0.000000 0.707102
vn -0.152042 0.000710 0.988374
vn -0.996273 0.006780 0.085994
vn -0.996273 0.006780 0.085994
vn -0.999979 0.006449 0.000000
vn -1.000000 0.000000 0.000000
vn -1.000000 0.000000 0.000000
vn 0.000000 0.000000 1.000000
vn 0.000000 0.000000 1.000000
vn 0.000000 0.000000 1.000000
vn 0.000000 0.000000 1.000000
vn 0.000000 0.000000 1.000000
vn 0.000000 0.000000 1.000000
vn 0.000000 -0.000000 1.000000
vn 0.000000 -0.000000 1.000000
vn 0.000000 -0.000000 1.000000
vn 0.000000 -0.000000 1.000000
vn 0.000000 -0.000000 1.000000
vn 0.000000 -0.000000 1.000000
vn 0.000000 -0.000000 1.000000
vn 0.000000 0.000000 1.000000
vn 0.000000 -0.000000 1.000000
vn 0.000001 -0.000000 1.000000
vn 0.000000 -0.000000 1.000000
vn 0.715285 0.000003 0.698833
vn 0.715285 0.000003 0.698833
vn 0.715286 0.000003 0.698831
vn 0.715286 0.000003 0.698831
vn 0.011303 -0.999923 0.005193
vn 0.011303 -0.999923 0.005193
vn 0.011303 -0.999923 0.005193
vn 0.011303 -0.999923 0.005193
vn 0.011303 -0.999923 0.005193
vn 0.000000 -1.000000 0.000000
vn 0.000000 -1.000000 0.000000
vn 0.000000 -1.000000 0.000000
vn -0.005842 0.000006 0.999983
vn -0.005842 0.000006 0.999983
vn -0.005841 0.000006 0.999983
vn -0.005841 0.000006 0.999983
vn -1.000000 0.000000 0.000000
vn -1.000000 0.000000 0.000000
vn -1.000000 0.000000 0.000000
vn -1.000000 0.000000 0.000000
vn -1.000000 0.000000 0.000000
vn -1.000000 -0.000001 0.000000
vn -1.000000 -0.000001 0.000000
vn -1.000000 0.000000 0.000000
vn -1.000000 0.000000 -0.000001
vn -1.000000 0.000000 0.000000
vn -1.000000 0.000000 0.000000
vn -1.000000 0.000000 -0.000001
vn 0.000000 0.000000 1.000000
vn 0.000000 -0.000000 1.000000
vn 0.000000 -0.000000 1.000000
vn 0.000000 -0.000000 1.000000
vn 0.000000 -0.000000 1.000000
vn 0.000000 -0.000000 1.000000
vn 0.000000 -0.000000 1.000000
vn 0.000000 0.000000 1.000000
vn 0.000000 0.000000 1.000000
vn 0.000000 0.000000 1.000000
vn 0.000000 0.000000 1.000000
vn 0.000000 0.000000 1.000000
vn 0.000001 0.000000 1.000000
vn 0.000001 0.000000 1.000000
vn 0.000000 0.000000 1.000000
vn 0.000001 0.000000 1.000000
vn 0.000000 -0.000000 1.000000
vn 0.000000 -0.000000 1.000000
vn 0.000001 0.000000 1.000000
vn 0.000001 0.000000 1.000000
vn 0.000001 0.000000 1.000000
vn 0.000001 0.000000 1.000000
vn 0.000001 0.000000 1.000000
vn 0.000001 0.000000 1.000000
vn 0.000002 0.000000 1.000000
vn 0.000001 0.000000 1.000000
vn 0.000001 0.000000 1.000000
vn 0.000000 -1.000000 0.000000
vn 0.000000 -1.000000 0.000000
vn 0.000000 -1.000000 0.000000
vn -1.000000 0.000000 0.000000
vn -1.000000 0.000000 0.000000
vn 0.037476 -0.989117 0.142279
vn 0.002897 -0.076608 0.997057
vn 0.004036 -0.045917 0.998937
vn 0.075136 -0.954696 0.287941
vn 0.075136 -0.954696 0.287941
vn 0.004036 -0.045917 0.998937
vn 0.008275 -0.045827 0.998915
vn 0.152149 -0.930915 0.332036
vn 0.152149 -0.930915 0.332036
vn 0.008275 -0.045827 0.998915
vn 0.010850 -0.045853 0.998889
vn 0.196438 -0.927786 0.317216
vn 0.196438 -0.927786 0.317216
vn 0.010850 -0.045853 0.998889
vn 0.013210 -0.045461 0.998879
vn 0.240112 -0.924640 0.295612
vn 0.240112 -0.924640 0.295612
vn 0.013210 -0.045461 0.998879
vn 0.015458 -0.046605 0.998794
vn 0.274570 -0.923042 0.269452
vn 0.274570 -0.923042 0.269452
vn 0.015458 -0.046605 0.998794
vn 0.018052 -0.045216 0.998814
vn 0.329529 -0.911526 0.246030
vn 0.329529 -0.911526 0.246030
vn 0.018052 -0.045216 0.998814
vn 0.023116 -0.043001 0.998808
vn 0.431829 -0.877186 0.209925
vn 0.431829 -0.877186 0.209925
vn 0.023116 -0.043001 0.998808
vn 0.029270 -0.039864 0.998776
vn 0.553759 -0.816337 0.164150
vn 0.553759 -0.816337 0.164150
vn 0.029270 -0.039864 0.998776
vn 0.031719 -0.029370 0.999065
vn 0.690019 -0.711260 0.134100
vn 0.690019 -0.711260 0.134100
vn 0.031719 -0.029370 0.999065
vn 0.024400 -0.010909 0.999643
vn 0.856586 -0.490994 0.158697
vn 0.856586 -0.490994 0.158697
vn 0.024400 -0.010909 0.999643
vn 0.035332 -0.000054 0.999376
vn 0.986508 -0.000266 0.163716
vn 0.004036 -0.045917 0.998937
vn 0.002897 -0.076608 0.997057
vn 0.000074 0.001208 0.999999
vn 0.000212 0.001196 0.999999
vn 0.004036 -0.045917 0.998937
vn 0.000212 0.001196 0.999999
vn 0.000496 0.001204 0.999999
vn 0.008275 -0.045827 0.998915
vn 0.008275 -0.045827 0.998915
vn 0.000496 0.001204 0.999999
vn 0.000879 0.001258 0.999999
vn 0.010850 -0.045853 0.998889
vn 0.010850 -0.045853 0.998889
vn 0.000879 0.001258 0.999999
vn 0.001086 0.001236 0.999999
vn 0.013210 -0.045461 0.998879
vn 0.015458 -0.046605 0.998794
vn 0.013210 -0.045461 0.998879
vn 0.001086 0.001236 0.999999
vn 0.001151 0.001205 0.999999
vn 0.018052 -0.045216 0.998814
vn 0.015458 -0.046605 0.998794
vn 0.001151 0.001205 0.999999
vn 0.001279 0.001240 0.999998
vn 0.018052 -0.045216 0.998814
vn 0.001279 0.001240 0.999998
vn 0.001339 0.001237 0.999998
vn 0.023116 -0.043001 0.998808
vn 0.023116 -0.043001 0.998808
vn 0.001339 0.001237 0.999998
vn 0.001421 0.001248 0.999998
vn 0.029270 -0.039864 0.998776
vn 0.031719 -0.029370 0.999065
vn 0.029270 -0.039864 0.998776
vn 0.001421 0.001248 0.999998
vn 0.001777 0.001749 0.999997
vn 0.024400 -0.010909 0.999643
vn 0.031719 -0.029370 0.999065
vn 0.001777 0.001749 0.999997
vn 0.002133 0.001613 0.999996
vn 0.024400 -0.010909 0.999643
vn 0.002133 0.001613 0.999996
vn 0.002114 0.000038 0.999998
vn 0.035332 -0.000054 0.999376
vn 0.690019 -0.711260 0.134100
vn 0.856586 -0.490994 0.158697
vn 0.883370 -0.468092 0.023376
vn 0.734054 -0.679059 0.006591
vn 0.553759 -0.816337 0.164150
vn 0.690019 -0.711260 0.134100
vn 0.734054 -0.679059 0.006591
vn 0.582282 -0.812868 0.013930
vn 0.431829 -0.877186 0.209925
vn 0.553759 -0.816337 0.164150
vn 0.582282 -0.812868 0.013930
vn 0.459175 -0.885867 0.066316
vn 0.329529 -0.911526 0.246030
vn 0.431829 -0.877186 0.209925
vn 0.459175 -0.885867 0.066316
vn 0.351147 -0.930314 0.105887
vn 0.274570 -0.923042 0.269452
vn 0.329529 -0.911526 0.246030
vn 0.351147 -0.930314 0.105887
vn 0.286999 -0.948960 0.130794
vn 0.240112 -0.924640 0.295612
vn 0.274570 -0.923042 0.269452
vn 0.286999 -0.948960 0.130794
vn 0.254281 -0.955332 0.150604
vn 0.196438 -0.927786 0.317216
vn 0.240112 -0.924640 0.295612
vn 0.254281 -0.955332 0.150604
vn 0.208863 -0.962083 0.175421
vn 0.152149 -0.930915 0.332036
vn 0.196438 -0.927786 0.317216
vn 0.208863 -0.962083 0.175421
vn 0.163317 -0.966952 0.195782
vn 0.075136 -0.954696 0.287941
vn 0.152149 -0.930915 0.332036
vn 0.163317 -0.966952 0.195782
vn 0.090674 -0.984475 0.150291
vn 0.037476 -0.989117 0.142279
vn 0.075136 -0.954696 0.287941
vn 0.090674 -0.984475 0.150291
vn 0.037733 -0.994191 0.100798
vn 0.883370 -0.468092 0.023376
vn 0.856586 -0.490994 0.158697
vn 0.986508 -0.000266 0.163716
vn 0.999448 0.000111 0.033209
vn 0.006666 0.996274 0.085983
vn 0.996273 0.006780 0.085992
vn 0.999979 0.006449 0.000000
vn 0.006340 0.999980 0.000000
vn 0.996273 0.006780 0.085992
vn 0.006666 0.996274 0.085983
vn 0.000714 0.155541 0.987829
vn 0.152042 0.000710 0.988374
s off
g LowerDeck_R
usemtl Boat_large_mdlSG7
f 4/1/1 3/2/2 1/3/3 2/4/4
usemtl Boat_large_mdlSG
f 7/5/5 8/6/6 13/7/7 14/8/8
f 9/9/9 10/10/10 22/11/11 21/12/12
f 10/13/13 9/14/14 12/15/15 11/16/16
f 11/17/17 12/18/18 17/19/19 18/20/20
f 14/21/21 13/22/22 16/23/23 15/24/24
f 15/25/25 16/26/26 28/27/27 27/28/28
f 18/29/29 17/30/30 20/31/31 19/32/32
f 19/33/33 20/34/34 26/35/35 25/36/36
f 10/10/37 11/37/38 8/38/39 5/39/40
f 18/20/41 19/40/42 16/41/43 13/7/44
f 5/39/45 23/42/46 22/11/47 10/10/48
f 8/6/49 11/17/50 18/20/51 13/7/52
f 16/26/53 19/33/54 25/36/55 28/27/56
f 6/43/57 37/44/58 38/45/59 24/46/60
f 35/47/61 37/44/62 6/43/63 7/48/64
f 36/49/65 35/50/66 7/51/67 14/21/68
f 39/52/69 36/49/70 14/21/71 15/24/72
f 15/53/73 27/54/74 40/55/75 39/56/76
f 20/57/77 30/58/78 29/59/79 26/60/80
f 31/61/81 30/62/82 20/31/83 17/30/84
f 17/30/85 12/63/86 32/64/87 31/61/88
f 33/65/89 32/66/90 12/15/91 9/14/92
f 9/14/93 21/67/94 34/68/95 33/65/96
usemtl Boat_large_mdlSG3
f 60/69/97 41/70/98 42/71/99 54/72/100
f 54/72/101 42/71/102 43/73/103 53/74/104
f 53/74/105 43/73/106 44/75/107 52/76/108
s 1
f 44/75/109 45/77/110 52/76/111
f 45/77/110 63/78/112 52/76/111
f 52/76/111 63/78/112 64/79/113
s off
f 55/80/114 52/76/115 64/79/116 72/81/117
s 2
usemtl Boat_large_mdlSG2
f 52/82/118 55/83/119 53/86/120
f 60/84/121 54/85/122 55/83/119
f 55/83/119 54/85/122 53/86/120
s off
f 60/84/123 55/83/124 56/87/125
usemtl Boat_large_mdlSG3
f 72/81/126 73/88/127 56/89/128 55/80/129
usemtl Boat_large_mdlSG2
f 75/90/130 76/91/131 62/92/132 57/93/133
s 3
f 62/92/134 61/94/135 59/197/136 57/93/137
s off
f 56/96/138 73/97/139 74/98/140 58/99/141
usemtl Boat_large_mdlSG3
f 45/77/142 46/100/143 65/101/144 63/78/145
f 66/102/146 65/101/147 46/100/148 47/103/149
f 67/104/150 66/102/151 47/103/152 48/105/153
f 68/106/154 67/104/155 48/105/156 49/107/157
f 69/108/158 68/106/159 49/107/160 50/109/161
f 70/110/162 69/108/163 50/109/164 51/111/165
f 71/112/166 70/110/167 51/111/168
usemtl Boat_large_mdlSG2
f 61/113/169 60/114/170 56/198/171
s 3
f 59/95/136 61/115/135 56/96/172 58/99/173
s off
usemtl Boat_large_mdlSG1
f 102/116/174 101/117/175 103/118/176 104/119/177
f 104/120/178 103/118/179 105/121/180 106/122/181
f 106/122/182 105/121/183 107/123/184 108/124/185
f 108/125/186 107/123/187 109/126/188 110/127/189
f 110/128/190 109/126/191 111/129/192 112/130/193
f 112/131/194 111/129/195 113/132/196 114/133/197
f 114/134/198 113/132/199 115/135/200 116/136/201
f 116/137/202 115/135/203 117/138/204 118/139/205
f 118/140/206 117/138/207 119/141/208 120/142/209
f 120/143/210 119/141/211 121/144/212 122/145/213
f 122/146/214 121/147/215 124/148/216 123/149/217
f 103/118/218 101/117/219 78/150/220 79/151/221
f 103/118/222 79/151/223 80/152/224 105/121/225
f 105/121/226 80/152/227 81/153/228 107/123/229
f 107/123/230 81/153/231 82/154/232 109/126/233
f 111/129/234 109/126/235 82/154/236 83/155/237
f 113/132/238 111/129/239 83/155/240 84/156/241
f 113/132/242 84/156/243 85/157/244 115/135/245
f 115/135/246 85/157/247 86/158/248 117/138/249
f 119/141/250 117/138/251 86/158/252 87/159/253
f 121/144/254 119/141/255 87/159/256 77/160/257
f 121/147/258 77/161/259 88/162/260 124/148/261
f 120/163/262 122/164/263 89/165/264 90/166/265
f 118/167/266 120/163/267 90/166/268 91/168/269
f 116/169/270 118/167/271 91/168/272 92/170/273
f 114/171/274 116/169/275 92/170/276 93/172/277
f 112/173/278 114/171/279 93/172/280 94/174/281
f 110/175/282 112/173/283 94/174/284 95/176/285
f 108/177/286 110/175/287 95/176/288 96/178/289
f 106/179/290 108/177/291 96/178/292 97/180/293
f 104/181/294 106/179/295 97/180/296 98/182/297
f 102/183/298 104/181/299 98/182/300 99/184/301
f 89/185/302 122/186/303 123/196/304 100/187/305
usemtl Boat_large_mdlSG
f 128/188/306 125/189/307 126/190/308 127/191/309
f 125/192/310 128/193/311 129/194/312 130/195/313
