# This file uses centimeters as units for non-parametric coordinates.

mtllib MidHull_L.mtl
g default
v -13.066177 -347.560425 125.437485
v 253.187561 -375.093353 194.386627
v 137.651749 -376.378052 194.631790
v 23.620331 -369.757141 196.932388
v 271.163605 -47.658119 -151.762604
v 154.796753 -55.594898 -151.699661
v 267.947693 -105.475197 -119.571075
v 152.136337 -113.098000 -124.384430
v 30.058510 -58.228760 -151.332916
v 30.069727 -112.703087 -126.154091
v -93.892845 -105.232574 -127.196838
v -95.391319 -51.799412 -152.330353
v -225.358032 -47.837715 -149.650665
v -230.541779 -100.826797 -121.928825
v 265.292572 -339.472443 95.087540
v 264.574097 -299.361877 7.688751
v 265.487976 -205.033081 -76.017456
v 151.473831 -214.569763 -79.396576
v 151.317551 -342.076904 96.048111
v 152.370544 -302.490967 4.782837
v 29.233849 -214.029114 -80.123474
v 29.485106 -299.355774 6.274170
v -97.617477 -208.058624 -78.079895
v 30.637899 -336.977844 98.279785
v -96.478638 -288.394287 8.588715
v -95.318382 -324.746399 101.867889
v -95.858528 -338.051880 125.437485
v -238.903519 -199.139725 -69.736710
v -248.390289 -268.989929 15.050232
v -250.709076 -302.489990 108.851959
v -211.869019 -5.581375 -183.110016
v -93.150131 -8.465302 -183.174179
v 30.166580 -10.763336 -183.985870
v 156.059616 -13.516006 -183.300934
v 268.225433 -14.811783 -184.891312
v 30.363752 -352.810272 131.821701
v 151.595383 -358.426727 129.566559
v 266.101074 -356.271027 128.849197
v -173.013733 -313.618195 105.359924
v -172.434464 -278.692108 11.819473
v -168.260498 -203.599182 -73.908302
v -162.217316 -103.029686 -124.562836
v -160.374680 -49.818565 -150.990509
v -152.509583 -7.023338 -183.142090
v -187.912262 -322.102417 125.437485
v -251.058838 -308.390137 126.353851
v -216.177917 -21.821365 -177.549255
v -224.852478 -20.296827 -218.320435
v -225.007309 -16.697254 -221.788849
v -225.007309 0.000000 -221.788849
v -248.303528 -283.890533 59.741638
v -95.013985 -304.736725 53.211369
v 30.554714 -316.356781 50.414158
v 151.883316 -320.519409 48.699982
v -248.847992 -292.271301 83.189819
v -94.697777 -313.827759 76.530243
v 30.871992 -325.764038 73.414993
v 151.654404 -330.416107 71.516129
v -249.582535 -291.362457 58.567547
v -249.315994 -289.576691 57.707546
v -95.882133 -312.231323 51.832504
v -95.732559 -310.408478 51.021420
v 30.077923 -323.850464 48.874756
v 30.154102 -322.006866 48.100052
v 151.829086 -327.994263 46.999817
v 151.851425 -326.134033 46.265564
v -250.096420 -298.786621 79.355499
v -249.888321 -297.948303 81.159180
v -95.624855 -320.292114 72.516434
v -95.437302 -319.494751 74.341949
v 30.333309 -332.185272 69.257736
v 30.447611 -331.414917 71.100433
v 151.595779 -336.765594 67.222107
v 151.594559 -336.030365 69.081940
v 276.457092 -372.520233 194.642136
v 289.253632 -353.791199 129.724747
v 288.384857 -337.040710 96.282501
v 288.126465 -296.313721 8.851106
v 289.055023 -201.634888 -73.935715
v 290.079193 -102.465996 -118.090683
v 292.182373 -46.504509 -151.542603
v 290.049927 -14.767080 -184.975891
v 289.829590 -18.390162 -177.007935
v 290.767548 -21.920094 -180.619125
v -216.004028 -18.352680 -173.950790
v 300.314362 -20.273115 -219.344284
v 300.380157 -16.609524 -222.802612
v 300.278778 0.000061 -222.802811
v 289.227966 -320.418365 48.506477
v 289.376312 -322.291626 49.193249
v 288.618622 -314.915833 51.076824
v 289.428314 -331.285889 68.487869
v 289.294312 -330.608337 70.364227
v 288.717010 -325.100830 72.936539
vt -1.021173 0.467658
vt -0.731124 0.460165
vt -0.746360 0.302533
vt -1.039944 0.303622
vt -0.426161 0.443477
vt -0.431463 0.295574
vt -0.114563 0.418036
vt -0.114764 0.271289
vt 0.058115 0.415276
vt 0.050535 0.267260
vt -0.976816 1.339949
vt -0.975769 1.248573
vt -0.697444 1.339179
vt -0.698874 1.248043
vt -0.972195 1.025259
vt -0.985198 0.720736
vt -0.706825 0.729437
vt -0.703485 1.013104
vt -0.407902 0.721379
vt -0.405683 0.999778
vt -0.402641 1.238536
vt -0.093486 0.700560
vt -0.096914 0.977069
vt 0.082946 0.695732
vt -0.398940 1.329872
vt -0.291538 1.306357
vt -0.089594 1.219767
vt 0.091906 0.964444
vt -0.085384 1.287265
vt 0.146316 1.258439
vt 0.106283 1.206474
vt 0.146316 1.258439
vt 0.306995 1.240023
vt 0.302160 1.193182
vt 0.026082 0.133376
vt -0.126015 0.139203
vt -0.437390 0.151376
vt -0.756475 0.169703
vt -1.039651 0.185807
vt -0.375889 1.495813
vt -0.659004 1.504650
vt -0.945609 1.507397
vt 0.280727 0.951820
vt 0.259378 0.690904
vt 0.230792 0.412516
vt 0.215835 0.263231
vt 0.178180 0.127548
vt -0.589979 0.685336
vt -0.592475 0.784967
vt -0.591127 0.793292
vt 0.094594 0.118090
vt 0.094594 0.202885
vt 0.534451 0.429464
vt 0.062595 0.429461
vt 0.062597 0.435622
vt 0.534452 0.435634
vt -0.336569 0.429455
vt -0.336569 0.435650
vt -0.731415 0.429458
vt -0.731415 0.435643
vt 0.534452 0.484768
vt 0.062595 0.484785
vt 0.062595 0.490664
vt 0.534452 0.490666
vt -0.336569 0.484768
vt -0.336569 0.490660
vt -0.731415 0.484769
vt -0.731415 0.490662
vt 0.534452 0.416330
vt 0.062595 0.416330
vt -0.336569 0.416330
vt -0.731415 0.416330
vt 0.062595 0.502522
vt 0.534452 0.502522
vt -0.336570 0.502522
vt -0.731415 0.502522
vt -1.003594 1.505248
vt -1.033339 1.339348
vt -1.031883 1.248925
vt -1.028808 1.025696
vt -1.043030 0.719505
vt -1.076883 0.467590
vt -1.092819 0.305275
vt -1.094407 0.189023
vt 0.302160 1.193182
vt 0.302160 1.193182
vt 0.672615 0.676966
vt 0.675098 0.685779
vt -0.591118 0.676892
vt 0.700555 0.784473
vt -0.103476 0.793292
vt 0.560745 0.118087
vt 0.560745 0.202885
vt -1.110549 0.429452
vt -1.110549 0.435755
vt -1.110549 0.416330
vt -1.110548 0.484661
vt -1.110549 0.490666
vt -1.110548 0.502522
vn 0.085887 -0.441781 -0.893002
vn 0.032289 -0.419222 -0.907309
vn 0.019404 -0.522452 -0.852448
vn 0.047104 -0.593326 -0.803583
vn -0.007536 -0.418639 -0.908121
vn -0.006234 -0.497793 -0.867274
vn -0.040355 -0.434042 -0.899988
vn -0.026089 -0.507448 -0.861287
vn -0.056876 -0.444851 -0.893797
vn -0.033752 -0.516235 -0.855782
vn -0.016843 -0.943971 -0.329600
vn -0.009812 -0.912748 -0.408406
vn 0.074003 -0.901927 -0.425502
vn 0.067269 -0.941633 -0.329853
vn 0.098860 -0.549386 -0.829700
vn 0.027772 -0.566020 -0.823923
vn 0.091437 -0.785773 -0.611719
vn 0.009472 -0.807151 -0.590269
vn -0.024245 -0.580531 -0.813877
vn -0.050929 -0.823731 -0.564688
vn -0.064075 -0.917998 -0.391374
vn -0.067229 -0.599944 -0.797212
vn -0.102225 -0.838912 -0.534581
vn -0.087474 -0.612056 -0.785962
vn -0.055210 -0.944665 -0.323357
vn -0.092555 -0.885043 -0.456215
vn -0.120256 -0.916974 -0.380390
vn -0.124388 -0.846559 -0.517558
vn -0.121957 -0.864728 -0.487208
vn -0.158641 -0.897888 -0.410646
vn -0.142293 -0.917141 -0.372298
vn -0.205691 -0.926089 -0.316307
vn -0.164871 -0.927963 -0.334220
vn -0.025276 -0.596751 -0.802028
vn -0.022290 -0.584720 -0.810929
vn -0.009449 -0.577819 -0.816110
vn 0.006563 -0.615689 -0.787962
vn 0.017756 -0.696629 -0.717212
vn -0.056758 -0.962247 -0.266193
vn -0.025821 -0.963176 -0.267629
vn 0.055823 -0.962958 -0.263811
vn -0.143005 -0.854558 -0.499281
vn -0.103669 -0.626135 -0.772792
vn -0.071405 -0.461384 -0.884323
vn -0.043134 -0.545588 -0.836943
vn -0.029094 -0.628424 -0.777326
vn 0.004119 -0.717306 0.696746
vn 0.000197 -0.999469 0.032578
vn 0.000147 -0.999708 0.024154
vn 0.004119 -0.717306 0.696746
vn -0.001398 -0.167381 -0.985891
vn -0.001887 -0.165780 -0.986161
vn -0.001930 -0.000012 -0.999998
vn -0.001436 -0.000000 -0.999999
vn -0.036432 0.154014 -0.987397
vn -0.013345 0.176136 -0.984275
vn -0.121006 -0.903528 -0.411090
vn -0.167197 -0.906083 -0.388664
vn -0.006342 0.196224 -0.980539
vn -0.067696 -0.899421 -0.431810
vn -0.002205 0.216321 -0.976320
vn -0.008623 -0.892136 -0.451684
vn 0.012137 0.236142 -0.971643
vn 0.074638 -0.878795 -0.471327
vn -0.167793 -0.946769 -0.274725
vn -0.121704 -0.946025 -0.300374
vn -0.032244 -0.525268 0.850326
vn -0.030893 -0.503391 0.863506
vn -0.068022 -0.944280 -0.322038
vn -0.018739 -0.545758 0.837733
vn -0.008974 -0.939878 -0.341392
vn 0.002305 -0.564537 0.825405
vn 0.075084 -0.929101 -0.362124
vn 0.018912 -0.586101 0.810017
vn -0.005407 0.334110 -0.942519
vn 0.009553 0.357041 -0.934040
vn 0.006467 0.378319 -0.925653
vn -0.000879 0.397886 -0.917435
vn -0.002752 0.419001 -0.907982
vn -0.009331 -0.356993 0.934060
vn 0.001289 -0.333352 0.942802
vn -0.005840 -0.378353 0.925643
vn 0.004329 -0.397819 0.917454
vn 0.004777 -0.418993 0.907977
vn 0.112662 -0.937401 -0.329525
vn 0.110771 -0.960657 -0.254693
vn 0.123282 -0.896690 -0.425146
vn 0.137720 -0.773452 -0.618712
vn 0.135739 -0.540049 -0.830616
vn 0.109572 -0.442009 -0.890293
vn 0.057523 -0.597495 -0.799807
vn 0.022249 -0.716666 -0.697061
vn -0.000387 -0.991008 -0.133803
vn -0.000390 -0.990811 -0.135253
s 1
g MidHull_L
usemtl Boat_large_mdlSG9
f 7/1/1 8/2/2 6/3/3 5/4/4
f 8/2/2 10/5/5 9/6/6 6/3/3
f 11/7/7 12/8/8 9/6/6 10/5/5
f 11/7/7 42/9/9 43/10/10 12/8/8
f 37/13/11 19/14/12 15/12/13 38/11/14
f 17/16/15 18/17/16 8/2/2 7/1/1
f 16/15/17 20/18/18 18/17/16 17/16/15
f 18/17/16 21/19/19 10/5/5 8/2/2
f 19/14/12 20/18/18 16/15/17 15/12/13
f 22/20/20 21/19/19 18/17/16 20/18/18
f 19/14/12 24/21/21 22/20/20 20/18/18
f 23/22/22 11/7/7 10/5/5 21/19/19
f 22/20/20 25/23/23 23/22/22 21/19/19
f 23/22/22 41/24/24 42/9/9 11/7/7
f 37/13/11 36/25/25 24/21/21 19/14/12
f 1/26/26 24/21/21 36/25/25
f 24/21/21 26/27/27 25/23/23 22/20/20
f 25/23/23 40/28/28 41/24/24 23/22/22
f 1/26/26 27/29/29 26/27/27 24/21/21
f 45/30/30 39/31/31 26/27/27 27/29/29
f 26/27/27 39/31/31 40/28/28 25/23/23
f 45/32/30 46/33/32 30/34/33
f 43/10/10 44/35/34 32/36/35 12/8/8
f 32/36/35 33/37/36 9/6/6 12/8/8
f 33/37/36 34/38/37 6/3/3 9/6/6
f 34/38/37 35/39/38 5/4/4 6/3/3
f 1/26/26 36/25/25 4/40/39
f 3/41/40 4/40/39 36/25/25 37/13/11
f 3/41/40 37/13/11 38/11/14 2/42/41
f 45/30/30 30/85/33 39/31/31
f 40/28/28 39/31/31 30/86/33 29/43/42
f 41/24/24 40/28/28 29/43/42 28/44/43
f 42/9/9 41/24/24 28/44/43 14/45/44
f 43/10/10 42/9/9 14/45/44 13/46/45
f 31/47/46 44/35/34 43/10/10 13/46/45
s 3
usemtl Boat_large_mdlSG1
f 85/89/47 47/48/48 84/88/49 83/87/50
f 87/92/51 49/51/52 50/52/53 88/93/54
s 5
usemtl Boat_large_mdlSG
f 60/53/55 62/54/56 61/55/57 59/56/58
f 62/54/56 64/57/59 63/58/60 61/55/57
f 64/57/59 66/59/61 65/60/62 63/58/60
f 66/59/61 89/94/63 90/95/64 65/60/62
f 67/61/65 69/62/66 70/63/67 68/64/68
f 69/62/66 71/65/69 72/66/70 70/63/67
f 71/65/69 73/67/71 74/68/72 72/66/70
f 73/67/71 92/97/73 93/98/74 74/68/72
f 69/62/66 67/61/65 59/56/58 61/55/57
f 71/65/69 69/62/66 61/55/57 63/58/60
f 73/67/71 71/65/69 63/58/60 65/60/62
f 73/67/71 65/60/62 90/95/64 92/97/73
f 60/53/55 51/69/75 52/70/76 62/54/56
f 62/54/56 52/70/76 53/71/77 64/57/59
f 64/57/59 53/71/77 54/72/78 66/59/61
f 66/59/61 54/72/78 91/96/79 89/94/63
f 70/63/67 56/73/80 55/74/81 68/64/68
f 72/66/70 57/75/82 56/73/80 70/63/67
f 74/68/72 58/76/83 57/75/82 72/66/70
f 93/98/74 94/99/84 58/76/83 74/68/72
s 1
usemtl Boat_large_mdlSG9
f 2/42/41 38/11/14 76/78/85 75/77/86
f 38/11/14 15/12/13 77/79/87 76/78/85
f 15/12/13 16/15/17 78/80/88 77/79/87
f 79/81/89 78/80/88 16/15/17 17/16/15
f 7/1/1 80/82/90 79/81/89 17/16/15
f 5/4/4 81/83/91 80/82/90 7/1/1
f 82/84/92 81/83/91 5/4/4 35/39/38
s 3
usemtl Boat_large_mdlSG1
f 48/49/93 86/90/94 84/88/49 47/48/48
f 87/91/51 86/90/94 48/49/93 49/50/52
