# This file uses centimeters as units for non-parametric coordinates.

mtllib UpperDeck_L.mtl
g default
v 240.161682 -105.679085 114.265976
v 240.161682 -340.795593 261.157501
v 240.161682 -340.795593 114.265976
v 240.161682 -371.087830 185.281006
v 240.161682 -105.679085 210.532852
v 310.373383 -105.679085 210.532852
v 310.373383 0.000000 210.532852
v 240.161682 0.000000 210.532852
v 240.161682 0.000000 261.157501
v 310.373383 -105.679085 107.821281
v 210.480743 -359.437805 269.444763
v 232.033798 -359.437805 269.444763
v 232.033798 -359.437805 250.433807
v 210.480743 -359.437805 250.433807
v 232.033798 0.000000 269.444763
v 232.033798 0.000000 250.433807
v 210.480743 0.000000 250.433807
v 210.480743 0.000000 269.444763
v 521.716980 -359.437805 269.444794
v 500.163879 -359.437805 269.444794
v 521.716980 -359.437805 259.939301
v 500.163879 -359.437805 259.939301
v 500.163879 0.000000 259.939301
v 500.163879 0.000000 269.444794
v 521.716980 0.000000 269.444794
v 521.716980 0.000000 259.939301
v 708.405457 -278.185822 267.341583
v 706.991394 -279.599884 267.341583
v 705.577271 -278.185822 268.755646
v 706.991394 -276.771729 268.755646
v 562.840149 -279.599884 267.341583
v 561.426086 -278.185822 267.341583
v 562.840149 -276.771729 268.755646
v 564.254272 -278.185822 268.755646
v 706.991394 -135.082657 267.341583
v 708.405457 -136.496735 267.341583
v 706.991394 -137.910843 268.755646
v 705.577271 -136.496735 268.755646
v 561.426086 -136.496735 267.341583
v 562.840149 -135.082657 267.341583
v 564.254272 -136.496735 268.755646
v 562.840149 -137.910843 268.755646
v 576.047852 -266.537933 268.755646
v 574.633728 -265.123840 268.755646
v 576.047791 -263.709808 267.341583
v 577.461853 -265.123871 267.341583
v 574.633728 -149.558716 268.755646
v 576.047852 -148.144608 268.755646
v 577.461853 -149.558685 267.341583
v 576.047791 -150.972763 267.341583
v 695.197937 -265.123840 268.755646
v 693.783813 -266.537933 268.755646
v 692.369812 -265.123871 267.341583
v 693.783875 -263.709808 267.341583
v 693.783813 -148.144608 268.755646
v 695.197937 -149.558716 268.755646
v 693.783875 -150.972763 267.341583
v 692.369812 -149.558685 267.341583
v 562.840149 -279.599884 256.605042
v 561.426086 -278.185822 256.605042
v 708.405457 -278.185822 256.605042
v 706.991394 -279.599884 256.605042
v 561.426086 -136.496735 256.605042
v 562.840149 -135.082657 256.605042
v 706.991394 -135.082657 256.605042
v 708.405457 -136.496735 256.605042
v 576.047791 -263.709808 259.692078
v 577.461853 -265.123871 259.692078
v 692.369812 -265.123871 259.692078
v 693.783875 -263.709808 259.692078
v 577.461853 -149.558685 259.692078
v 576.047791 -150.972763 259.692078
v 693.783875 -150.972763 259.692078
v 692.369812 -149.558685 259.692078
v 693.783875 -268.429779 265.609222
v 693.783875 -146.252808 265.609222
v 572.080933 -268.429779 265.609222
v 572.080933 -146.252777 265.609222
v 211.969833 -362.545502 264.571320
v 211.969833 -362.545502 260.071320
v 871.205444 -209.272293 264.571320
v 821.742371 -354.527649 264.571320
v 871.205444 -209.272293 260.071320
v 821.742371 -354.527649 260.071320
v 821.742371 0.000000 260.071320
v 211.969833 0.000000 260.071320
v 211.969833 0.000000 264.571320
v 825.128540 0.000000 264.571320
v 894.447998 -0.000000 264.571320
v 871.205444 0.000000 264.571320
v 871.205444 0.000000 260.071320
v 894.447998 -0.000000 260.071320
v 242.531769 -335.867188 260.682404
v 243.946381 -337.281036 260.669891
v 242.743484 -363.167175 204.011795
v 241.328842 -361.753357 204.024261
v 238.307816 -361.753357 204.024261
v 236.892609 -363.167664 204.011795
v 238.095520 -337.281555 260.669922
v 239.510727 -335.867188 260.682404
v 243.946381 -360.426331 260.527069
v 242.531250 -361.840729 260.514587
v 241.328339 -387.726990 203.856445
v 242.743484 -386.312561 203.868942
v 236.892609 -386.313049 203.868912
v 238.307266 -387.726990 203.856445
v 239.510208 -361.840729 260.514587
v 238.095520 -360.426849 260.527039
vt 0.816931 0.429543
vt 0.892662 0.607081
vt 0.229140 0.429543
vt 0.229140 0.670211
vt 0.263431 0.171911
vt 0.527629 0.171911
vt 0.527629 0.347440
vt 0.263431 0.347440
vt -0.035058 0.796772
vt -0.035058 0.670210
vt 0.816931 0.796772
vt 1.928173 1.457204
vt 1.928224 1.697877
vt 1.752691 1.697913
vt 1.752643 1.441127
vt 0.964968 0.423296
vt 0.964968 0.470824
vt 0.066375 0.470824
vt 0.066375 0.423296
vt 0.066375 0.541491
vt 0.066375 0.487608
vt 0.964969 0.487608
vt 0.964969 0.541491
vt -0.832221 0.503626
vt -0.832221 0.456099
vt 0.066375 0.456099
vt 0.066375 0.503626
vt -0.832220 0.578120
vt -0.832220 0.524238
vt 0.066375 0.524238
vt 0.066375 0.578120
vt 0.228516 0.781189
vt 0.228516 0.743530
vt 1.907227 0.741455
vt 1.907227 0.779175
vt 1.907227 0.779175
vt 1.907227 0.864868
vt 0.228516 0.866882
vt 0.228516 0.781189
vt 0.228516 0.904633
vt 0.228516 0.866882
vt 1.907227 0.864868
vt 1.907227 0.902649
vt 0.044680 -0.120113
vt 0.051808 -0.120113
vt 0.051808 -0.083008
vt 0.044680 -0.083008
vt 0.048228 -0.122546
vt 0.051808 -0.125000
vt 0.058936 -0.125000
vt 0.046799 0.069051
vt 0.046773 0.062016
vt 0.098744 0.010523
vt 0.105871 0.010523
vt 0.778394 -0.120113
vt 0.785521 -0.120113
vt 0.785521 -0.083008
vt 0.778394 -0.083008
vt 0.781940 -0.122569
vt 0.771266 -0.125000
vt 0.778394 -0.125000
vt 0.758305 0.061335
vt 0.759053 0.069044
vt 0.699263 0.010523
vt 0.706397 0.010523
vt 0.051807 -0.136723
vt 0.044680 -0.136723
vt 0.044680 -0.173828
vt 0.051807 -0.173828
vt 0.052531 -0.218746
vt 0.048949 -0.221178
vt 0.052531 -0.223633
vt 0.059662 -0.223633
vt 0.046773 0.012707
vt 0.046799 0.005557
vt 0.105871 0.065044
vt 0.098744 0.065044
vt 0.785521 -0.136723
vt 0.778393 -0.136723
vt 0.778393 -0.173828
vt 0.785521 -0.173828
vt 0.770476 -0.270028
vt 0.766929 -0.267572
vt 0.759799 -0.272459
vt 0.766929 -0.272459
vt 0.759053 0.005565
vt 0.758306 0.013400
vt 0.706397 0.065044
vt 0.699270 0.065044
vt 0.112526 -0.065037
vt 0.108894 -0.068631
vt 0.112427 -0.072266
vt 0.119553 -0.072266
vt 0.684570 -0.284172
vt 0.677441 -0.284172
vt 0.677441 -0.310547
vt 0.684570 -0.310547
vt 0.698355 -0.068677
vt 0.694807 -0.065045
vt 0.687698 -0.072266
vt 0.694824 -0.072266
vt 0.677441 -0.344734
vt 0.684570 -0.344734
vt 0.684570 -0.318359
vt 0.677441 -0.318359
vt 0.102269 0.006991
vt 0.105835 0.003418
vt 0.112961 0.003418
vt 0.098132 -0.284172
vt 0.091003 -0.284172
vt 0.091003 -0.310547
vt 0.098132 -0.310547
vt 0.698223 -0.014057
vt 0.701816 -0.010468
vt 0.698242 -0.006836
vt 0.691121 -0.006836
vt 0.091003 -0.344734
vt 0.098132 -0.344734
vt 0.098132 -0.318359
vt 0.091003 -0.318359
vt 0.759532 -0.223633
vt 0.766929 -0.218746
vt 0.052531 -0.267572
vt 0.059661 -0.272459
vt 0.771265 -0.131836
vt 0.058935 -0.131836
vt 0.691857 0.003418
vt 0.122994 -0.006838
vt 0.115944 -0.014064
vt 0.692092 0.072266
vt 0.112962 0.072266
vt 0.766929 -0.181641
vt 0.052531 -0.181641
vt 0.766929 -0.230467
vt 0.052531 -0.230467
vt 0.754006 -0.004813
vt 0.054064 -0.004813
vt 0.057481 -0.074289
vt 0.757422 -0.074289
vt 0.098135 -0.384621
vt 0.666697 -0.384621
vt 0.666697 -0.357422
vt 0.098135 -0.357422
vt 0.666697 -0.423835
vt 0.666697 -0.397461
vt 0.098135 -0.397461
vt 0.098135 -0.423835
vt 0.500000 -0.997070
vt 1.997070 0.500000
vt 0.500000 1.997559
vt -0.997559 0.500000
vt 0.181885 0.973526
vt 0.759277 0.911743
vt 0.758911 0.975792
vt 0.657501 -1.117188
vt 0.657715 -1.179688
vt 1.234375 -1.115234
vt 0.657227 -0.980469
vt 0.657501 -1.117188
vt 1.634766 -0.976563
vt 0.650757 0.700806
vt 1.650391 0.704590
vt 1.649414 0.736572
vt 1.649414 0.749023
vt 0.649658 0.748901
vt 0.649658 0.736450
vt -0.219238 1.108337
vt 0.758057 1.112183
vt 0.751587 2.793457
vt -0.247803 2.790039
vt 0.758911 0.975792
vt -0.053905 0.574582
vt -0.053906 0.567030
vt -0.311606 0.575951
vt -0.311606 0.583503
vt -0.053912 0.509085
vt -0.053912 0.468628
vt -0.312310 0.471343
vt -0.312310 0.511800
vt 0.186655 0.530402
vt 0.186655 0.537954
vt 0.444355 0.546875
vt 0.444355 0.539322
vt 0.188014 0.435824
vt 0.188014 0.476281
vt 0.446412 0.478996
vt 0.446412 0.438539
vt -0.053943 0.563494
vt -0.311606 0.572415
vt -0.311606 0.587040
vt -0.053942 0.578120
vt 0.444318 0.535785
vt 0.186655 0.526865
vt -0.312188 0.515333
vt -0.053912 0.512620
vt 0.181885 0.973526
vt 1.234375 -1.115234
vn -1.000000 0.000000 0.000000
vn -1.000000 0.000000 -0.000000
vn -1.000000 0.000000 0.000000
vn -1.000000 0.000000 0.000000
vn -1.000000 0.000000 -0.000000
vn -1.000000 0.000000 -0.000000
vn 0.000000 0.000000 -1.000000
vn 0.000000 0.000000 -1.000000
vn 0.000000 0.000000 -1.000000
vn 0.000000 0.000000 -1.000000
vn -1.000000 0.000000 -0.000000
vn -1.000000 0.000000 -0.000000
vn -1.000000 0.000000 -0.000000
vn -1.000000 0.000000 0.000000
vn -1.000000 0.000000 0.000000
vn -0.000000 1.000000 0.000000
vn -0.000000 1.000000 0.000000
vn -0.000000 1.000000 0.000000
vn 0.000000 1.000000 0.000000
vn 1.000000 0.000000 0.000000
vn 1.000000 0.000000 0.000000
vn 1.000000 0.000000 0.000000
vn 1.000000 0.000000 0.000000
vn 0.000000 0.000000 -1.000000
vn 0.000000 0.000000 -1.000000
vn 0.000000 0.000000 -1.000000
vn 0.000000 0.000000 -1.000000
vn -1.000000 0.000000 0.000000
vn -1.000000 0.000000 0.000000
vn -1.000000 0.000000 0.000000
vn -1.000000 0.000000 0.000000
vn 0.000000 0.000000 1.000000
vn 0.000000 0.000000 1.000000
vn 0.000000 0.000000 1.000000
vn 0.000000 0.000000 1.000000
vn -1.000000 0.000000 0.000000
vn -1.000000 0.000000 0.000000
vn -1.000000 0.000000 0.000000
vn -1.000000 0.000000 0.000000
vn 0.000000 0.000000 1.000000
vn 0.000000 0.000000 1.000000
vn 0.000000 0.000000 1.000000
vn 0.000000 0.000000 1.000000
vn 1.000000 0.000000 0.000000
vn 1.000000 0.000000 0.000000
vn 1.000000 0.000000 0.000000
vn 1.000000 0.000000 0.000000
vn 0.997137 -0.010327 0.074906
vn 0.010152 -0.997140 0.074891
vn 0.009714 -0.999953 0.000000
vn 0.999951 -0.009881 0.000000
vn 0.010152 -0.997140 0.074891
vn 0.997137 -0.010327 0.074906
vn 0.251718 -0.001810 0.967799
vn 0.001812 -0.256394 0.966571
vn 0.001812 -0.256394 0.966571
vn 0.251718 -0.001810 0.967799
vn -0.042051 0.000839 0.999115
vn -0.000830 0.042371 0.999102
vn -0.010152 -0.997140 0.074891
vn -0.997137 -0.010327 0.074906
vn -0.999951 -0.009881 0.000000
vn -0.009714 -0.999953 0.000000
vn -0.997137 -0.010327 0.074906
vn -0.010152 -0.997140 0.074891
vn -0.001812 -0.256395 0.966570
vn -0.251716 -0.001810 0.967800
vn -0.251716 -0.001810 0.967800
vn -0.001812 -0.256395 0.966570
vn 0.000830 0.042370 0.999102
vn 0.042051 0.000839 0.999115
vn 0.010152 0.997140 0.074892
vn 0.997137 0.010327 0.074906
vn 0.999951 0.009881 0.000000
vn 0.009714 0.999953 0.000000
vn 0.997137 0.010327 0.074906
vn 0.010152 0.997140 0.074892
vn 0.001812 0.256394 0.966571
vn 0.251718 0.001810 0.967799
vn 0.251718 0.001810 0.967799
vn 0.001812 0.256394 0.966571
vn -0.000830 -0.042371 0.999102
vn -0.042051 -0.000839 0.999115
vn -0.997137 0.010327 0.074906
vn -0.010152 0.997140 0.074892
vn -0.009714 0.999953 0.000000
vn -0.999951 0.009881 0.000000
vn -0.010152 0.997140 0.074892
vn -0.997137 0.010327 0.074906
vn -0.251716 0.001810 0.967799
vn -0.001812 0.256395 0.966570
vn -0.001812 0.256395 0.966570
vn -0.251716 0.001810 0.967799
vn 0.042051 -0.000839 0.999115
vn 0.000830 -0.042371 0.999102
vn 0.042051 0.000839 0.999115
vn 0.000830 0.042370 0.999102
vn 0.011196 0.979016 0.203478
vn 0.979001 0.011408 0.203538
vn 0.979001 0.011408 0.203538
vn 0.011196 0.979016 0.203478
vn 0.012156 0.999926 0.000000
vn 0.999923 0.012387 0.000000
vn 0.000830 -0.042371 0.999102
vn 0.042051 -0.000839 0.999115
vn 0.979001 -0.011408 0.203538
vn 0.011196 -0.979015 0.203480
vn 0.011196 -0.979015 0.203480
vn 0.979001 -0.011408 0.203538
vn 0.999923 -0.012387 0.000000
vn 0.012156 -0.999926 0.000000
vn -0.000830 0.042371 0.999102
vn -0.042051 0.000839 0.999115
vn -0.979000 0.011408 0.203539
vn -0.011196 0.979016 0.203478
vn -0.011196 0.979016 0.203478
vn -0.979000 0.011408 0.203539
vn -0.999923 0.012387 0.000000
vn -0.012156 0.999926 0.000000
vn -0.042051 -0.000839 0.999115
vn -0.000830 -0.042371 0.999102
vn -0.011196 -0.979015 0.203480
vn -0.979000 -0.011408 0.203540
vn -0.979000 -0.011408 0.203540
vn -0.011196 -0.979015 0.203480
vn -0.012156 -0.999926 0.000000
vn -0.999923 -0.012387 0.000000
vn 0.010152 -0.997140 0.074891
vn 0.001812 -0.256394 0.966571
vn -0.001812 -0.256395 0.966570
vn -0.010152 -0.997140 0.074891
vn 0.251718 -0.001810 0.967799
vn 0.997137 -0.010327 0.074906
vn 0.997137 0.010327 0.074906
vn 0.251718 0.001810 0.967799
vn -0.997137 -0.010327 0.074906
vn -0.251716 -0.001810 0.967800
vn -0.251716 0.001810 0.967799
vn -0.997137 0.010327 0.074906
vn -0.010152 0.997140 0.074892
vn -0.001812 0.256395 0.966570
vn 0.001812 0.256394 0.966571
vn 0.010152 0.997140 0.074892
vn 0.042051 0.000839 0.999115
vn 0.979001 0.011408 0.203538
vn 0.979001 -0.011408 0.203538
vn 0.042051 -0.000839 0.999115
vn 0.011196 0.979016 0.203478
vn 0.000830 0.042370 0.999102
vn -0.000830 0.042371 0.999102
vn -0.011196 0.979016 0.203478
vn -0.979000 0.011408 0.203539
vn -0.042051 0.000839 0.999115
vn -0.042051 -0.000839 0.999115
vn -0.979000 -0.011408 0.203540
vn 0.000830 -0.042371 0.999102
vn 0.011196 -0.979015 0.203480
vn -0.011196 -0.979015 0.203480
vn -0.000830 -0.042371 0.999102
vn 0.010152 -0.997140 0.074891
vn -0.010152 -0.997140 0.074891
vn -0.009714 -0.999953 0.000000
vn 0.009714 -0.999953 0.000000
vn 0.010152 0.997140 0.074892
vn 0.009714 0.999953 0.000000
vn -0.009714 0.999953 0.000000
vn -0.010152 0.997140 0.074892
vn 0.997137 0.010327 0.074906
vn 0.997137 -0.010327 0.074906
vn 0.999951 -0.009881 0.000000
vn 0.999951 0.009881 0.000000
vn -0.997137 0.010327 0.074906
vn -0.999951 0.009881 0.000000
vn -0.999951 -0.009881 0.000000
vn -0.997137 -0.010327 0.074906
vn 0.000830 0.042370 0.999102
vn -0.001812 -0.256395 0.966570
vn 0.001812 -0.256394 0.966571
vn -0.000830 0.042371 0.999102
vn 0.001812 0.256394 0.966571
vn -0.001812 0.256395 0.966570
vn 0.000830 -0.042371 0.999102
vn -0.000830 -0.042371 0.999102
vn 0.042051 -0.000839 0.999115
vn -0.251716 0.001810 0.967799
vn -0.251716 -0.001810 0.967800
vn 0.042051 0.000839 0.999115
vn 0.251718 -0.001810 0.967799
vn 0.251718 0.001810 0.967799
vn -0.042051 -0.000839 0.999115
vn -0.042051 0.000839 0.999115
vn -0.011196 0.979016 0.203478
vn -0.012156 0.999926 0.000000
vn 0.012156 0.999926 0.000000
vn 0.011196 0.979016 0.203478
vn -0.011196 -0.979015 0.203480
vn 0.011196 -0.979015 0.203480
vn 0.012156 -0.999926 0.000000
vn -0.012156 -0.999926 0.000000
vn 0.979001 -0.011408 0.203538
vn 0.979001 0.011408 0.203538
vn 0.999923 0.012387 0.000000
vn 0.999923 -0.012387 0.000000
vn -0.979000 -0.011408 0.203540
vn -0.999923 -0.012387 0.000000
vn -0.999923 0.012387 0.000000
vn -0.979000 0.011408 0.203539
vn 0.000000 0.000000 1.000000
vn 0.000000 0.000000 1.000000
vn 0.000000 0.000000 1.000000
vn 0.000000 0.000000 1.000000
vn 0.000000 0.000000 1.000000
vn 0.000000 0.000000 1.000000
vn 0.000000 0.000000 1.000000
vn 0.000000 0.000000 -1.000000
vn 0.000000 0.000000 -1.000000
vn 0.000000 0.000000 -1.000000
vn 0.000000 0.000000 -1.000000
vn 0.000000 0.000000 -1.000000
vn 0.000000 0.000000 -1.000000
vn 0.000000 0.000000 -1.000000
vn 0.000000 0.000000 -1.000000
vn 0.000000 0.000000 -1.000000
vn 0.000000 0.000000 -1.000000
vn 0.000000 0.000000 -1.000000
vn -1.000000 0.000000 0.000000
vn -1.000000 0.000000 0.000000
vn -1.000000 0.000000 0.000000
vn -1.000000 0.000000 0.000000
vn 0.000000 0.000000 1.000000
vn -0.000000 0.000000 1.000000
vn -0.000000 0.000000 1.000000
vn 0.000000 0.000000 1.000000
vn 0.000000 0.000000 1.000000
vn 0.000000 0.000000 1.000000
vn 0.000001 0.000000 1.000000
vn 0.000001 0.000000 1.000000
vn -0.237547 0.885425 -0.399492
vn 0.244239 0.880047 -0.407264
vn 0.304379 0.863947 -0.401185
vn -0.313219 0.866291 -0.389144
vn -0.998547 -0.037764 0.038454
vn -0.995538 0.092015 -0.020904
vn -0.999315 0.036729 0.004436
vn -0.993896 -0.090836 0.062604
vn 0.313243 -0.866283 0.389143
vn -0.304399 -0.863940 0.401184
vn -0.244258 -0.880042 0.407264
vn 0.237560 -0.885421 0.399493
vn 0.993896 0.090834 -0.062602
vn 0.999316 -0.036726 -0.004437
vn 0.995539 -0.092011 0.020903
vn 0.998547 0.037762 -0.038453
vn 0.993896 0.090834 -0.062602
vn 0.998547 0.037762 -0.038453
vn 0.304379 0.863947 -0.401185
vn 0.244239 0.880047 -0.407264
vn -0.999315 0.036729 0.004436
vn -0.995538 0.092015 -0.020904
vn -0.237547 0.885425 -0.399492
vn -0.313219 0.866291 -0.389144
vn 0.313243 -0.866283 0.389143
vn 0.237560 -0.885421 0.399493
vn 0.995539 -0.092011 0.020903
vn 0.999316 -0.036726 -0.004437
vn -0.244258 -0.880042 0.407264
vn -0.304399 -0.863940 0.401184
vn -0.998547 -0.037764 0.038454
vn -0.993896 -0.090836 0.062604
s off
g UpperDeck_L
usemtl Boat_large_mdlSG2
f 3/1/1 4/2/2 1/3/3
f 1/3/4 4/2/5 5/4/6
usemtl Boat_large_mdlSG3
f 5/5/7 8/6/8 7/7/9 6/8/10
s 1
usemtl Boat_large_mdlSG2
f 4/2/11 2/11/12 5/4/13
f 9/9/14 8/10/15 2/11/12
f 8/10/15 5/4/13 2/11/12
s off
f 1/12/16 5/13/17 6/14/18 10/15/19
usemtl Boat_large_mdlSG
f 12/16/20 13/17/21 16/18/22 15/19/23
f 17/20/24 16/21/25 13/22/26 14/23/27
f 14/24/28 11/25/29 18/26/30 17/27/31
f 11/28/32 12/29/33 15/30/34 18/31/35
usemtl Boat_large_mdlSG1
f 24/32/36 23/33/37 22/34/38 20/35/39
f 20/36/40 19/37/41 25/38/42 24/39/43
f 26/40/44 25/41/45 19/42/46 21/43/47
usemtl Boat_large_mdlSG
f 27/44/48 28/45/49 62/46/50 61/47/51
f 28/45/52 27/48/53 30/49/54 29/50/55
f 29/51/56 30/52/57 51/53/58 52/54/59
f 31/55/60 32/56/61 60/57/62 59/58/63
f 32/59/64 31/55/65 34/60/66 33/61/67
f 33/62/68 34/63/69 43/64/70 44/65/71
f 35/66/72 36/67/73 66/68/74 65/69/75
f 36/70/76 35/71/77 38/72/78 37/73/79
f 37/74/80 38/75/81 55/76/82 56/77/83
f 39/78/84 40/79/85 64/80/86 63/81/87
f 40/82/88 39/83/89 42/84/90 41/85/91
f 41/86/92 42/87/93 47/88/94 48/89/95
f 44/90/96 43/91/97 46/92/98 45/93/99
f 45/94/100 46/95/101 68/96/102 67/97/103
f 48/98/104 47/99/105 50/100/106 49/101/107
f 49/102/108 50/103/109 72/104/110 71/105/111
f 52/54/112 51/106/113 54/107/114 53/108/115
f 53/109/116 54/110/117 70/111/118 69/112/119
f 56/113/120 55/114/121 58/115/122 57/116/123
f 57/117/124 58/118/125 74/119/126 73/120/127
f 28/45/128 29/50/129 34/60/130 31/55/131
f 30/121/132 27/122/133 36/70/134 37/73/135
f 32/123/136 33/124/137 42/84/138 39/83/139
f 40/79/140 41/125/141 38/126/142 35/66/143
f 44/90/144 45/93/145 50/100/146 47/99/147
f 46/127/148 43/64/149 52/54/150 53/108/151
f 54/128/152 51/129/153 56/113/154 57/116/155
f 48/89/156 49/130/157 58/131/158 55/76/159
f 28/45/160 31/55/161 59/58/162 62/46/163
f 35/66/164 65/69/165 64/80/166 40/79/167
f 36/70/168 27/122/169 61/132/170 66/133/171
f 39/83/172 63/134/173 60/135/174 32/123/175
f 43/64/176 34/63/177 29/51/178 52/54/179
f 38/75/180 41/86/181 48/89/182 55/76/183
f 47/99/184 42/136/185 33/137/186 44/90/187
f 30/138/188 37/139/189 56/113/190 51/129/191
f 53/109/192 69/112/193 68/96/194 46/95/195
f 58/118/196 49/102/197 71/105/198 74/119/199
f 50/140/200 45/141/201 67/142/202 72/143/203
f 57/144/204 73/145/205 70/146/206 54/147/207
usemtl Boat_large_mdlSG7
f 77/148/208 75/149/209 76/150/210 78/151/211
usemtl Boat_large_mdlSG2
f 81/196/212 89/153/213 90/154/214
f 91/155/215 92/156/216 83/157/217
f 85/158/218 91/159/219 83/197/220 84/160/221
f 86/161/222 85/158/223 84/160/224 80/162/225
f 80/163/226 79/164/227 87/165/228 86/166/229
f 82/167/230 88/168/231 87/169/232 79/170/233
f 82/167/234 81/152/235 90/171/236 88/168/237
usemtl Boat_large_mdlSG
f 100/172/238 93/173/239 96/174/240 97/175/241
f 108/176/242 99/177/243 98/178/244 105/179/245
f 102/180/246 107/181/247 106/182/248 103/183/249
f 94/184/250 101/185/251 104/186/252 95/187/253
f 94/188/254 95/189/255 96/174/256 93/173/257
f 98/190/258 99/191/259 100/172/260 97/175/261
f 102/180/262 103/183/263 104/192/264 101/193/265
f 106/194/266 107/195/267 108/176/268 105/179/269
