# This file uses centimeters as units for non-parametric coordinates.

mtllib Wheel_Base.mtl
g default
v 321.414429 -40.385998 264.404419
v 321.414429 40.385998 264.404419
v 243.193359 40.385998 264.404419
v 243.193359 -40.385998 264.404419
v 286.578735 40.385998 387.646515
v 295.819031 40.385998 391.467041
v 295.819031 -40.385998 391.467041
v 286.578735 -40.385998 387.646515
v 321.414429 -40.385998 384.396667
v 314.344055 -40.385998 391.467041
v 314.344055 40.385998 391.467041
v 321.414429 40.385998 384.396667
v 247.025726 -40.385998 348.194733
v 243.193359 -40.385998 338.959320
v 243.193359 40.385998 338.959320
v 247.025726 40.385998 348.194733
v 295.311401 40.385998 392.694824
v 286.071106 40.385998 388.874298
v 286.071106 -40.385998 388.874298
v 295.311401 -40.385998 392.694824
v 315.283508 -40.385998 392.406494
v 322.353882 -40.385998 385.336121
v 322.353882 40.385998 385.336121
v 315.283508 40.385998 392.406494
v 241.966248 -40.385998 339.468536
v 245.798615 -40.385998 348.703949
v 245.798615 40.385998 348.703949
v 241.966248 40.385998 339.468536
v 290.371948 40.385998 392.363403
v 289.802307 40.385998 392.127838
v 289.802307 -40.385998 392.127838
v 290.371948 -40.385998 392.363403
v 319.718689 -40.385998 390.207214
v 320.154602 -40.385998 389.771301
v 320.154602 40.385998 389.771301
v 319.718689 40.385998 390.207214
v 242.303986 -40.385998 344.407501
v 242.540268 -40.385998 344.976898
v 242.540268 40.385998 344.976898
v 242.303986 40.385998 344.407501
v 288.512787 43.184521 393.238464
v 289.463715 43.184521 393.629242
v 289.185486 43.911488 392.953888
v 289.185486 40.385998 392.953888
v 289.463715 41.112965 393.629242
v 288.512787 41.112965 393.238464
v 322.388123 41.093033 392.922211
v 321.681091 41.093033 393.629242
v 321.681091 40.385998 392.922211
v 321.681091 43.911488 392.922211
v 321.681091 43.204453 393.629242
v 322.388123 43.204453 392.922211
v 240.676193 41.112823 345.933472
v 240.280182 41.112823 344.984924
v 240.955765 40.385998 345.259827
v 240.987213 40.385998 264.404419
v 240.280182 41.093033 264.404419
v 240.280182 43.184662 344.984924
v 240.676193 43.184662 345.933472
v 240.955765 43.911488 345.259827
v 240.280182 43.204453 264.404419
v 240.987213 43.911488 264.404419
v 321.681091 43.911488 264.404419
v 322.388123 43.204453 264.404419
v 321.681122 43.911488 344.382233
v 322.388123 43.204414 344.372162
v 322.388123 41.093071 344.372162
v 321.681122 40.385998 344.382233
v 322.388123 41.093033 264.404419
v 321.681091 40.385998 264.404419
v 288.512787 -41.112965 393.238464
v 289.463715 -41.112965 393.629242
v 289.185486 -40.385998 392.953888
v 289.185486 -43.911488 392.953888
v 289.463715 -43.184521 393.629242
v 288.512787 -43.184521 393.238464
v 322.388123 -43.204453 392.922211
v 321.681091 -43.204453 393.629242
v 321.681091 -43.911488 392.922211
v 321.681091 -40.385998 392.922211
v 321.681091 -41.093033 393.629242
v 322.388123 -41.093033 392.922211
v 240.676193 -43.184662 345.933472
v 240.280182 -43.184662 344.984924
v 240.955765 -43.911488 345.259827
v 240.987213 -43.911488 264.404419
v 240.280182 -43.204453 264.404419
v 240.280182 -41.112823 344.984924
v 240.676193 -41.112823 345.933472
v 240.955765 -40.385998 345.259827
v 240.280182 -41.093033 264.404419
v 240.987213 -40.385998 264.404419
v 321.681091 -40.385998 264.404419
v 322.388123 -41.093033 264.404419
v 321.681122 -40.385998 344.382233
v 322.388123 -41.093071 344.372162
v 322.388123 -43.204414 344.372162
v 321.681122 -43.911488 344.382233
v 322.388123 -43.204453 264.404419
v 321.681091 -43.911488 264.404419
vt 0.682456 0.818825
vt 0.682456 0.616895
vt 0.728769 0.616895
vt 0.728769 0.818825
vt 0.089322 0.455427
vt 0.089322 0.253498
vt 0.389303 0.253498
vt 0.389303 0.455427
vt 0.609438 0.340192
vt 0.609438 0.138262
vt 0.795826 0.138262
vt 0.795826 0.340192
vt 0.823410 0.838005
vt 0.823410 0.597715
vt 0.940776 0.597715
vt 0.940776 0.838005
vt 1.414869 0.771761
vt 1.413437 0.771761
vt 1.413437 0.568773
vt 1.414869 0.568773
vt 1.504091 0.780255
vt 1.502904 0.780255
vt 1.502904 0.560278
vt 1.504091 0.560278
vt 1.595616 0.562521
vt 1.597135 0.562521
vt 1.597135 0.778012
vt 1.595616 0.778012
vt 1.678701 0.789780
vt 1.678701 0.550753
vt 1.682334 0.550753
vt 1.682334 0.789780
vt 1.726384 0.775295
vt 1.726384 0.565238
vt 1.729577 0.565238
vt 1.729577 0.775295
vt 1.488266 0.780255
vt 1.488266 0.560278
vt 1.490825 0.560278
vt 1.490825 0.780255
vt 1.768419 0.779397
vt 1.768419 0.561136
vt 1.770958 0.561136
vt 1.770958 0.779397
vt 1.354633 0.561872
vt 1.354633 0.771984
vt 1.351441 0.771984
vt 1.351441 0.561872
vt 1.825481 0.565212
vt 1.825481 0.775322
vt 1.822288 0.775322
vt 1.822288 0.565212
vt 1.691962 0.550753
vt 1.691962 0.789780
vt 1.427282 0.568773
vt 1.427282 0.771761
vt 1.782943 0.561136
vt 1.782943 0.779397
vt 1.607078 0.562521
vt 1.607078 0.778012
vt 1.582439 0.778012
vt 1.582439 0.562521
vt 0.166839 1.160000
vt 0.168693 1.166871
vt -0.283276 1.166872
vt -0.281444 1.160002
vt 0.032792 1.080088
vt 0.038031 1.080009
vt 0.038031 1.099291
vt 0.032792 1.099598
vt 0.035414 1.073242
vt -0.270923 1.079902
vt -0.270923 1.073243
vt 0.168693 1.133547
vt 0.166839 1.140418
vt -0.281444 1.140418
vt -0.283276 1.133547
vt 0.035414 1.106445
vt -0.270923 1.106446
vt -0.270923 1.099787
vt 0.926984 1.288507
vt 0.926978 1.295165
vt 0.469577 1.295166
vt 0.469482 1.288507
vt -0.277588 1.099787
vt -0.277588 1.079902
vt 0.922587 1.021667
vt 0.922587 1.028332
vt 0.464844 1.028397
vt 0.464939 1.021732
vt 0.476236 1.201451
vt 0.481487 1.201418
vt 0.481487 1.220908
vt 0.476236 1.221035
vt 0.478828 1.194581
vt -0.283447 1.201263
vt -0.283447 1.194580
vt 0.478828 1.227905
vt -0.283447 1.227905
vt -0.283447 1.221221
vt -0.289307 1.028397
vt -0.289307 1.021732
vt 0.469482 1.295166
vt -0.284424 1.295166
vt -0.284424 1.288507
vt -0.289307 0.261091
vt 0.473215 0.260794
vt 0.475746 0.263282
vt 0.922885 0.715340
vt 0.926984 1.268621
vt 0.469482 1.268622
vt -0.284424 1.268622
vt 0.154470 -0.551216
vt 0.916992 -0.550920
vt 0.916992 0.209644
vt 0.162747 0.209645
vt -0.295200 -0.096559
vt 0.151940 -0.548687
vt -0.294901 0.209708
vt 0.166839 1.159999
vt 0.168693 1.166871
vt -0.283276 1.166872
vt -0.281444 1.160002
vt 0.032792 1.080088
vt 0.038031 1.080009
vt 0.038031 1.099291
vt 0.032792 1.099598
vt 0.035414 1.073242
vt -0.270923 1.079902
vt -0.270923 1.073243
vt 0.168693 1.133547
vt 0.166839 1.140418
vt -0.281444 1.140418
vt -0.283276 1.133548
vt 0.035414 1.106444
vt -0.270923 1.106446
vt -0.270923 1.099787
vt 0.926984 1.288507
vt 0.926978 1.295165
vt 0.469577 1.295166
vt 0.469482 1.288507
vt -0.277588 1.099787
vt -0.277588 1.079902
vt 0.922586 1.021667
vt 0.922587 1.028332
vt 0.464844 1.028397
vt 0.464938 1.021732
vt 0.476236 1.201453
vt 0.481487 1.201420
vt 0.481487 1.220910
vt 0.476236 1.221037
vt 0.478828 1.194583
vt -0.283447 1.201264
vt -0.283447 1.194582
vt 0.478828 1.227907
vt -0.283447 1.227906
vt -0.283447 1.221222
vt -0.289307 1.028397
vt -0.289307 1.021732
vt 0.469482 1.295166
vt -0.284424 1.295166
vt -0.284424 1.288507
vt -0.289334 0.261072
vt 0.473127 0.260733
vt 0.922869 0.715333
vt 0.926984 1.268621
vt 0.469482 1.268622
vt -0.284424 1.268622
vt 0.154559 -0.551157
vt 0.917020 -0.550901
vt 0.916992 0.209645
vt 0.162748 0.209645
vt -0.295184 -0.096551
vt -0.294901 0.209708
vt 0.162747 0.209645
vn 0.000000 0.000000 1.000000
vn 0.000000 0.000000 1.000000
vn 0.000000 0.000000 1.000000
vn 0.000000 0.000000 1.000000
vn 1.000000 0.000000 0.000000
vn 1.000000 0.000000 0.000000
vn 1.000000 0.000000 0.000000
vn 1.000000 0.000000 0.000000
vn -1.000000 0.000000 0.000000
vn -1.000000 0.000000 0.000000
vn -1.000000 0.000000 0.000000
vn -1.000000 0.000000 0.000000
vn -0.706200 0.000000 0.708012
vn -0.706200 0.000000 0.708012
vn -0.706200 0.000000 0.708012
vn -0.706200 0.000000 0.708012
vn -0.102377 0.000000 0.994746
vn -0.630012 0.000000 0.776586
vn -0.630012 0.000000 0.776586
vn -0.102377 0.000000 0.994746
vn 0.475821 0.000000 0.879542
vn 0.879543 0.000000 0.475820
vn 0.879543 0.000000 0.475820
vn 0.475821 0.000000 0.879542
vn -0.994614 0.000000 0.103649
vn -0.775782 0.000000 0.631001
vn -0.775782 0.000000 0.631001
vn -0.994614 0.000000 0.103649
vn -0.924123 0.000000 -0.382096
vn -0.924123 0.000000 -0.382096
vn -0.924123 0.000000 -0.382096
vn -0.924123 0.000000 -0.382096
vn 0.924129 0.000000 0.382080
vn 0.924129 0.000000 0.382080
vn 0.924129 0.000000 0.382080
vn 0.924129 0.000000 0.382080
vn 0.707110 0.000000 -0.707104
vn 0.707110 0.000000 -0.707104
vn 0.707110 0.000000 -0.707104
vn 0.707110 0.000000 -0.707104
vn -0.707110 0.000000 0.707104
vn -0.707110 0.000000 0.707104
vn -0.707110 0.000000 0.707104
vn -0.707110 0.000000 0.707104
vn 0.383278 0.000000 0.923633
vn 0.383278 0.000000 0.923633
vn 0.383278 0.000000 0.923633
vn 0.383278 0.000000 0.923633
vn -0.383278 0.000000 -0.923633
vn -0.383278 0.000000 -0.923633
vn -0.383278 0.000000 -0.923633
vn -0.383278 0.000000 -0.923633
vn -0.657215 0.000000 0.753703
vn -0.657215 0.000000 0.753703
vn -0.630012 0.000000 0.776586
vn -0.630012 0.000000 0.776586
vn -0.066946 0.000000 0.997757
vn -0.066946 0.000000 0.997757
vn -0.102377 0.000000 0.994746
vn -0.102377 0.000000 0.994746
vn 0.895901 0.000000 0.444253
vn 0.895901 0.000000 0.444253
vn 0.879543 0.000000 0.475820
vn 0.879543 0.000000 0.475820
vn 0.444252 0.000000 0.895902
vn 0.444252 0.000000 0.895902
vn 0.475821 0.000000 0.879542
vn 0.475821 0.000000 0.879542
vn -0.752859 0.000000 0.658182
vn -0.752859 0.000000 0.658182
vn -0.775782 0.000000 0.631001
vn -0.775782 0.000000 0.631001
vn -0.997670 0.000000 0.068227
vn -0.997670 0.000000 0.068227
vn -0.994614 0.000000 0.103649
vn -0.994614 0.000000 0.103649
vn -0.675751 0.260468 0.689577
vn -0.006866 0.999909 0.011577
vn -0.009708 0.999946 0.003669
vn -0.682082 0.260180 0.683426
vn -0.008956 0.263283 0.964677
vn -0.675751 0.260468 0.689577
vn -0.675752 -0.260468 0.689577
vn -0.008956 -0.263283 0.964677
vn -0.006866 0.999909 0.011577
vn -0.008956 0.263283 0.964677
vn 0.017524 0.237374 0.971260
vn 0.012347 0.999889 0.008361
vn -0.006865 -0.999909 0.011577
vn -0.675752 -0.260468 0.689577
vn -0.682082 -0.260180 0.683425
vn -0.009708 -0.999946 0.003669
vn -0.008956 -0.263283 0.964677
vn -0.006865 -0.999909 0.011577
vn 0.012347 -0.999889 0.008361
vn 0.017524 -0.237374 0.971260
vn 0.970298 -0.241635 0.011626
vn 0.012347 -0.999889 0.008361
vn 0.009711 -0.999953 -0.000000
vn 0.969880 -0.243584 0.000000
vn 0.017524 -0.237374 0.971260
vn 0.970298 -0.241635 0.011626
vn 0.970298 0.241635 0.011626
vn 0.017524 0.237374 0.971260
vn 0.012347 0.999889 0.008361
vn 0.970298 0.241635 0.011626
vn 0.969880 0.243584 -0.000000
vn 0.009711 0.999953 -0.000000
vn -0.964236 -0.265018 0.003683
vn -0.682082 -0.260180 0.683425
vn -0.682082 0.260180 0.683426
vn -0.964236 0.265018 0.003683
vn -0.009708 -0.999946 0.003669
vn -0.964236 -0.265018 0.003683
vn -0.970934 -0.239347 -0.000019
vn -0.008836 -0.999961 -0.000001
vn -0.964236 0.265018 0.003683
vn -0.009708 0.999946 0.003669
vn -0.008836 0.999961 -0.000001
vn -0.970934 0.239347 -0.000019
vn 0.969945 0.243326 0.000000
vn 0.008637 0.999963 0.000000
vn 0.009711 0.999953 -0.000000
vn 0.969880 0.243584 -0.000000
vn 0.969880 -0.243584 0.000000
vn 0.009711 -0.999953 -0.000000
vn 0.008637 -0.999963 0.000000
vn 0.969945 -0.243326 0.000000
vn -0.008956 0.263283 0.964677
vn -0.008956 -0.263283 0.964677
vn 0.017524 -0.237374 0.971260
vn 0.017524 0.237374 0.971260
vn -0.964236 0.265018 0.003683
vn -0.970934 0.239347 -0.000019
vn -0.970934 -0.239347 -0.000019
vn -0.964236 -0.265018 0.003683
vn -0.682082 -0.260180 0.683425
vn -0.675752 -0.260468 0.689577
vn -0.675751 0.260468 0.689577
vn -0.682082 0.260180 0.683426
vn 0.009711 0.999953 -0.000000
vn 0.008637 0.999963 0.000000
vn -0.008836 0.999961 -0.000001
vn -0.009708 0.999946 0.003669
vn 0.009711 0.999953 -0.000000
vn -0.009708 0.999946 0.003669
vn -0.006866 0.999909 0.011577
vn 0.012347 0.999889 0.008361
vn 0.970298 0.241635 0.011626
vn 0.970298 -0.241635 0.011626
vn 0.969880 -0.243584 0.000000
vn 0.969880 0.243584 -0.000000
vn 0.969880 0.243584 -0.000000
vn 0.969880 -0.243584 0.000000
vn 0.969945 -0.243326 0.000000
vn 0.969945 0.243326 0.000000
vn -0.009708 -0.999946 0.003669
vn -0.008836 -0.999961 -0.000001
vn 0.008637 -0.999963 0.000000
vn 0.009711 -0.999953 -0.000000
vn -0.006865 -0.999909 0.011577
vn -0.009708 -0.999946 0.003669
vn 0.009711 -0.999953 -0.000000
vn 0.012347 -0.999889 0.008361
vn -0.675751 0.260468 0.689577
vn -0.008956 0.263283 0.964677
vn -0.006866 0.999909 0.011577
vn -0.006865 -0.999909 0.011577
vn -0.008956 -0.263283 0.964677
vn -0.675752 -0.260468 0.689577
vn 0.970298 -0.241635 0.011626
vn 0.017524 -0.237374 0.971260
vn 0.012347 -0.999889 0.008361
vn 0.012347 0.999889 0.008361
vn 0.017524 0.237374 0.971260
vn 0.970298 0.241635 0.011626
vn -0.682082 -0.260180 0.683425
vn -0.964236 -0.265018 0.003683
vn -0.009708 -0.999946 0.003669
vn -0.964236 0.265018 0.003683
vn -0.682082 0.260180 0.683426
vn -0.009708 0.999946 0.003669
vn -0.675752 0.260468 0.689577
vn -0.006866 0.999909 0.011577
vn -0.009708 0.999946 0.003669
vn -0.682082 0.260180 0.683425
vn -0.008956 0.263283 0.964677
vn -0.675752 0.260468 0.689577
vn -0.675750 -0.260469 0.689578
vn -0.008956 -0.263283 0.964677
vn -0.006866 0.999909 0.011577
vn -0.008956 0.263283 0.964677
vn 0.017524 0.237374 0.971260
vn 0.012347 0.999889 0.008361
vn -0.006865 -0.999909 0.011577
vn -0.675750 -0.260469 0.689578
vn -0.682081 -0.260181 0.683426
vn -0.009708 -0.999946 0.003669
vn -0.008956 -0.263283 0.964677
vn -0.006865 -0.999909 0.011577
vn 0.012347 -0.999889 0.008361
vn 0.017524 -0.237374 0.971260
vn 0.970298 -0.241635 0.011626
vn 0.012347 -0.999889 0.008361
vn 0.009711 -0.999953 -0.000000
vn 0.969880 -0.243584 0.000000
vn 0.017524 -0.237374 0.971260
vn 0.970298 -0.241635 0.011626
vn 0.970297 0.241635 0.011626
vn 0.017524 0.237374 0.971260
vn 0.012347 0.999889 0.008361
vn 0.970297 0.241635 0.011626
vn 0.969880 0.243584 -0.000000
vn 0.009711 0.999953 -0.000000
vn -0.964236 -0.265018 0.003683
vn -0.682081 -0.260181 0.683426
vn -0.682082 0.260180 0.683425
vn -0.964236 0.265018 0.003683
vn -0.009708 -0.999946 0.003669
vn -0.964236 -0.265018 0.003683
vn -0.970934 -0.239347 -0.000019
vn -0.008836 -0.999961 -0.000001
vn -0.964236 0.265018 0.003683
vn -0.009708 0.999946 0.003669
vn -0.008836 0.999961 -0.000001
vn -0.970934 0.239347 -0.000019
vn 0.969945 0.243326 0.000000
vn 0.008637 0.999963 0.000000
vn 0.009711 0.999953 -0.000000
vn 0.969880 0.243584 -0.000000
vn 0.969880 -0.243584 0.000000
vn 0.009711 -0.999953 -0.000000
vn 0.008637 -0.999963 0.000000
vn 0.969945 -0.243326 0.000000
vn -0.008956 0.263283 0.964677
vn -0.008956 -0.263283 0.964677
vn 0.017524 -0.237374 0.971260
vn 0.017524 0.237374 0.971260
vn -0.964236 0.265018 0.003683
vn -0.970934 0.239347 -0.000019
vn -0.970934 -0.239347 -0.000019
vn -0.964236 -0.265018 0.003683
vn -0.682081 -0.260181 0.683426
vn -0.675750 -0.260469 0.689578
vn -0.675752 0.260468 0.689577
vn -0.682082 0.260180 0.683425
vn 0.009711 0.999953 -0.000000
vn 0.008637 0.999963 0.000000
vn -0.008836 0.999961 -0.000001
vn -0.009708 0.999946 0.003669
vn 0.009711 0.999953 -0.000000
vn -0.009708 0.999946 0.003669
vn -0.006866 0.999909 0.011577
vn 0.012347 0.999889 0.008361
vn 0.970297 0.241635 0.011626
vn 0.970298 -0.241635 0.011626
vn 0.969880 -0.243584 0.000000
vn 0.969880 0.243584 -0.000000
vn 0.969880 0.243584 -0.000000
vn 0.969880 -0.243584 0.000000
vn 0.969945 -0.243326 0.000000
vn 0.969945 0.243326 0.000000
vn -0.009708 -0.999946 0.003669
vn -0.008836 -0.999961 -0.000001
vn 0.008637 -0.999963 0.000000
vn 0.009711 -0.999953 -0.000000
vn -0.006865 -0.999909 0.011577
vn -0.009708 -0.999946 0.003669
vn 0.009711 -0.999953 -0.000000
vn 0.012347 -0.999889 0.008361
vn -0.675752 0.260468 0.689577
vn -0.008956 0.263283 0.964677
vn -0.006866 0.999909 0.011577
vn -0.006865 -0.999909 0.011577
vn -0.008956 -0.263283 0.964677
vn -0.675750 -0.260469 0.689578
vn 0.970298 -0.241635 0.011626
vn 0.017524 -0.237374 0.971260
vn 0.012347 -0.999889 0.008361
vn 0.012347 0.999889 0.008361
vn 0.017524 0.237374 0.971260
vn 0.970297 0.241635 0.011626
vn -0.682081 -0.260181 0.683426
vn -0.964236 -0.265018 0.003683
vn -0.009708 -0.999946 0.003669
vn -0.964236 0.265018 0.003683
vn -0.682082 0.260180 0.683425
vn -0.009708 0.999946 0.003669
s off
g Wheel_Base
usemtl Boat_large_mdlSG2
f 6/1/1 7/2/2 10/3/3 11/4/4
f 12/5/5 9/6/6 1/7/7 2/8/8
f 3/9/9 4/10/10 14/11/11 15/12/12
f 16/13/13 13/14/14 8/15/15 5/16/16
usemtl Boat_large_mdlSG5
f 29/17/17 30/18/18 31/19/19 32/20/20
f 33/21/21 34/22/22 35/23/23 36/24/24
f 37/25/25 38/26/26 39/27/27 40/28/28
f 5/29/29 8/30/30 19/31/31 18/32/32
f 7/33/33 6/34/34 17/35/35 20/36/36
f 9/37/37 12/38/38 23/39/39 22/40/40
f 11/41/41 10/42/42 21/43/43 24/44/44
usemtl Boat_large_mdlSG1
f 13/45/45 16/46/46 27/47/47 26/48/48
usemtl Boat_large_mdlSG5
f 15/49/49 14/50/50 25/51/51 28/52/52
f 18/32/53 19/31/54 31/53/55 30/54/56
f 20/55/57 17/56/58 29/17/59 32/20/60
f 22/40/61 23/39/62 35/23/63 34/22/64
f 24/44/65 21/43/66 33/57/67 36/58/68
f 26/59/69 27/60/70 39/27/71 38/26/72
f 28/61/73 25/62/74 37/25/75 40/28/76
usemtl Boat_large_mdlSG
f 41/63/77 43/64/78 60/65/79 59/66/80
f 42/67/81 41/68/82 46/69/83 45/70/84
f 43/71/85 42/67/86 51/72/87 50/73/88
f 44/74/89 46/75/90 53/76/91 55/77/92
f 45/70/93 44/78/94 49/79/95 48/80/96
f 47/81/97 49/82/98 68/83/99 67/84/100
f 48/80/101 47/85/102 52/86/103 51/72/104
f 50/87/105 52/88/106 66/89/107 65/90/108
f 54/91/109 53/92/110 59/93/111 58/94/112
f 55/95/113 54/91/114 57/96/115 56/97/116
f 58/94/117 60/98/118 62/99/119 61/100/120
f 64/101/121 63/102/122 65/90/123 66/89/124
f 67/84/125 68/103/126 70/104/127 69/105/128
f 42/67/129 45/70/130 48/80/131 51/72/132
f 58/94/133 61/100/134 57/96/135 54/91/136
f 53/76/137 46/75/138 41/63/139 59/66/140
f 65/90/141 63/102/142 62/106/143 60/107/144
f 65/90/145 60/108/146 43/109/147 50/87/148
f 52/110/149 47/81/150 67/84/151 66/111/152
f 66/111/153 67/84/154 69/105/155 64/112/156
f 55/113/157 56/114/158 70/115/159 68/175/160
f 44/117/161 55/118/162 68/116/163 49/119/164
f 41/68/165 42/67/166 43/71/167
f 44/78/168 45/70/169 46/69/170
f 47/85/171 48/80/172 49/79/173
f 50/73/174 51/72/175 52/86/176
f 53/92/177 54/91/178 55/95/179
f 58/94/180 59/93/181 60/98/182
f 71/120/183 73/121/184 90/122/185 89/123/186
f 72/124/187 71/125/188 76/126/189 75/127/190
f 73/128/191 72/124/192 81/129/193 80/130/194
f 74/131/195 76/132/196 83/133/197 85/134/198
f 75/127/199 74/135/200 79/136/201 78/137/202
f 77/138/203 79/139/204 98/140/205 97/141/206
f 78/137/207 77/142/208 82/143/209 81/129/210
f 80/144/211 82/145/212 96/146/213 95/147/214
f 84/148/215 83/149/216 89/150/217 88/151/218
f 85/152/219 84/148/220 87/153/221 86/154/222
f 88/151/223 90/155/224 92/156/225 91/157/226
f 94/158/227 93/159/228 95/147/229 96/146/230
f 97/141/231 98/160/232 100/161/233 99/162/234
f 72/124/235 75/127/236 78/137/237 81/129/238
f 88/151/239 91/157/240 87/153/241 84/148/242
f 83/133/243 76/132/244 71/120/245 89/123/246
f 95/147/247 93/159/248 92/163/249 90/164/250
f 95/147/251 90/164/252 73/165/253 80/144/254
f 82/166/255 77/138/256 97/141/257 96/167/258
f 96/167/259 97/141/260 99/162/261 94/168/262
f 85/169/263 86/170/264 100/171/265 98/172/266
f 74/173/267 85/169/268 98/172/269 79/174/270
f 71/125/271 72/124/272 73/128/273
f 74/135/274 75/127/275 76/126/276
f 77/142/277 78/137/278 79/136/279
f 80/130/280 81/129/281 82/143/282
f 83/149/283 84/148/284 85/152/285
f 88/151/286 89/150/287 90/155/288
