# Blender v2.80 (sub 75) OBJ File: 'whale.blend'
# www.blender.org
mtllib whale.mtl
o Cube
v 5.386820 -0.542245 -1.648486
v 5.386820 -0.542245 1.610340
v -4.547602 -1.000000 1.000000
v -4.547602 -1.000000 -1.000000
v 5.386821 0.427806 -1.648486
v 5.386820 0.427806 1.610341
v -4.547603 1.000000 1.000000
v -4.547602 1.000000 -1.000000
v 4.871846 -0.542245 0.000000
v 0.000000 -1.820145 -2.258827
v 5.386821 0.000000 -1.648486
v 0.000000 -1.820145 2.544924
v 5.386820 0.000000 1.610340
v -4.547602 -1.000000 -0.000000
v -4.547603 0.000000 1.000000
v -4.547602 0.000000 -1.000000
v 4.871846 0.427806 0.000001
v 0.000000 2.506777 -2.258826
v -0.000001 2.506777 2.544924
v -4.547602 1.000000 -0.000000
v 0.000000 0.000000 -2.847271
v -4.547602 0.000000 -0.000000
v -0.000000 0.000000 3.226253
v 4.871846 0.000000 0.000000
v -0.000000 2.983056 0.000000
v 0.000000 -2.422780 -0.000000
v 5.386820 -0.542245 1.110340
v -3.151165 -1.820145 -2.258827
v 5.386821 0.213903 -1.648486
v -3.151165 -1.820145 2.544924
v 5.386820 0.213903 1.610341
v -4.547602 -1.000000 -0.500000
v -4.547603 0.500000 1.000000
v -4.547602 0.500000 -1.000000
v 5.386820 0.427806 1.110341
v -3.151165 2.506777 -2.258826
v -3.151165 2.506777 2.544924
v -4.547602 1.000000 -0.500000
v 5.386820 -0.542245 -1.148486
v 3.551701 -0.542245 -1.000000
v 5.386820 -0.252049 -1.648486
v 3.551701 -0.542245 1.000000
v 5.386820 -0.252049 1.610340
v -4.547602 -1.000000 0.500000
v -3.685302 -0.500000 1.000000
v -3.685301 -0.500000 -1.000000
v 5.386821 0.427806 -1.148486
v 3.551702 0.427806 -1.000000
v 3.551701 0.427806 1.000000
v -4.547603 1.000000 0.500000
v -3.151165 0.000000 -2.847271
v 3.551701 0.000000 -1.000000
v 0.000000 1.358291 -2.847271
v 0.000000 -0.824243 -2.847271
v -4.547602 0.000000 -0.500000
v -4.547602 0.000000 0.500000
v -3.685302 -0.500000 -0.000000
v -4.547602 0.500000 -0.000000
v -3.151165 0.000000 3.226253
v 3.551701 0.000000 1.000000
v -0.000000 -0.824243 3.226253
v -0.000000 1.358291 3.226253
v 5.386820 0.000000 1.110340
v 5.386820 0.000000 -1.148486
v 4.871846 -0.252049 0.000000
v 4.871846 0.213903 0.000000
v -0.000000 2.983056 1.663461
v 0.000000 2.983056 -1.396437
v 3.551701 0.427806 0.000000
v -3.151165 2.983056 0.000000
v -3.151165 -2.422780 -0.000000
v 3.551701 -0.542245 -0.000000
v 0.000000 -2.422780 -1.396437
v 0.000000 -2.422780 1.663461
v 3.551701 -0.542245 0.500000
v 3.551701 -0.542245 -0.500000
v -3.151165 -2.422780 -1.396437
v -3.151165 2.983056 -1.396437
v 3.551701 0.427806 -0.500000
v 3.551701 0.427806 0.500000
v 5.386820 0.213903 -1.148486
v 5.386820 -0.252049 -1.148486
v 5.386820 -0.252049 1.110340
v 3.551701 0.213903 1.000000
v 3.551701 -0.252049 1.000000
v -3.151165 -0.824243 3.226253
v -4.547602 0.500000 0.500000
v -3.685302 -0.500000 0.500000
v -3.685301 -0.500000 -0.500000
v 3.551701 -0.252049 -1.000000
v 3.551701 0.213903 -1.000000
v -3.151165 1.358291 -2.847271
v -3.151165 -0.824243 -2.847271
v -4.547602 0.500000 -0.500000
v -3.151165 1.358291 3.226253
v 5.386820 0.213903 1.110341
v -3.151165 2.983056 1.663461
v -3.151165 -2.422780 1.663461
vn -0.7471 -0.6093 0.2658
vn -0.8316 0.5250 0.1810
vn 1.0000 0.0000 0.0000
vn -0.8437 0.2051 0.4962
vn -1.0000 -0.0000 0.0000
vn -0.7870 0.2282 -0.5732
vn -0.7977 0.0000 -0.6030
vn 0.4614 0.0000 -0.8872
vn 0.4515 -0.3712 -0.8114
vn -0.5016 -0.8651 -0.0000
vn -0.7973 -0.5192 0.3079
vn 0.5311 -0.0000 0.8473
vn 0.5611 0.3702 0.7404
vn 0.9125 0.0000 0.4091
vn 0.5954 0.7596 0.2619
vn 0.5840 0.8117 0.0000
vn -0.8176 0.5758 0.0000
vn -0.7137 -0.7005 -0.0000
vn 0.4679 -0.8838 0.0000
vn 0.4886 -0.7997 0.3489
vn 0.0000 -1.0000 0.0000
vn 0.4679 -0.8083 -0.3575
vn -0.7230 -0.6318 -0.2795
vn 0.0000 -0.8197 -0.5728
vn 0.0000 1.0000 -0.0000
vn 0.0000 0.8754 -0.4834
vn -0.8203 0.5399 -0.1887
vn 0.5821 0.7675 -0.2683
vn 0.9072 0.0000 -0.4207
vn -0.3156 -0.0000 0.9489
vn 0.5088 -0.4030 0.7607
vn -0.8290 0.2500 0.5003
vn 0.0000 -0.5646 0.8253
vn 0.0000 0.0000 1.0000
vn -0.5016 0.8651 0.0000
vn -0.3332 0.0000 -0.9429
vn 0.5026 0.3428 -0.7937
vn -0.7997 0.2018 -0.5654
vn 0.0000 0.4560 -0.8900
vn 0.0000 0.0000 -1.0000
vn -0.7807 -0.5084 -0.3633
vn 0.0000 -0.5087 -0.8609
vn -0.8471 -0.0000 0.5314
vn 0.0000 0.5102 0.8600
vn 0.0000 0.8798 0.4754
vn -0.0000 -0.8255 0.5644
usemtl Material
s off
f 98//1 30//1 3//1 44//1
f 97//2 50//2 7//2 37//2
f 96//3 35//3 6//3 31//3
f 95//4 37//4 7//4 33//4
f 94//5 38//5 8//5 34//5
f 93//6 28//6 4//6 46//6
f 92//7 51//7 16//7 34//7
f 91//8 52//8 21//8 53//8
f 90//9 40//9 10//9 54//9
f 89//10 55//10 16//10 46//10
f 88//10 56//10 22//10 57//10
f 87//5 50//5 20//5 58//5
f 86//11 59//11 15//11 45//11
f 85//12 60//12 23//12 61//12
f 84//13 49//13 19//13 62//13
f 83//3 63//3 13//3 43//3
f 82//14 64//14 24//14 65//14
f 81//14 47//14 17//14 66//14
f 80//15 67//15 19//15 49//15
f 79//16 68//16 25//16 69//16
f 78//17 38//17 20//17 70//17
f 77//18 71//18 14//18 32//18
f 76//19 72//19 26//19 73//19
f 75//20 42//20 12//20 74//20
f 72//19 75//19 74//19 26//19
f 9//21 27//21 75//21 72//21
f 27//21 2//21 42//21 75//21
f 40//22 76//22 73//22 10//22
f 1//21 39//21 76//21 40//21
f 39//21 9//21 72//21 76//21
f 28//23 77//23 32//23 4//23
f 10//24 73//24 77//24 28//24
f 73//21 26//21 71//21 77//21
f 68//25 78//25 70//25 25//25
f 18//26 36//26 78//26 68//26
f 36//27 8//27 38//27 78//27
f 47//25 79//25 69//25 17//25
f 5//25 48//25 79//25 47//25
f 48//28 18//28 68//28 79//28
f 35//25 80//25 49//25 6//25
f 17//25 69//25 80//25 35//25
f 69//16 25//16 67//16 80//16
f 64//14 81//14 66//14 24//14
f 11//3 29//3 81//3 64//3
f 29//3 5//3 47//3 81//3
f 39//14 82//14 65//14 9//14
f 1//3 41//3 82//3 39//3
f 41//3 11//3 64//3 82//3
f 27//3 83//3 43//3 2//3
f 9//29 65//29 83//29 27//29
f 65//29 24//29 63//29 83//29
f 60//12 84//12 62//12 23//12
f 13//30 31//30 84//30 60//30
f 31//30 6//30 49//30 84//30
f 42//31 85//31 61//31 12//31
f 2//30 43//30 85//30 42//30
f 43//30 13//30 60//30 85//30
f 30//32 86//32 45//32 3//32
f 12//33 61//33 86//33 30//33
f 61//34 23//34 59//34 86//34
f 56//5 87//5 58//5 22//5
f 15//5 33//5 87//5 56//5
f 33//5 7//5 50//5 87//5
f 44//35 88//35 57//35 14//35
f 3//35 45//35 88//35 44//35
f 45//10 15//10 56//10 88//10
f 32//35 89//35 46//35 4//35
f 14//35 57//35 89//35 32//35
f 57//10 22//10 55//10 89//10
f 52//8 90//8 54//8 21//8
f 11//36 41//36 90//36 52//36
f 41//36 1//36 40//36 90//36
f 48//37 91//37 53//37 18//37
f 5//36 29//36 91//36 48//36
f 29//36 11//36 52//36 91//36
f 36//38 92//38 34//38 8//38
f 18//39 53//39 92//39 36//39
f 53//40 21//40 51//40 92//40
f 51//41 93//41 46//41 16//41
f 21//40 54//40 93//40 51//40
f 54//42 10//42 28//42 93//42
f 55//5 94//5 34//5 16//5
f 22//5 58//5 94//5 55//5
f 58//5 20//5 38//5 94//5
f 59//43 95//43 33//43 15//43
f 23//34 62//34 95//34 59//34
f 62//44 19//44 37//44 95//44
f 63//3 96//3 31//3 13//3
f 24//29 66//29 96//29 63//29
f 66//29 17//29 35//29 96//29
f 67//45 97//45 37//45 19//45
f 25//25 70//25 97//25 67//25
f 70//17 20//17 50//17 97//17
f 71//18 98//18 44//18 14//18
f 26//21 74//21 98//21 71//21
f 74//46 12//46 30//46 98//46
